<mxfile host="app.diagrams.net" modified="2024-07-29T18:01:10.245Z" agent="Mozilla/5.0 (Windows NT 10.0; Win64; x64) AppleWebKit/537.36 (KHTML, like Gecko) Chrome/127.0.0.0 Safari/537.36 Edg/127.0.0.0" etag="WSWpChsZN7Y6gJQdy6aZ" version="24.7.2" type="github">
  <diagram name="Page-1" id="vQdbHFNoU_bbajdT1i9J">
    <mxGraphModel dx="1811" dy="559" grid="0" gridSize="10" guides="1" tooltips="1" connect="1" arrows="1" fold="1" page="0" pageScale="1" pageWidth="850" pageHeight="1100" math="0" shadow="0">
      <root>
        <mxCell id="0" />
        <mxCell id="1" parent="0" />
        <mxCell id="1yy5hDjs8YzAuO8riWnv-8" value="" style="rounded=0;whiteSpace=wrap;html=1;" vertex="1" parent="1">
          <mxGeometry x="-607" y="171" width="242" height="435" as="geometry" />
        </mxCell>
        <mxCell id="1yy5hDjs8YzAuO8riWnv-1" value="" style="shape=image;verticalLabelPosition=bottom;labelBackgroundColor=default;verticalAlign=top;aspect=fixed;imageAspect=0;image=data:image/png,iVBORw0KGgoAAAANSUhEUgAAA0AAAAQSCAYAAACGgpowAAAAAXNSR0IArs4c6QAAAARnQU1BAACxjwv8YQUAAAAJcEhZcwAAFxEAABcRAcom8z8AAP+lSURBVHhe7N0FWFXZGgZgELFAVOzuGLu7uzvG1rE7x5yxuzvG7o6xu7sdu1sRUQSxEPju/hcbPHAO5TU333uf/Vzn7MOJfWp9e631LysQERERERGFEwxAREREREQUbjAAERERERFRuMEARPSLe/ToEXbu3Il9+/Zx48aNGzdu3LhxM9l2796NU6dOwcfHR285MQAR/fKWL1+OZMmSIXny5EiaNCk3bty4cePGjRs3k61MmTLw9vbWW04MQES/vBkzZsDKyoobN27cuHHjxo2bhS116tTw8vLSW04MQES/vH/++Ud9uDNkyIAFCxZg//793Lhx48aNGzdu4X7bvHkzypcvj4wZM+LTp096y4kBiOiX5xeA8ufPj3v37umXEhEREYVv0uvTrl07/PbbbwxAREbiF4Dy5MmD//77T7+UiIiIKHx7+fIl/vjjDwYgIqNhACIiIiIyxwBEZFAMQERERETmGICIDIoBiIiIiMgcAxCRQTEAEREREZljACIyKAYgIiIiInMMQEQGxQBEREREZI4BiMigGICIiIiIzDEAERkUAxARERGROQYgIoNiACIiIiIyxwBEZFAMQERERETmGICIDIoBiIiIiMgcAxCRQTEAEREREZljACIyKAYgIiIiInMMQEQGxQBEREREZI4BiMigGICIiIiIzDEAERkUAxARERGROQYgIoNiACIiIiIyxwBEZFAMQERERETmGICIDIoBiIiIiMgcAxCRQTEAEREREZljACIyKAYgIiIiInMMQEQGxQBEREREZI4BiMigGICIiIiIzDEAERkUAxARERGROQYgIoNiACIiIiIyxwBEZFAMQERERETmGICIDIoBiIiIiMgcAxCRQTEAEREREZljACIyKAYgIiIiInMMQEQGxQBEREREZI4BiMigGICIiIiIzDEAERkUAxARERGROQYgIoNiACIiIiIyxwBEZFAMQERERETmGICIDIoBiIiIiMgcAxCRQTEAEREREZljACIyKAYgIiIiInMMQEQGxQBEREREZI4BiMigGICIiIiIzDEAERnUtwpAnh6v4fLsGZ6p7QVc3T/qe0Lg8wGvnzvpf/cML99+gpd2sbfHCzg9e4Kn6jJPePteOwTe+PBau52nT/DkyXO4e+oXm/J8C7eXctt+j1XbnJ7jhesbfLB0J94f8c7txefrhmV77ob3n3y0G/mEt69cAt5niJsTnF+4w/8o+njD843f436Kp0+D2bS/ff7iFd58kPu2RLutd67qtp6/cMU7OeB+tPt5/9opjI9Vu51X7nhvejumPr1Tx/y56d84OcNFO+ZB/s2X0N5LHq4ueO70zORYaK9tcI/Nj6cHXruYPL4Qt+d47vYBPkEdYvHJA69efH5vh357DudX79R73sf7HVz1y121FyrEz4HXO7i/kvt8jlfu79VnyZcPPr13N/mMhnZ7iTcfP2l/HTIfT+2+X2h/4/QCLz0sffgC+6hd/7m6H5c3H6E+KrqPb1zxQt3/C7i9+9wICYr3p7d4JdfXPsuv3/uYPF7f+wjL+/nFqzf4GOwT9tS+E17C+XnA95nzSzdoX1XB0z4Lb1763o//3waxPXsunxGPEB5LIN7v8ea172ft821pn08XV7h/wYfN+8MbuLrIa/T5tp49177f33wI+r3o/Qkf3Hxf1zBv2nfeu3dvtc+xs+X9IWxOLzzg6S0HLOyvu3xmXFzfat/Wvny8PsJDf62cnF9//i4Oko/2vLX3hdzWKw/tu1+/OKx83uGV01Pt++UjvIJ77b2177vX2v2Zft9pr4+T9t3vFuBL3aDkN9HdGU+eOcMtNF83ocQARGRQ3yYAeePc9A4oHycWYsWSLStqd98AJ31v0LRgcHMufk+TWP+7WKg1+yoea7+srzd1QaWM2mUxYqJI1yU4/irkVsD7O7sxpqojYsSMgRR5W2PZfdMGo3Zfzy9h+/QeqFswPeJHt0O0aNHUZhcnKTKXa4mhy07ghvNb7QdU/xPhegRLu+b2v+7nzQ72DjG1xxwTMWNEh53Zfm1L3wNrL7lpN3IH8xqWQGrt+cV0iA57S9c12+Lit4KDccT3UQAfXuDi+GJImUA7JjEd4BDdHvaWNns72MV0RIJMxdFs+FqcePgenmaH7hlOLW6DZNrjSZ2/OZY/0S/W+Lx1xtbOqZFCXssY9pafl4UtXZ0BWPtIvxE/Pl549+wy9sz6E3ULpEPiGCZ/EysFspT6A4OWHsDtp2+0JuX/wxNvX9zAqbXD0L5MFiSJp72m6lhojz9WMmQs1gh/LdyHm0/cEFQm9Dk9EV3LxFavZwyHUDzvmMmQptsuuL3Xb8CS/yaiToGE5n9rFx0OMeT9HkN7HT+/Dz9vyZG53krt8+MND6c1aKm95nEcE6LJyqd4GVK75uEa/FU3lXbbGdBg0GZ8fmnf4MqWwSgj70Ht8xHdLvB9BrWVw6iDt/BWv5XgvDm/GgMLa88rUWFUnhya75YjGFIoI+Jpj6n0mMO48U6/WHs9T4xthuKOcoyy4vdBm/Ag2OftCeebC9BAu504idKi3SYtiPi9zt6HMLhQJiRSnz3tdQ3F885dbwj2+z8WU15473oP/22fiF7V8iB1Au2zpr3H1OcuRiKkzlsTXadvwX8PXgU8qWDq2jIMrxlPf59FR3TTz67ppn2OoyVIiRwV2mLcpqt4/i6E7z8tWLk/vIoDy/5Gs0qZkNjRwfczoG120WMgYZZSaDRwMfbeeIXQZFMfCT7XD2LF0OYolz2Rduy077vo2neXvfbdkzgjSrUYjpUH7+GFx0fzcPzqCnb8md7isZXvzJjaaxFLvjMtvRYF+2HlijmY0jyz+T47e0TXv3PlM2q2P5r2+hcaj9OuH7QHcQyDC2RUr3sM7TMWuu+xZCjRZB5u+D4LfLh/HDNqynswFhKnr42p531PSgTtDfb0royc8vzqTMSGW/rFYfIeTrsHokzqDKg9/T84W0pdcpLj2VUcXjkS7SvnRsrYMdT7UN5L8prHTlsYtfsuxk7ttX4bpvT8i/FyxY2lLZApdWY0XHAVr4J/cUKNAYjIoL5VADo5thHyaLcrty1bkjKdsOaZvjsoXm649U9lxI34+e9KjL+Ae9qXvrfHZcxrkA1x5XLb/Gg79zReBvdd/u4W9o+ogKhy/Zhp0GjxXbz2/+7yxMtT09AwS2LYR4kMW1tbRIwY0WSz1S6LhMh2MeCYqznGbH2AT35fpq8OY3HHbIGur202EWCtP2bZIgTeL1uqLlj932vtRq5jaqWssNeva21j4bpmW0ykyTMAh30fhfa7+BxnB2fyfX5WNoidID4SJU2EhEkSmmyJkDhxTK2hEgkRrK0RMbI9ElTohjln3wdqpDzGkdn1EFm7reipa2DeQ/1ijY+HE9Y3tUcU/bFGCNVjjYiUNfpjtcntyNm5p0dmo1NORzhEjaSOuW2Av9GPeTQHxE5XC2P2PoDHl/xW+7jjzs5RaPpbLDjYR0NU7fWNEjUyHOV4JE4Ax2hRtMu0xo0WOmKlqoC+a/7DcwuNU5+jQ9E85+fX0ybAY7WwRUuI5J124HVwAejieNTIHcf8byN8vh8rK+11Crw/YiKkr7VMi6necH+yGLX161Vd8AgvQgpA9xajS2l77fqOqNBjLT6/JO64uK4ncvrdr3Xg+wxqK4Xh+0MXgNxPLUL3DNpt22RAgeHn9EuDsw9/po+jHk+OAXtxxf9OPHFoYHVk0R9rhNR10O/fx8E0Pj3hdHU6Ksj1bWKgwerXn99L3nvQM31cRNBvKzSfvWy1BmKvWQB6j2cnZ6NzntiIKaFVe59Fjmyrhb34SKh9DuPYR9Uuk/eZPWImLIx2cw7jvvmZB+DSXPQt7vtYbCJFR8Jk5p/hREniI148O+3zYaN9jiMgSqxEKDJoN+6/0W8jEG9P7fM8vTVKpdaCgQrUURBFC1exkiRG4qRx4OgYBZEia5+LaHaInjwX6k86BGfJCEHw0r5LN/apjKzxHRA9WlREiRxJewxauEiWBInjOCCG9tyjRtVuyyE2ctYcjA03P/j3migvL2Nbt1QWj22A70xLr0We3li+dDYmNUlvvs/G2v9v1fELvD+iHWLkHYNTr+TJHUDPNHH0193a8vez2ZYQhRvM0b6tfX24cxDj9NfKyio6klSfhTOvg2tlu2NruwJIKtcvNRTL/W4oDN492oze2eIgZup2WHXTzawHyMfTFWdmt0eJdPJay4maqIhsHxMOCRIjSfL4iOmovW8iae/NqFogSpwP9YftxmNL70ND8Mbbh3sxpKA9HFM1wrwrbiEE1NBhACIyqG8VgE5PaI5CJkHGOnUltFn/Qt9vmZf7VSyoFgfRrD//XblJWgDSf5w/PliGjkWSaZdbI0reTvjnhKvvDjNvtUbwUFSxt4FVxGTI1XMbHvt/b/ngw9Mt6JcnPmzlPpJWQtc5W3HqxgM8eCDbXdy5cgrrhtVH9vjyGGxgV6Arph529/1zGWbw8ql+XZPt8gEsa5VQu3407Ud3MHZdvWt+nSev8FZ1J13C1Gq54KDdf/KGY7DqYqDrWdwe4smz1/Bvp7x3xrlhWoiyjQCrtN2x/uxtPHkiQ/0Cb4/w8OElbBtSC7ns5flERp62M3E4QEP9CY7NbaQeT5yMdbHQpOfGx+M5NjaPAXt5LcuNw75zFp6Xhe2xsyvemjTO317bhhHlHRBJu4/IiUuiw5x9OHntjv/1b186iC3jmiB3THmMEWCXpAWWnJM+j7BwwYWlvVAodjStoWMN+0z18Peqw7h17yEe68fj8cNb+G/3HLTJGwsR5bHETIU6Ew/ibqAGrs/xkWidXx5LApRsNQvHTZ6bxe3hYzx+9R5qtE1QPrrB+dkj87/dMQJt88l9/YbyXdfgduD9Dx7jibMHvLT/vX64BL9HsUJE66iotfgxXEIKQPeXoUfF2NptJ0TV3uvx+aV1x38b+iCXdgwipcyLLhsD32dQmwwpC90QOPczS9Erq/a8omVFsdHn9UuDcwB9syRW75F8Q/bjqkkAOjK0DnL5B0VbpKgxEOsfBvUoPPH82ixU1a4bMVo8NF1nGoD2oU/mRCrsx/h9KjacsfQcA25PnV/jfYC7eoN7W0eiQvLo6j1kk7wiOs/bhcu3H+DRE+21Uu+zu7h5bCV6lUmmTnTYRo+P8gPW44Kc/zB1eQH+LikN+bQo1XE17qjhuoE37b31+CHunFmDoWX1761o2dB9x3280m/Gn/dtrOtTHZntImq3aYMUJTph6q4ruPvwofbY9Nt69EB7bCswpN5vvic2YmVBmSFH8NLSh83tFKY1yoUktnLcYyFvE+376oT2uX30CI/lsT5+hEf3zmHb6EYoFFe7jnUUxC3SBGMPuX1+j3h74t2rJ+bH9vZVLGmaAI7y3VJ0KDYdv21+nWeu8PB4A3cXC39/fClGVYmkPa4EyFhzJs4G3q99Zz585oaP8qHUXvdeGROq91bOP9di//XA17W0PYbTi8+90R/uHsbEsnIc9M0+BapMvwC3ID+D7tjeqRjSyHUrjMQqv66k0Hr7GAf+zoHY0eOi+uzbcA38dvd5iu39KyCng7zWVkhapC3Gbb6Imw+110Re66eP8ejRQ9w9sxYjGmWGnXYda+19U7bPNjzVb8J43sJpQztkdIiFZG3/xT0ZcPF/YgAiMqhvGYDya0EmSqrUSPlbSlhFSI5S7f7Fc/0a5jzhfu0f1EwUDRFTpUM624jqx7m0SQDSfoLwaE0nFE+l/aBYR0PeDgtwzEIGen/jX4wq5wAbraGUJH9PbHYy+WX3fI3bsysjgfzoJmiCmYfuwj3A6UrdOxfcWdsDldLLj118VOyvfZnquyzyfIjDvZNq17WDY/FZuB1sy/0/FYCia88vTYfFOBFcr0FQTANQ5uE44RL41zGQt9exsl0ZpNLuM8JvDdBvr2lLLOQAZCfHq9byIM86B88Jpxa0QEobK9inq4KRh51MeuNMfHDBw91DUCqerXYcbVBw+BHc8tD3hcgTd3ZPRB3HqNrfxkDqmhNw5KHL56FPAXzC60cXsbRtZtWjGMGhEPptuAbTt9LnAJQEVftsRvDR/f90Yz76l5D7yo46w07pF1ry9QOQ9ABFTl8cQ0OTT8Lo2wUgbbNNjap/bTbp0TIVugDk2HY9zoW5geQNp/NL0CqR9KrZwrHEAGy76gQ3S+9nLQK8eX4Xm/pojeDIchyyoM3sYwjQEa4CkDynzKg64Kh+YVB88PrGYrRJZKd6MuxbrcPlAJ97b1yY2RTFYkqgSoaKPZfgtJMWAPS9AXnj7dOjWNErn+qFsU1eCqPOfAzYc+P9HNt75EMqddzzoMOc/bilhXyLH6n3r/B09zi0L+D72U1ZqSfWmAyltcwbB7smQVwJVxX+wX9h/ZC9OISFDSNr95cEOZtv0t7RwTAJQIXGnsYD/eKwMAtA2hYtWU1MPx/UkN3/JwC9x4sT41Ahlj3sCwzGUQsf9HuLGqFoQnkcMVCq1wIcNj1BFsi7lyexol8F9ZtjnboM/tof6i/WX47P64uYUiE6osbMgp67nwb/vggFBiAig/qWASifdrs2pWqjZuMmKGAVAcnL/oltZqcsdR9f4frUskjoaIdM3XqhemxH9WVdKkAA0ny4j3VdC6kflQj2BdF29ukADVe8vYptw0rCUWtsR05ZFP32uAT4Ufd58wybW8RAJG2/VaWFuBNcg97rDKY3ya7O8qZrOBb7gnrs4vUN7O6eRDuWdohVZAouvbHYItJ9DkCp28zFgZf6xWFhGoAyDsLBxyEPSrq/Ugt0cpY2agk0nXVNv1SEMgBVX4Brz4N7XkF4cw7re2fXjk1kpC02DKf1iy17jsW/J0EM7bHY1JmN409DORvo6SEs+CMBbK0iIknuHlj90OKkjQC8Xu7F0GJJ1evgUGIItl3//FP5OQAlRqUAQ8e+gQuz0Kuo3FdW1Bx4KJjJ1d8oAKUtggHH9Yu/oq8dgHJol0fKXwR58hVAMnncqWui92ZL57JDF4BitVyBYyENyw3s1WVs7ZVenZxxSNkc/1wORYJyO4vptbIinvY3djm7YP4pkw+8fwDKiEp99yHEd633K6xpEA/RJZTkHoG990z+4slGdCqdCDba/WRrPAl7nEP+rHpcWYXOmbXbso6JNH2OmMwH8sL7Y0NQNImEKUdUHbUbN0P8KL7DzdU9UVV6zm3ToELfXQjc4RXAxzfY2TEx4kgAKjsNpx6GXFYggIe78E89CUCJkb3xmuDnmJoEoALDD+N6yF+XZlQAktfKPjZilKiNOvJdahUFCWvOxVlXS8f6/whArnewuV18RI0SG6Wn3IfZz5T7HvQrkkgF4cQNx2Pbw5Bf609X1qBvYXnM8ZC91Va46Jcbzzs8X9kQiewiwb7WP7j8Iozvq0AYgIgM6lsHIKtSvTBg4lT01xpCNikqoetOyw0Gz1eXMKtULMR0zI1euxajZYr4iKb9vVkA0nx4tAo9i6fUHrcNoufphFkn/G7zPW5sHoKysbVQEPM3VJpoPk/Ix/0pVjWOhMgyzK7oFFwMtgXpiVcPbuD0ieM4d/MxXIP7Hv0FAtCjtX+iWhzteccogzYLTX+Nv3EAcjuD1d2zascmAlIW6o29IdyEx8OLOHfyBI5dfwJ3i6X4AvPBw+2jUS+69hjj5ED1yTcDnskOxusVzZEzkfZ3EbOi+4oL/kOKfoUAVHvJU4RYC+ThcvSsZIwAlF27PEK5fpg89x/8VTam9pyiIlmVv7DxsX41f98uAL04swDtYmvPyS45Cvx9JuTAovPY0RsV0mmf1Qgp0XjCgc+9QGENQB/dsbFFfMSQAFR0DE6aBP3rs+shj4N2H3EqYvC/90L3GXh3D8f/LojIcXOgxPADn3uyPrljX7d0iCX3k6UzNt0MZWJ4cwqL2uXSno8N4udvilXB9QL9igFIemqjJUXazstxZmo9pJATaRGTotqsi3A1C4hfGoA+4MXFGaitfZ9Fi10BU+5+1D75AT1ZVRc5Yttoz704+m66HYqKdBqvOzgwpjwSRsqKKn9uMimI4scbLufWY3LPRqhaLC/y5M6D3NqWJ19xlP+9HxYcemT2/ry9aRxa5MuHOn+vwLV3n3D73xH4o3I+1Z7Ik6cgyrUZgeXn/YY4vMalNYPRsry2X25X21+x2TCsveaufWItczmzCuNalEOxvNr11d8UQqUWg7D4+CPt1z4oPvB2WoM/EjnAOnJhjD72NFRzFoPCAERkUN88ABX4E7N3HsbaLhlgZZMKJbvtC9hjo3yA66VpKC/VzPINxN7769ElTRzVSLEUgOQMz7PNfVAugzQoYqJAl4W4IBff2YKR5WSCcxykqzsDpy1lLa/XuDO/OmJFkh+y5CjWfjJ23viSMWiBfHEAmoeDwfUsBSVAABqMQ09Cajpdx4qepVTPmHW2Jhh+0PQ5hzYALcR155C6HCzwcsHpeW2QVbv9SPYpUKD1FGy5/f8OTDD1EHsm1IWjdvvRs1bG6LC8jd+sRfvcCbX3jA2y996Is/rDChCAeq4zCQ7fwBcGoHqrXoXcYHZeiz5VpLBA8AFo4An94q/oWwQgqyL9seSGGx6vbotiMl8sSgpU7Ls10JyG0AaglTgecmlKE844v7wtkmt/GyVpTvQ8EoYZah/2YlDl9LC1skbqP2Zir9/pd9MA1G9/MI06Xz73lqB+6qiqlydph6247l/q6ibm18mOOPK8akzGlvuhfWye+PD8Bo6euoQbz9z10uM++OSxD30zRFevRarOW3Aj2K4cU+9wcXkPVQAnQtICaLYhmH6GHxWARhwxqTAYev4BKFJCpOl1BB+dL2Jhg4TqtbBJXAezzwcebviFAejDE/w3oyKiWUVHrOKT8Z9ZufJnWNc4PeJLOC00BttvhbKXXHutPV7cwZmjF3HrsWuAx+r19ibW9SiHIr8lUr9LfkP8Pm9RED9tTrSYuT/Asbsws6X6XMbLWg7NOtdGxvgyJ8v07xyQpnQrTDlwDlv6l0P2BBLaTPdHR5KcnbD83LNAIeg6No9qhSLpE/gXC/q8RULctMXRSKpB6tcOzMfTCavrxkEsK1vkGXkSD/6PBMQARGRQ3zwA5emIWdfccGNJO2SwiohkJXtid+AE9PEFrs3QGuf2jigw+iKeuu5Ej5Sx1GRfywFI8/EZdgwog4zWWiMndlUMXPIvtsyqjQTaj0KsjA0x+WJQDWxv+DgdxfCyDmr4gJVtHKTJWQxlylfHHz2GYsa6w7j8LFTnTgP6wgCUttMynA7t75epAHOARuJMcCNxXp/H2uG1kD2uNBbiagFkIa4EGFMRygBUeyUefUHDQbzTGiuTa8gcKe12rGMjVa4iKFupKur3GIYZa/bhyuMwNn5MeZzE8u4yxM4aKYt1w9YwzVO6gVkVM6vwZFtDC2Z3fVvKpnOAqvXdZiG0f0VhDEAN7CNpjS4bxM9aHCXLlUf58sFsxbIiRVyZl5Es2DlAw7/WR9/ENwlABbtjpozefHMRi9sXQkztsqgpqqD3dtPmb+gCkGP7jbgYlqkQH65h/8hias5MnAwNsDRMM8mfYHXLEkis/a1NiX6Y+5/eqDWZA1RtUHAp1BNPzyxC/4opfSs/WhfB0H0PPxcacVmHdgWTaY/NBoUHbsB/X/AV9pmX1tifhUpxommPywoVZ57HozDcntOBmWiZQF73zCg+4ox+qQU/KAAVHncOZp2GofA5AMVHiu6HVK/Mh8szUT+hDBOMiCR15uPMS9Mv8y8LQJ+cLmJJbXtYRU2ArANOmM9R/bgffXImUs8lfa/tuBjqcBoETzc8WN4M6WWemlUG1Bu2EOt378PeA/tx4MBu7Nw8F91KJVYjMmx+64x/Tn4esnBpXleU0l6/qFEjI3LidCjccR627tyH/fv3YsvcYWjym9ymDeKkz4w0MeVkxVys27UP+w7swY7Vg1AtgczZjILM2nfsZf8vWRccmNIKeWJof2udFiU6z8KW3buw79B+7Nm7DYsH/Y688p6xy48GU07C4k+f10fcnFoMCe217/Vik3H44Zef5GQAIjKobx6AcrfBxOvad+yFOeiQRmuQJC+NrnsChpOPzmcwo0h02DkUwohrHnj7cQ+6JosRfADSfHyyAyMqZdR+COyROGlqpE0ZBVaJc6Ll0pvBjz2HD9yubMLcnqV9f5z8t6iInSIzchctjyrVa6Lpn9Ow9VooTx2FNQBVz41Y2n3apcyJIpVqoEaN4Lf67fthuem0HQlAw3MgRmTtxzd6BhQuVwXVq1X333z/riZqVq+OCkUzqWAoY/mz/T4Ze24G7nIKIQC1cISDBKCEuVC6ot9tB7O1HYelpwJHhnd4eWcnJveshrQybMTkmMdJ/hvyFCmHKtVqovGfE7Hpc/3j0Lm/CZPrRlfHPmv5cTirXxw6z7G2UU41p8Qq/19Yed434fkGIGnYREWCtPlQ3tLz1Le6LTpj3gVvs2EqoRbGANTQwbcH4PMxDM2W0mIAyqvti2AfGxmKWX5ugbe/11/H01C2U79JACrUHdNVRW0fvL44H5217w2pvJikwt/Y4h9IQghA2n1IiLBNkQfFKlp+nmqr1RsT19/4/Lo+P45VbRNo92eLpNn6Yl+YQoYH9vQsj0zyHDK2wbgD+jeUBKAyUsUrOuKnK6x9Bj5/hqtrn131OGrWRI3KZVAgg6Pva+lQHK2nnYDTR5N33KVJqJojhrY/EqqP2oLb+sVf5gM8dndDuljyuOKivXYMwjJfxO3UYvTIpj1O61TI136L9k4LwncOQL0zJVKvu2PGoihTNdBrbWFr1n8qdpqMEwsQgLru1QsOuOPKtFpIJt+PEVOgxj/n4eL/NL4sAL2+vhk9UmlhwzEZ6q9+bb7w7bMlqJtWhrVqYW7oQYT2JyooMvx8QWU7dXuJGq7GJQsnBVy39ECJlJG017QAuiy84D8n6dK8bigrr58Uomg6J1BP4WMcGZZf3a4ExJwdt+JqgNv2wMGeuZAkqra/+Djsuu174DzPT0XrHPJ4UqNcj1W4Fvin5MMj7B3XGFmtrBE50++Yc0W/PABPvD3QG1niam2CqA0w56JzqIdFB8YARGRQ3z4AtcYYabC8O44FrVPCyjYlinY/aHLW5gOcT09EYVmTouBIXP74Cd6fdqBjkpADkFTzenZgPH7PJY0g7b4ipkHxvv/iTpDXD+T1FRzeuARzx/2Nro0qImsS+TGVL2u/zRHpClZGu2m7cDmkM8VfEIBkuErA+wtms02Odnv0PxcqAOVErCgWrhtoi56hFOr3noAZ83fh5H1Lv5YhBKCWcRBLfuAD3W6QW4QiaLXc5EZMud3G4U2LMHvyQHRtWAH5Ewc+5jGQpkBlNB+9K/QV566vxKhK8rexkL3SZO3ohoULNjbPjRRy39n/xLLTvs013wAUIdBjC2qzQ4ONXtpP7hcKYwCqH80GEa0jIU/bqZi1eCmWLg1mm9QeFbNLxbIkFgNQAYvPJ+gtTe99JuvzBO+bBSC/m/J5hctL26GInCmOmgxl+u7UG8Gf4BxsAEqizmZben4Bt0Qo2Xv/59f10X7Mb6Q1qLRQnDznQIRUsy2g99jXp6LvWkapm2HUbmffiyUAlQv8GbC0xUaW6m3Ra/QCLN12Cc8DN4rPjECFrNJo1ALQyE2wuObm25s4sqgvGjZsaHFr0WE4djyRoXOeeLe+KRI4yAmAVPhzy60w9YC+ObMYvXLJY06OPM3WBV3587sHoMSqFLTl42thS1URYy7pf68JHID8R6a5X8TMWolVr2KElHUx++wr/TP8JQHoE56cn46q2vetXcKCGHHey7zhfncuqqSNpR5jgcHa59Hib9MDHFgyDE0tvM6y/dFtAFbr6xJ5vXfB5V2rsWH1KuzVfjwDv7UUr53oViaxdp+p0WLWEfj1AUkAKiXzaZNUQZeNgftiXuLWxvaIrT3OyHHzY/B581t+vqgSMjtqf59nCHZc9/3hvjSmJnJGtkKkvH2w5q66yJzLYYyVHnq7VCgx7Y5+oSntuF2bhFKqWmMG9Nge0knRoDEAERnU9whAo0/KZW9wYkE7pLayRfKivbDP77Tgh6c4N6kAotk5It/wq75n1T5sQ4dQBSCN902s6l1a9aZEy9UEY09/yXn4j1rD8hqO7VqHxfNmYvrIAehQKycS+q1H5JgZDabswY3gWrhfMAROKp3FLdIYPSbMwqxZwW/zVmzEKdNfeDUELhscImmNlITV8Pe0eVi6XGvwqm0R5swajqZ5HLUfZRvESlcFA7YGNxs5hAD0RyxElwCUvSkGjZ1h8fEF2JbvDiJomfqkHfOrOK0d86XzZmHqmL/QsVZhJPI75vaZUWH8UTwMza/W452Y2Sie9ndRkaX8WAQz6MaCF1jXXO8BKjIIqy/5Nl0+9wDFRJYybTDS0vPUtzlLVuHoIx/tXf+FvmgOUDQ02BCK8Yjum/BX9bjabSewGIBya887Yrw0qNTb8nMLvG06H0QJcwu+eQDS+LhexPKO+dRw0qhJKqDvbund9MaL68ENgUusqrhFK9wSvcZYfp5qm70ee7Xn6/+6upzBxs6ptWNpiyTZemNvmL5q3mJvnwq+PUBZO2DSEb3VKgGotATthMhRpQ8WrNA/wyuWYNGS+RjfuyHySHGPiAmQtf4Y7A8qidyYidq5pVfAFjXHbIHFdqPLHsxQPaXyXrOwRcqJkf/Jl5wPPI/0QbbYMnQyPtqvC2MP0Jll6JlDuz3rNCjQbWfQ85q++xC4ROp1T1WtJwZPsfB6B9oW/au9B02+f8wCkMnn4O35SaibxLcEeJrfF+D0S9n5/gsC0Gvc2N4T6bS/cdDezzNve37ugfTjsgpNMshn2gqFhx/ENYtfAycxoX4q39fV0hYrPbru068alDdOeHzrNPZtXIixveogZxIH7W9/Q5t/jvoXi5EAVFS7vcgFW2DKZf1Cf69wc3NnJNWOScwkzbHGNfD6YT5wWlgVmaSoSP5h2Kl+YJ9jafOiSKTdpm3G0qjV+S/06dcbvQNsfdCvY0NUTaf9nXVipG+xwUJA98GnV6vRPHks2Gjv4Xbrr35x1TsGICKD+i4B6ITv156sDN81pRUiJSuOrvt9Wzefnp/CjKKRYOdYGIPP+X5B+rzbEvoApH2t7RnVSE1MjlWmPRbf1y/+P7ndPYpNiwegXr4U6kczcuZGGH0smK/QL5wDlK7LKt8CDmFlOgcoyxict5A3nh1fhG4FksDeKiKS52uLuccfBdFID+UcoHpr8fxL8mWo+MD97hlsnj8KLQo4+s5zSNAMM084hzgxHB/OYU0fGWohc4C6YFtIvXUBXMKUShnVc3do8A926c/98xygpKjx1y6E6SbD6guLIHytMthRMpTEKNPhlV+J2+kl6Ckllu2yofi40Hy3HMZfWZOoAJRnkOmZ7aADkHzXuF5egk75pPcjGuKXHYqDbtrH8eY/qKZdP9g5QDIkJyzddp9u4/D48qosftzffsfyYFvcgd3H0hZFVSnsKOUHY8l1/QH5zwHKgupDLER3z8fYP+UPFLTTrhMlOUq2X45rlr4PPbagaxFp8EZArj6rcNZSo/jDE1zbvwQTJkww2YajX6tivsNx4xXHxMu+7z7vp3NRJ44drLVAVWn2lTDNAXqydyqayll9h+woO9Hi+CRfP2gOUNFJl6D3v4VJcAFITvBdnlADKWUeTcQMqDPngtYo98Kh7sWRWrvP0AcgZ1xe3VqtTxY9SVlM00KB2Ufc6ygG506qviMTdFqP0xbXT9Ju58AaTA7wWo9Cn9ZlfYt4pMyLvof1q/pxPo9/Z/yFnl07oM0fTdGgWmkUz58RydRQSO05qC072gYKQEXksRZvi4VmHTEvcePfDlqYsUXspF2wI+AB0/jg2YIqJgFI9t/CzLoF1PP/fJ/BbZGQoMxci8UQvDx3o3vKOFo7Igpq/nPeZDH0sGEAIjKo7xmA4HYcqzsm1X5AUqJAzxP4pDX1nE+MRuEoUREr/3DtR9v3ep+0H/PQByAnbB/2O5Jq141Zsg3mWRz7ofP5AI//NmLM8IH4a+hW3PII+Qf30fJOKJNYex6RCqH51AsqoFn0hQHoW5fBfn5gGGqmkLO+kbVw8DfWX7HUpRLKAPRFZbDf4/mVnZjdrz+GzliGs8EVa9C5bOuEfPFlcmxStF55PhSNlVc4+k8bpNQef7QMlTHwRBj6Yh7Pxe9ZZG5FNJQcthPX9LT1OQBxHaAv9eHiCvydT3tethlQ6K/gnpfuzWa0+S2+mt9Uaswh3PL/g+ACkMb7Ja6tbIu80lMSJSkqjd6BK7cXoYYUSAkmAIW9DPYbXN3UXz2OSAlzo/3OYL+YAnq5Hl1LJdUCRUTk6rQIJ/3CnX8ACq4M9lPs6eNb8EHmclUecQDPPQN/Ez3Eksa5EF+7TtTiQ7Dqaugf28vDfdUQ0Ghxi2kBSF/o9ONFjCkQXTWy4/2xAVf9q82F5CVOzGuhGtmR0xRFN/1El0U/KAD932WwLQYgjccFTKmZTA2vtP6tERZeuYudfSriN+2/vzQATbcUgLTvu+1/pEUiOW4Z+mL95dBXfXE6NhKFtduOlMIkAPl4wuXELPRuUATJ/XrgtdDgkDAT8hWuhEbt/sSgvxujaFopPf8bWlsIQPZFLf32fg5Ajkk7YuvbwAfMUgC6jVm/51fv9eRFaqPjkCEYYmkbOhRDhw3DsGGTMXv9ZfN1kjRenrvQTQWgaKgz9wKehPWnS8cARGRQ3zUAwRVnl7fXwkpkJC82BGdcXuD0mByIFC0uCoy+Ar8lXzy/WQByh9PGlqqhb2WVDxMueQTRI2Li2gx0KyLXz4nGY44Fff2fNABJydSDw6sgtcyT0BrB+buvxHWz7oxvG4CurPpTDbWyipMPXQ+FopHjvh4Nf5PSzfZouPB0qCo2vTo5H13SaPcRNTmKdt8TyuEOnrgxqhrSSjllh1IYsfWWfwOUAegreLANM+pIJTFHZK05F5ZG6gdwcTiKJJfgGxt/LD1r0qANIQBpvF9dxppOOdVnyk5reLeY1h+VtMZcZPv4XzEAaRHo5lYMy2kLq4iOyNBodairiT2Y2woF4ltr789c6DLvnHb0daEKQNrDfrobfxXynahu5VAUQw69MJsc/2RlcxSOq30f2GVD52WXQtlr6Y4He3qbBKB3vg1un4+4NqU44qghthUx45Sr+VwUC7yddmJirWTa44yGFKV64VBwJzyMFoA0786NR71UUqQkIrK0Goo/6xRAJilAE+oA5Iabu3qr0BQ9SQVMvWkpAGnfd7taIW88ee7p0Wbpxc/vp2B9xO39wwIFIB+8f7IXI4vIXBktPOesj/Z9R2Hi3DXYuOs0rt585vue/LgFXUrH166T5hsGIOmOfYxFjQqpeUNpOi3DRd8rfgEffHq5Cs3UELhEaLfxGofAEVFA3zcAaRHozHJ0TqI1TH4rgw5LdmBi3ohwiFcMY6/JX/n6ZgFIa0i53ViEGioMREXuPrtwJ1AjIrDXW/9C9WTa9WOUQfsl93zPjlry0wYgzWOt0VY5ibo/m+Sl8Oeau4GGlX3LAKS95sf/QadU2t9HTozc7dcgpFGK3if7oWQSaQhnQe9N10L34/7mDvaOLIUk2nOwS1gBf+0LuWnqdm4KmqR3UD0OKRrNwXGnzw0wBqCv4N0VbBtaBPZW1nDM2ATTgj2In3B9ZEkktdeOQ8xqmHb0kV5lS4QcgOTbw/XqcnTIFAVWNjaImDKNatRHipEQzb5iAMJ7J1yYW0/N64hglx9t196y2EA19eH6cnTL71uBLEH54dh0zyTmhDIAwecTnm3vgrwyFE67nfhlJ+GoS6DP4qtjGFUruVo3JUnxLlh0NRTdrXiOI+MrqiFwttHzYtTFt3rQ0Q7Y481oky+qKvudsfY0HAipBen1GAdHV0P2yFawjp4dTWZc1V65YBgwAMlcr/OjKiFFNO16UZIheTwHOGoByLZSaAOQF55q3wc1I2lhJH4+DDrpbTl4fryCKbVS+Fa1K9wG/5wLTZkKZxye0UD1ztkkyoyuB+QyDzzd2k7NubGKmBzNNjhZ/I17v7sHSqeROU4ZLQ6B+zoBSD7xH3BqcCVk0b7jrNK1xpQjQbxQHo9wetkEjJ+2FKuOPLTwGfyET/+NRMEEcgImG3rtvmO5XHYoMAARGdT3DkBwPY11MgzOIR7iFSiJHJFiIHGpabju/fk63y4AaT8v7x5iV7c8vsNJYhVA0wELsev8YwsrRb/A9YOL0btcZsTQvsDjVRiG9UFVpBFfPAdoJSy250ISlgCkubehLyokkgpWkZCq3ABseGTaNAllAKq7Fk7BPa2gvL6GHYPzqzVQIsTMjjrDF2L7+SfmZ6i9X+PGoVUYUs13GIljgZHYfTf0P1vud/ZgbNlU6n0TJWNTjNtwAncsHpZX+G/rbHQrImWDrRA9c31MP/E0wOMJTwHoW80BktLnj/eOQc242nOLHB9Zmk3D1rNOJsFG9/ERzq4fhrppJPRaI+Ufy3DxhelRCE0A0ni64MriP5BJGk9yXW2LGCMRmn/NAKR5//wc5v+eyXeBxqTVMWDRAVxxtdRsfIeb+1diQMVkkOpjkVKVw5BtNwJO2A5tANL4eN7H5taZ1ZxEGR5adfYZOAf6PD7bMwbNMkhPUUSkK9MBUzdpnwGLXUEf4HxxF5YM64wqcnJCu80YeTti0wNPk15ub9xf2x5lEsn+eCjRaiw2nLH0Xam9M5+cxs7RDVA8iXZd65jI12EujodUwOSHzQH6L+jKdMEIXQDSuB7E0KpJYO8/nMwK0aqENgBpn8wb29A7nXxXJkG1hc7mZbB17kdHoY0qF22FFOXbYuTmo7hl8evSC86Xd2HtmA6olll+A7TfyrzNsUjVSnfDow0tVI+LlW1adNrlF20++3hzD8bUSIl48htglQMd5h73r6j2dQOQ77v/3X8T8UcWGbadCAUbT8J+swbAC5yZ1xoF9HWLas0zKVXvzxMeO9sjpRTyiPUHll12sXCd0GEAIjKo7x6AtC/FC6u6qCo36schZkqUm/NAvgv9fcsAJHfk83w3BlfLpA+Fs0LC/A3QY/RMLFy8GItlW7AAM4a2QOnkvvujp/sdo7dcs/jD7+8LAlAM7bbjlWiBfjP1+w1hW7ZuC7T2o68PYQtA+HQZq3oVQwL50bDPgPJDd+Op/y9CCAHoj5i+VeBytcLoaQssPjazbd1+nDKpBOdx9wCm1sqozjTLMY1doBG6j5iN+Yv06y+ci+mD2qNsSt/9kdOXx5A9j2CxXRmkT3C5uAa9S2TyvZ+IGVGx2yjMW7Qca9evw7r1a7Fq6SL8M6QlCjjI/dggUa6aGLbzvtnZwfASgFQVuPjpUX2AyWsXwrb94rNQV4LDK+1zMbQU0uihJEbeZugzQXvd/W5vzgyM7vu7b6UzbX+cHM0x/9yLQEEglAFI8+nVJaxons6/zLXNNwhA8h3y9t5OjKie2/fMuVUyFGk9EDPmL8PadWuxbsM6rFq2GAvHdkNZFR60+8pUGr1WX8SzwGNowxCA5HsVtxejfsZIqlfGKl1D/HPeLVAvyzv8t24sWuZPrr4/Zf5VhU5jMXPxcixbtR7rN6zGqlVLMH9CLzTNL+8Lue/EyFG1LUZvvfW5tLM/Fxyd1R4VU8nZfys4ZKuLbuPmY/nqVVi7Ubu9VcuxYtEk9K+b1fczZ5sCBdpPwdbgThb5+e4ByPd1T1P7L4yeG/A9HdS2atsh/3VoQh2ANO4HB6Bmimiqd1mOW9QwBCCvF5ewpnksdT8pux8I5rP2Cfc3jkaHkql8i8bYpkLZdiMwe+EyrFi1Fus3rsXKVcswb8pfaFYktu97xiouMlbsgNGrr+onfD7B/eYqtJbgqu2PU64Pxs9biTXrtO/LdcuxeO5IdCseG9FiRULkSFERwSoVms846D8v82sGoB3X/d79z3FoamvkjSWPyQEZqvfBzOUrsGrDeqzR3nfzh7RAqaSyLxoyNxiLw5ZGUHi9x8XRBZHAXguf1ebiwrOwVDsJiAGIyKC+VQA6PqKu7+RP7Ud68JGArdiX51agk/6Fax2/HGbdlq/CzzzfbEBzGQqj7c876mwI6/o8xab+lVVvilWeRpihr20Qkk8P/8WY5tVRMntKxDA5U2e6RUmcBUXLt8b4zVcsTrIMwPUqtrX1HUdtlW0MLpgt323qPMaWTuf/4xjqzToeWm7Xb+Ljc5zun9z38sS9sfdhyCP+316Yiy559XkECUuh14Z7eoPrEQ5Nr6Eut0lcEbNNSur4vHmG1fVtPj+G0G7W+dBoYcDBbh53dmJKu/IokTMFHC39jbZFSpQFBcs3weCtD0M5rt3cxwf7ML1jJZTKmUSFTPP7iYwEmQqhfIO/sfiU5TODPocHomFGua4dirZbHuKwvf/L2cnomF3uKznK9toXbAByvT8PlfXnUW7OQ7wIKQDdXYB2RbSQbBUVJTutNKmW5Ibzq7ogY4DjErotZdetOB/6edfwfnEVG4bURNm8aX3PNFvYoiTJhiKV22HGUScLVf88caBfBVXkwipLW0wIts65J1wvLUaLFH6Vq6Ki7gpXvPEPQDvRJakMi9H21V+EQ8FVhw+Jyxks7lUNFfKnRlyL3yHWcEybF6VraqFt7wPL1QwvzkLPPHLdxCjadWfwJ1mEzwdcmV0ZqfT7SFxtJg489gjw/SneXFiDEe2roky+tIgbYOHhz1vE2GmQo1RNNOm3FMeCTQ9euL52KNrXKIysSfRjF3izS4qshaug5dDVOB2a0vXiozu2/GHn+z1YYByO3Q9jALq/FVPV+l92SFlzmfZLEAztde+cRP/uC8uWpDiGqoV3tYd7Zz9G5pbLIyNm6x14F9xXPFyx/++qSOl37IsPxJKr+q6QeL3A7eWNEFdr4McqNBpnPIKceaq8v7YB4zrVQ/l8vyFeJP3+Am3WjmmRo3hlNO01B7sCv+ffu+D0zCaolNN3geCAf2uHxNlL4o8xw9G6cCrVg5a85Rwc0c8YXZjRBtnketkt/fa64Ora5r5FIaL/gY0e5gHoyaziSCJzpDL2x2bTBca8rmH7xPaokCOZ7297oC1y0pwo1WIollosiai93J53MaOko/a3UVFqyhk8DrYNETwGICKD+jYByAc3109A1/LlUb7zZKzxK/nq5+U17B9XDeXL10TjTutwM9DuT+9PYnqjWqis/X2fjXfgFOzJG1ecXjESjbXr1u4zJcDK3SHzwsszmzHlr1ZoXKM8KsrjVVtlVGnUA+PWnjIbYhIkj8c4908j7W+ro07Pf3HvXXAt03vYNKQz6vrfX+i2qk06Yq7fS/TpNW6vaIcalSuifJuluOQSmm94FxxfNASNtNsqV7oRek08AN+TZy64tmMMamqX12szArtNyqr6vHfFsUl1UbuS5ccU5NZkEGYetjRpwBMuF9djVv/WqFe3coC/qdW4E0atPoUHoT3mIfC4+i/m/NUGv9coh7Jly6qtXJX6aNlrEtacemQx+PjxubYKk7vJ42qEAXOOhKIS3f/hzlbM+1Puqx2GLrlkecy/4g0P570YWbU8KlWohmF7XOAWfNsIeL4fc/6uq912AwyafxSfX9p3uHdsPrqZHP/Qbt2XXsADi6354L27sVO97nXNXvfOGLP2NJ4FbsX7+4Qry4ejg1y/xz/YHFI1hU8vcWttD9/br9EAE4544L3fbftcwPy2DVFF21dn0gFcNR/xE2af7u/B8uGd0ai29rnye59VqoMmnUdi0YFbwYea+7uwuI8chzYYsOBCMOHXxLsTmNK0DiqUL4fSZQdg46Xn0jdk0ft7h7ByTA+0qFMFlcvJYyuHchWqoG7LXhi9eC/+C8vECK9nuLBpGv5uWxdVKmi3I8+1XEVUrNcC/aZvxsVgE4gFn97h7IxGqFdZe/79N+FGqL9sdc7nsH1kFe3YNUKHsYcDDi0MTF73No1QXX/PhXar02UE/r3vexOfnC5jQ2/tcu07pOls7bUK6eTDq10Y272+up2qg1bhYGgrZmi/n2631qN7PK2hH7MIBp19G+x3lR/vB6ewekJPtKpXEVXKyXee9hqVr4gazbth6ML9uPQi+C+LV6eWYFiHWqig/a16bSvUxh8DFmDXbd935Z2VA9BGey6V+q/CYf253Ns5Gz21y2r8aem31x2Pj09HQ+33tE7jGTj1IfCz8NEO0SC0qasd024rcOZR4He/D16cX4/JvRujZmXfx1ROe2xVGvfEmA3/wSnIg+KNT/dmo4qjFnhjVcescy/Mh92GAQMQkUF9mwBEREREX8TjEY4Oygz7iDGQs9dJvPQK8uwABebthptjSiJWZFvE67IF993+v2PHAERkUAxAREREPxNPuF6bh/pxoiBqypbY+PTL57CEN94uR9A/V1REjlUU4064hDCvLmQMQEQGxQBERET0k3n/HCdGF0JC+xgoO+EKXEIa7kqaN3i4vAlS28VB+h678STkqbEhYgAiMigGICIiop/Ph+f7MLRgIjgkaoh5/72EJ0fCBc3nE9xvbUKP7JERJ2MbrLptXhzkSzAAERkUAxAREdHP6CNeHRuLGtlzoP7MS3AOY6G8cMXLFTeXt0GubAXRZvUd/J9Tf/wxABEZFAMQERHRz+oT3nu4w+O9V5DV/kj4wOuDB9zfvA1y8dgvwQBEZFAMQERERETmGICIDIoBiIiIiMgcAxCRQTEAEREREZljACIyKAYgIiIiInMMQEQGxQBEREREZI4BiMigGICIiIiIzDEAERkUAxARERGROQYgIoNiACIiIiIyxwBEZFAMQERERETmGICIDIoBiIiIiMgcAxCRQTEAEREREZljACIyKAYgIiIiInMMQEQGxQBEREREZI4BiMigGICIiIiIzDEAERkUAxARERGROQYgIoNiACIiIiIyxwBEZFAMQERERETmGICIDIoBiIiIiMgcAxCRQTEAEREREZljACIyKAYgIiIiInMMQEQGxQBEREREZI4BiMigGICIiIiIzDEAERkUAxARERGROQYgIoNiACIiIiIyxwBEZFAMQERERETmGICIDIoBiIiIiMgcAxCRQTEAEREREZljACIyKAYgIiIiInMMQEQGxQBEREREZI4BiMigGICIiIiIzDEAERkUAxARERGROQYgIoNiACIiIiIyxwBEZFAMQERERETmGICIDIoBiIiIiMgcAxCRQTEAEREREZljACIyKAYgIiIiInMMQEQGxQBEREREZI4BiMigGICIiIiIzDEAERkUAxARERGROQYgIoNiACIiIiIyxwBEZFAMQERERETmGICIDIoBiIiIiMgcAxCRQTEAEREREZljACIyKAYgIiIiInMMQEQGxQBEREREZI4BiMigGICIiIiIzDEAERkUAxARERGROQYgIoNiACIiIiIyxwBEZFAMQERERETmGICIDIoBiIiIiMgcAxCRQTEAEREREZljACIyKAYgIiIiInMMQEQGxQBEREREZI4BiMigGICIiIiIzDEAERkUAxARERGROQYgIoNiACIiIiIyxwBEZFAMQERERETmGICIDIoBiMgY5Mf59evXePLkCW7evIlz587hyJEj2L17N3bs2IGtW7fi33//xbp167Bq1SosW7YMixcvxoIFCzBnzhzMnDkTU6dOxcSJEzFu3Di1yb/lshkzZqjvivnz56u/kb9duXIl1q5diw0bNmDz5s3Ytm2buq9Dhw6p+75+/ToeP34MV1dXeHp66o+SiOjXwQBEZFAMQEQ/nzdv3uDBgwcqSOzduxdr1qxRn9UJEyZg2LBh6Nu3L7p06YKWLVuiQYMGqFWrFipXroyyZcuiePHiKFiwIHLmzInMmTMjXbp0SJMmDVKlSoXkyZMjadKkSJQoERIkSIB48eIhTpw4iBUrFmLEiAF7e3tEixYNUaJEUZv8O3r06HBwcFDXiR07tvob+Vu5jSRJkiBZsmRImTIlUqdOre4rU6ZM6r4LFCiAYsWKqcckj61mzZqoX78+WrRogc6dO6vnMHToUIwfPx6zZ89WoWzPnj04e/Ys7t27Bzc3N/1oEBH9GAxARAbFAET0/cgP6MOHD1UjX3pL/ILN6NGj0adPH7Rp00aFhKpVq6JkyZLqcyk/vIkTJ1YBJVKkSOrzGpYtQoQI6u+iRo2qwowEmbhx4yJhwoQqwKRIkUKFl/Tp06vwki1bNhVgZMuaNau6TPZJiJLrSoCSv5Ug5OjoqMKRBKXIkSOr+7L0GILbbG1t1W1IoJL7yZ07N0qUKIEqVarg999/R6tWrfDnn39i5MiRmDVrlup52rVrF06fPq2C0sePH/WjS0T0dTEAERkUAxDR1/X+/Xvcv38fJ0+exKZNmzB37lwMHz5c9Xo0atQIFSpUQL58+fyDjfS6BA4FgTfpeZEAkiNHDhQuXFj1qlSvXh0NGzZE69atVW+Q9KgMGTJEDV2bPn26ut+lS5di9erVatibDFWTIXBbtmxRw9V27typQpj0MB04cACHDx/G0aNHceLECZw6dUptx48fV5fJPrnOvn371N/I327fvl3dljxHuW25D7kvGR43b948NWxOenekl0ceW9euXVXAk2MgvUHlypVTz0WeU9q0aVVPVEgBys7OToUvCUp58+ZVx0F6wDp27Kieu/Qkbdy4UT3uO3fu4O3bt/qrQkQUdgxARAbFAET0ZZycnHDmzBkVAKTBLz0U3bt3R9OmTVGxYkXVkyHDw6TnJXBDXjbp+ZCeGBk2lj9/fhWMpPenffv26NevH0aNGqVCxJIlS1RwkfAhDfsLFy7g2rVrqvfj2bNnao6NhK6f3YcPH9QcJTluEhBljpA8Fwlc+/fvV8dRwpPMRZIesf79+6NDhw4q5FWqVEkNqcuQIQPix48fZE+YXC69WtJ7Vb58eTRu3FiFQwmg8l0n4UiCqcyTIiIKCQMQkUExABEFT4ZY3b17V/WCyPArmYcjQadu3boquEiDW8JM4Ma4bDFjxlS9FTIXpk6dOircDBw4EJMnT8aiRYtUz4n0wEiQunXrlgoHv0KY+V7k2Ds7O+P27dtq2KAEJQkxUohBijMMHjxY9f7Uq1dPDZvLmDGj6i2z9FpI75IMs5PvOpkzJcFo7NixKnRJ75YUjnj37p1+z0REDEBEhsUARPSZ9KZcvnxZTcaXnhfpiejUqZOak5MlSxY1hyZww1oa3PLjKCGndu3aakia9F5MmjQJK1asULclny0JNz4+Pvo90dckIUleNwlIUkxBwtHff/+Ntm3bquAphSFkLpP0uAV+/aSHToKT9Nq1a9cOI0aMUJXxZJifvG4uLi76vRBReMMARGRQDEAUnj19+lQNiZJyzmPGjFFzVEqVKqWqmgVuKEeMGFENaZOhWDKHRXpzZJja8uXLVS+ONMBfvHih3zL9LKQBc/XqVRWOpAdP5khJr5EEI5mDJNXxpIBD4NdbXmsJtVK1TkKRBKtjx47h0aNH+i0TkdExABEZFAMQhReyFo3MPZFJ/VJ9TRq1MkdEJuFLuDFt/ErFNRm6VrRoUTXUTQoYyJo4MmTt/Pnzai4L/do8PDxw6dIlVchh2rRpalij6VA6qZZn+p6QTXoBpTKdFHaQMCXDIqXYgsxvIiLjYQAiMigGIDIqmT8ijVNZDFR6eKTRKmFGgo1po1bmhvj17MgQNim5LOWWZQiUzAuh8EXme0mPniwOK6XJJfBIT5H0Cgae6yW9RzVq1FDzuiQQySKw8p7hPC4iY2AAIjIoBiAyEvmxkrP6UqJZeniqVaumSk2bNlplzRpZ90YWC5XG7aBBg1QJZ4YdCopU3JMqdVJNTsp4SyCS0t2B54TJ2khSzU/eU9KzJFXuOCyS6NfFAERkUAxA9Cvz8vJSJY2lipqEGFlrRspPmzZKpRKblJqWHh4Z8iaFDSQgsRQyfSkpuiDFLaQiYPPmzVGoUCHVsygLw5q+92TInJTylkpzsq6SLIIrQzGJ6NfAAERkUAxA9Kt58+aNGqYkc3lkzRhZO0cWx/RrdMp8Hil3LHN7JPBIRTCZqyEV3oi+BXlPyhpNMnRSiiZICE+aNGmA9YokHEnxDKkOePDgQVX23M3NTb8FIvoZMQARGRQDEP0KZJL5gwcP1GKgsvaLFCcwnY8hQ5GSJ0+uenlkMrsUK5AKb0Q/ggx727p1K/r27etfaU4Ka/i9X62trZEvXz614K3MNZMhdlyDiOjnwwBEZFAMQPSzkuFtz58/VwtgyllzWcvFr1qbFC6QM+oyl6dy5cqqhPWJEydYjYt+OvI+lrlAsvitLMAqwzFl7SjTyoOyoK6UVJdepGfPnnGYHNFPggGIyKAYgOhnIguFylA1GeK2cOFC1WC0s7NT71E5ay5n0WVBSxlmtHTpUtUr5O3trf810c9N3qsy92z16tVqHans2bOrctsS6OU9HiVKFFVEQYbSydpFr1694vub6AdiACIyKAYg+hlI2WDp7ZGhay1btkSCBAnU+9KvUSiV3GThSplMLg1IOUMuYYnoVyXvYXnPS/EOmauWIkUKRI0aVQV9ed9L2JeKc7IAq5OTE96+fav/JRF9LwxARAbFAEQ/kjTqrly5osoGS8+ODAuSBqCNjQ3s7e1RpkwZtUil3xwJng0no5EgL+9t6c2cO3cuqlSposKPfAb8Pgsy1LN37944ffq0WsCViL4PBiAig2IAou9NGnxSNUsKGrRq1UrN5ZFGnrwPJQDJfAhZtPT8+fN4/fo150NQuCHzhaQy3LVr1zBu3LgAxT7kMyIl3aW3SAosyPV4QoDo22IAIjIoBiD6XqSxJnMalixZos5yS2POL/jEiRMH7dq1Uyvwy7AgrqRP4Z0U9JBqckeOHEGPHj2QLFky9VmR+ULSQ1SuXDnMmTMHLi4uDEJE3wgDEJFBMQDR9yAlqWUB0oIFCwYoByzD3oYNG4br16+r3h4iMufu7o47d+5g/PjxARb6lfLvuXLlwsCBA3H79m392kT0tTAAERkUAxB9S7LyvcxdkB8Pv2puspUtW1bNd5C5PZzcTRQ60jMqc4WkAmLVqlX9P09SPCFlypTo2LEjbt68qV+biP5fDEBEBsUARN+CVK0aMWKEOlstVdzkPSZzGZo2bYr169erRpzpjwkRhZ4MeXv8+LGaCyRDR6UnSD5jModOelX79++v9hPR/4cBiMigGIDoa5I5PjNmzECJEiVUFTe/s9Pdu3fHgQMH1CKPRPT1yDwhWQT4r7/+UvPq5DMnJx1kuKksECxz6ojoyzAAERkUAxB9DVKaV9boqVy5slrlXt5T0uMja/ps375dBSMi+nZkntD+/fvRpUsXddJBPoMODg6qlLx8z/MzSBR2DEBEBsUARP8vCTiySKksVirvJdnkv9esWcMeH6LvTBps//77L5o1a+ZfQjtu3LioVq2aWnRVSm0TUegwABEZFAMQfSkpYCAFDtKnT+8ffKS4wYIFC9Q+Ivpxnjx5onpla9So4f/5TJEihZozdOPGDf1aRBQcBiAig2IAoi+xefNmNdzNr2ElpXinT5+Oq1ev6tcgop+BlM+W9YKKFCni/3mVExUrV67kIsNEIWAAIjIoBiAKC2lMyWRrv14fmWPQoUMHHDt2TL8GEf2Mzp07h379+qlFh+WzmzRpUlU2myctiILGAERkUAxAFFrbtm0LsPaIvGdkLR83Nzf9GkT0M/v48SOWLFmCYsWK+X+Oy5Urh7Vr1+LDhw/6tYjIDwMQkUExAFFIZE2foUOHIm3atOq94ujoiLZt27LXh+gXdf78efTp0wcJEyZUn2kpYNKtWzfcvXtXvwYRCQYgIoNiAKLgXL9+XVWTkveI3/tE5hO8fftWvwYR/Yp8fHxUb1DRokX9P99SvfHChQv6NYiIAYjIoBiAKCgnT55ElSpV1PtDyuk2aNAAx48f1/cSkRFcvHgRnTp1QvTo0dVnvVSpUjh48KC+lyh8YwAiMigGILJk9+7dKFy4sHpvyMKm/fv3h7Ozs76XiIzk3bt3GD16NBIlSqQ+8zlz5lSVHr29vfVrEIVPDEBEBsUARKbev3+P9evXI1OmTOp9IZWiJk+ezIYQUTggRU3SpEmjPvvJkydXw11Z5ITCMwYgIoNiACI/En4k7MSPH1+9JzJmzKgWUiSi8GPjxo3Inj27+g6ws7PDgAED4Orqqu8lCl8YgIgMigGIhJeXF2bPnu0/DyBv3rzYsWOHvpeIwpMjR474D4G1trbG8OHD1QkSovCGAYjIoBiASIa3ybA3v/H/+fPnx9mzZ/W9RBQe3bhxA5UqVVLfCbLgsfxWyIkSovCEAYjIoBiAwjcJP9u3b0e6dOnU+yB37tys9EZEypUrV1CwYEH13SBrBcmJEs4HpPCEAYjIoBiAwi9ZB+TAgQPIlSuXeg9kyZIFu3bt0vcSEUEteCxV4eQ7In369GpoLEMQhRcMQEQGxQAUfskwt5IlS6rXP23atFi7dq2+h4joMwk9fpUhpZf48OHD6gQKkdExABEZFANQ+OTk5ISmTZuq1z5JkiSYN28eGzREFKRVq1YhderU6jujRo0auHXrlr6HyLgYgIgMigEo/JGgs2TJEtjY2CBq1KhqAUTTL3YiosBk2JtUiowbN66qDDdmzBgOhSPDYwAiMigGoPDn9OnTKFq0qHrdy5Qpg+fPn+t7iIiC5unpiYYNG6rvjsyZM+PgwYP6HiJjYgAiMigGoPDFw8MDnTt3RoQIEdS8nw0bNuh7iIhCtn//flUwRX43mjVrpobTEhkVAxCRQTEAhS8SeOLFi6de8759++Ljx4/6HiKikEkjcNSoUWr4bJQoUbB48WJ9D5HxMAARGRQDUPhx584dNXlZXm9Z2+Pq1av6HiKi0Hv27JkaPivfJaVLl8bFixf1PUTGwgBEZFAMQOGHVHGKGTMmHB0dMWvWLFZ9s8T9Kg7N+xutaxRD/vx51OciT558yFeqGv4YMBd7r7xBiEft9XVsXbgdN16440dNEf94fQU27z6F/77G6KSPj3F+81T0+6M6yhXKi7zqmGhbvuIoXKUx/pyyGRef8b0U3qxYsQLJkydHpEiR1O8IkRExABEZFANQ+CDVmjp16qRe6xIlSrCErRlXHJ/bGfUKZ0aauJHVcTLbosRFqsz5Ub3DJOy2VDfC2wOPdw3F70VzIWXewdj/MBRh6atzwdFJHVEja2IU7LYY+/+v+hauODW7M6oWy4HfksZAREvHRNtsYiRFxlyFUWfASpxw1f+UDO/Vq1eoWrWqeg80b94crq588cl4GICIDIoBKHyQISoFChRQr3X//v0DfJGTJ87P6YByCW18G/WxMqH0H4MxadYCLFu1CssXzsH4XnVQMKne6I8QG0VazsKpd/qf+/nwAhdGZoetXCdVf+x79Fbf8T1dwbRK6WCjPYYkrebj0Be2SX1en8e8dmWRI14E3+ccKSMqdBqJBau3YNv27diubVs3rsbSEe1RPk0k3+tES4rs7aZhy139RsjwZC6QFFSRxuGBAwf0S4mMgwGIyKAYgMKHGTNmwM7OTi16+u+//+qXknJjOVrmjYEI2ucgQal2GL35LG48exdg+JqX2wNcPrYQg+rnUj0h1pGzoc7UC1p0MvHeGeeHZoZdJC00ZBiA/T8kAF3AhIrZYKc9xrTtF+LQK/3iMPB5/wS7ehdEMmvfwJe+0UjM234Ot18GeLa+Prrg1qltGFk/LxJr17WKlBK1h+7FY303GduhQ4eQKVMm2NraYujQofqlRMbBAERkUAxAxvf69Wv/tTtq1arFdX8CufdPZWRx1BrvEfOgw9LL+KBfbsnbcwvQpaC9diwjIWGBP3HQTd+hfMLdiTnhIAEo00icfaNf/F3dxz81ciG69lpn6L5Wi0Nh5O2BZ7t7I5eDb/iJX2kINt320ncG7cODf/F3+YyIov1N9DxtMPmihbBEhvPmzRvVOJT3SpUqVfD4MaMvGQsDEJFBMQAZ39mzZ5E7d271Oo8dO1a/lPycHJoXmaLJEK4WmHUwhKoBXjewa0AOdSxtUhbFGPWR+YjX1zdgYOsmqJknNmwjWMMqZk5UatAcrVq1woSd9+EcKA94Pj6G1VMGolObVuo6amvdET3HLMXuWxaS03tnXF/TG63adkWPZVfh+f4ODszsjw7qbztj4Ixt2LpoIAZ2r4UCybTHoD2+GBmLoUoTbX+7CVh5OHQN0w8vz+OfSrHU87OOXR5jT4a2C8kT1+e1Re44VoiQvx0mH3DXLw/sFS7vnIOhvTp/ft7a1q7nUEz69zxc9GsF8PwwFo9sj1Y95mDXfbngBc6tG4feHfW/145b35lbcP6FuravF2ewdnxf/fhoW7ehmL3nYcAeOwtcL+/EgmHd0cnv71p1QJ9Ja3H8KYs8BGX27NmIFi0a0qVLh507d+qXEhkDAxCRQTEAGd+mTZuQIkUK1UhZs2aNfin5uTaxJLLG1AKQbQ50XXElhEbyGzy9tAMzJkzArJUbcOaZXOaGB1taIZr2OZLPUuAtbd/DuOY3X8jrJvbOGYgWlXMioY2F60dMjKxlW2H00pParZp4rQWvttF9r1NzMOZ3qIxctiZ/l6wDupeJghh+/x1gS4t6487oNxScd3h+ajyKyu1GiIw0zbfhSRimink9Pos962Ziya7zePQycD/aB7y8vAajW9VGsfR2Fh6jFezSFkGtdrNx6nGgAHhtKn7PoF0nVh0t6KzGtuFVkCtuoL+PlQFF2k/D5ptv8ebcAnStkgOxTfdrm2PWqmg37yKcAs/dEm+vYtvMnqhTLD1iBvo7K5skyF21K8avPK/FNwps165d6vvFwcEBCxcu1C8lMgYGICKDYgAyvgULFiBGjBhIlSoVz9Ba8OZITxRP7juRP0XhGug+cy2O3n2v7w2Nj3C/fwD/DOuPjmUSILKNNazilkCLXgMxbNgwLDvxFK7qd/M1zs5qh0KxpGFtg2T5f0ePwcPUdYYNG4I/GxbBb1F9G91RMjTGmPMmQcDtNvb3So2IUSMhQqrUSK5dJ125tug1dBiGDuiKtoO3Yu/qWVgwpRMqpU+ISNr+2PlqodVf2m2PWoZd5531GwrGx8e4ML0Momp/ax0tNVpuccHbr1LH2wev7+/CsJLJ1Dwrq0iZUbNdPwxWz3sYBvVthzqZo/iGDas4KDh8L+6Ypr+bc9CqSCxYxc6MXJmTIXnM6EhdrgP+Vn/fH60q5/ANLTaOyFCxJZrkj6MFuAyo1m6A77Ht0woVUvoeV6tEdTD9zAst6pnwvIqtY+sgg71cxxaJCzVCj4G+j21Y//aonjW2+tsISarjr3XXtVebTJ08eVL1MEsxhPHjx+uXEhkDAxCRQTEAGd+YMWNU4yRv3rw4ffq0fin5+3AZy7sVQowIeiM5ShLkqdoGPQYMw8iJM7Fi+1Fcf/IuFCWtvXF/Ui59DtAonA/c03BvMVpmjQlrq0jIUK43lp81HbOleXEOq3qXR0Y77TFEzoD8f53+3NiWANQnrQo28hij5O+JVdc+/xh/8u+2eoS5NXP7zgHqsQ5h+UR7u1zF6hYx1e1HcqyOOfffIgwdQEF79wBHJlRFPLnd6LnQaOYhPA1wwx/xZM9ENMweXYUvq6yDsemqycGTAFQige9rY5UQvzWeif339H0aj8vL0Dt/fH2/tkUtiI6LjuDz0kQeuLKqFfJq4VECTpHxR3HPP9964+6qzigYV6rdJUbOeiPx7/mX+j7xCQ8Pz0fXchlhaxURDrk6YZUahkd+pKR+hQoV1LHv27evfimRMTAAERkUA5Dx/fnnn+o1rlSpEm7fvq1fSgHc34HZfaohT3y9EW2yOabJjYr1O+LPQeMwad5aHLjpof9RIFIFbng2RA+iCtzTedWRQ4baRSqMfv/es7hI6qfra/F3ASnHHR85as2Df0VpPQCptXiiJECV+Y+DKNZwEZMqZ4e9dr2wVoHzfHYRs6rJc7aGXcIu2P76/VdZx+jTvT2YVsH3dh3LzkRQ+eHCsLxIJj1gUWth+tGHn8OXBKDivgEnVsHO+OdSoD4Yn7s4MrGCb/nxKImRr/0OmM2i8jmHoZkdEVm7TqIu23DF77h4nMbgSulVYExYqA9W3LDc8/fyyETUkjLo9ulRbhR7gUzJekCNGzdWr4/MmyIyEgYgIoNiADK+Zs2aqde4RYsWXKwwOJ8e4fiCIejZoiFqlyuIDImk2ps03E232MhctQsmrjqM24G7R0IIQI8Pzcbkv9ugzZhNOPkwiJlGrw5gQRNZiNUOGUuMgn9/nQpAqWGthYiIMUth4uU3QTTC/58A9B/mVJfnaAP7pH9i36ughgG64L9ta7Fw1izMsrjNxppdZ/BELx7n+fwa9kxviTZ9BmPo9ke+F1rwfm0N/BZH7r8Qhuy7Cf+jpwJQHO1yWxTsMhdnzIrSvcDpFZ2QSnvONklzofU28/LjXu+uY1apOOq4ODRZiQvPfeOn95nBqJAlqnbbcdF0zikEOfDR6zI2d5QQFhNpy03BVf1i0g6Nlxe6d++uHRsr1KlTBx8+BFdHkejXwgBEZFAMQMbXpEkT9RrL2Vl396Cqc5Gp948vYNuicfizfTM0alAHVUvlRhpHGSalByGHzGg66ziemXbjhBCAguYDrzfPcP/KCeye2xdN8kTU7sMBmUqPxTn9Gr4BKJV2eQREid0Gq13eWuxB+r8C0NOLmFVFnl8E2Cfqhp2vg4oDJzEwu++8mKC25OX6YFeQacLEJ3e4Pr6BM4e2YE7bbEggw/+simP4/luf5+moACRD8+Kh5sBNeKBf/NlbXN0+AAW0+42SOj/+Pq5fbMLr7RVMLxFHrY9kVWaKFkB9GzJPF9dD4cRyn8lRtvUgzF68GIstbXOGo2d1Of5WSJKjLTb8kBLnPydvb2/07NlTHRsps+/hEUQPKdEviAGIyKAYgIyvR48e6jWuWrUq7t7lMv1f4t3jU9gw6U+0LFcAmeL7BqFoScpiwGmTlnBoA5DbPfx3eBs2rV+HNSuWY8GUkRjarRGqFkjl20BXW0xkLhNUAGqBtS88vnoA8nK+jKUNpDdECxJxGmLZs7ewvALQHaz/uz1qlyuHcuXLo7xsFaugWomcSJvAt5hB1tqDsd+sI+Ajnl87ir1bN2Dd2nVYPncWpgzphvb1SiBjfFv9ectWIogAlBwNRu6E+SpWHriy9S/k1f42cqp86HdEv9hEgABUfhpOPfJtyFwcXwa5VFGK0G/RUlbFfC5340/WGWvatKk6NtLLTGQkDEBEBsUAZHyjRo1SRRAKFCig1gSizzydruDM0Z3Yvv0kbjp7BNHgN/HxNnYNrYzksm5QlOTI0mv/52FTIQYgN9w7twMzetdU6+WYNqqtIsZA/NTZkDdnZqRTAStGsAFozTcIQFKs4MSoArDW/tbGISf+OuERxDwjH3h7fYLnR094ag0CaRSoZsGj9RhSJ6l6PgEDkDc+vryBPQtHoFWJRGoezufnHlF7PkmRIVte5EsfG9FUae+geoCSof6IHTBfqen/DEAyLytCIqTPVRwV/AJdMFvDDmOwPyzH1eDu3Lmj5hfK69m7d2/9UiJjYAAiMigGIOObO3euWqMjTZo02LNnj34pibebOqFgGml0p8Afi08jUF02iz7c2oVRxWSYmiNSl52Oa/rlIQWg1+emoNlvvouMRomTBjkKFkXp8mVQs3k7dBs+B2uO3sHzC+sxtZ70okQPZgjcNwpAcMej3X/jN2vteESKjsIjruKV5TuxzGkzhtdLpp6faQD69OYadvxVGnG0y2VuU7Is+VGkeDFUqlMbzboPx/glO3D21jPcnVsZ6WPLdYp9twB0fVol5HGU51sdI7cGPT+JgiaVJfPlywdra2sutEyGwwBEZFAMQMa3ceNGJE+eXIWgdevW6ZeScmUCSqfxXWA0e5cVOBea6QvPjmHR77KYZwykKDwBl/WLAwSgjINwwDQAed3DovrZkUC7n0hxC6PdtMP+RQICuLcZk6rJcLDg5gCFLgCl67AIh8NY8+Lts8MYkVcCWATYpu+I1TdNylGHxGU7RjdMoY7l5wD0EQ/2jEf16FrIsI2OdJWHYdtNy5ODHv9TEmljfN8A5L6jM0qklap7qdB8xhG4qEspLOSkiqwxZm9vj/nz5+uXEhkDAxCRQTEAGZ8sVJgjRw71Ok+dOlW/lBSfk5hcPq0qg2yVoh4GbDCpPhYE58Oz0DS1dv0ISZCr50G81i+XAHRumBaAbLUAlPov7HtscksvV6N1vsTqNUjdeQ1OBFGLwvXQVDTPICEgJjJ/UQA6j0kVs6kAlLrdAhwyXdImND69wu3ljZE0kjwGW6Rvsxgnn4Y4MFDxvLEYf5ZLqJ7jb9X+wh5V6O4hjs1pgFjaZTbJ86H7IXVVC15hQ5tUiK/uN6g5QF8zAOlV+J4sR9MCCdWwv0wNJmGvcxCFv33eweXOBVw4fwU3bj8DS4l8tmjRIkSPHl2FoG3btumXEhkDAxCRQTEAGZ+s0yHlaeV1rl+/PlxceJ7b1LP1nVA2hcy7sULEXE0xat0FPHj2Cm8DtPt98N71OR6dW4vxTdKp60ZKVwGjjum7xccXuDS+IOwiao3sKA2x4p5J74nrJrTJ7Ts/Jkn9ydhy7/MPqaI1sF892YcZ7YsgmnYdK6tYyFJ2PC7ou0MfgK7gn2o5EFu7jVi1xmP7E/3iMPjkehmLGqVBPLUwrANydFqE3Vee4dVbS/f4CR4vHuHu1b2Y2bYokqrHHhX5/5iEk+opPsPxuc3V8LcICbOg2Qpns3lFn9ye4va2v1E0jpT/lr8vhZEHbn+eW/UtApB/GfIn2NChFJLZyP3mRKMR23HvdaAS5V5v8GDXOLTJKtdJjDy/z8GFr7FAkgF8/PgRbdq0Ua+bLIbKIitkNAxARAbFABQ+TJgwAREjRkTq1Kmxfft2/VLy5YxdAyohl721+izIWj8ZyrTGkKU7cODERVy8eBKHd6/GmHaVkc2veIFDLpQbtB9u+i0o3m5wWdsUcVVjOjVaLzyIS/fv45nbR3zyuYulDfIjvrr9JCjbcRb2/Hcf97X99+5dw/HVQ9E0dyJEihwVdvZSiU2GwI3Cab+GdqgD0Bvs7lIEqeV+UjfAwJXntPt4hpfuYVu60/P5Ccyslx7J7H2DoVXi4mg+cCl2nLqKO9pjlsd99+ZFnNw0B3/Vyo6EkeV5WSOSQzxkrtQDc08464uofsL9/VNQ28732MbIUBdjNp7DzXtyG/dw/ew2zOlcGsmjRIKdgz1sI8pwtMIYsjfwOkBfOwB9Ph4+1xegS7lkvgupRkiHUp3naIHvnnqO9+/dxNFF/VA3m8z50vYnLY5WSx8EcezDn+PHjyNnzpyqyMqgQYP0S4mMgwGIyKAYgMIHGQaXK1cu9VoPHToUPj48hW3K58Mt7BxRHwWSx4SdzOGRxq7WoI8QwQY2NhG0/5cGvDVsIkWDQ+ICqDtkLx54Bj6GnvC4Ng8NUsSEjfr7CLDRQme+IUdw870PPl2eiubFkvr2EGn7rW0iqlBqaxsZUe2iI0bM31CpVS/83auWaqjHzNYI8x/p9+F+C3t7+g6hs7JvgpXOQQUg4PHylqiQ0q+stI12HwXRatIJLSaEjZfbPRye+gcKJ4+N6NGiIkqkSFpA8X3MfpuNPAfbSIhi54BYv1VBpzlH8eCdZ4Bqej4e17B7ZAUkcIisHxd5TPL3togcJRqiOzgifqbqGDJzAEomkyIRdqg+6zge+t3IjVloVlBCYXzUHrINz/SLP/PA5c19kF1uO3EO9LIwzM7r7WVMKRQdEeU6JSfjxAPTQOiFVyemoX2p5HCIaosI1trrrL826jnKe0B73aOnLorGU0/CI3QjAsOFSZMmqfAjBVZ27NihX0pkHAxARAbFABQ+yGrtshCqvNYVK1bEvXv39D3kx+ejB9zuncbmyZ1Rq3B6xHN0gJ1dNESLZgc7h9hInqcK2o5dj2O33eARRIeKj/cbPNg6CPXzxkcMezvtb6MhfdeN+E+NOvwI9/s7Mf/PmsiT2BF22j7ZHz12ShSuPwBLDj7Gm3dvcWXjCJSLFROO2Sqh1059IJiHFkYGZ0esWLGRIFUnbAxyIVTtMXg+womZHVAmtRZc7OU+sqHhiN34oqVrPr2Dm9MtnF42Cp1rFECGBA6w1x93tGgxETtpNpRqOgBzdl3EfZc3eG8xHPjA+8MjnF0/GC0K/4b40f3+3hEps5dH5ym7cV0LdB+9LmJ8iaxIHCsWsv65Gef95i/dXowulVNozz0LWk7YC2f94s/e4vqu4Sil/V387KUx9IR+sQmvd9cxt0pqdduxas/B2ceBX0BPvHt1GXvm/on6eZIhrnrdZbNH7JSFUbvvImy//gpvA42OC89k/R/TobXSUCQyGgYgIoNiAAo/Fi5cqCrBxY0bF8uXL9cvJTMShF46w+nZMzzz35zw3OW1FnxC0XPm8x5uLk7+f+v0+h08TdLKp7ev4fLc5LadnPHK/b1/oJEg9kq7/OnzF3B9p9+fjxc+ujvr13+N994hPA65DWe/+3iubv/zT/cX8P6At24v8cL0cWub03MXvHoTytvWjsubly9MjqsTnLVj+jlUeOOdixz3p3jm+k4LRPrFn97i9Us5ns/h+uaDheDng08f3OEit+nsAouj/Xw+4e3L5773/fItPL2COH5a4HN30a+nb07OL+H2jt0+gUnBA+n5kd8PFlcho2IAIjIoBqDw4/r16yhdurR/L9CtW7f0PUREoefs7IxatWqptX/y5s2LU6dO6XuIjIUBiMigGIDCDxkGJyVr48SJA1tbWwwbNkzfQ0QUejNmzEDUqFHV94j829OTYwPJmBiAiAyKASh8efPmDZo1a6Ze88yZM2Pv3r36HiKikElvT758+dR3SM2aNfH06VN9D5HxMAARGRQDUPizf/9+tTCqDF+pXbs21wUiolCRnp7mzZvDxsYGadOmxZYtW/Q9RMbEAERkUAxA4Y8sXjht2jTViLGzs8Ps2bP1PUREQVuzZg3ix4+vfjOknP779/7L1RIZEgMQkUExAIVPT548QZUqVdRrnyFDBvz777/6HiIic7t371aLnsp3RtGiRXHt2jV9D5FxMQARGRQDUPh18OBB/8VRpWHD+UBEZMnx48dRqFAh/xMmUgJbiqoQGR0DEJFBMQCFX97e3ti4caNq0Mh7oHDhwjh58qS+l4gIuHz5sn/5/KRJk2LZsmWs+kbhBgMQkUExAIVv8oW+dOlS1bCR90HZsmVVg4eI6N69e6hWrZr6bogdO7b6vZA5hEThBQMQkUExAJE0aGbNmqUaOPJekAbPjRs39L1EFB49fPgQ9evXV98J0aJFw4QJE1j0gMIdBiAig2IAIiENm3HjxiFKlCjq/VC1alWu7k4UTslvQb169dR3gZTL79OnD969e6fvJQo/GICIDIoBiPxIA0dK2zo6Oqr3hMwJ2rVrl76XiMKDw4cPq6Gw8h0gPT9du3blWmEUbjEAERkUAxCZksnNU6dORfLkydX7IlOmTFi9ejUnPROFA5s3b0bu3LnVZz9BggQYPXo0XF1d9b1E4Q8DEJFBMQCRJVLpScKPvDdk4cMxY8aoHwIiMp63b99iwYIFSJ06tfrMp0mTBnPmzNH3EoVfDEBEBsUAREHZuXMn8uXLp94fNjY26NChAyvEERnMrVu38NdffyFGjBjqs54jRw6sX79e30sUvjEAERkUAxAF58qVK2jQoAFixoyp3ieyHogsgvjmzRv9GkT0K5Lqj3v27PEvcy1bkSJF1ALJROSLAYjIoBiAKDhOTk5qOJwMjfELQfHixcPff/+Nq1ev6tciol/J3bt31bBWv7l+cePGRZMmTfiZJgqEAYjIoBiAyBJZB2jx4sVqHRCpCifzgIYNG4ZixYqpsrjynilRooQaJufu7q7/FRH9zKTc/b59+1CpUiX1GZYtW7Zsah0wLnBKZI4BiMigGIDIjyx8KGv/LFq0SA2F8WsgSeBp27atKpMtwahdu3aqQpTskzPH0ht0/fp1/VaI6Gd0//59jB07FkmTJlWfXVn4WE5wcL0voqAxABEZFANQ+Obm5oY7d+5g+fLlqFixon/oMd1kcdR58+bBy8tL/ytgxYoVyJkzpyqOINcpWLCgKqH77Nkz/RpE9DNwdnbGjh07UKZMGf/PdJYsWdR3P3t9iILHAERkUAxA4Y+3tzeePn2K/fv3o1evXsibN69/w8jSJoshnjt3Tv/rz6RAgvQMSS+QXC9ChAioWrUqdu/erX40iOjHef36NQ4cOKCKmMhJDPmMyjy+33//3eLnmYjMMQARGRQDUPggX9yymruUvJXenqJFi8LW1tZ/Pk9wm8z/CapnR3qFNmzYoMpl29nZqevb29ujcePGakV5Vosj+r5kTZ+TJ0+qsvUyf08+k1GjRkWuXLmwdOlSNQ+IiEKHAYjIoBiAjE0CyqNHj1RBgwoVKqhx/35ng0OzyRC3Zs2aBVvowMfHRw2zkYUTs2fProKV/K0Epy5duuDs2bNsdBF9YzKcTaq4yZo+SZIkUZ/BiBEjImPGjJgwYYL6HpDeXyIKPQYgIoNiADIeCRsy/EUmPUvwkdfWr3cmrJucOZ47dy48PT31Ww+ahK179+6pidbp06dXvUsyLE5K7UqhBBky9+HDB/3aRPQ1SPC5ffs2Ro0apcrV+83LS5kyJQYMGKAKl4Tm80tE5hiAiAyKAch41q5dq8rcJkqUSM3fMQ00Yd2kF0fmC4WFhBy/M9HJkiVTtyO9QvJvGZZz6NAhTr4m+j/JZ0iGuv35559IlSoVIkWK5P+Z7dy5My5evKgqNxLRl2MAIjIoBiDjkbPB0msjVd0kAElPTGjm+gTeZPhM06ZNv7jXxsPDQ0227tSpk3+hBLlNaaBVr14dq1ev5tA4ojCS3hypuCjFDeQkh1/wiREjhhqueuLECa7NRfSVMAARGRQDkDHJ2eHnz5+rNT7WrVuHoUOHqgpt8eLF8w84IW3Ro0dX7w/TL/0vIcPxJAgNHDgQGTJk8L99mY8k5bMnTZqk1iAioqDJPLvZs2ejdOnS/icUZJOhbtILJJ91aawR0dfDAERkUAxA4YP0xjx58gRnzpxR84LkTHHChAn9G1GWNglLX7NcrlSEk6Fxsuq8VKHzux8HBwc1Ubt37944duyYfm0iElJERObyZM6cGbFixfL/3EjlxYkTJ+LSpUvqJAMRfX0MQEQGxQAU/rx69Uo1qKQHxq8xZWmTgCTX/drkR0QWX5W5SrISvV9VusiRIyNNmjSqp0p6ha5du6b/BVH4cvfuXcyYMQN16tRBunTpVDESv89ltWrVsGTJEty8eZNDSIm+MQYgIoNiAApfpCdowYIF6stc1uvJmTOnmkDt17jy26RoQb169b55sYLHjx/j4MGD6NGjhxrK43f/Mp8ha9asaNKkiXq8YS3EQPSrkYbWsmXL0KJFC+TIkcN/DR/ZZK5P+/btsXPnTlXdkYi+DwYgIoNiAAo/5GzxihUrkCVLFvWay7pAMj9IKrP5NbT8NhmWNnPmzO+2boj0NJ0+fVoNj5OV6k2H+kjRBJkr1LFjR6xfv56Lq5JhyGdy27Zt6Nq1K4oUKaKCjt/7XgqY1KhRA1OnTsXx48fVHCAi+r4YgIgMigEofJA1erZu3Yr8+fP7v97y31JRSv4/8HA4mWQtgeRHkIII+/fvx+jRo1VIk7WE/B5XihQpULZsWfTq1UuFIelBIvqVSHESqeIma2NVqVJFDfs0/eyVLFkSw4YNw+7du9W6WkT04zAAERkUA1D4IGvvSMNKXmtZpHTlypX+5a0lcMiZZr8GmJTVlbkHMlzuR/Lx8VGLOP77779qTSHpBfJ7jLLJAqulSpVCmzZt1PtYCjyY/kAR/Szku1WGckpva7ly5dSCpabv5dy5c6siINIjKwsG831M9HNgACIyKAYg45NKbnKmWV7npEmTYv78+QEWSJReoAkTJvg3xqQogfSwSAD5WchjPH/+PBYuXKiGC/n1ZPltMmQvb968aNSokVoRf8eOHepMO9GPIEM69+7di/Hjx6uKi4UKFQowp0c2mX/Xrl07zJkzR5Ww5qKlRD8fBiAig2IAMjZZFFUqrclrHCdOHEyZMsViz45MrpYQIdeT4XCykOrPFIBMvX37Vg3Pk0pY/fv3Vwu+JkiQwL9hKZv0ctWqVUvtl4nl0sD8FhXtiIQsPConGlatWoUhQ4agbt26yJQpU4D3pAQgv+GbchJC5vWwfDXRz40BiMigGICMS4a2SUUpmUMTM2ZMjBgxIsgV4p2cnNTK8vJeSJYsmfrvX4WUA5ZhciNHjkTDhg1V9TjThqc8d1kzRXqHZDHWRYsW4fDhw2pdJKIvIb2LEmCWLl2qFhlu2rSp6uWRkwym7z1pNEkYkutI2XdZB4uIfh0MQEQGxQBkTFI2unPnzrCxsUH06NHRt29fuLq66nstk4nZUvygUqVK+iW/HvmxkrLa06ZNU3ODihcvHqCylmxS4ltCkjRM+/Xrh3nz5mHfvn1qbaKftdeLfiwpPS3vKxmCKSFaThbkypUrwPo8ssniwYULF1YnHiZPnow9e/b8UicTiCggBiAig2IAMp4XL16ooV9SRle2Tp06haq3QwoOyLAxGSZnFJcvX1Zn3qV3qHnz5ihdurTFdY+kEpcsMNmnTx9Vinvjxo04ceKEWpCSczPCD1n36sGDB2rI5KZNm9T8HCnAIZ+LjBkzmr1vpBBHiRIl1HpV0ssjxUVkrtr3Kh9PRN8WAxCRQTEAGYv08kgRAJnHI9XcpNF/69YtfW/w5Ey1DOk5evSofonxyLGQnq5x48aps/Tly5dXP2wSFE0btnZ2dsiWLRtq1qyJnj17qrVYJEhJNb3r16+rH0X6tclnRYZPHjlyBBs2bMCMGTNUAJYKiNK7I4vxmr4nIkeOjHTp0qkQLYUNJFRLUJb3A3sOiYyJAYjIoBiAjEPm98jQL6n0JvN+ZIiXnI0OLVkrSBqFbm5u+iXG9+zZMzVMSQKODJmTggrS+JVjKA1e0wawbNJ7JBPZZVV+qfC1Zs0aNXzu7NmzquCELFYpvQj0c5AGi4uLixreKJ+FAwcOqFLTEydOVENE5fVOmzat2escMWJEJE6cGDly5FAhWcKyVEqU6oIyt46IwgcGICKDYgAyBhmmJfMT5EtaXk9ptMmZbZ6ZDps3b96oMCPBRhZibdmypTqWUmJbwk/gXgHZpLcte/bsqFy5Mtq2basWsZTXQlb4l2ILFy5cUA1wCUey8j99XbKelQz7lOGK8h0m7/vt27dj8eLFqje0Y8eOqF69ulprR+boBH79ZI5cypQp1X5Zo0d6d4YPH66Gs8lQOFZqIwq/GICIDIoB6Ncna+TIWW1pwMlrKZOw5Uy19OjQ1yFD5yTQSE9Rly5d1LpKUllOym3Hjx/fbAid3yYV6LJkyaIKS0g4koa1VKGT10eG00k570uXLqnbf/TokeqtkDLlfO2g5tFIyXM5Jo8fP1Y9bDKnSxa8lWAppdtlyKaEHFlgVF4T6bEJvN6O3ybrW0kAkh4f+b6T3h/pyZs0aRK2bNmCa9eu8YQBEQXAAERkUAxAvzZpJO7atQvFihVTr6P0RMhcFQlF9G1JKWTpbZD1iKTEuDTCq1atqhZpldAjPUbS4Jb5RKYNcb/N2tpahafMmTOrifQyZFFuY9CgQZg+fbpaU0aG50kxBhm+JSWUJSjdu3dPBQKZsyXhQHooJDTJ0LufcfK9hAp5bBJmZHilNCjksctzkOpqEmwkfEhP2cmTJ9UCovIenjlzpiosIEU8ZC0rmXsj1fukqp9UN7R0TCWISiVD6dGR4yoh1S98+vXMSTU3lkAnotBgACIyKAagX9uxY8fUmWx5DaWSmfQuyJAg+nEkfEpIkR6ewD0U0kuXIUMGpEiRAgkTJlTD5+zt7VVpbtOGfOBNGvXyAyzhqkyZMqo4g1Qek9vt3bu3atxL9T4p6b169Wps3brVv4dJwtPFixfV51t6m6QX5cqVKyp0yAR+qf4nxQAkXMlQPRlKJo9fNvm3XCYhRa4j15W/kb+VQCa3Jbcpty33Iffl10Mjw9BkKKEs+imPTXq/pBy7DEmTYWZSWU3mUxUsWFAtGiphUUKhpecvmxwjOVbSwyPHTiqwSQ+czNmSz4BfyJHPwP79+9Vj5pBDIvp/MAARGRQD0K9LXq/atWur108ahFLFiiWbf27yAyqT6GURTalGJ+FA5hpJpTmp2Ce9FfJZlIa99CAlSZJE9RLFihVLNf5l3Rmp7hdUD4ilTUKFFHSQ3hGZwyShS25TbltChARnCWXSayVDyOT+CxQooIKJ/Fsuk33SAJDhYxLe5G8TJEigFv6U25ReLrkPKb5h6TFY2uQ5yHOR5yTPTZ6jhCC5benBkWMggbFChQoq7PXo0UOFyblz56qFbyX8S0hj0Qki+lYYgIgMigHo1yQNP2kUymsnk7jHjBmjhkHRr0uGisnmN/dFhodJD4705sjQLSndPWDAAHTv3h2tWrVSw8Kk8IIMf5ReECnRLIFGKtjJMDEJORJQpMdEwoVsMidJAouDg4Pa5L0j4UMCjGwSkiSQyCZzZuT/5TK//XJd+Ru/v5fbktuU25b7kU3uU4KMhHK/kCXBSYJU0aJFVcj7/fff1XPo1q0b/v77b/X+lTAooVCGwUmvkxSkkGPhd1yIiL43BiAig2IA+vXI3JN27dqp103OukujWBqLZGwSBmSTAgnyQyybDLeTHhDZZOijzAeSuTUyRE3Ck5Tolgn+ss6NzKtZsWKFmrMkYUM++zLPRoanSYln6YmSYWqDBw9W7ykJJvJvmd8k++Q6cl3paZQFQuU25LbkNuW2ZU0cCTAyb0lCjAyRk8IO8pjksfk9TnnMfo9fnovf82LIIaKfDQMQkUExAP1a5MtY5nzIUCNZq0TOoEt5ZaLg+PWiyGYapPw2v0AimwQU0810n9/1/W7DL7j4bURERsIARGRQDEC/DlmkVKpiyRAkmT/RunVrNRSOiIiIvj4GICKDYgD6NUj5YFm9XiaeS+9Pw4YNVQUuIiIi+jYYgIgMigHo5yfFDWTORerUqVX4qVatmlobhoiIiL4dBiAig2IA+rnJ5HGZZC5liOV1KlWqlJpkLnMviIiI6NthACIyKAagn5dMQJcKXrImi7xGsqq9VNoy/RImIiKib4MBiMigGIB+TlJR68CBA2rVf3l9ZKX8ZcuWqR4hIiIi+vYYgIgMigHo53T27FlUr15dzfmRhSTldZLFMYmIiOj7YAAiMigGoJ/PzZs3VZU3W1tbtaq+LEDp7u6u7yUiIqLvgQGIyKAYgH4uT548QZs2bRA5cmREixYNQ4YMUev/EBER0ffFAERkUAxAPw9nZ2d0794dUaNGRZQoUdCrVy+4uLjoe4mIiOh7YgAiMigGoJ+DfMkOHDgQ9vb2auhbhw4d4OTkpO8lIiKi740BiMigGIB+vNevX2P8+PGIHTs2rK2t0aRJE9y+fVvfS0RERD8CAxCRQTEA/VgeHh6YNWsWEidOrF6HmjVr4vz58/peIiIi+lEYgIgMigHox3n//j2WLl2K9OnTq9egbNmyOHLkiL6XiIiIfiQGICKDYgD6MTw9PbFx40bkzp1bHf9ChQphx44d8PLy0q9BREREPxIDEJFBMQB9fxJydu/ejeLFi6tjny1bNqxduxYfP37Ur0FEREQ/GgMQkUExAH1/x44dQ+XKldVxT506NRYuXIh3797pe4mIiOhnwABEZFAMQN+XHON69eqpYx4/fnxMmTIF7u7u+l4iIiL6WTAAERkUA9D3c/fuXbRo0QIRIkSAg4MDRowYAVdXV30vERER/UwYgIgMigHo+3B2dkbnzp0RMWJE2NnZoW/fvnBxcdH3EhER0c+GAYjIoBiAvj03Nzf069cPkSNHRpQoUdClSxc8f/5c30tEREQ/IwYgIoNiAPq2ZKHT4cOHw97eHra2tmjZsiUePnyo7yUiIqKfFQMQkUExAH07Utlt8uTJqtiBjY0Nfv/9d1y5ckXfS0RERD8zBiAig2IA+jY+fPiAefPmIVWqVLC2tkaVKlVw8uRJfS8RERH97BiAiAyKAejrkwVNV69erRY4lWNbokQJtfCpLIBKREREvwYGICKDYgD6uuQLcuvWrShcuLDq+cmbNy82bNigQhERERH9OhiAiAyKAejr8fb2xoEDB1CuXDm11k+mTJmwZMkSNReIiIiIfi0MQEQGxQD09Zw5cwa1atVSBQ9SpEiBGTNmqCpwRERE9OthACIyKAagr+P69eto2rSpKnUdN25cjBkzRq3/Q0RERL8mBiAig2IA+v89evQIHTp0UIucRosWDQMGDICrq6u+l4iIiH5FDEBEBsUA9P959eoV+vTpoxY6lePYrVs3vHjxQt9LREREvyoGICKDYgD6cu7u7hgyZAhixIihjmHLli3x7NkzfS8RERH9yhiAiAyKAejLSHGDCRMmwNHRUR2/hg0b4vbt2/peIiIi+tUxABEZFANQ2ElZazluCRMmVMeuevXqOH/+vL6XiIiIjIABiMigGIDC5sOHD1i2bBnSpUunjpus+XP48GF9LxERERkFAxCRQTEAhZ6npyf+/fdf5MyZUx2zwoULY8eOHfDy8tKvQUQ/Ox8fH9WLK3P4pFqji4sLnj9/jqdPn+Lhw4e4d+8e7ty5gxs3buDq1au4dOmS6uGVdb5kk3/Ld+WVK1dU+ftbt26pv3nw4AEeP34MJycnODs7qwIpUgr/zZs36ruDiH49DEBEBsUAFDre3t7Yu3cvihcvro5X9uzZsXr1anz8+FG/BhF9LxJgpODIzZs3VSA5duyY+nxu2bIFa9aswZIlS9R32+TJkzFq1CgMHDgQvXr1QpcuXdC6dWs0a9YMjRo1Qv369VGvXj3Url0bNWrUQNWqVVGpUiWUL18eZcqUQcmSJVGsWDEUKlQI+fPnV5v8u2jRoihRogRKly6teoErVqyIKlWqqOGwshhy3bp18fvvv6u5gY0bN0aLFi1UqfyePXvir7/+wvDhwzF+/Hi1WPLChQuxatUqdXJl165dqkdZgpYELAlkXE+M6MdhACIyKAag0Dlx4gQqV66sjlWaNGkwf/58vH37Vt9LRF+D9JY8efIE165dw8mTJ7F7926sW7cOCxYsUGFm6NCh+PPPP9GqVSsVMiR8SCDJkSMH0qdPj6RJkyJ27NhqPS75rP4KW6RIkRAzZkwkSpRIfbdkzZoV+fLlU+FLAlXz5s1VcJP1xSQ0yXe2BKZt27bh6NGjqofq/v37qseJvdFEXxcDEJFBMQCFTBoYcqZYjpMUPpCGGM/KEoWdNCBkiJgMLZOeDun1kJMJY8aMUetptW3bVvXISO9L7ty5kSpVKsSKFStAYLC0RYgQAXZ2dogTJw6SJUum5uhly5ZN9dhIT4300NSsWRMNGjRQjRm5n44dO6Jz585q7S7pmZEeon79+uHvv/9WPUZS4n7EiBEYPXo0xo0bh4kTJ2LSpEkqhMjjHTlyJIYNG4bBgwercNK/f3/1HOS2unfvrkJLp06dVM+PBDbpCapTp446kSI9RxLcZDitNKxSpEiBBAkSqJL6EogsPUfTTZ6rhD0JS9IrLb1X8rzkuUjv0qxZs1RPmPSKXbhwQS3WzBM2RGHHAERkUAxAwbt7964aMhMxYkR1llYaF/KFSESWSSNBhqdJyJEeChmWtnjxYhUgJCA0adJEBYCMGTMGG24k1MhnTgJN5syZUbBgQdXjI8PVZAibhAsJKxJQpk6dinnz5mHFihX+Q8mOHDmCc+fOqd4kmZ8j83KkfL3MAfoRpICK9NLIPCEZuifB5Pjx49i3b586RjKkdtGiRZg5c6YKWRLAevToodYXk+F0Epxk6J0Mv5VgKGEvuLAUJUoUdT2Zqyi9ZRLIZDjg3LlzsX79euzfv189Buk9kuNCROYYgIgMigEoaDIxWs6oRo0aVW3SeJOz10TkS4asyUkCGa4mjXgJIdIb0rRpUxVypNHg4OBg1jiXTYapJUmSxL8XQ4Z7yZyZ9u3bq3kyEgKkd2jjxo04ePAgLl68qHoywmNjXYooyPeRhDmZ77R161YsXboUU6ZMUT1QXbt2VaFQepjKli3r33vmt0hz4E1O6CRPnlyFSvkbCVpyWxKMDh06pO7nxYsX+r0ThV8MQEQGxQBk2evXr1VDzt7eXp1llWEsMjeBKDySXhNpEEvVM2mAb9q0SfVUyHwcCS7SQ2Nra2vW0JbPjwzVypIlC4oUKaIKDEg4kpMJ0uCWYVrSSyQh6v379/q90f9Det+k50sC6ezZszFo0CA1BE+Gycm8oly5cqlwJIs4Sy9b4NdMgpGEVxkmOHbsWKxdu1b1Fsnvg/Re8XWi8IQBiMigGIDMyVlt+eGX4TdyplSG7EiZW6LwQnpZ5D1/6tQpNaRM5r1Jz4zMzZEGcuBGs/TmSNCReTcy50bm8cicGpkzIyFHQpMMQzNtQND3J71IUjVPwpF898tcJ2ncyesqvwGpU6dW33uBX18ZqijzqWQekwzNW7lypeopkkDMIcFkZAxARAbFABSQTBSWM9vx48eHjY2Nmm8gw0GIjEzWw7l9+7YKPHLGXxrGUtZZhqgFbgxLAzllypSq8lqpUqVUiWeZhyPV2mROicx1oV+P9MLt3LkT06dPV0PqZM5R3rx5VUGJePHimfXwybBgmZMkhSSkSp8EIpn3JSGL1ejIKBiAiAyKAegzGdohk5DlLKi1tbWqHCUNQiIjkeFssvinX+BZtmyZGsomw6MCn/2XOSRSoUwm3svnQRq706ZNU0UGZPI8GZu8T6RQg3wvSpU7KaYgPUESiuLGjatOEpm+XyQUS9EGWd9Ihs3JySNZYJbD5uhXxQBEZFAMQL5kkrFUYZIJ2XI8ZPFDKSH7oypGEX1N0rMp8zdkbog0ZmU4m5zdjxw5sn/jVRqzMtTJL/DIXB0Z+iYFCDjMifxID5/8Vsj7SHqKpIBF2rRpVS+RVJ7zez/JJkFJKthNmDBBvY+kl0l6G4l+FQxARAbFAAQ1XEMWFZSKSHIspILShg0bVCgi+lVJIQ+ZdyNDk2TNGqkOJkUJ/BqnUtxDAo+UmZaFNyUUzZkzB2fPnuV7n0JNThLJfDEZOinrKMn7TIosSA9R4AVppQCDrJEk1eZu3bqlCmt8/PhRvyWinw8DEJFBhfcA5O3trc5Mli9fXh0H+ZKTNUvevXunX4Po1yANSfmxvnPnjmpgyjo5mTJl8m98SsUvCUCJEydWPZyyYOfy5ctx48YN9cMunwWi/4eEITmhJMFGTirJumlSfU4CkQyvNF23KFGiRGpIncy5vHz5slpigIu10s+GAYjIoMJ7ADp9+rRaB0OqvcnQHxm77ubmpu8l+rlJT40MKZJeG5mbU6tWLVXe2K+RKRPXo0ePjjRp0qg1dqSHRyp3yTAm+THnEE/6liQM+QVzWc9J1lWT3xoJQzL8UuZayvtUglGhQoXUwrZ79uxRpbx5Eop+BgxARAYVngOQVCySLzb58ZXx67JKuqzUTvQzk54aOVMuRQxknRep1iXFCmQOj/TyyP/L0KOcOXOq4gayaKZMRJe/YXUu+lEkbEvwlqGZUlhhzJgxqrCGDMOUE1Dy3pVNgpEUU5AwdObMGbi7uwdoeBJ9TwxARAYVXgOQzI2QIUIyadfOzk5VOHJ2dtb3Ev185Ey6BPQVK1ao3hwJ7aZn0aV0u5Sunjhxoip2ID/cPItOPyt5P0sYkrlAUolQFmuVnkq/ynISihwcHFSpbSmiID2XUk2OQzXpe2IAIjKo8BiApLSrTNaV+RDSeJQgJGfIiX420tiTM+Dbt29XRQqkqpYMafNbwV/Ce9WqVdXQNmlIyo811+GhX430TMrQY/kelh5Lea/LHCF5j8smaw7Jf1evXl2tOSQnsNibSd8DAxCRQYW3ACRnEEeMGKHOLMrzbtasGR4+fKjvJfo5SPCRz6MEdVl3JU6cOOqMuF+DUM6Kjx07Vk0el55LVm0jI5GeISmZvXLlSlVGW4bJ+b33Zbhn+vTpVaNUTgywihx9SwxARAYVngKQ/FBOnTrVf7HHevXqqYpZRD8LCeiyGr+swZM8efIA66r4zYs4cOAAHj16xOFtZHgyb+j58+c4f/68KlAj1Tr91q6S3vsECRKoBXznz5+vqsgRfW0MQEQGFV4CkJwhnzdvnioBLM9X5kpcuHBB30v0Y8ncHmnEyXC2JEmS+IceaeDJEE1Zl0qGuMlwOKLwSL7Dpbf+8OHDqry2FPnw+5zEjh1b/YYNHTpU9YoSfS0MQEQGFR4CkIwVX7VqFTJkyKCeq5wxlMUhiX40WUBShmSWKFFCFTXwa9Blz54do0ePVuWtZc4aEX0mFQ2liufSpUtRqVIl/0IgMicua9as6NKlC/bv369fm+jLMQARGZTRA5CEn82bNyN37tzqecp8Cplkywm09CNJsOncubP63EmjzS/4SGNOPpPyWWQxA6KQyTDmLVu2oHXr1gFOIkjBkEaNGmH16tX6NYnCjgGIyKCMHIBk/Pi+ffvU2XV5jtmyZVOTajlpln4UKeXbq1cvNZ/Hr6EmAahly5aql1KGuRFR2MkcIOn1kSUNMmXK5P/5krl0UuxGTnwRhRUDEJFBGTkAnThxQs2pkOeXNm1aVSpYhk4QfW9S0WrkyJEoXLiwf8MsWbJkqrG2Y8cOTuAm+krkO/7kyZMYP368/8kvv98AGRp38OBB/ZpEIWMAIjIoowagS5cuqcUiZVE9KXwgC+lJaVWi7+nJkyeYOXMmypUr51/GWobpdO/eHXv37uUwN6JvSH4HRo0apYY++wUhmSMk5eXPnDmjX4soaAxARAZlxAB0+/ZttGnTRpUQlvUjhgwZghcvXuh7ib49+dGU1e1l4UZZuFQ+Y1J+XX5IN27cyJ5Iou/o9OnTqrc1c+bM/kFIQpEUIJFhqURBYQAiMiijBaBnz56hZ8+eqtEpAahHjx5qdXGi7+Xo0aNqHR+/Cdmyin2tWrVUxSpWdCP6MaTwjayhJcVHUqRI4R+EypYtq0rQszeWLGEAIjIoIwUgGeI2ePBg1esjZVGlKtCDBw/0vUTflrOzs2pI5c2bV32m5D0ojSv5jMnCpUT048kCwlIZtEWLFogTJ476rDo6OqJ3795qyByRKQYgIoMySgCSHzWZ5+N31r1+/fpqKBzR93DkyBHV6yO9jvL+kzWnZB2fGzdu6Ncgop+Jm5ub6pWtUKGC+szKVrp0aSxatIhDVMkfAxCRQRkhAL1//149j0SJEqnnIvMuZJE8om9NhlwuXLgQuXLlUu+9SJEiqbV8WHKX6NcgpeelOpwUy5HPsAyfliIJ7A0iwQBEZFC/egCSNX1ksrnfmG4ZcsTqPvQ9HDt2DM2bN/ev7iY/kFLq+vHjx/o1iOhX4Pc7Ir8f8lmWrVSpUli+fDk8PDz0a1F4xABEZFC/cgDy9PTEhg0b/Be9K1q0qFr4lOhbkzkEuXPnVu+7aNGioXz58ti5c6e+l4h+Rffu3VNFEpIkSaI+29IbJJXiWEU0/GIAIjKoXzUASUWfXbt2oUCBAurxyxCkf//9V11O9K3I3AA5U5w6dWr1vkuVKhWGDRvGSoNEBiEn1mRuUJEiRdRn3NbWVlUTZc9u+MQARGRQv2IA8vb2VpPOZXFJeezyxbRkyRJVCIHoW5GzwLKoolSMkvddzpw5sX79en0vERnJzZs38fvvvyNy5Mjq8964cWMW1gmHGICIDOpXDEBnz55FnTp11ONOnjw5pk+frir6EH0rMlG6ffv2qrS1vO+KFSuGgwcP6nuJyIikZ7djx47+ixmXLFkShw4dUifhKHxgACIyqF8tAEl1N/kykonncePGVWfkubgkfUvnz59H1apV1edEqrzJvy9fvqzvJSIjc3V1VevL+fX8pkuXDitXrlRD5cj4GICIDOpXCkCyqKmUK5WV9e3t7VWpUilDTPStSG+jVIOSz4i852SCNOf7EIUvstTC7Nmz/ZdakMW2Zdg1e4KMjwGIyKB+lQAk8y/+/vtvxIgRQ01K7dSpEx4+fKjvJfr6ZA6AX8+P9DaOGzdONYSIKPyRsCPre2XPnl19JyRNmhTbtm3T95JRMQARGdSvEIBkHYYxY8YgduzYiBAhglpx/86dO/peoq9PehYbNWqkPht2dnbq/ccKg0S0Z88eVf1RvhuyZcuGEydO6HvIiBiAiAzqZw9A0uicNWsWEiZMqB5nzZo1ce3aNX0v0df35s0bdOvWTRU8kK1nz56q/DURkY+PD1asWIGYMWOq36QSJUqwOpyBMQARGdTPHIDkh2bx4sVqqIE8xgoVKqgJ6UTfigTu4cOHq3lm8p6T3sbnz5/re4mIgA8fPmDmzJmIEiWK+p6oVasWnJyc9L1kJAxARAb1MwegtWvXIkOGDOrxSdlhKT9K9C3J5yFevHjqPVe9enWe2SUii6RXeMSIEWpOqgzNbtOmjWosk7EwABEZ1M8agGRyqTwmeWx58+ZVk09ZcYe+pTNnziBfvnzqPSeL7LK3kYiC8/r1a/Tu3VsNlZUFUxctWhSgkUy/PgYgIoP6GQPQvn371IJz8riyZs2qxlt//PhR30v09clwy9atW8PGxkZNcN60aZO+h4goaDJEtmzZsur3KmfOnGq5BjIOBiAig/rZApBU1KlWrZoaUpAmTRrMmTNHTUon+pbWrVuHxIkTq8+ClFuXMf5ERKEhIxQcHBz8vz+kZ4iMgQGIyKB+pgB06dIlVXpYVtuXBedk3ZVXr17pe4m+jXv37vn3OMpcM3kfEhGFlqwP1r59e9WD7OjoiC1btuh76FfHAERkUD9LAJLJ5vIDEi1aNPUDMnDgQFbfou9i0KBBKnRLWVsZbsn1fogorB4/fozcuXOr39NKlSqp/6ZfHwMQkUH9DAHo6dOnaiKpDCGQ8sPdu3fnjwd9F7Kgbq5cudRnQOYAubm56XvCoze4t38ZRvZuiSZ1a6nSvmpr3ALdhi/Bjhvu+vW+tk/4dH4OOv5RF7Vrt8Kc4w/wre4prN5p34knd55A2JZd9sGrfSPQtXlt7fn8hdUXn8DwAypfn8fmKe2151sbXUcux8VwOoJUhmzLiRQpiLBmzRr9UvqVMQARGdSPDkCurq4YNmwYYseOrR5Hy5Yt1ZAkou9BFtmV4C29jjt37tQvDW8+4sWZhehfpzKKZUqIiNrnUD6LAbaICZG+cCXU6jgb+x++0//ua/mIj5uaIq6N3FdUNF12AT+879frAY4uG4Cq+UugYft5CNs3ozcezSyCRBHk+WRBr61X4KHvMaxnmzC8hu/CoImKd8U2wz9hy+QESpEiRdRxaNu2LVxcXPQ99KtiACIyqB8ZgGTc9OTJk5EgQQL1GOrVq4ebN2/qe4m+Lan8VrFiRfXeq1q1Kh49eqTvCU/ewfnCArTM5/sZtLKKhgzlGqFNr6EYNXo0xowein7taqF4Yj0IWcVF1oZzcezx1wxBWgDa3h5p40bUbj8R2q+5hBf6nh/m1W6Mqxdfezw2yNt4Pm7pF4eON57Mr4SMceR4FcagXdfxVt9jWM+3Y0LjlOo9krFKP+w2/BMOmgzflqHcMo/17Nmz+qX0q2IAIjKoHxWAZJ7F/PnzkTRpUnX/FSpUwJUrV/S9RN+erPPj9/6ToSuenp76nvDj4/MzWNgiFay1YxApbiG0nrAWB68/wyuTQ+H1+j7+274Ew+umhUNEadSnROWJR/Dgq53l/wkD0LPNGPV7Iu3xxEKx5gsQttMyDEDhOQCdPn0aKVKkUMdCfl9NG83062EAIjKoHxGAZEFTGR+dOnVqdd/FixfHyZMn9b1E38fgwYPVnDMpfx0+z9R+xONDU1E3ltZQj5YQeTtvh7O+x6J7a9G1cDw4aJ/ZiNn7Y/n5rzVT5ycMQJ+OYHrzZNrjcUTpdmsRtoFMDEDhOQDJiZQqVaqoYyFz6Lgu0K+NAYjIoL53AJJhR7JmQqZMmdT9FihQAHv37tX3En0f0kiRktfyHmzTpg1evPjhTe4fwB1Xt/ZFfu0YWCXIhrrrQw40l4YWREK5vlUxDPj3RpCT+12v7sfK2ZMxesQIjJBt9BQs3HwaTyx2soU2AL3Hk7PbsGjaeIzyu92x07Fi71WEqli++x0cWjsHE0fpfztiDKbO24Ljj0wXWXbHjf1rMKNfU1TIFkN7PFGRMldt9JDrz1iGrTdDsyDz1wxA73D36BosnDpGf8zaNnEeVh64p+0JzAXnVy/AxGHaddafwLVglqJxe3gO67XbGj5xJpaecYePfrk/jzs4tmkxpo4dpd/vKIyftQqHbgUx9JEBKICZM2eqYghx4sRRC3vTr4sBiMigvmcAkvAjYUdCj9xnjhw5sHHjRtUjRPQ9SeXBlCl9G2wLFy5U783w5wNu7ByKEhJo7FOh6LCQ1z96e3Epxg/sgi6dZmLH1edaJAnE5Sr2z+2DVmXTI6rcrukWPz/q95mFdWdf6lf2E3IA+vToJDZP7oL6BZMEvE1ti5ymDFoOW46d14Iak/cO93f9g1HtqiNLjIB/a2WVBLnrdcPYHVfhrLLNfSxqniPQdfy2lKi4JDQLXH6dAPTx2UksHtwR1XP4LrBpukX9rQY6Dl6KU06midIJW1rnRFy5TqKWGH8wqED7CueWtkEiuV7ktGiyxTVAAHp6ZBHGdqqGHPEC3qeVlR0yVe6IwStO4VHgtakZgAKQHuWMGTOq47Fy5Ur9UvoVMQARGdT3DEBHjx5F2bJl1f1lyJABixcv5or79EPIOH2/+T+7du3SLw1/Xp1dgm7JpHEbDY4Z62PEwp04de8Lh7a5XMGOgRXwWyS5vYhImq8GGrVshVatWuGPumWRPYFvQ9qxVB+sumIanUIIQE9OYFnHfL4NdquYyFCiHppptym327RGYaRxkMujIFW98dhzP9AaTj6f8HTfMDRKE0Hdt1W8XChdp6n621bNqqNoChvfy9NVwNAdD7Ro4I5z66ahT6NyyJvGTtsXGQnTFUNduX7fsVh03izyWfD/BiBvvHt2BFOb5kU09ZzjI2fF+mimjmVzNK5aCMnU5XbI13w2Trq88w8wbgf+ROUMkbR9GdBqyiHL5cRdT2B151TadaIiSeHeOOqXG3284XJoIlrktNX2ybHKjbJ1m/keqxZNUL1gYjVXzCpGPjSacQqPTfMmA1AAsoad/KbK8Zg+fbp+Kf2KGICIDOp7BaBz586p8dByXzJBdNq0aeF8zRX6kTZt2oT48ePD1tY2fM8/c72D/SOKIok0bNWWBHnr9sDIWQuwdOUG7Dh8CbefvdGa5CF5hYtzmyOPo3YbURMiW4ORWHfRZLiU1xMcX9wJ5X+Lqt1HZCT9fQk+j6YKLgA54eCwskhrp91uzNQo1mEO9tw16a/wuIbtkxsif0ot4NjGQe6u2+Dkv9sLnk/2oX8BCQRWiJy2JHrMPY2H/p0mb3Bz/QDUzhALUbT9CasNx8b7+hC3j4cwrZk+B6jt6uDnRpn5/wKQ15s72DmoBGLL6xE1DSr2WoJTppOQ3K5h3aDayOFgrd1+QpSffBiP/I6l+yEMrPmbCk7pW07F/sA9NRq304vRPa1221FSo/BfZ+B7OLRj9fgABhfxDYqR05VF7wVn8cQkT765sgqjGmZBnKja36asgVE7n37uAWQACkAayn5DbKUq3MePoRk6ST8jBiAig/oeAejatWto3rw5bGxsVKNz1KhR4XTOBf0s5H0vY/SlAMLFixf1S8Ond09PYFHr4sieKLL6Lvi8RYBj2uKo0aIPRs9ZgtX/7sbJu5ZPWng9WYa+lRNrf2OPxJUHYIPFed9vcHtFIyTVbtvGPg96HXXToo8IOgB53hiPxnkctctjIUOLWThuqRqB9xMcmVgO8bXbjZ6qCsZe1xspXq64s6KmutzKKhXqLr1lPmQPPrgysSYy2mrXsa2Av9ff8e1NcdqKMQ1kuN33rgLniWfH5qFxUu1vI8dGjqYrcVffE9AL7GqTA/Eia9fL1ANrL7npIfU9zg2vi9wSUjK0xbgDge/ZFaeXdEJ67ZhESVkGf53Qj9WnF7i2oDwctcutI2dCszX39GAUyJPV6Fw8gRYYbZCjy2Kc8usFYgAyU6NGDXU8ZD0g/t79uhiAiAzqWwcgqYDTtWtXtS6CLDjZt29fPHnyRN9L9GP0798fUaJEUfPRbt0K2yovhuTpjJPz+6Je+ZIonCsjUsQPHIZkc0DGWn0wbcN5PHkbsE/o6apOqC5D3KIWR/u5lpvsyqvjGJ5Ou16kWPhtwCm8Vu2JT0EEIB/cnFoVBWJq13eog1E7As8d+szz6hp0iq1dL0Y6lJzi+3r6uN3G+uYxEMHKGtap+uOAcxDDbe+twYiedVG2xmAsO/LAN0j8qACkhblTcxqp0BYldUmMvKFfbsmVYSiaIop2H+nRY/1/WrTx9en0CDTNIa9fZvwx8UjA+359HMu7pNf2RUXqsqNwTk853i8uY3F1eby2iFb4nyBCl6+zg6oiiwTG/H/in7N6zwYDkJmOHTvC2tparTF2+/Zt/VL61TAAERnUtwxAMg56wIAB6kx75MiR1Q/C3bvB/bQSfbl3796pYZWurq4qZMt77c6dO7h06ZKa83Pq1CkcOnRITUouVKiQet9XqlSJZWoDcb9zHP/O6402tcqgWKECyJMtHZLFknAiDWRts8mOxhMO4JGHX2PgHQ4Oq4+csi9eMdQbvkE7zgdx8KD5tm/DQvQurF3P2h6O1RfggRq65RVEAHLBhrbFkFpuN0UNdJm6DYcs3ObBg4ewe+lYtM4qt5sEGVtvVtXpPr04gbEFrGEVITJitdqAp2/CUGzlRwWg12ex+c/M6jjHTFESf284FORzPrSuH4ol9S2QUHHcQdz2ezk+Hse4htkQWbs84x+TYNoJ5H5yAXpk1B6XXRaUHXdZv9QHbve2+M4Fs46MaJVGYNMOS/epbYcOY0Wv4sgWXbtu7DoY9q/+2WEAMtOvXz9EiBBBDYW7fNnvWNOvhgGIyKC+VQByd3fH2LFj1ZA3GfrWtGlTXL9+Xd9LFDoydt7DwwNv3rxRwUaqt0mwuXr1qnq/ytwyCTY7d+7E6NGjVc9Or1690KBBA5QvXx6lS5dW1Zjixo2LWLFiqfe6bLFjx1bvS+kBunEjuNPs4d0nuN4/iU0TO6BK0exI4aAHoRhlMXjTDbxX48XuY1XXCmpom9/xDc0WOdcYnFdzVLzhGSAAXdbX3bmEaTVy+86FCfUWHUkqLYKT1qh/+2wbuiW3QgQbO2Qdfh7PQ1O/wM+PCkCP92NBExnyF/h5Bb9l670DF/3n+3zE6bGNkSuKti9za4w+5Nfz5YZTCzohk3b9qJmqY4T/yM9PeHHzH9SytfEtchDqrQS6LdAXr2YAMiND3+R41KxZkyf+fmEMQEQG9S0CkDRaZ8+ejSRJkqghADIW+lsMryPjkzU0ZBKx9CT26NED9erVQ9GiRZEqVSokSJAA9vb2emMs9JsUPmjSpAnixYuHhAkT4sKFC/q9hS+f3mmB8sZ/+O/KDdx+EZp04IyDo6sji4NvlbBcPVbhjCozdh8rtQCkCinYxUbC1JlV6LS4ZcqETJmzIEuW/CjabClu6j1AlgPQf5haPbeal2LlkABJ02ayfJvaJuuKZVa3WxJVe2zHKy2EvH64BA1kjoy1HbKPOA+nXyUANY6p/V0ERIoaH6kyW36+apPnnEWecxY0nn7CpKiE5uJEtMsvw+Cyocm4I77rNbkfw+Iuv2mX2WshZTLOqSsKTy0AzUYNGy0AWdsgWsK0yGDp/vQtU6bMvvebpwMmb73nexMMQGaqV6+ujkeHDh3g4hK2pXTp58EARGRQXzsAyRfE8uXLVQNVblfOwJ85c0bfSxQ28+bN0xq2mRExoskQrP9zk4aJrP2TPHlyFdCPHz+u31v44nxmOXpmtoJ19FTI/ed+rdkeGicwonR62GvH0bbKGGy8JV1Az7C2RyXfAJS3NUYd8wJ8fNTaSiFtvgIXQfALQNcws1Ye1QNkXXYwll72tngb5pv6Y7x5uAXdEml/a2OHDINPBdMD9B4uTx/i5s07ePrKwzcs/KgA9PQQljSXnsooSJajDw54WXp+ljb97/1dxvx2hRBJO3aZm03ASW2/15l/0F2GCdplR5VJpoU/pAdoPupE1PbZOCDL8LNweWfpPixs+i0wAAXk5eWlTtTI8RgyZAirwP3CGICIDOprBiD50peFTWWNH7nNwoUL48iRI/peorCTHxypItisWTM1l0zeV//PJiuzy3wgea9LAJLLduzYod9b+PL26gYMlvk4VnZIln8YTgdaQseyl1jXPI/vcLeiQ7DikvyRF06Ob4h8Ntpliaqjx9pnvlcNtaCqwLliR/cSSB9Bu910bTDlUNjWJ3rvdBQj80WAlbUtotZZjvvuZinB15vt6F01O6LZpkD9cTugSig4mwaghb6Xhdr/EYDeXMHuAQURQTu+jr/VwcKn+uVf4Mqc9igqxQpydsL8Wx64sbQrsmm365Drd0y7pl9J9+bhLvz1m3Zd6yhwaLgez8PaXmcACkCG6ubOnVsdj1mzZumX0q+IAYjIoL5WAPL29lYNSbkduT358t+2bZu+l+j/I2dQZe0eKVrwpUFIhr75rckhP2pp06ZVl0svk5zNDndc/8PmXnkRUTsGERNlQ5v1ThbKRAfybgf6FEoFWytrJGsxFwf1rOO6sy8aZJB1adKgfNeNeBBkd5In3J47wen5Czi/fgdvddiDLoP9dHkDlEgkr19ONBl/RO8ZssDrPVydnPDM2QUu7h98eybePMSeP5Nrj9UK1rH+wJLbFhbF0XidGIoamWX9mzRoNvmQ7304bcVoFYBi/v89QLtvwHR0WvBc8N/KLsgo79m4GfH7/Cf43OQKxNMdLs7asXz2HK/feWoxNCCfqwvQrWhkWEUui+7j/sG8v3Jqjycu8jZYYh7oXG9hU5vo2n7tvRC3NZbdMV3lNKCPb17BWTvWT1+4weOD/kIzAAUg8xL9TgSuXbtWv5R+RQxARAb1tQKQVNcqWbKkui0Zj79ixQp4elpcSYLoi0hIcXZ2VmdUZd5DWIfF5cyZE05aw01IYC9VqpS6XOYD+V0evnzCwwOTUS+O7+KX0dNUxZCdj/H67Qd8CpwHvT7grftj7PyrJNLJGjM22dF2yRk4+13vxVaMbJBO9VzY/FYbfTY9xgezFvlb3D84GbWTOiJWipwoNWQ/XFR7IqgqcNqfPFiMDiUTqcn5tgXaY8phF3w0e2yvcHH13yjtGAuxMpRC/WnnfNew8fHA8309kVUer5Udcv+9A3deB/rjj0/wb5fiqtJchOydMOO4q294erELYxun1v4uEnLVm4RT6sqhZRqAimDI3ttaxAstH7y8uBI9Mttof2uDuJk7YfnDd+Yh6JMHrs6pj1ypYiNmwqL4+9+r5ou1et/Eqj+LI5ZVQuTMVwQVimkBNU4h1F9w9/PQNT/erni0/g8kkx4jq+jI3H0Drvq+OAF4vT+PmU2LI2WsmIhTYQCWnn7lu4MBKID/sXcWYFKWXx+mu0G6W7o+pLtBJCUV/AMiIC3SjXSXII000iUp3Snd3Uh3nW/uZ+ddht0FFtiYmT33db2Xsjs78c4bz+/E7wwaNEiiRo1q+gy5NyquiwogRXFT/EIAUVJEXwX9FPT+YICAc5ei+AfchJjdg60686U4fj+0RY4cWebNm2d/Bg8YyIuJAk6F27dvt/80aPH6xUXZMbqOpKB8zbafQkdLJOnKNJXhM9fKgXMX5MJF2/bvBlk0tpVUyZJEopvHhZTUP4yTDZdfOCykn8u5+e2kcgqyQMEldKri0viPLXLhziN59Mi23b0gu2d3leqpmVsTTILHyC3t1vwnT80TvDsDJK+fysGxdaQQM4aChZKI2apJ57kH5MZD+/PePinrx/wspeJ5iOGIqSvIwL1P7O/rtby6e1z+rJNEonAchEkkJTrPkp3nH3j87fX9srhTacmApXOwhFK5999vrKRfHZBJLT16OGLlqSuj99ke/+SpPPNVmaCjAPo/aTXtHzl257pcPn/eWK573c6dOysXrtySe/Y00euXl2X3uB8kpdnXoeWLHP+TASsPya0HHp/57rV/ZdWQ7yXHF/zetmVsKTP33faWAeJ9nJ77q5SNH1xChAwpoUIFk3j568qEc97kj43X8vLmPplQPaHp7woWKrpk/mGoLDt4zWNfPXooN4//LSPqZvfo9bJtOZpOke337a+qAsgTAjU4ULIvatSoIRcvXrT/RnFFVAApipvyuQKIGStE0Ckvih8/vgwcOFBu37ZHBRXFH9mzZ48R3hx7ZiH4jg1hTukc1uyOcLynSEGUP5gMHTo0yGYsXz8+I2uG/CA5oyNe2GehJEKUGBI7XjzjkhcvdkyJFsnax5Ek/f+GyeqzT7xnJZ7dkn3jbWLEiJVgEipSLImXMJEkSmTbEsaTL6KGN+V2YePkkEZTjsodzyewCaDlP0ny6PxdbPlpzr9vBBA8viDr+1aXrxiIGiyEhI0aWxJYz5sgrsSMHMZknqKmLiWdl1yRh17K756cXy4DSyeWyLz/8FHli3gJ7X8bW6LjEhcsgvxf4zGy6eYzB0F3VzYMbSAZg9t+HzKMRPnC9vgcFeQnX/U32QTQ+NKSJgbPHVIiRo8lcRPEl/jW/vS2xZV4herLb5veHH+vHhyX5b99I0nsgjNCjDefOWH82BIzIhmiYBIiTT0ZuvaCPPH2ZXjw6uRs6VI6jnlssGDxJF+dKeKj/jG8lsdnFku/0snsIiiiRI8d32NfJUooCeLGkIj295P5+yGy6qxDZuq6bR/XTGReJ02ZdrIqCAsgMj7JknmIQcpryTYrrosKIEVxUz5HAFlR+IgRI0qMGDGMVfHVqx/bAK0oHwdlcNOmTZPSpUubfiDm+bxPBGXNmtXHORyYdlSvXt08pkyZMkF7VseTW3L+wGaZPbCJfJ01vkTGEcxhH4aLlU6K1Osjk9cekDP/WXNlfODpHbm6Z7H88UslyRwbG+Y3zxEyQQ4p32GkLN97QW6/pTXtGaBYLOq9ZIDsvH54Q85tmikDfiwhKU3G5s0WPmVBqd1nimw4elXu+bjWtC3srxySdRM6SbXscYwIs/42SuYa0nnaZjl554m3DMqTmwfkr47lJUVE++PDpJEC/d6YR78bMkDlJH3sN6/zwS1FOWm56u1CudePrsmRf6ZKr++yS9IIjo8PKbHTlZKfBsyTjcesLNo7eHleFnWpIIn5uySlpOGMKw4izydeyyPbvto0tbt8lz+lRPR8TdsWPIYkL91A+v21UU7c8rK/NAPkSfv27SVMmDCmB4ggjeLaqABSFDflUwUQaX0u9CxAw4cPLy1atDDlHIriXyBYtmzZYgYMEpXmuE2QIIF88803noYGXjeOTYT5u5g4caJxhgsXLpyZORTkefKfXD5zTA79u0/27bO2/XLwyCm5ePORD2VWPvP87lU5ffSg7Hd4jn+Pn5Ur933qhnktr+9dlCMHedwhuWgTIz4nNGxC5tYlOXH4X/tzsh2QQycvyI1HvnhnL+7LtbNH5aDn3/4rh89clwfvCdA/v39Zjpv3ZdsOHJUTV31X2vv8v9Ny1Po732xHz8jlBz5Jk1fy8MYZOXFo/5vH7v9Xjp6+JP/5ylnhte3vL8pR/u7YObns28rkVw/lxvmTcuiA/TXZ/j0iJy7d8tnQ4cU9uXHusHnc0dNX5H4QTXowrNlyf2vWrJlWQ7gBKoAUxU35FAHEULfevXub3gnKi7g4nDjxcT5JivIxnD17VoYMGWIWF2R72EqWLCnLli2TVatWGYMDR+FjbdmzZ3+vwQF2tRgq8Nh69erJ5cuX7b9RFEX5OEaOHGkqIrie4IIaJN0l3QwVQIripnysAKIhlos8kXf+rnLlyqYPSFH8gwcPHsjSpUulSpUqpsySYy5lypTSvXt3z+MO0cJxyO8cNx6PG+GH6NWrl8lkYpSAgYeiKMrHsn//fuOAyrWnUqVKJriiuD4qgBTFTfkYAUQ0a+rUqZI0aVLzN8WLF5e9e31TE68oHw/HY6dOncyNh+MNxzZ6dois3r171/4ojywOg1J5jLURhW3VqpU8ffqefhU7N2/eNGV0/B0ZpkOHDtl/oyiK4jvq169vriGJEyeWDRs2qPmBm6ACSFHclI8RQPPnz/fstciXL59s27bN/htF8Tsw0pgxY4YUKlTI0+Y6Z86cMnr0aDl37pz9UW+g7r5p06bmcdaWJ0+ej4rAkmWyspq//vqreU5FURTfsGjRIokZM6a5fnTr1k1n4LkRKoAUxU3xrQBauXKlZMqUyfOxa9assf9GUfwGbi6bNm0yJgeWGMEmmGZizA+ePfN5nCQzp1q3bm0ez0b2hxK5j+HJkycmYxQ2bFgzvFCntyuK4hsw/6HXkGsPgRfth3UvVAApipviGwFEOp8LO4/LkCGDLFiwQJs7FT+FRcOwYcM8HZSwkS1RooTMnTv3vSYGQLR18ODB5u/YyBZ9iqU1Rgt58+Y1z8HxfuDAAftvFEVRvEMpbsOGDc01I0qUKMaURUvf3AsVQIripnxIAO3YscNzqjXlb1OmTHlnJF5RPhZKzSg/o2kYIwKOs3Tp0knPnj0/ylyD8kz+Nm7cuLJ48WL7Tz8eSu9wN+S56Ati1pWiKIpXCLxgsU+whusFGWQtfXM/VAApipvyPgFEBPzbb781v2fuyogRI4wrl6L4BRhoYHJg9ZXh2latWjX5+++/5f79+/ZH+Q4yRZS+tWzZ0v6TT+Px48fSr18/iR49unlPmCtcuHDB/ltFURQPRo0aJVGjRjXXCQI4OgfPPVEBpChuyrsE0PHjx42rDfNW6In47bffzPwfRflcsK2ePn26MTkIGZLp/x5la7///vsnla7B7NmzpWLFin5Sf3/v3j0jzHCdCxEihDFY+FAZnqIoQQfs9ck2c+0qUqSIHDt2zP4bxd1QAaQoboqjALLsf4lktWjRwkTUiXC1bdtWB0Qqnw1GA/STUTNvlZlhGYvJwdatWz+rdp5sJZkjv+L69evmHMAUIXz48NKhQ4e3rLcVRQmaUGKbLFkyc/3KlSuX7Nmzx/4bxR1RAaQoboolgIjAE8W6ffu2dO3a1ZQjsfhr3LjxJ0flFcXi1KlTMnToUMmWLZs53siuMEcKtzXExufCjQmB5ZdQ+lavXj3zfmlwJiuERbeiKEEPjH/mzJkjGTNmNNeEzJkzm4CO4t6oAFIUN8USQLhfYUGMExfWw5Qm1a5dW44ePWp/pKJ8PNw8iJhSnkZGkWONBQQmB4cPH7Y/ynnBBIHzgPcdPHhwadSokRFziqIEHcj+jh07VhImTGiuBYyEwPFNcX9UACmKm2IJICLzHTt2lBQpUph/V6hQQfbt22d/lKJ8HC9fvjQmB5SOJU2a1BxTX3zxhdSsWVNWrVoljx49sj/S+SEDSiaIUjg+B2Ju//799t8qiuLOXLp0Sdq3b+95/lP2tnz5cvtvFXdHBZCiuCmWAIoVK5ZnXXPhwoVl27Zt9kcoyseBYcDUqVNNczCZRGxic+fObUwOXNUp6caNG9KmTRtPq24WQUSAHW+IiqK4F1jx16lTx5zzbJTt6r0xaKECSFHclAkTJnhe3NkwQ1i/fr39t4rie8jqcOxgcmDZSCOqMTnYuXOn/VGuCxbwWGRTIspnwxp+/Pjxao6gKG7Ixo0bjeDhXI8QIYIphdW5YEEPFUCK4obQ1DlgwABP8ZMhQwata1Y+GtzbKBMbMmSIZMmSxRxLmByULFnSNA27k306pX3Tpk2TNGnSmM+JUQilo+fOnbM/QlEUV+bmzZvGVt8yO6A6AgMUDIKUoIcKIEVxMxA/WA8XLFjQXORxfevfv7/5uaL4FmbmLFy4UKpUqWKipJS8WSYH7mwWgPsTJX7MyeL8oWx0wYIFZn8oiuJ6EMjB0pr5d5Ttcl6nTp1axowZY3+EEhRRAaQobgYX+m+++cY4W3Ghx9ITQaQovuH58+fmGMLkwHJGQkRTJrJ69Wo/t6R2Rq5cuSJNmjTx7Ati0dSuXTtjn62BBEVxHe7cuSOzZs0yi1zO5XDhwplBzevWrbM/QgmqqABSFDeCgacsVLnIM+meCz5zgGj4VJT3wcKeUhB6x8gesugnC4KN+ujRo40oCEo8fvxYZsyYYc4fsl+cSwUKFDDZIHqGFEVxXihpxe3U0eUxSZIk0qNHjyB3LVN8RgWQorgJlCURtaZ3IXny5Mb0gIs+//3333/tj1IU7zx79kzWrl0rP/74o0SNGtWIZyyuW7RoYSyvWUwERRCFly9flubNm5veJ84nzq/WrVsb1zv2m6IozgPnLOYluFWmTZvWnLOhQoUypayUtzoudJWgjQogRXEDrHkGLF7p1+jVq5dp4FYBpLwPFgunT582hhkMACTTgfgpW7asaRbmBqF4uMTNnDnTM6hAeSn9UOy3q1evBlmBqCjOBFnbJUuWGIc3AhWcqwkSJDBZH8pXFcURFUCK4uLgxNW3b1+JEyeOWcByQuN2M3nyZBVAyjt5+vSp/PXXX8bkwMpusKhnsXD27Fld1HuBRmqyQa1atZKIESOa/cUiK0+ePGaSvDs54imKK8Hidc2aNVK1alVPm362okWLmqxPUOhbVD4eFUCK4sI8fPjQ9GckTpzYXPBZzB44cMD8jjkm/EwFkOIIC/ndu3ebjCEmB2R8yBx+//33pgyOY0p5N/fv3zcN1OwvK8ocOXJkKVGihMmaaX+QogQMZLAZXkrprjXDi41hxljak51VlHehAkhRXBRO2D///NPYeXLRZwHGUEpuCvDHH3+oAFLeggs+xwU2zxhlcHzQ2G+ZHFjHjvJhyPhgE16hQgVPw5GYMWNKxYoVZeXKlcZNT1EU/wFjn19++cX0KlomJcwqGzlypJldphls5UOoAFIUF2XRokVmwCkX/ty5c5vp1o4LWBVAigWLcSysGzRoYBbpHBdkDVu2bGkyhloi8ulQFjd9+nQjKtmvbPQdIIQYFktDtqIofsOmTZvMdYvAnzXTJ2XKlKbv9ciRI2pMovgaFUCK4oJQ75w9e3Zz8c+aNauJOFPa5IgKIAVOnjwpffr08TQ54JgoX768WZxzA1A+HwIPRJ0557Jly2b2MRtlOQijwYMHaxO2onwi3Nvmzp0rtWrVMg6nuLpxftH3+uuvv5q5ZVq6q3wsKoAUxcXYsmWLKVviBsCJO2/ePG/iB1QABW0ePXpkFg2VK1c2PT4cC4ignj17msW64wVf8Rsou2EW1++//26GLbLP2RioSpaWYarYiiuK8mHo4RkxYoSUK1dOEiVK5Hk+kf3hXOJeyKBTRfkUVAApigtB8zoWxdwEiIRNnDjxnb0GKoCCJmQjOE7atGljBv9ZC3Au9Jgc0MSv+D9Hjx41g1Rr1qzpOYiRXiH6FBjOuGzZMi3XURQfYIBpp06dJF++fG+5uhH4GzhwoOzatUvu3btnf7SifBoqgBTFRaDps0aNGmYGCe5dQ4cOfa/jlAqgoMe1a9dkzJgxpuzKKhMpWLCg+Rm9KkrAc/HiRVm8eLHpW3CMYtO3QJ8QCzoEq6IEZSgRnTRpktSvX19y5MjhaSwSOnRoqVatmkyYMMFkV9XcQPErVAApigtAHwc3Bpo+Y8WKZcqYmPXzPlQABR0wMcCamYs5dfF877gj4ZKEyYFmGgIfItb//POPadbOmTOnpxDCSptz9LvvvpNx48aZzJGiBAVu374tCxYskNatW5uZPV988YXneUGwoGnTpsbs59y5c/a/UBS/QwWQojg5RMYYvsiwSuaNUNpEVPlDqAAKGhw/flx+++0309/D903mp1KlSqb/hwu84nxQwsPw1Nq1a7+VFaJXi94hzvdZs2apcYLidtCbSClu9+7dTQaUQI11/BMMKF26tAnwrVq1Sh0UFX9FBZCiODHXr1+Xbt26Geti5rb89NNPcurUKftv348KIPeGxQEih0VEhAgRzHedOXNm4/h24sQJ+6MUZ4Ym7xUrVkjfvn3lm2++kRgxYnguBuPGjWuav3v06CFLlixRMaS4LPQdbt68WYYPH24GCKdPn97zOGfLmzevcXND9B87dsz+V4riv6gAUhQnhQXukCFDzEwR+n5opqYPyLeoAHJPML3ASYyyEYww+I4pHaFEEnt0nenjmhDYwJqc7E/hwoU9jRPYiJIjdLt06WKMFfbv3//WDVtRnI2zZ88aow963H744Ye37OHZMmbMaK5ZOCZqD5wSGKgAUhQnhEUs/QDWApdI8MfeJFQAuR+UPmJo4GixjMkB5VRqcuA+EOig6dtqCKcR3Pq+I0aMaL7zFi1amO99w4YNxvxCUQIT5vAQmJk9e7ZxcKtQocJb5Z1sGH9UqVLFZDzph3v69Kn9rxUl4FEBpChOBi433EQ4KblpsNihfOBjUQHkPlBCwoKhbt26xgSD7zVZsmTStm1bI4yxvlbcD27K27Ztk1GjRknDhg1NZojhqtaCki1dunSmrGjQoEEm4o6JAn0WiuKfcM05f/68EeCIdQwLKGWjVNs6NinNRcBTvdC7d29zfN66dcv+DIoSuKgAUhQng56ArFmzmhtI9uzZTVnTp6ACyPVhkUE/D85hlskBRhgMN6VcSqefBy04FuiTwN3v66+/Njduyy6YjR6iEiVKmN9z/q9cudJkk7jRK8rn8PjxY1OmieCZPn266U399ttvTVbHOv7YGNGAUKdfdfTo0bJjxw4t11ScEhVAiuJEMNk6V65c5kaSNm1aWbp0qf03H48KINcGm3NMDsqXL+8504fm4f79+6vJgWJstVevXm0i69WrVzfnuZUdtDYG4DI8skmTJiaLRHCFIZOYLyjK+6AHlWwimeepU6dKhw4dzLUoceLEbx1j9KqRhcS9jYw0gRn6fxTF2VEBpChOAta4RM64qaRIkUJmzpxp/82noQLINaH/i++refPmkiRJEvMdMtvnxx9/NNnAV69e2R+pKG/gmBk/frw0btzYZIFwBLRmQlkbQpqsMjd9DFYQRFx3Tp8+bWayKEETMsm4DHIMMU+MgaSYcTCbx9GZkA2r9jRp0pjSbGZXDRgwQNavX//eodyK4oyoAFIUJ4AyFWxwucHQOEpz8+c2iKoAcj0wOeC7z58/v/nuqKdnoYEhhkbtFd+CSN6zZ49MnjxZWrZsKaVKlTKCCEdJR0MFNoItZcuWNQteHLkom0MUMXwZG35tVHcfOC4QumRocBKknG3atGnStWtXk0XEqc3r8cEIBhaIZBJZLA4bNsyIJBXMiqujAkhRAhnmHhBJ42bD7A8ian4xAE4FkOtgmRzQzG5FXBHC7du3N4tRRflcGJhLeVLHjh1N/xA9ZRxjUaJE8VzsWhuldCx4GzRoYGyMKcXlOOQ5cBvk+oQdu+KcIHTIyCBgz5w5Y8QOw0cJriB0EbwIX6/fO+VsZA0pv6YagWwi95GdO3eaHiBFcSdUAClKIEIk7ueffzYTsIm0de7c2c8i/SqAnB8uuiwqGXbJXAy+L0pMMDmYN2+eRt8Vf+PSpUvGlQv3OBzmyDSyEEAURY8e3VsmgH+TRapataoZWjly5EgzoBVhdOTIEXMt49qFOHr27Jn9VRT/ArdQRM6NGzdM+RrXEfq76AubOHGiMSlg/g7ZZO4tjt8lc+UwU8FRMFWqVPLVV19JjRo1pHv37qb0+vDhw28tCBXFHVEBpCiBBJFUGktZ8HIzolSFaJ1foQLIucHkgIh8mTJlTG8GC0xMDoi4U36kKAEN84Qoi+LawaBdMgUck4giFtFkCFg8Oy6m2chcs4hGHOFAN2LECFm8eLGZC8OxzAKd52bBQbaTPjcW8IrPkMEh+IHAodSMTA6ClfsD5dL0AmI9Teka1vhka5gZFzJkSG/fTZgwYYwZBmIHxzZmiNFPaNmm8/2o2FGCIiqAFCUQIGrXp08fU25A9oeTkCiqX6ICyDlhYXPgwAFp1qyZp6NS7NixzaKEMhWd6aM4AxyHLMQRLJRQYb/Ngrt27dqSL18+U0KF8KFkkwAO/Wo+LcC/+OILY7yA0Gex3qZNG1PmO2XKFFm+fLmZY2WJpCtXrphrI4t+Fv+UXXG+sDjhvbgq7EsEH5kxxB+mA2TKmIlD1ozePzJoXKe5BrCvEZFUBJCdq1ixotnnSZMm9baPEaSIHAbkInS4lnBdYZ/zdwhZegg3bdpkhBT7Ua8xiqICSFECHOxrubnh8MUMD6KmNCz7NSqAnAsWHSx0aDQnWs53Q0Sd6C3RXBZ+iuLMsIin9wdRgjDCJvnvv/821xp6i+hlpOSKIb1kjOgvYhgm4ogMJ4t3nzJI/B6DBprwMWzgeVi4M/9q6NChpqSLbCmudSzkEWTMpCGLjoBgYU9GlQXNnTt3zIbA4FrLxntFUCE82BgUi7hiQ5Dwedj4f+vnPMZ6PH/Lc7DxfDw3G6+DWEPI8B54L7wnBoQeOnTIDLGlJG3+/PlG8GFF3rdvX5P5p78K45vcuXMbMcm+8mnfcI9g3xEo43oRKVIkU6LI/kLkUC5L9QD7idfhXsK1hM/Dd8V3poJHUbyjAkhRAhBuSsxUoMmUmxt2tZs3b7b/1m9RAeQ88L3jnET0nIUhixoGBrIQYsGi5UCKK2NlNxAOiAWEAeIIRzmyD2SOGIzJYh1zBWyUOQ9YzLOoJ4PBxkKfjZJQxw3hxMb/8zgEE39HxoPziAVMzpw5pVixYkZUVKlSxfS0cL7RB4PYoKGfrCsmAPQwIdh4Xz179jSipF+/fkZw0TvD79q1a2dEGHb0/C0ZWhZLGJXUrFnTBK4qVapk5t/kzZvXmEqQoeFzkY3hPVqfyXr/1mewNuvzslmfi79FDPFcfKZy5cqZ12XGDiJnwYIFprSQkkIEGUKN6wsLOBU6iuJ7VAApSgCyaNEiyZIlixEmDDwlOuhfNy0VQIEP3y3NySys6KVA+LC4YeFEjwQRZ0VxZ1hYsEBnoc6CHXFExoQFPCJp48aN8tdff8no0aNNEz5DWxEwZEa5VtK3QqkwwsBRUHAukTFh4/8/JDCsjefwupFdYfPpdz49h+NrsFnvx/E9We+F50DYkLUh658hQwbJkyePceKrV6+eCYIwk2nGjBnmfoCRAVkk9hHZJTJOZKG4VpDRUZGjKH6DCiBFCSCwOabcAVGC4xcOSv4Z+VcBFLhwcZ09e7aJEBOt5rtg8UPzMeU7rtzToCh+CecCi3vHDJLXsjJ6hBgZgOsc11KCSdOnT5cxY8aYniKyOZSC0TND1ocyOrJAZGoqVKhgMiklS5Y0WSIc78jaUIpKGRnZG67JWbNmNddLBAqZqiJFipgsPWYQVmapWrVqJrNEP1P9+vWladOmRsTQ04kzHqVulKIhZiiBoxSO/h5MDOhxQvhRroe4sTI4ZM80C6woAYsKIEUJALZv327cd1gEYzs6d+7ct044/0AFUOBBYzelM5Sx8B0wV4UyHKLdmvVRFL8B0YBw4pyyMkyOvTkscBBSCA76YhBUbIgQhBWCBHGFOGHj//kZv+MxbDyev+U5eC6ek+fmNdisDA3izRIymqVRFOdHBZCi+DOUNBBBZCFMCQQNvdy0/RsVQAEPUWoi0jly5DAlNZTAIHzp+2IhpSiKoihK4KMCSFH8EQbKUYZBbThzGIYNG2YilQGBCqCAg8gvDd+1atUyNrSW2KU0BgEcEIJXURRFURTfoQJIUfwJ+jyoR6cJFmcg3IY44QIKFUABAzX+fLdcRGl+xtkKtysseymRURRFURTFuVABpCj+APNeGPjHYhj3Iqaj87OARAWQ/0I/AAMLaaxmECT7miZqTA4Y7KgoiqIoinOiAkhR/Bh6PcgIMAGd7A/zI06cOGH/bcChAsj/wN2pRYsWZuI6+xibXhyhGNJIQ7SiKIqiKM6LCiBF8UMoeWJYXaJEiczCuHr16oEmPlQA+T3Y2Y4dO9ZY52JwQMkbVrnTpk0z7lGKoiiKojg/KoAUxY/A3ACHt9SpUxvhUaZMGdmxY4f9twGPCiC/A4vb5cuXG5MD+rnYr9iZWyYHOtNHURRFUVwHFUCK4gcw+4HZPgzUY3GcP39+Wb9+faDOg1AB5DccPHhQevXqJWnTpjX7M0qUKFKxYkXj+sY8EEVRFEVRXAsVQIriB7AYRmiwQM6cObP8/fffgT4MTwXQ58EQxBkzZphJ8OHChTP7kvk+Q4YMMQ5/iqIoiqK4JiqAFOUzoSG+QIECZoFMWdT8+fOdoiRKBdCngXDFzKB58+aSMGFCsw/jx48vDRo0kM2bN5up84qiKIqiuC4qgBTlMzhw4IDJELBIZvDln3/+6TT9ICqAPh5MDkaPHi05c+Y0+y506NBStGhRNTlQFEVRFDdCBZCifCJHjx41vSBWhmDUqFHy7Nkz+28DHxVAvuf+/fuybNkyqVmzppndxH7joojJASJXURRFURT3QQWQonwC9IDUqVPHLJSZ99OvXz+5d++e/bfOgQqgD0O526FDh6RHjx6SJk0as79ixIghlStXNq5vd+/etT9SURRFURR3QQWQonwkFy5ckJ9//tmUR0WLFk06duxoGuadDRVA74eBtdOnTzcljMzzYcudO7eZ43T+/Hn7oxRFURRFcTdUACnKR3D16lVp3769RI0aVSJGjGga5ekbcUZUAPkMJgaYGTRr1sxk79hHlDD+9NNPsmXLlrcuhIqiKIqiuB8qgBTFl9y6dUv69u0rceLEkbBhw0rdunXl8OHD9t86HyqA3oZyt8uXL8vIkSM9TQ4iRIhgMkCYV9y8edP+SEVRFEVR3BkVQIriC2iSx+QgWbJkEipUKKlSpYrs3r3b/lvnRAXQG+jPWrp0qdSqVcuIV/YLFz1MDpxZxCqKoiiK4veoAFKUD0DJFBmCdOnSmYVzyZIlzZwYZ0cFkMjz58+NwOnatauZ0cT+oHyxatWqRhA9ePDA/khFURRFUYIKKoAU5T28fPlSFi5cKDly5DCL5zx58sjKlSvtv3VugroAunPnjkyZMkVKlSolIUOGNKYVmBwMHjzY9HIpiqIoihI0UQGkKO9h3bp1ki9fPiMkMmTIIAsWLLD/xvkJqgLo6dOnJkPXpEkTiRkzpnF3ixcvnjRu3Fi2bt1qskKKoiiKogRdVAApyjvYtWuXaZBHRCRJksRYJtNI7yoENQH06tUruXLlisnwYHIQIkQICRMmjJQuXVqmTp0qt2/ftj9SURRFUZSgjAogRfEB+kYqVKhgBAQWyePGjTPlcK5EUBJADx8+lMWLF0uNGjWMyQHiJ23atNKpUyc5duyYy313iqIoiqL4HyqAFMULJ0+eNG5hLKKZE0NGgbIqVyMoCCCyPohVhA4mB1avD0JITQ4URVEURfEJFUCK4sC5c+fMQEysrqNHjy7du3d32dIpdxdAd+/elUmTJhlXPrI+9PpgcjBkyBC5du2aEUeKoiiKoiheUQGkKHYuXbokbdq0kfDhw0vEiBHll19+MT9zVdxVAD179syYHDRq1MiYHPAZGU7btGlT2bZtm7EtVxRFURRFeRcqgBTFxvXr16Vnz54SI0YMU0L1448/yvHjx+2/dU3cUQBdvHhRBg4cKF999ZX5nvh8ZcqUMXOa1ORAURRFURTfoAJICfIwL2bo0KGSMGFCU0ZVs2ZN2b9/v/23ros7CSBMDhYtWmQGmDLIlM+FyUG3bt3kxIkTam2tKIqiKIqvUQGkBGlYWE+cOFFSp05tFtXlypUzZVSuZHf9LtxFAB04cEDatWtnTA74PPT7fPfdd7J8+XK5d++e/VGKoiiKoii+QwWQEmQhazB37lzJnDmzWVjnz59f1q5d6zaWya4ugLg4YXLALCb6svgsmBwMHz7c9Ga5g0hVFEVRFCXgUQGkBFlWrlxpFtQsrBFBS5YseeskcHVcVQBZJgf0YcWLF898Bv7bokULk51zRUtyRVEURVGcBxVASpCEhXSRIkXM4jplypQye/Zss/B2J1xRAJ05c8bT5ID3Tk8WJgfTp0+XGzdu2B+lKIqiKIry6agAUoIchw4dkrJly5oFNsYHlFm5Y1bBlQQQM30YXFqlShWJFi2aed/p0qWTXr16ybFjx7TcTVEURVEUP0MFkBKkwDEMJzEW2HHjxpWRI0e67dwYVxFAOO5hcmAZUUSOHFm+//57Y3KASYWiKIqiKIpfogJICTKcPXtW6tWrZxbZDNDs06ePPHjwwP5b98PZBdCVK1dk8uTJUqxYMQkRIoR5r5S+jR49Ws6fP29/lKIoivPDAopgGkEbMtrMJbt586Zcu3ZNLl++LBcuXDD3oFOnTpkZc0eOHJGDBw+aABD/5d/8/OTJk6YUmGsgZi9Xr1415b+3bt0yz8s969GjR2r9ryifiQogJUjADYgm+jBhwkiUKFFMxoGbkzvjrAKIm/fWrVuNGI0fP755j4kSJZKWLVvKli1btNxNUZRAAVt9hi1Tdrtv3z7Zvn27rF+/XlasWCELFiyQmTNnmrEJv//+uwwePFh69+4tXbp0kV9++UV+/vln+emnn6RBgwbyww8/mCx27dq1pXr16qa0t2LFilK+fHlTfl2yZEkT+ClUqJAUKFDA/Jd/83N6Hr/++mupUKGC+btq1aqZ2XRY/9etW9dcNzGIadKkibRq1Uo6duxoSoXpnaSiYcKECaZnct68ebJs2TLjbMp1dc+ePUZknTt3zogzxwWfogRFVAApbg/Rs86dOxvhg50yNw4ice6OMwogop/cqHPkyGHeG98HN/wZM2aYCKeiKIpfwsKGYddkYA4fPmxEzerVq42gmTp1qowaNcpUA7Rt21YaNmxoSqSx3s+XL59kzZpV0qRJYwI0MWLEkHDhwpnrlrNvoUOHNr2UBJgw+cHlFMdTRBZCDBGFeOrRo4cMGzbMiDpGQvz9999GLHG/IAtFkFBdNxV3RQWQ4tZw4xswYIDEiRPH3BTq1KljomBBAWcSQIgbopGVKlWSiBEjmvfFRYcIKqYUiqIonwplZwgcrnMbNmyQhQsXGnMbrv1k+8nMIGyKFi1qRE3ixIklUqRIb4kGnzbuGfQkfvHFF0YE0aeYKVMmc00lc4NQIltDpoZsDxkaFlT169c3YqpRo0bStGlTU31AlujXX3+VDh06mIBct27dTOaGayD/7d69u8km8XveM48nK87fN27c2Dwf2SWen9chI/Ttt9/KN998I6VKlTJZpFy5ckmWLFkkbdq0kiRJEtPnGjVqVDM82qfP57jxGMYNZMiQwXw2SyjxPhCI3E/++usvk1Hau3evCSJyf1UUV0UFkOK2UCs9ZswYSZ48ubFTZvG9e/du+2/dH2cQQNSpU+POjZ9IJO8nVqxYRohSVqJ17Iqi+Aau55bIYU4YrpGUeg0aNMgs0ik1Y5g113tKnR0X944bC32uQUmTJpWMGTOazEjx4sVNyVmtWrVMhQBlZQiToUOHmusorzN//nwzO47XppyMMjneD8GdwDLSYXQD5Wz0CmHww7WW8uI1a9bIokWLTMkeJXEMj+7bt68RWM2bNzfleZUrVzbCiUwXoonrM4HCCBEi+LjfrA3n1Jw5c5r7KWV/7CcySIjOf/75x4gjskcsLhXFmVEBpLglpO3//PNPE83ios0NjshgUOovCWwBxE2ZKCyRSd4H0VRunGPHjlWTA0VRfOTVq1embBlDABbzDKgmkEUQBZGTN29ek92wjFO8bpR+IW5Y1BcsWFDKlStn/o5sDMKG3h2uS4sXLzblXlQEYFQQFIMxiDeEE2WBuG5OmzbNiCWyU82aNTOCkAwTmTPuI6lSpTLiMVSoUD7uewQU5c2IScQR+xrhyL2XTD/GN1pSpzgLKoAUt4MDmWgUF2wuypQFcHHnxhqUCCwBRKSWhQtlGrFjxzbvgZKT1q1bmwG0iqIogCEKBjX05mzevNn05bBoRqyw6KbszFpcWxuLb/pxEDmUo5HBIJPBQobSMgwKEDdk+3FQUz4fskwIGDJgZHt69uxpygoRR4jMbNmymQwSpYI+ldvxfZFpI/NPud+cOXNMtujAgQMmGIb5hKIENCqAFLdj3bp15qLMhTd9+vSmudPx4A4qBIYAwsIVkwOir7w29fOYHMyaNUvrxRUlCEP23THjwHWZxTDlWNjfY1JjLZjZKFt2zOYULlzYLKDJ4iByyAzh1Obubp7Ozv37900WbdWqVZ7iiH6l0qVLS/bs2T2FERUAjt9vyJAhTQkipXj0PU2ZMsU47gXljJwSsKgAUtwKon5ceLnAUibBRTWoXkgDUgAhbqjJp3EWkwNubrgn0TyrJgeKEvSgP4VSNkvwsDimLCpPnjzeenTIGrBIpn8HsYMdNL0q2DqzsNaSWdeE75+eKb57jB3oG6JEDjMJDBosQxzHDVFE9QDudPQyIYgonSNbqCh+iQogxW2gZpwLLBdRBp0yUDMoR5ECQgCxyKHxtk2bNpIsWTLzepS9EanFajaolR0qSlDl8ePHJnJPFnjjxo0yYsQIMw+HMjVrcctGJoDrM9cLMgRkAMjqEKxCKGk5lHuDkGHwKxnA3377zWQAKVO3TBgYjeB4vHCc4LJHMI1SdswnKJt05yHmSsCgAkhxCxjuhg0pF0zKJijDYnEelPFvAURUjsgelqmUqxDFtUwOGCaoKIr7Qknb3bt3jRMaUf5+/foZq2myOI4LWGbnIHjIyFPGxvwZmu3JDAf1a7TiwcuXL02WD+e6rl27mrJpBBHBNK9ZIn5Gz1enTp1MGeTp06dNaaWWzCkfiwogxeXBbYyGTC6O9JzgYMONOajjXwIIy1cWPFw4uBkhfljcsLDZuXOn/VGKorgbCBYWDWR5iOBT0pYuXTrPxSnObETwo0ePbuySWchiTIC5AQtcFqmaFVbeB8KaxShl1VQRIKyZd8RsI4S0VWJtHXPce3CrGzdunBw9etSU3ZGNVJQPoQJIcWkoucAelSgj8wtYhJMeV/xeALFwoZ6/f//+5oLBczNMEJtZBuSp6FQU94PFJBF2Sl3py6DPj/4NawFKSRuLUpweKVVi3gwL1+vXrxvLY8eFhaJ8LGSHOI4ojcRFlL4wSivpFcM4g34ygnAcixyHjF1gqCzW26wPKJVT0a34hAogxWXh4MVFiKgQ5Vc//vijWaArHvilAGLSOtbizHfgpsMNB5MDhuBRk603GEVxH1hwEknHgIDmdVzaCHZgQU2Whwg8/+baQv8fvRkIHq4TWoqk+CcsVOkjIkNErxl9RCVKlDBZR8fjk6Ao2UmqQ3AhPXv2rBHzQWkWoPJ+VAApLgnZBga2MSeCCGSNGjWMJaryBr8QQAgbJnuzCLKGDzIIj8ZV5jjoUDtFcQ+ItLNAZB4PooaSI0SOo30xTm3Mfhk6dKjs2rXLZIa03EgJTLgHIYZwi5s8ebLJDpGNtLJCiCKqQzBT4Hf0GSHuVagrKoAUl4PoD833WGlykaMEi5u2Rnbe5nMFECYH48ePl/z583sOt2OYHc+rJgeK4h5w4yd4hMsWFtVk1B1tqsn0Nm7c2AyvJMPOokEDH4ozwrFMcJS+YMow27dvb+5Z1v2LzFDUqFElQ4YMplyeuUMcy7p2CJqoAFJcCppw6TfJmjWruaAx8JQyDaKXytt8jgAiu1OvXj1jS8pzEFFr2bKlyQbp4kdRXJ9Tp06ZgaJff/21yaQTJedcZ0uRIoU537kOYF7AolIXiYqrQf8PPcH0DlEqx73QOsYR+dzfKO9keOuePXvsf6UEFVQAKS4D5VgrV66UfPnymQsYMyToS3E8cJU3fIoAop9nwIABJupL6QB11GTYcHG6ffu2/VGKorgiBJDI5FDCSgadkQHWgjBevHhmACUBJjI9lBUpirtA5QjjMtauXWtKPFOlSuV57CP+kyZNKmXLlpVRo0ZphUMQQQWQ4jJs3brVNDtyweLmPX36dJ0j8R4+RgARKcPWlvp+TA74OyZyq8mBorg+LOiGDBli5vA4OrjhmoWxCbO7KIPDyEBR3B3EPZbZ8+fPN5UOCRIk8DwnMFPAYQ77dioeFPdFBZDiEjA5GvtVmvDjx49vFvfafPt+fCuAduzYYazEMTng8Zgc1KlTx8z6uX//vv1RiqK4GhgVYGBCyTC9D9Yij9Jh5qts2bLFDDLVAIcSVEH0U/5Gv2ulSpU8+98sF7mGDRsal0PF/VABpDg9THpm0BklWTFixJDBgwebjIXyfj4kgKiNZngcJYVc7HlsgQIFzM9YFCmK4nrQD7l06VJj/0sWl+sm5zYLu5o1a5rMOVld7eVTlLehRI6eYgb8MsiX84aNnrhq1arJpEmTzDwixT1QAaQ4NSzEGzRoYKxYKc1iwJlegHzH+wQQF3lS/7FjxzaPwSIUVxzKYHRhpCiuBzN4WKBVr17dLNisxRsGJi1atDDnvPY2KMqHwd6dCgjWG/QaW+cS5aPFihUz2VOc5hTXRgWQ4rRcvXpVWrdubSwsaVKkTIsLk+I7HAUQEV+g7rl///4mtc/vyPyUL1/emEncvHnTPEZRFNeBgAXGBsxCs1wb2XC36tGjh5mIr4YGivLxcG5RHsfMQQwSrHOL+2aRIkVk2LBhem65MCqAFKeExTjRF7I+lG40atTI2LEqvscSQMxBwECChk8anml85ueZM2c2sz+OHz9u/wtFUVwFSt1WrFhhMuRkeazFGQs1Fma7d+9+66auKMqnw31y5syZZsEcPnx4c64xKJjeZOYS4jKnuBYqgBSng4jKoEGDzNRxTA++++47M+VZ+TgmTJhgLtLYfWJvmzx5cvNvyt4wOWB4rPZSKYrrwblLWRt29ZbwsSLSGtBQFP8D0wQr42qdewwPtizktYTcdVABpDgVLMixZMWTnwsL0RUimcrHQ9qefUgGLXjw4J6LJNxuMEBQFMW12L9/v3To0EGyZcvmufjKmTOnGfLo21lfiqJ8PtxDrUHC1rmIcQIGCswrfP78uf2RirOiAkhxGp48eSIzZsyQ9OnTm4sJzYbr16/XCeQfCfuRCe6ONctMeqefirkGlM4oiuI6UBLMYos5PtY5zU0bi2um3CuKEjjgUkspeaFChTzPTTKzXbp0kTNnztgfpTgjKoAUp4CDb8mSJaZxlwsI/122bNlbB6XyYTA7YHipJSLZmJvEEERt1lQU12Pnzp1mFglOmJzP9Ps0a9bMuLopiuIckIFleKqjaxxzhVjHEJRUnA8VQEqgQ4aHTA/lWVw0WLxTY6spZN+DO96sWbOMo5tV7kZdMv/FBe7w4cP2RyqK4grQa8BMrly5cpnzmFJWzu+5c+dqVlxRnBQMh5o0aSLRo0c35y0ByG7duplMkeJcqABSAh2mlVt1tJRqMctCIya+49mzZ6ZH6pdffjH7jn3IrII2bdqYWmRLAB08eND+F4qiODtY7zLI1ApmpEyZ0iyiGA2gKIpz8/jxYxk5cqTpz+P8ZSMbRNZW3eKcBxVASqBCyda3335rLhCxYsUyFw29QPgOBrHRF5A/f36z/5iXRN8UUWOEEf1U/NynQaiKojgfZHKx1OWc5dxl/lmZMmVk8eLF9kcoiuIqMFicQAZrG85n5nQxm+vs2bP2RyiBiQogJdBgKvkPP/xgLgzRokUzjYRMM1fez/37900kiX3HHAL2HxbXDIrF5MAqj3EchKoCSFGcm3Pnzknz5s09sz6c02R9bty4YX+EoiiuBrbYo0aNMnP3OK/ZCPrqaI/ARwWQEijgakQjLxcDFvEdO3aUe/fu2X+r+AQnKJGjXr16ScaMGc2+ixo1qlSuXFnmzZvnbaaPCiBFcQ3o0atVq5Y5XzE7KFq0qGZ9FMWNOHDggNSrV88EeznPcY3btGmTvHr1yv4IJaBRAaQEOBx0zLKgZIuJykQ9tbb9/dy+fdtMoaYJmotnyJAhzSyQvn37vjOdrgJIUZwfXN5KlChhztXIkSOb3j29HiqK+0FvUL9+/cyQd8731KlTy/Tp083PlYBHBZASoNy9e9fYNOOQgqsREZGTJ0/af6t4BTMITA6Y+p4gQQJz0WTfNWjQQNatW2d6fd6FCiBFcV44d//++2/JmjWrOU9ZFDHQVN0vFcV94fymz8+6n0eJEkUGDBhgFuNKwKICSAkw6F0ZNmyYcSsjg1GtWjXTJKh4h7T4tWvXZMSIEZIvXz5zoQwXLpwpjcHkwDflgiqAFMU5wehlzJgxZnI85yizfThfdUixorg/9OkS/MiRI4c5/9kYVK6Z34BFBZASIJDiJepByjdEiBDG2Wjz5s06z8IH6OVZuXKlfPfdd8YFCrGYLFkyad++vezfv9/XiyQVQIrifJD5YTAxJcCcn0yNX7BggV4LFSWIwX25YsWK5h7PtQDHuCtXrth/q/g3KoAUfwcXFIb30bOCwxHNfyzwNdr5NuyPM2fOSPfu3SVDhgxmX9EjhWMMC6SPtQdXAaQozgWZ3alTp0qMGDHMuVmgQAHZsmWLih9FCaJgCNWoUSNPEdS2bVsthwsgVAAp/gqLelK93Og5ubNnzy5//fWX1rl7AZMD5vaUK1dOQoUKZbJkCEZqgy9cuPBJTjEqgBTFuVixYoWxt+a8pPeHIdCKogRtKGmnH5rrAi6QOhIkYFABpPgrlLmVLl3aZDMo9SD6SUZI8YCTjkVQ06ZNTW8UwgcnKFLh69evNyYIn4oKIEVxHrC8tQwPuOGuWbPG/htFUYI6169fl0qVKpnrA5UfDDl3XJQrfo8KIMXfwPe+SpUqZlGP48no0aM/a0HvblgmB3nz5jWOeGR+MDmgV4qI0OeWxagAUhTngCBHwYIFzfmYIkUKM7dLy94URXHk2LFjnteJ2LFjy5w5c+y/UfwDFUCKv3D69GmpU6eOWdQz+ItSLvW694BeHsoCa9asaSwwudhhcsAwWEwO/Ko8UAWQogQ+R48e9Yzs4vo2adIkjewqiuIjW7du9Rx0jmnUjh077L9R/BoVQIqfQ2ajcePGnoNOu3btapzNFJETJ06Y/YHJAZkx9hEmB4sWLfKVtfXHoAJIUQIXeiC7dOli6vqZ88MYAC0BVhTlfSxdulSSJEli7t8Eki9evGj/jeKXqABS/BQcTX799Vdj30xZF972NPgHdW7dumVMDkqWLCmRIkUyFzZMDrDD/VSTgw+hAkhRApd//vnHlLxxHjZs2FADQYqifBDWA3379jXVM6ylRo4caf+N4peoAFL8DIROjx49TBM/lo408gf1yAUXsm3btpmMGCYHLISiR48uTZo0MSYHH2tt/TGoAFKUwOPSpUtmlhfnICUtWsqiKIpvuXPnjmfpLOYplMcrfosKIMVPuH//vslmxIwZ05ywtWrVkiNHjth/GzQhs0PkBpMDy9oakwOc8CgT9G9UAClK4DF8+HATDKLPb+DAgdr3oyjKR7F8+XLPUrhWrVqZShLF71ABpHw2+NWPHz/e80StUKFCkJ5vwf5g0Gu1atUkVqxYZp8w+4NeAKI4/lHu5hMqgBQlcNi9e7fkzJnTnH9Mer9x44b9N4qiKL6DfkFaCsKFC2fWEjNnzrT/RvELVAApnwUn6KxZsyR9+vTmZl+sWDFT9x5ULV4PHz4s3bp1MyYH7A/qd6tWrSqLFy82Ke2ARAWQogQOHTp0MMYHKVOmNOd+4HFfTq+bLv07NZGGdeuYhmqzNW4pXUculi1X7A9zVl5fkPP7Vsrm0/Z/Bxgv5cGNjTLyB9u+qttQOi0+J/c/05zz+dkt8tfILtKq0Q9vvgfbc7fqOlJmbzor7x4Q8UT+/bOP/MrjBy+Tnf5fPOByvDq3TNbvvSo33HB26Pnz5z2tsSmpZV6Q4jeoAFI+GQ4Y3Eq++uorc3LyX/7tVzbOrgQXpdmzZxuTA0QP+yN79uymDAZL8MBABZCiBDz0PRYvXtyce/T++Wef37u5JYf+6i1Nv6soRb70KEv2toVPLtnK1JYWw9bIOacbz/Zabh1aJqNqlpSy39aU/tvtPw4wXsiNE6OlpH1fJe64U6594hSHh4cWyMhmdaVa0YwSL7SX78Bs4SR+luJSo0lfWXzMpzLJe7LohywSk8fm7yZ/HrX/WLHp1EuycXgrqV8ijVQbvkdO3Lf/3M3AEIF1BTb6VJcofoMKIOWTIMNDpqdIkSLmIp4uXTqTng1qFq+IPXz7MTVInDix2Rdx48Y1/96wYUOgikEVQIoS8EyfPt2Uq0SNGlX+/PNP+08DkDvHZV3/b6VwYvsCO1JWKd+wrfTqM9D0Ig0c2Ee6N60hRZLafx8ho5Rpu1hO3ntpfwJn4KHsm9ZE0vH+UhSX3nvtPw4wXsit0xOlaijb64eILJl/2ys3Plok3pcz60dLw8LJJDyfI1gESVuqgbTp2lv6m+/BtnVvI/WKprX/PpSkKtlMJh58YHt1R+7LiqYFJSWPKdtP5pyw/1iRV0/Xya/JQprj+Ku+O+W0my4/aCnIkiWL+ZwYTSl+gwog5ZPghCxfvrw5IVn40wNE70tQgszOiBEjPDNglLwUKlTILICuXAn82hIVQIoSsDD3B/dLzjuCQ0x2D1AenpPNwypL5kgsqMNLitJtZdCcHXLeaxLq2TU5vHyMtC4VT0LY3muwkOml7PAdcs1pLuG3ZceUppLW9t4iZCojfV1OAL2Ui9vHSYMsX5hjIXzSotJk2GzZeMr7Dr53eK1M7FBJUgXnOwsm8Uv0lbWXn9iewUIF0Lt4+XS5/Jw4poSy7ZuCA3fJaafLZPoNT548kQYNGpjjo3Tp0nL27Fn7b5TPQQWQ8tFwU69Zs6Y5GRnuh/ubXw/xdGbu3r0rq1atMr09WFqzH5jYjMnBvn377I8KfFQAKUrAcujQIXO+cd4x8DhgM8CP5dLf/eWbZCykY0iC0l1k4fH3G668+Hec/JAtvISzvd9gCarJ0A1XJDAK9nzi5IK2ktn2viJmqyAjAny995kC6Oo/MqJ6GpPZiZK4sLSa9a+8dwLUqxPyV+PcEiME311Uyd37Hzn/0OqjfVsAzVYB5MA2aZfyCwlt2zfFxpySgO2yDVgmTpxo1htqhuB3qABSPgpmW/z4449mzg/2rr169QpSg04REixs0qZNaxY5XJAQQkuWLDFW4M6ECiBF8Q7Z2bVr15oSVRqMHW98n8uoUaNM6VucOHFkxYoV9p8GEHe3y5TG6SUsi+6U30inzb4bunpuZHFJFCq4baH/pTSd86/46Ff3+rYc37xQJo0dYfoahw8fIaMnzJU1+y773Lz/+pk8ObFS/vh9lAz/c6dcZy3//KrsXzVd/hjF39u2keNl6vIDctlL2dKTi3tl7bR+8st3BSWe7bOEiZ9Oyv/K30yQP1ecsMm81/LswRFZPsL2HsbMlb13RZ6d3yaLJo00zzti4hxZYXtf95/Zn9DOo7PbZPmMMTLCvH/bNnqczPh7r5zx8bL9OQLokRyf1FiKxLT9bYQkUqzdMrls/817uTRXalOWGDKUxKo1WQ5et3JADgKo3FBZcdP2owcnZPPc8TLK+iy/T5HFW0/bHvkBnp2XA3/Pkam/W98j2+8yefYK2X3Byw4zPJJzu5bLBNvjpq87LP+9eCqXNs+WsebvRsmEBRtk32UvO8b2Gvt9fI2/Zc9FXwQE7h6VrQsmyu/W344YLVMWbpAjfG6L50/kzLrxMmZoYykUM6KEtO2blBXaSNfBtsePWy0HL3vPtL26eUQ2zpskf4y03tMombhgoxzxcfnyWp4/PiGrx4627eNpsuPWK3lxZa+smDra42/Hz5Qlu87LnQAsuTt16pQxmeKe3qZNG5NtVj4PFUCKr8HKFS/6MGHCSMSIEaVdu3Zy86bjVcl9uXr1qnG7o7mZmT7BgweXbNmymTk/J0+etD/KuVABpCjeoXSVwE3+/PlN8KJjx44yduxY2bx5sxFEn5O1adGihTnnypYtG+DXhbtrh0jDlLZFcrAYkq32WPH1q19eJYO7dZMuA/6UTafueBM0t4/8I9O7NpIy6SKaz/ZmCyWJ89aWtmMXy46LXjJNr+7JrakeJdLB4jaXGUumyYTu1SQHosDxOeIXlu/a/inbTt+2LTk9uLG0g3wd3svj7FvYvOPkmrySO+fGSAnzsxTSauqf0q12Jo8sln37qssqOWGtgR8cl21z+kmrSpkltsNjzBY3t1RuNkTmbzrpJfP1GQLo0TYZUz+bRLI9f8TstaTXdt+5J7x+eVe2/dFWOvYcINNWHZM7T7xngMKWbiN9Jy2SPxoVk2SOn8O2xcpeSVqOXSX7/rP/2Vs8l4ubZ8rw9t9Kvthv/53ZwiSSPDXayfC1J+XmWzroiizqWNLs2yTFf5IRMwbJt6kc/i5eAem4ztrRz+TiphkyrF1VyfuFw2OsLWwiyVurg4xYe8rLa9h5eVOObxovPZuUkkwRvfxtpC+lVP1BMmnDeY/SwMc3ZGZ5L4/x3EpK35XnzVMaXt+QI/9MlC71ikmaMF4eGz61FP9pkMxed8pLhu6VPLg+VSqbx8WVRuOmSO+GeSSGw99mbDVfDtjEd0Dy888/m9fmuhWUAs/+hQogxVdwoHTu3Nn40bNxIgYFO8bHjx/Lli1bjJtTvHjxzMUHJxZMDjZt2mR/lHOiAkhRfObcuXNmWLO1mGHDyr9GjRomw8u5g7kJj/sYYxdsanmuevXqmWtmwPGfbBz2g4dpQPQ8UmWU3/Qe3fh3oXQtlcJDXISKL1mKV5Zqtn1Uo0YVKZMruUQz+y6q5Gg0XjZecxh98Oq+/DentnwRNZwEi51PSmYIaVsAx5BUectJVfP330rZ7PHtzf8xJEfrmbLfvph8cHipjPulspTInVqi2n4fMlp8yVyKv2kkrYdutcmBl3Ln/CSpGtZ2LwoZR776P9t1OVJqyVm6qu0x1aVS8RLSZf4hucpK2SZ+1g6qJFmi8johJEa6QvLNtzxXDan+dV75MgY/DyaR0leXwWtOO4i/TxdAT3YPlcZ5cQINJ5lq9Jb1n11TiAAqJKls7zNCqrQSL3xYCRM6gWQr9a35HDWql5E8qexOf7b9UGnQv/LW0vjVM7m9e5TUTR/KPCZEkhxSvEJ1j7+17a/KxbNLPD4nf5/hBxm9+abDfrgmK3pVlSS23yVMkkRSpYknYRLlk2/YfxUrSLXvWshsyhNtr3F310ipk87DkCBEkv+TEp6vUc28RlzrNTLWk9+33pS3zqrX/8np5V2lXDr7Y+Jk8fz7auULSsZ4Hj8Pka6B/H7wvu3reSR7xzWUejULSZpIYU0fW+ysJeVrvtuGv8uao9YeuC6HF7aXUilCmL8Pm/QrKVPZ4/uvUaWM5E4exfw8dIra0n/dRZtMtHglD2/OkR9iRrYd+1/YjrG4EixKCnP887eVS5SUdtN3yLkA9jjq3r27eb8EYk+c0FrIz0UFkPJB6O/p16+fRIsWzWR/6tatK2fOnLH/1n2xTA6smn6yXjQ2U3/rCuJPBZCivJujR49KqVKlzDni00aZK8OMWXRg8mIJonfBDfTrr782f9u2bVs/La37IC/3ytRfC5hm8DAZv5FOG/ygNue/rTK0cjojQsLE/VIqd5khOx003eNjS2XED7klZQTb/gobS/K0XSs3rKocBNDc7yVOFI+FJwvz4s2nykaHTNHjPVOlSdEEEoXm/5QNpN8axwKu13L0rzaSyfa3EbN+I8PeSme9kP/OTJJqETwW9MFYoLaaL4etRMudh/LkxXPbEva+nBv/g2QzGY9YkrJ0K/lj/WXbz+08PyX/jGskRVIjHkJIrMyNZOo5a799ugA6N7uZfB2f10wlZX9d6rvyt/diE0DNbAt981lt+yNhFqk1eIkc9nw/j+TYou5SJVUM2+/DSMKczWS+Q0vu81t7ZVrFaOZvwyQvKx3mHZK3Ehe39sjUpkUkSdTQtsdEldI9lshxz0MXAVRdUttfO3yCstJm0Ztz4MV/94VkzvObe+TPb6zXKCcdbQL0ra7gW7tl8s+FJVEUXiOalO21TE44nB73/50irXIxNDy8RE9bUdpM2flGxL28KFvGN5QCiXgPYSR6hT/luGd/1Gb5NUUs0wNU1Cb6vdaj3N4+WGpkQOREknj/94P0WXhU3uTjHsmJpYPlu+yJbOdNWImevZUsumo9LwJorvwvlkd5XbBgUSRjw6myy9pxdx/Jk2fPHIwqAgbWIyFChDDVJ1yPlM9DBZDyXnB2o649QYIEpu+H1Ku7L6YZWPr333+bzxopUiTbxS+YOUGIDLvSZ1cBpCjvByv/VKlSmfPkQ1uKFCnk22+/NeVyXB927twp1669mUqJOYo1FmDAgAH2nwYQd/+RkQ0zmteOmaumjDps//kn80quTK4nxYi8h48npbotFh/jzTe3y6Tv4hnhFSlheRl17KVHKdtruwCylzIl+HG+HPMhE3J2cl0pFIvH5JZGo3eaxbQHd2XXn80kve1vjQvcW94ydgEUHnEVXEImbCQLrvigTh4slbYFEpvsVcwCbWQ6mQNv3JWj05tLlsi29xAhpeRuu82e/Xj5yQLo3zE/SpFwfKacUrPfVofP9Kl4CCAjQkLFl8oD1skl+2/ecEk2DK0m0W2PCZumsLRbby3mnsqNPYPt84wiS8GRx3zu2bq7UJoXSGK+x0Q//CFrPA9rDwFE9ilYyERSsPFcuWD/zRueyrVdA+0liVGk8Kjjb2d3LO4skJ/zJjavkbjeeFlrxRBf35a/f6thSvzCxCokDaf6ULz54rrsGJRTwvAaYUrJ0BNPPI6zZyulebKYRgAVHLhbzji+8ItzMqlhAYlv+12kZDXlt9VX7b9w5KVc2zxYynEMRkoqRQdY7/21XQCFt30m2+9ifC9Tj997I54DiRkzZphANM679B0rn4cKIOWdYL04depUSZMmjel5wX7RnaMOnAAIhW7dukny5MnNhS9GjBhGCC1btiyQBhp+OiqAFOXDMKvHcnP8mC1p0qTSsGFDmTJlihw4cEAWLVpk5qERocWxKUC5vlKG1Ulp3lesXDVk5BH7zz+V1+dkRv0CksD2fGG+aimjd79r9X9fTq3oLF+x4I+WXL4ed9a+SHxgBFCs8MFt7ymONFp83keHrtfbekjN7GRykkj131bImyXqHdk51UEAvWWDbRdApp8jjMT8frZcuO99afpoVXMpmoqSrCTy/aiN8q6c/ctzq2RYpci2x0WSFLl7yg5T1vRK/vskAfRadg3+n+Q1x0hu+a7/Dj9YNHuUwBkBlOxHGfLPLfvPHXkpR+d1l2K4yCXKK7XnWPmTR3LrwERp9nU5KV+2kcw+89i293zitIz9JrspaQxRvr/M9VS7HgLIGDDELSL/m+zTUO+HcmvfBGlarqyUL9fY9hpP3vEap2R02awmoxjimwEyz9I5/62SPrUwFQopqSt2khU+Wrk9k9un5krLgqWkSs1WMuPoU7NfXz/720EAebHBPv2H/FCQ7F4EKdFxnjh0Bb3N06OyrAnZsyiSoPBQOWxP6zxCAMUIZ/t5MAlXeYIcvuHzpwpIVq9ebRxnqUYJ8GuMG6ICSPERGoHnzZsn2bNnNxcAGoaZQOyuziO3bt0y0RVqaynzY+Ozk3J2Vc99FUCK8mEo58W8IHbs2OZ8+ZSNDDkZIq4bzAObPXu2/dkDiFtrZMT/vjTvJYZNAA3/3AzQ47+lYzkPp8sv/zdS/nlPv/WDY4ulSybbfggZR5I3XGxbDsNDmwCqLTHDIUBKyrB/r/ucFTg5Xn4sTOlUYqnR+2/bctviwwLo29Ds+wiSuecOue6DODkwuJhkJbMT6Vvps/zdpYvy8oSsHlDSlDrFSF9JRps1/iu5/YkCaO+IBlIgJO8tl9Tus+0dYuBjeNMDFKxoD5l+2GdJdf7vQfJtWNtjEuaT7//ynSH0q+dP5f7Ni3L66Bxpkze1MW4IbRMnf3kmYTwEkDFcyFhVOq7z1U54C8fXaJUrpUTkNSoMlPmn7A84PFFaFQ1r218JpETz+e8WKj7w8um7BdCDZc2lfBq+h0RSptloWbN7t5lf+Pa2W3Zvni8TfmbIaHCJmaKuzLaXeT62CaAfooeV4LbnTtlurZz9oMWe/7N9+3bPNdmwYcPsP1U+FRVAijcQOYidggULmhMta9as8tdff8mzZ5+fzHc2yHLh/oTJATON+LyJEiUyJgdcbFwZFUCK4jvo6SObg4DhnPnYjYhsnjx5JG7cuObfEyZMsD9zAPFsn0xtXdAs4sNnrSI9tn9m3uHyLGlcNKH5LMXaTZdD9h/7xJPT62VQUfZDDElUZrycNrVJD+W2EUBkdyrKuOM3HBrMHTgxThoU+gwBFDyiZLKJk2ve1uUvZWOnwpIeAZOhpUzY/r45dZdk09jaEsX2WuFS5JKOm/nZa7lz5hN7gGa1kq/jsj/SSaX2K982JPgkEECWDfa7B6GeWzFQqr5XAD2SmxdPy7HDh+TQ3m2yccNimTx8oPxap6hkifvmuI/wLgGUqZp0+OdDXf/Waxz0eI31vMYA8xqZ47x5jYgOAujJlkHSICs/zy41bILxY0Ks7xNAp8ZVl0JxPF7Pt1vYOEVllP2zP/EUQMElRYeN77BLD1iYP0jJLtebSZMm2X+qfCoqgJS3eP36tREE2LhS9ka6lRMNNzR3gs9JZgdPfwQeF7/w4cNL0aJFZfr06W5h760CSFHeD5nuBw8emAwwQR5LwHzMRvkcttqHDx+WEiVKmJ/179/f/goBxVVZPbiWJOc9JSoqdWe9kRIf5qU8uHZRLl++LrcfPJMXCJgTY+X7fJQFBZeS7afL+xJKT069EUCJS4+Tk94EUAX545g/CqBee3wQQPdkWZN8HqIhSyuZ6AsBRGlW2ORfSQdj7vnpAujx5r5SPwf9SVElX4Ox8q/ZH77B9sDHt+TCpSty9fZ9efLc+kMHAVT2UwTQa3l645hsm9pZqudOKhF4HvsWIkx4iRztC4mXKLZEDx/GuKmF/yQBZHuN68dk69ROUi1XEru7n8NrRLdeI7R5jQgOAuj6kg5SnflHwXJKjb7bP6pk8H0C6OQf1aSgseOOKNFiJ5RkSZOaslXvWzJJljyFpEyZUrIXbiCz7CmotwRQ+w1OIYC0B8hvUQGkvMX+/fuN8xF17Ng9UwLGAsGdQMzR00NDM8NcMXfgBMDkAGcod0EFkKK8gcw25z5mBQx03rhxozlHfvnlFylfvryJrHLdsxZuvtn4m8mTJ3tmx3kefo4LHK8XkJz+q4tUwJEtdDop1mm9z83uPvHqgAyrkE1y/l8Z+d/wzXISrXB3kbQokdR8lkK/TnvvIv7J6X9kUCH2R0xJVH6ynHMKAfRatvcoIhkRBGmay7it7ysJuyibxtQ05V/hU+aVbibx/+kCSK4slB6Vk9oWzsEkSZmWMuuK/ecf4vUTuT7te0mXNZ8U+r63LD92x14+9zkC6JU8v7JVRlZNJJH4LKEjS/Qv4krcRF/Kl5kKSoX6raTPhGWy6+Iy6V0yo5lzE+qjBdAreXZ5iwyvnFAivvUa6WyvUUgqNmgtfScuk90Xl0qvYumMUUMoBwH0eENvqZ/Z9nfBskq1Xpt9Pk5svH75TO5fuyCXr16Vm/efIxffK4DOTKwlhXEADF5Emo/bI0+ePjWW9u/dnj2Xl+b49XCBczYBxNxBzkmCtuoC9/moAFI8YdIwBwOCgKhmnz59zGLBXWBBgsDr0qWLiaCQ4eJzVq9e3bg6uZrJwYdQAaQEVcjwIkpwsSS7Q70/ZgedOnUyAZ7MmTMbh0cED9c7+nYiRIhgSkt8K4IKFCgg69atk1ev3sSsrdlCAT8HyPaZD82Q7sWwGQ4lKYu2k2W+XLC92t1LiibG7Sq4xPtxpmy/wU93ycBKWY3rVuLqg2T5exbxdw/NkVapbfskTHxJ/ct6u+uZ1QPkNwKonw8ucO8XQCIXJpSX3CyAQ5eSLgtOvDuz8PSwLOuRzwiWOBlryXTjxPCpPUA2Xp+RJR3LShLsvZOWkIazzr/7tR15ckbGV/3CY+ZSmEoyes9V+z77DAH0/IocGP21ROe9BIsu2X6aJhvO3pX79x/Ig4ePbKLgubwwb+5fGVouiykD/GgB9Oyy7B9VTqKZ14gh2RtPl03mNR56eY0DMqhUJonMazj2AP07RloUolcsthRtPE3eNWDjwfm10jVLZEmULqNUH2cfXPvijQtcoUG73+4BWt1OvkmHCUcKqT3gH9sR9TE4pwCy5gAVK1ZM5wD5ASqAFMPVq1elefPmEipUKLMY6NChQ4DfwP0TrK1ZAHHhoNQN8YMwoJGQ6e8smNwNFUBKUIHgBhFcghiHDh2S+fPnS9++fc3NLW/evBIzZkwzwNkyKUD0cK3D+KBw4cKm/4dZP+3btzfnzPs2nof+yCNHvFuttWzZ0jyGEuKTJz1XkQHDq7Oypl8VSYwTWPSsUmbITnnyocva86uyuElaj0GYwTNIoz8PyA2zWL0py5oVl1S2RW3wpFWk21Lv5sce3JJ/ZzWStLxm1NRSYfJF+2IfF7jPFUBNPyMDZNsd2xmsSXN9aCnS+S859A4V8uzIPOlahPcZRZLnGyA77RmAT3OBg9dyd10/qZeRRX0oSV+xu/x95x0v7sljubWui+SO6TFINMq3U2TvVbul+GcIoFc3DsqEqoiAUBIpbUdZfeMdfby350uTfB5Zq7AfKYCeXzsg4yvzGqEl8pedZM0tH79p22pznjTMndi8RjhHAXR/swz9Xxbz8yQlm8uci/afv8UzubarjxTgfYSKJbXn3vHIcD5fIc2T+pwBkssz5KfiCWzvK7hk/G6grH3PcubF43ty7+59efDgsXhUHjqfAGKN0rRpU3N8UL3iTuuzwEIFkGIGnXLjtxqAmzVrJjdumDCgy0N0dsOGDfLzzz+bxQ7CB5MDTA92797tlsYOFiqAFHeEhQCCBwMThhWvWLHCBDIwLsHFEUe2yJEjG6GC2OGc5zwg25srVy75/vvv5bfffpO5c+cascRNkDJf+oHGjRtnHvuujawRj3lXjyAlKrx2vHjxTJltwPJanh9dIN3Kelh6B09RTFrMuyRPn/u0+LbtwyeXZcfQapI2Op8tuMSs8rtsOm8tum2L+MWtpWIKfhdGcvw4SjZ6W8S/lodHFkrfEh5WwTHT/E9mXLA/xswB+hwBdFf2Tm0m2W3PGyJVEWm77s3ixLcCSF5skv5l05mMQ8i0taX/qnP28qY3vH55WtYNrimJcG2LlklKDjxkf5+fPgfI8OKCLO9RxUO0hEwgBRtNln1PrfIqL7x8IrcPTJaGGdkPtseHKSTdN16UR56P/QwBZBMnf3xt+xniJF132XzPe1nmq+cPZO+gcpI1hkfmk/6cjxJAV/bJ2HK8RhiJkr6HbHng/XjjNfYMLCuZonu8RsSKg94IIJuU2TqyoeQggxQuu1Tqu0m8HWp3jsqSNqklVLAQEjFRU1l49YXHcfp0pfyaPKaEtT1nhg6r5biHBaEHry/K7J9LSGLb74KHyyX1hm+W/7x9fNsxfHyZDK6UUOLHzyyFq42Qrfbv+Y0LnHMIoGPHjpkeZfYfQsgdg7YBjQqgIA43fhYDZEU4sSjduHjRxxCMy4HJwdChQ83UZEvclSxZ0jQSuovAex8qgBR3AcFz+fJlM7jUsW+HGWXM6kKYIHY43tm4nmXKlMnM8OrYsaOZ1UMZ3JUrV0w2mF4grwsIfle7dm3P5/C6ee338QlKbHPmzGke37lzZ/tPA5DXT+Xcsm5SwzSVB5NQ0dPK/9XqJbO2nZd7j16a/fjyyS05vWOqdC6fVhLZB5UGT/E/GbH1qocBgsXTkzK9cRFJwu/DRpP/q9FT5h2+J095jpf35dyakdKiYHyJxMI1VlqpOOLgm76jV58rgF7JmcW9pSKzfqLYhMmAPfKE133FG/SlALK94r1l7aX0lx5ZoEjpK8ivU3fL1cce++HZpY0yuW0JSR6Z4yaypC7eXdbetVbeLz5PANl4dmWlDKyd0TjzBQsZWRJ/VUXaTPxHzt58ZN+HL+X+hV2yoGctyZkwisfjQn8hpfptkgvPHL+IzyiBe3hW1nfO5vHcoeJLvl/my+4rDz2OgxdP5L9jy2Xw9zklVeQwZkApWZiPdYF7ff+M/NMpqzE3CBY6geRvs1D2vvUay2SQ7TVSOryGowscPL+wRPpWYiBxcAkZJ6/UHLheTj/02EdPLu2QmZ2KS4LwtuePFF/KDjkq1tf0+vlRGV0krkdZXcmBsvIEr/vKdm6b38qT/WPkpwIe9vZhouWUqt0WyL//PfN4by+fyuWtf0rnikk8jCFCJZJ8XbeLx0gpj0GoziSAMKPCAAG3WtYwyuejAigIQ7kIkdNYsWKZCwS9MO5gAsDFbeHChabWnwsGn40DnAUJdbNEeoMCKoAUV+X27duybds2U7aKOUmNGjVM4y+ZlahRo0rYsCxqbYsW+4Y4KVeunLRq1Up+//13Wb9+vQmAEOggyMM14UPweggqx+e1NkpncXlzvEn6BL8nu2z9TaBcT5/fl/OrR0mjfJHs7z+CxIyfTFKmSmM+X5rUKSRJgugevSa2LXKe1jJl02V54j1wL49vbpM/fshtpukHCx5BYiVOKal5jjSpJGncKB6T+aOmkgp91soZxxZKBNCcmhItNNm38jL2nQLoD6lXgCGkCaTabyscBJDttfdOl445eY8hJUz0hLbXzSUl6s6WCzZxdOf8ZKlK2V2wcJKh5+53CCAbL27LyZlNpEhyj88aNnoCSW7fD6mTxZPoCIZgYSV58V9l3om79vI9QABNkMqmryWCZLSJrI8VQAiwB1c3ybhWRT32H68fLa4kTZHKvg/TSKpkCSRWBI8MZbDw2aXu2H/k1OO3hTkCaHmT/B4ipHRfmf0uAbR8gFRGsMXLY0rEDK9fyO2D06TRlyFsC3nb78LGkgTJUnkcB2lSS8okcSSybT9GLdxGmlbPIZmj2h6T7mf5w9M04pos7/mtyaIEy1BV2q3z4Vu0vcZ///4pP31p/xxhv5CEyX14jSJtpFn1rJKJ10jfVMZvs14DnsidPeOkaTGP+3XwSHElief3lEBiYO4RIpZkbjJTDjkKkVePZEv7DJKAQbyho0v8pLbXzdBUJmy+5PFdvn4ol9b2ldo57OdC+FiSKEVqz/eWPH4MCc93HDaRfNV8thy7Y10nKIGbI3WiIOCDSdK26wNVABGs+eGHH8x7YSA9mW/l81EBFEShfIRZFdhAclJ98803snPnTvtvXZe9e/caoYODHaUvlKOweMI///79QA7hBDAqgBRXAIFC5oSSNPp26tevb2bqJEmSxARnrOy0tVHCSilIo0aNZPDgwabU7Pjx4yZDhGnLpwY4KG2jL8jxtfeJ88YAAP/0SURBVDBEqFmz5kcNQ8ZGH6HG+542bZr9pwHNM7l1dq+snNVfGpZLIzGNWHDYQn0hX5ZuJL2nr5PdZ+44LPy98+TGGdk5Z6j8XDKlKTXyfI6wySRv/QEyfcMxuezVKBQBNLu6RDEDQcvJmKPvEEDHx8r/8kW0PSaeVO25XIz/gMXT23JiqU38folA8njNKKk6yWYE0IXJUtn8LIx82X23XH2fOHl2S87vXSzjfi0nWWLY37t9i5urlnSdsE4OXbhtkzyO2ATQqfFS0TwunKTr8SkCyIPnd87LgbXzZGjLbyR7/DdZSmuLmKqA1Os6TdbuPC03fNxJ92VZ47wmExesZG+Zddz+Yy+cXdZPKrKYj5NLas5xEBe4y+1bKMMaFZVUkd5+7ciZK0ursX/L7gv35PbyllLCCMVc0mLifvH4Sq/Ksu5VJCGP/7KytPVJAMEr22vsXSBDfyoiKb28RpQsVaT12JWy+6LtNZY0k2LJ+HluaTX5gDhWrNEH9d/pjfLXgPpSIsXb+yl2jprSY8ZOOXnTewDi6ZVVMsYm0uN4Pj6rNJ97UDyNz189kGsn18r0vv+T4sneDpwECxFfslXpJMNX7JcztxyfGwE0W76L5CHqEv+6Xk4H4vKB7LU1roOKHd8EdJQPowIoCEIJx6xZsyR9+vTmhGIxQWmJo5uRq8GBPHHiRPNZrAVT7ty5jY03JgdBERVAirNB4IWsyNKlS032mX5DzlkisogGXNg4Zq2Ncg/EUJ06dcysHWb1cCwjSHB3w/jAL+CaSKbJ8bURXwSJKI37GC5cuGCyPzwH2aDAnaH2RG5eOCL7d+2UrVu2yBb7tm33ATl6/qaHk5aveCr/nTssu7e/eY6tuw/J6Xeqgpfy4tYJ2bFtq+2xR+XaYw/bYm88uSanDm63PWa3HL94x7tIevlALh/ebX/NbbJr7znBl/TF0xtyfKvHz/ZdfCg+tjl54eXdC3J8P69l/wzbdsi/p67KAx//9rW8eHJdjpnX2O7r13gfT29flBP/7pYdDvtwy9adsufIabn+3kkTL+XOmYOyh8cfuSS33rHLn9657PF+d/0rJ95azHvw9OYZObR725vX3r5T9p284llOJo8vy5F9tp9v2isnL9+3C8LncuficdnN4/cdl/N3ffwWPfHpNfafvCr3rNd4dMnjNTbaXuOK9RpeeHJDztm+8+3Wc9j20QHbc7wtlt7mydUTss/ar5sRMw+9P/fj63L2kG3/m+/UY9vGvrJ9Vp+KWl8+vyUnd3D8bpE95+7Jk0DUHAMHDjRZ7+TJk5sh9YrfoAIoiMGXzOLjq6++MjdomoIXL1781pfvShAJQbwRDY4TJ475TGR/aBIkG+RuA1w/BhVASmBC2caZM2dkzZo15lhs166dVKhQwVhQY0PPDC6OT2ujj4coJw5HuFBOnTrVlKWR3cGl0j9t6hEtZIqt94Igo2/oU4JCfG7stnkePicmDYqiKJ8CASOcKrmecI1yhyHtzoIKoCAEN2Zq43FK4mTKkCGDKdcgKuuKUAc7aNAgs2iyZneUKVMmyJgcfAgVQEpAQgna5s2bTdlXz549jdsaARb6c7Ch5li0NkrN0qZNa/p2sN8fNWqUEUocp4iRgC5XRWjxPnlv1NhTDvw5ZSaUrGTJksU8H72IfCZFUZSPpXXr1sbRMn78+DJz5kz7TxW/QAVQEALb54oVK5remGTJksnYsWPNoEBXg3IV5nxg2mCZHCDmKGHB5EDrYz1QAaT4F0QhuZ5QkkYfzk8//SSFChUy5yGZWK/DRLneUOr2448/Sr9+/UwWGpHA8GUMDwKbIUOGmNlA2OVjN/u5cA2ixA/rbTJb/fv3t/9GURTFd6xevdqzT7tFixZmZInid6gACiKQRv3uu+88h/+ROaFh2NWgrI3ymBQpUpiLAo5QfC4uFHpxeBsVQIpfwHnF8YPZAA5rOK0x6DN79uym3NSymLc2IpUMH8VSukuXLjJ79mzZtGmTGRxKZtar/XRgw02Qz9W7d2/z/34FnxUDBfYJZX979uyx/0ZRFOX9UPaL1T/XD6pcCBgpfovbCiCaY7nhsjCeM2eOmd/ARvM/jmAHDx4MMv0hlF8QoSWNiitat27dTAOxK3Ht2jXTkExzsRVdzpcvX5A2OfgQKoCUj4VrIhmQtWvXmuslAoYSLgQNDbheHdkwCkAIVa5cWdq0aWPOUa65uLphHuAKvYWU2126dMlfTGC411BaxzULdzsc7xRFUT4EmXVMYdi4lweV8R0BiVsJIHpZuPlSYkH9OY1j1JlTkkHDLRuuQqlTp5YCBQqYzAGWgsuXL3fJUjDfgNBhYcJJRPaHelLEhKuAkKVvCQEXN25cs+jCHpe+ASKqfuUC5Y6oAFLeBzdU3NTo2yFLQ5lW3bp1pUiRIua66dWkgOAJJW5kf3A3o8RryZIlpl+GIISei95BUOJex7WXPij2sZboKoryPjB24hrMdZcAlKsFrF0FtxBAuANxA69Xr575II43bcozKMkgCseWIEECkwlxfEzKlCnNkCmG7rnTrBhKV7p3724WMtS3U39PpNNVOHnypBGzVjMx3yUpYRoB/bJUxV1RAaRYkN3g3KeMAtdHSr5wTkTMUJ4VI0aMt66JXCO5XiKGCBT16dPHZNIpZeO89E9HNneDDDy9l+xXyo/JrCmKovgEASXMY7hesJ4lAKz4Dy4vgIhe0rhqWSCzZcqUSWrVqmUW/+PHj5cFCxYY73S2RYsWmXkxPXr0MLMlsmXL5vl3CAUim6hvV4dSCxp7iTpiekA9/scM8wtMEG58Z9jhWiU36dKlM98nZY2K71ABFHS5fv26+c7JiLPgbtu2rTmfsL9n3o51zWMjOIJdM3OzKGWjx27SpEmmfOvw4cNy547jxHblU9ixY4fkyJHD7G9KCemnUhRFcYTrrTVDjEoXHG219M3/cFkBRLkFcyKs6bhslLxRboBi9k1JG25iDLkiulmyZEnP52FAKBFSV22qJzrL4pdsF5+H6CM9T84OJzqLNuaFkJXjvdNjQFkOi7GgPNPnU1ABFDTARY1ZOWRn5s6da66BBHcKFixobqLWdc3aEEBcN8n+MIh05MiRJiuEwYjOmPA/CMAxX4jvgMAbokhRFAUIUDtmirl/s0ZV/A+XFECUqZHd4CDhYKFWkqgli4BPhRr2zp07mxp3npN6dzIOrjZPhj4o5nBYAqJEiRKydetW+2+dF2aIkK3DKpf3zZY/f34zH8SVyvacCRVA7gfXPoaLUibBgE3LgrpUqVJmcR06dGjP84eNAAIBHYJDXOgHDBhgStmYe4NJgRKwUKpt2drynWhGW1EUrsWUGnNdoBJp4MCBLjuf0ZVwOQHEAoCbOAKFg4Uadb+ctI370ddff23KxqiD79ixo8v0m5BBoXTM6pnBuYmoo3+4G/kVlOpt3LhRGjRoYBZrvG/KcbDa3b59u1O/d2dHBZBrQyb34sWLcuDAAVOWO2bMGHNeVKhQwZT5YmzC92ttWMIT+KCUjXI3ynynTJliMuLnzp3Tc8kJ4CZLoMcydGHoKpk3RVGCJsxCoz+b6wFrTuYZuqspl7PhUgKIsjdK06y+FhriWRz4NadPnzY9RDj3ILSYD+Hs5Vc4C1EmhrsdJxIlLgwpdNYUKosxUr59+/b17MNiX3/zzTem7lWbrD8fFUCuA9c23BmxoCY7M336dOnUqZPUqFFDcubM6c2kgOGaBAo4zwnY/Prrr0Yg/f333yYT7ngxV5wL7iU46OFIyndJXxY9QfqdKUrQgnEBlSpVMtcB+p1xt1Wr/IDDpQQQdepYWHOwlClTxl/7WhBB1atXN69FLw2LcmeFwYL0MlHTz/ulFIYmZmcVEfQskKnixKcBGzFLmQ6W5H4xhV3xQAWQc0KmFltTrjFE/xcuXGiCLFyI6dvBtZLvzdq4MdK3w0WaEtEmTZqYEmD+jgCQBgtcD0TQ8OHDzSBZvmPELME9d3IhVRTFZ6w1mxWwJsCFUY0azgQsLiOAKAWhzp2DhQUd7m/+DYtGhm3ymnny5DHvwRkhikCkGCGBWOPGevfuXftvnQei3NS8M5coRYoUZr+SzcOCnMi1up34LSqAAh8ynZyL9LEh7tetW2ei/02bNjXGKziC8R1ZG1bvlIImS5bMfG+YGWBqgPU7TfM6D8J9IGvP92r1a9K/5Yp9p4qi+B6CH/Rh4mzLeU85LG0duv4JeFxCAHGjGDp0qImEUveOjXVAwYFKU1qECBFMSYqz1dEzk4P+Gcr1okWLZrIoztizRJPfuHHjTOMvJ33YsGGNuBw9erRLDWZ1JVQABSxE9ajdxoIaowIifPR7UJ6Guw9ZTjKefCfWgpdzlqAFv6tataoxc+H6Rl8cxiCK+7NhwwZzXSSAxXHBKAaOH0VR3AvuDYgdAr+c6wTAcDPW/szAwSUE0NGjR01pCAcMvTkcRAEFtrBYxfLaKHZncu1BVLRs2dIIQ5rnsI8OyH3jGyjP4QZPlsfq3cK975dfflGTA39GBZD/QiSPCyjZHUrZiOZ369ZNatasaWa+0KfD/mdD+PBv+j4YMEoJL+cuAQB69+iHQ0ApQRMaobm3ERjieKG/FVtzbYZWFNeHdc6hQ4ekfv36nvcEjGz80sBL+XhcQgAxp4LMDwtnGvsDGqKxlKXwHsiwOAOU1WDbzXsikkxfgDNFjMnasaijt8FypWMBiMnBrFmzTDmc4r+oAPI7MBOhP4PyJEwGGKjcv39/qVevnrFrtxra2RA7BCXI7tDjQZ13w4YNjbUpfTsEdBBPKngURzi+Wrdubdz8OI643/Xs2dNpS68VRfkw9PVgamPNrCRYzTpI3R8DH6cXQCyUq1WrZg4crF0DY3YFWRUWOryHQoUKvbWjAgP2Sb9+/cyNksUWg0IvXLhg/23gg8nB/PnzzUmOOKM8jwOMgbOfM6tJ+ThUAH0anN9kLrlxsfgkQzNixAjTt8NcLYaLWuVKnH9E7QlERI8e3WR+mOfAwhWhz02OYAXPqdlO5UMw+4PzltIY6xgjW0jPq84FURTXgSDw4cOHTfVLiBAhzLmMwQ19ftrL6Rw4vQCiTAqbZG4GOB8FFih43gM3psAcLEqjHMNByUjxfhCFziIqOIBI8xLFZD9x0rMoRDyyiAxs4RjUUAH0YRAlBBQoNbp69aopO7L6dpi3w5BlRDxCByHP/1uCh76dypUrS/v27Y3rIj0/XFBZqHKeaoZH+RRYOHG+Ui5jlVHGiRPHLJx0KLSiOD9YWTtmfbh/EDyn5E3NDpwHpxdANASziKZRmFkJgQUOTKh3ylooyQsM+IImT55sHKKsyCAT4Z0BFo+YHFDuw0IRNytMDliEk0HTxWDAowLIO5xDCB6yO/v27TP29iws6b/gZsX5TYkCxy/HMSIe0cP0flwo6QckALFmzRqTHaJsCcHDolVR/BJEOWKcY4/zmOORwakMttUSYkVxPhA3ZH2oyqEMmvOWUlaGUmP2pOsg58LpBVCXLl1MpgMThMBcxOG2VqxYMbMgYhEU0LDAmjt3rmTMmNGcVEQT1q5dG+gnFL0RTKnnhOdE570RrSSCjjjTaEfgEdQFEOcG5w0Chb4b+m/o2yGyTt8OAQ0i7AgeFpfsKzb6eRDyuCvy+CVLlhgLay6WRPb0mFYCCo41hDrHrLWgIiDI9ZZsuwpvRQl8uNcw161r165mVqVVvsq6lawPPZ+K8+H0AujHH380BxLOSmQZAguyGJaDBwM8AxLKdJYvX25mEfH6TIZnMRfYCzFOePp6MmfObBaQWIXT9zNv3jwd6OcEBEUBxIKQ45K5UvTtEKwgc0MUnWFzlK45ih3+zf6pXbu2yQTRt8OCk2gdWSLtu1CcAY5FqiEoyeS4ZYFFJQCT40+cOGF/lKIoAQ196YxpoYKAYBrnJ8FgDLN0lIFz4/QCiNIUDihmIwTmxPN79+6ZSb28F2Y2BBREFrCRZmgi2acMGTLIn3/+GagRBW7GuPGVLVvWs0Ydi3CMGehH0mZv5yAoCCBuPpwflAphA09PTpo0acxwOeZ3Ub7GPmCjrI3zhwAGj50wYYIpbcVABLt7So60REFxVgh4UYlAVpIsO8c0xzdVAUSez507Z3+koij+Desg7iEEpiNHjmzOR4ypcOSlHzQw16uK73B6AVS9enVzYBHpotwqsKD0hXI83gu9LQEFZWQs6ohaE/H7/fffAzW7gqsVJgcpUqQw+4KeCVxOKMfTmRXOhbsJIC5WCBaaS6mpJmuD61rixIlNdseaoWJtHKP0THDtoG9v3bp1JlqOaCKgoeVDiitC8Iv7AkNzrYGKZN+pDMAoSAdLK4r/QSCCAHCRIkU8zz+CawTrMXviPqW4Bk4vgCh94wAL7AwQVrYBnQGima5OnTrm5CLiR4YFi+nAAPchouxEO0jzko2iT4KyjMAsTVTejSsLIM71AwcOGDt1JmczR4d6aoaIci5Y/RDWhkkKfXGOfTsHDx6U8+fPm4uc9u0o7gYinv5LIs6OEWj62/r27WuyRYqi+A3MgMOEilEI3G+se0+5cuVk8eLFgTKiRfk8nF4AOfYABWZkix4gFle8l4DoAaKcgRsbkT1KeRh6SplOQEPWDcer77//3rPsguGOiMHdu3frwtKJcRUBhKMVJgP0uZGpadWqlSn5pFyNY80qs7Q2LOBz5cplMkDdunWTmTNnyp49e8yCj/NUHbKUoAT3BRxSiUBbJZ+cM2RHW7ZsacpxFEX5NAhEE1Ag4GutgdgIyM2ePVvOnDljf6Tiaji9ALLKzojuEtENLE6dOiXFixc3fu7+7QLHDY3ZIggfXo8SnsDIsrAo5cTH5IDvgKj7119/bQwYdJCX8+OMAoj+MMQ9kWuyh5zfVapUMe+RkjVrCr61YVLA8UfQ4ZdffjFZSGb14IBFVlLrrBXFA2zZMaDBIc7xPCKQQACLbKqWKSuK76C3FDdbSku5D1nnE+NHyAQhjBTXxukFEIskLuY0NRMhDix27dpl7HF5L/45B4gbVO/evU1PAycb/TU0aQckHBTcLDnREWG8j0yZMpnSIkSR4ho4gwCiLGDbtm0mS4OYZnFG5IwLjlU/bW30uWFgQN8O2c9hw4YZC1GyO2fPnjUlP4qivB/OOc4bFm+UjFrnF06IuHSOHTvWlIYqivI29HrPmTPHVPtYI0fYWPuxFqP3x1kGzyufj9MLIJqes2XLZmw/6QUILGi8tm4iLOj8Ayx3hw8f7jlPp1q1agGeXqW5FpMDa9gq5Uac+DSQa/TQtQhoAUTmEpMMMoQcx02bNjWlbFmyZDEBDGs2grVxLtFPxwUIy1Ci11u3bjVGBYHV66Yo7gLX640bN5reUfqCrPOOOUJFixaVjh07ytKlS42blaIEZagqIEBXoUIFY6pjnSvp06c36yECCtrr7H44vQBCkVPrz8FYtWrVQOkDYmFXr1498x64cfhH2Q29NlgqMpyR16HULCBL/ihL4vVz585tyu5YrFLzSqqX0grF9fBPAUQ2hjI05u1YFtREl7/66itzA3GctcMWL148c2zh6kh5JwEFRDXPQXOpoij+B7Otxo0bZ0pJHXvqUqZMaVxGye5T8uO4CFAUd2b//v0yatQoYzTFDB/H+xUObz179jTCSIeYui9OL4CAkjNKsWhAI0oc0Kxevdos4KgD7dWrl/2nfgdGAgxgTJ48uTn56DXyryyTVzi5sW6kRpw0L6/P+7BMDhTXxa8EEIKfrAx9OwgXBobScE0pGwsoa/ibtVHaxg0FQUT/Gu+D8lVK2RgMp/bTihI4UErKvYbsLL0NjuctvXYsBhi1QCZXUdwNermnTZtmjHbIijrOiaP8mhJtAgXO0jOr+C8uIYCY7G6l8FHrAemGhv01Fty8NqU8fm0tyk7HQtEyGsibN68RJAEB0fc+ffqYJlleGytVMk9YCHNgKK7NpwggMpFkAxHg9IENGjTIODFSysawW6snzNr4Nz/n9zyOxxOk4O95nsCc3aUois/glLh9+3YjdrinsgCwzmmy/8y6w3SExSKVCDogWHFVaCNYtGiRcQylr5nZhdaxjp01JjyUYON2q6XXQQuXEEBAHTOpe7IUI0aMsP/U/5kxY4bJPBHl7tSpk/2nfgOOWAwQpdSMkxGBRZOdf1tLU3LE65QqVcpzngqvTY+Vmhy4D44CyCfHGjIxZGQoj6HGmVK2Fi1aSMWKFSV79uym/8u6UbBxrODURjCiRo0a5oby559/eg4YVUc2RXE9CPJR5UB1AyVyiRIl8jznGcNQrFgxI4YokcZSOyADkIrysXAfIoNJprNr166mEsFqLWDDyMo6pgnWcQ9UgiYuI4BI3dMDxAGcNm1a0yzt3+D8ZpUJUBPq19kfouREJHj+1KlTG8c7/1xEsuDlNWnqs25ylPZxAKxfv17np7gZkyZNMt8xfTkMFcW6HCHEd40rG5PkETIMt+U44LHWRg8PxwjiiawgjlIIKoQSEWEWTYqiuBcEx8j8Mj+IRaLj3BM23EC5XwwdOtT0/3FP1OyQEtgwEoEeNsrXCOJRSeNY3kb7ArPjGKjNOouAnaK4jAACehAYjMgBjXDwz4OYtCmOILwWaVKcrfwSFqQ0hFvPj+Wvf7rxYKXNxYHFLq8ZJkwY08OByQEXD8W9uH//vilv5LvG0Y+bAiVqCHnL4c/aKHnBpY3FDYseLKhZ4LAQog9MI76KEvTgHkgJHH183G8J0jleN3ArJTjSo0cPWbBggckk67VCCQi4vx05csSI8IEDB5qeVEfLdzYCeLiMct8bPXq09rUp3nApAUQGA6FgzcihVIc+Fr/m6NGjJjLOa1ACwFwev4pysZNxH2GnE6HAkpTSA/9ywsJFb+XKlcbkwBqOx40MkwO9ILgH3Azot2EBwndNiShNntjHWzcDxw2TArKo1PlT/8/xTakn5S1aDqAoilfojWCxiQEKPRNcW7h3OV5XqJb46aefjAW+Nb+L6wml3oryOSCsWevRp0MpJuVrBOvoW7aOP9oU6EdljlybNm3MPB/ui4ryLlxKAAGLPewJrUY2shg07fuFVSE7gAUkDd08N+KHyLlflvtQZkZpEtEzTliECIPr/BoEGxESFrd8uXweblhktTBd0BIm14QSSRYVfLeUgXIzoDwNK1uMNBwnVlsbvTvcGFi40MfG39C3Q1mpLk4URflYCJ5hoMB4CKoKHGenWBsZZQJvROiXLVtmSsoZwKq2wsr7INDNmogqGXrTxowZY4yoKGtjTeZ4jLGOol+VmYn0iVPezTxFRfENLieAABFE1oSyHU4CMkKU+7Ao/BTXKcQCzf9Ezq3eGMwWECf+4QrCa5FhYr6Rf0zkpteD6AdlC2SZQoQIITly5DA3ooAerKp8Oojl69evG+tOFhxkaYjActxQz0wmx/FmgEkIJaIMb0MQkf7n55zciF7HE1xRFMUvYEAkzeTcLymJwwKf+2jYsGHfuj4xXoHrEvdugpYIInqIqH5Qt8igCQE41lgE46wKBqp8sKO2nHGtjXUMa76MGTNKoUKF5OeffzYl/FTsKMqn4JICCKxMCu5l1oR5GrY5eYgcEEF4XySAv2eoKvbAuF8RXbBONCJXRB38M5JAOtevS9D4TFibUv5kNa9yweALJjLi3+5yyqfDd8ONgF4tjAqY0I5gtfp2rN43ayOrQ/QLVzZcBBs0aGCGGeLuR4klTJkyxTyW0hSfXOAURVH8GsZW0BOEAxdl6ixkyRA5DmBlI8hIkIayuSFDhpgSO8rmEEWIqocPH9qfUXEHWE8hdgnCskajnA1jHdYrBGuTJk361vFBhQzmPAT0KHfDvAnX0YAcEK+4Ny4rgCwQEj/88MNbLlYsDL/99luzgCTSxEUVocOG6GAoI03eRNKtLBIb/0+ZEJEIV4IMFjcMShKYtk+khAUyURIcTxB6ivNAip8sJt8L2R3EKU2alFtyI2C4qCXq2YikUr6ICCLdX7NmTWNBTYMygpeT2CcwveDvP3cQqqIoyqfCdY7Zdn379jWVD5Ygoozd0anLutbRX0RTO+YKc+fONZkiDI8IamIURKBPcV7I5t27d89874hh7j2sw1iP1a9f3/Seeq1eYM1CPw921ZRrly1bVjp37mwyi2SHFMU/cHkBBEQWiJjjqsYi0WukiY3a0Xf9HBe28uXLm6iVq0WdeL9Ezqi1pv+DhTMmB/SFaKQk8EGc0rdDWSJuezt37jSZSyyoKQdhCK01i4mNBQE3AkQ8k6mJoPJdImYQSvT/+NaQ41MGoSqKovgn9J9iuELAjqAP8+gwZeE+TKCHyL91PbQ2Mt2U1/F4skUsjHfs2GGyRWTNKRXmeVkL+Pb6qHw6iByCeJgTcF9D6JDVYR1GMI9ySILQVNN4Fbk40GLIRMCZskgEkTVEm7UM36WiBARuIYAsOCkp/yHSwMKRSDqlYI7Ch8n1nHhcUIky0DtEhsjVapD5sqh9pZ6ahTKfDTHHIDumHhOBUQIeopPse1L93BBmz55tTDvINlKK5uhaw6wdvjMioUmSJDHmG02bNjUuStwIuKmQLfrUG7oKIEVRnBmubVzjEC/ch6dPn24i/8z8Y/FMZQfXR66TXC+ta6e1IZgog2fYZbNmzcwimqwRgSYyB2SNWKSTOcIRFYHkuNBRvMP3wX2M4CrfC8E7KkzoV7ayOaNGjTKBOcwH6Ef1Oi+KjawOYhaxYwX0qHCglI2A3qZNm8xz83pqxqMEBm4lgCw4mRA0RN4xRuCiaLljceIRNeLE5iTn5HM1uDDREF+uXDlzgeHGgMnBgAED5OLFi/ZHKf4NfTt8F9xcjx8//lbfDuWH3BTIyLHxHVHewXGIACfqhYMSzjXM20HM4o7ESehXNwMVQIqiuBKWILLu35QIs+Cmv5HyKfohCWxSQkUwE2HEdZXrKwtua/HNNRfhhIgiw0SFBAtvrrdk4LlWU1pHPwqlWogkejAJXvG6rA24vrvD4tzap3wePhf3GbI33LcQIHx+xA3BY0wIKK0ePHiwtG/f3tyjqI7hHkLPltd9bN3XqGIg0IwhFQYYOANS7ohpD0FA7j+8Jq/PPU6zdIoz4JYCyCtY/lozC4jKuypcwLA+pgyAGwAXIxbZNMBv3rzZXFwU/4EbCPuXKCIpfxo4iYIxJJC5A6TyrRsxG2l/Uv3chHFFsvp2EK70oXHiWdFI/7oZqABSFMUd4DrJ9dLKSpAdZzA6LmAsslnE0CjPMEwyDizIuf5yHWazrsshQ4Y0m7VwR0CRZSKLVKJECdN7RFP+b7/9ZlxhEUsYyyAMuPdSVk5miQw/13BEBO+HxT33Bt4fAooNocHG+2bj/sGGuGPjfs7GZ7P+3/qd9Vjrb63nsp6b12HjdRFtvA8EHEIOMYPpDf2h3Kco7cc8gNI0BCDlafRNUwHDvQHzAcQL+4N95biPrHuZtfEYHkurQf78+c3+opwb0yhmPxHIs7JtvF8+k4odxVkJcgLIVReCpKBHjhxpTA64EPFZiIYx00VrZv0WLticDNyAOEG48XGj5UKPSQY2nNwEyL5xk+UmgRjlv/RfUY7BIDYEyMaNG00ZBjcqbmQBGU1UAaQoijvjGJhi4Y0AsIxlpk6daowUmCFDSR0zA2mwJ0thLfS5PrJx/bYW/VzTWehzfWdDTCGUKF9GXLGWiBUrljFy4F5AtgPxRE8ngoDh0mROGjZsKE2aNDEBSwZ3klFhDhuCDYGFGCHTgnMt/+Xf/Jzfd+nSxdxvuI+0bNnSWD43atTIZMGwiKakms9E8I1qAowlCMJRasb7433yfqk44P2z8Vn4XJYw5PPyucnkWPuAn/O3ZNn4XMwNpKKB9z127FhTmo3IQQAiuKz7muPiUVFchSAhgNauXespgCyLYFeBizuudaTwrf4RLk7t2rUzFyIiLMrnYZUIEEnj+CBlT28V+5zSQrJtVoTM8abJDbB48eLm5sRNjJsD0TduDETnAvumoAJIUZSgCtd0shAs0i1xRCCRMnFKlulBofyY7AV9mvRf0riPNTeCIlmyZKbsC+FgXfPftSEifMqaIDYsQeVVVFnCytochYolVizBYokWNus1eD1LvLxv429Y/3C/wlKakR/0CiPQEFpkurjnESgmw4WpBEE7S+RYZYG61lDcDRVATgz9S0SDaB60LqpEfTA54IKufDpErRhIy4BQesSYRUGEkJsExwo3JEexw42QSBsnC3aulBUgQKmftvrJnA0VQIqiKO+HhT0LfBb6VsM/Zc4Es+gRomfYKilbvXr1WyVl9CZh2kCWh3sDpc4YAyAwqASgzAxzG6o1mNdGVgUzHMqiyR6x8KJsDxc8HEH5OddrKj0oMUOMkV3CPIBeHJ6X5+d1KGMj+EamqHfv3kbIMPsNhzxK9nDao+Sf90/J4Llz54z4czSGIFBHyZ2aEChBERVATggXYy6wXDwt8wYuipgccGEmsqX4HjI8XPyZRcFNi5IC9i3lavRQkVlzFDtke5i3g606w/xwJtq9e7e5eXCDJKroCqgAUhRF8XssoyXuBZTfWW5pZE0oSScwhpBiY3QB923uH2RXEFbcj+glQmAhTvgv/+bn/J7H8Xj+jr9HtPBcPC/Pz+vweogYMlysGXg/ujZQFN+jAsiJ4OJF1IZUPLW8vF8yD2Qn6EPhIqd8GG4W9N7QwErtMhEzom00bmJKQDbNEjsIH8oCqHW2+nYojeCmxM2Gm5urNnGqAFIURVEURfFOkBBAruACR6Rn6NChJvVtLdBJnbOIV5ODd0MUjJkPs2bNMg2klAVQYsCcJ8QjtdOW2GGjURRbVEoHGKiHSw6lhkTbiOK5UwRNBZCiKIqiKIp3goQAIquC8wuLQZofnQlS6MuWLTPuMdZ7pDSrY8eO5r2S1lY8oF6ZhfzChQuNeMFhh9pqnH2wMvXarMrPqLvmAKdGmr/DgppyA4STuzd1qgBSFEVRFEXxjr8KIOpZGQzJ/BOa+QN6wwKT18bZBTcVFoNYSeL44tPjA2KjYZJJ/2QdsOukx4QGSN4b2Qr6TmjMD+omBxyMCECaObHfxPWOplJ6c5IkSWL6dCyhw4Z4xLGN/Yd4pIeK2UjsZ2qnndGkwL9RAaQoiqIoiuIdfxVAlBd5XajqFsyUZ1GChTDD9pKfUbbFLAAaIYMaNJQiljds2GCECwIVIYNjjjXYznH/YQxBTw+CCPed33//3fR50d9FKZv2SnmgAkhRFEVRFMU7/iqA9u3bZ6wbsXOkFCmwNqY8YyHNYpAMgmVJGRgbtpbsj0SJEpn3EzduXCOGKNPDmjkogEkBlqJz5841FtQMjStatKgxI2DAnCV02OiHoiQQK1DmFpBRpGRwx44dxqgA61LFZ1QAKYqiKIqieMdfBRD9LSdOnDDGAyzAAmsbP368RIkSxSwGWXTj6e/T4wJiO3TokMlWVKlSRXLlymV8+3Ebc1eYN0DfzZIlS4wFdfPmzaVcuXKSLVs206PjKHbYKG9DKDKElBJGzA3IDDFzh6Fsiu9RAaQoiqIoiuIdNUEIJJi4TBbEVS2WfQIXNcQlw+ImT55s+p0Y3EopG8LGcdYOGwKI0j/E4K+//ioTJ040s3oQzOp89/moAFIURVEURfFOkBBArjYI1RVgPg4TppmZM2fOHOnTp4/J2lBeSN+OZTphbTFjxpTMmTObAaTMNSIbtGjRImNhzaA3nUTt96gAUhRFURRF8Y4KIOWD4KDGdOpdu3aZ/htc7LCgppQtQ4YMnuWF1hY5cmRJkyaN6XdCFPXt29eUsiGWMHlQa++AQQWQoiiKoiiKd1QAKW/BQYBJAWVo7DfK0ihPo0wNm2mvJgW42CVLlswMcKXcrVOnTuZvKIM7duyY6QNTAgcVQIqiKIqiKN5RARSEoewMkwIMBuiTwiCCuURkbfLmzSvx48d/S+wwpyhhwoTGwKBMmTLSsmVLGTVqlDE4YIGtjmzOhQogRVEURVEU76gACkLgooZ19O7du00pW79+/Yy1dLFixUwWx1HsYFgQJ04cSZcunXFlsyyoEUmUwiGcFOdGBZCiKIqiKIp3VAC5Kffv3zdDQXGb4/NjOkDG5uuvvzZfNvN1HAUPLnkpU6Y0rmy1atWS7t27m6Gk9O1gUqC4HiqAFEVRFEVRvKMCyA149OiRXL161cxc2rp1q0ydOlU6dOhgenKyZs0qESNGfEvsRI0aVRInTmxc2SpUqCBt27Y1i+U1a9YYkwJ3suYOyqgAUhRFURRF8Y4KIBcDR7Zbt24ZVzaGqs6bN09+++03qVu3rpm349WkAPETN25ck93Ble3nn3+WoUOHmr4den+ePHlif2bF3VABpCiKoiiK4h0VQE7M8+fPzXBRXNmYubN8+XIZMmSING7cWIoWLWqyOI5iJ1y4cGbeTqJEieSrr74yX2zv3r3NnJ59+/apSUEQQwWQoiiKoiiKd1QAOQkvX76Uhw8fGnOBc+fOyYYNG2TMmDHSunVr07eTOnVqCR48uKfYYdAo83dix44tWbJkkWrVqknnzp1N+du2bdvMF6sEbVQAKYqiKIqieEcFUCBAZufBgwcmu3Pt2jXjyoZwYYbOt99+K5kyZZIIESJ4ip3QoUObf0eLFk1SpUplBBHCaOzYsbJu3TpjUsBzau+O4ogKIEVRFEVRFO+oAAoEDh8+LH379pU6depIrly5jAMb7y1EiBBG7JDdoXcnXrx4ptStUaNGpvQN62pK4RguypfFHB9FeRcqgBRFURRFUbyjAigQwHygdOnSZtYOgocBo/Tu5M6d25gZ0Lfz119/GZMDMkUYFTh+OYriG1QAKYqiKIqieEcFUCBw48YN06+DCKLsjfI3a7go83twetPsjvK5qABSFEVRFEXxjgqgQICMDlbWbMzwwQBBUfwaFUCKoiiKoijeUQEUCKhZgRIQqABSFEVRFEXxjgogRXFTVAApiqIoiqJ4RwWQorgpKoAURVEURVG8owJIUdwUFUCKoiiKoijeUQGkKG6KCiBFURRFURTvqABSFDdFBZCiKIqiKIp3VAApipuiAkhRFEVRFMU7KoAUxU1RAaQoiqIoiuIdFUCK4qaoAFIURVEURfGOCqBA4NGjR7Jp0yaZO3eubN26VU6ePCl37tyx/1ZR/AYVQIqiKIqiKN5RARQIXLhwQWrUqCExY8aUrFmzSunSpaVOnTrSrl07s2idP3++bNiwQQ4dOiRXrlyRZ8+e2f9SUXyPCiBFURRFURTvqAAKBPbt2ydVqlSRePHiSahQocz7ctx4r+nSpZMiRYpIzZo1pVWrVjJs2DD566+/ZN26dbJ37145d+6c3Lt3z/6MiuIdFUCKoiiKoijeUQEUCJw9e1ZWrFghc+bMkREjRpjMDxmhYsWKSbZs2SRJkiQSOXLkt0QRW5gwYSRp0qSSK1cuqVSpkvz888/Su3dvmTFjhqxatUp27twpJ06ckBs3bsjz58/tr6YEVVQAKYqiuBavX7+WV69e2f+lKIp/oQLISaDM7fz587Jjxw5ZtGiRjB07Vrp37y716tWTkiVLSs6cOSVVqlQSK1YsH7NG/Dxz5sxSpkwZqV+/vnTp0kUmTJggK1eulG3btsmRI0fk0qVL8uDBA/srKu6OCiBFURS/AWHy5MkTU3lx8+ZNcz89c+aMHDt2TA4cOCC7du2SLVu2yD///CN///23LF68WObNm2cCnbNmzTKByj///FMmT55s7s3c40ePHm2CoEOGDJGBAwdK3759pVevXtKzZ08T3OzXr58MGjTIVIDwuN9//91c1/n7KVOmyLRp08zz8vy8DuXzS5cuNQFRyui591MxQjk9wVEqRyirZ+HHWkDL65WgjAogF4Av6eDBg+aixsWTi2Tz5s2lbNmykjt3blMulyBBAokUKdJboogtfPjwRjgVKlRIatWqJW3btpXhw4ebizMGDDwvF0VeQ7NG7oUKIEVRlPfz9OlTuX37tly+fNkYEnGt3L59uyk3X7ZsmcyePdsIj/79+0vXrl2ldevW8tNPP5n7aYUKFaR48eKmKiNDhgymQuOLL76QcOHCebsXB9QWPHhwU0FCiX3KlClNn3H+/PlNrzGl93Xr1jXVI6wFEFoIrIkTJxrxhHDbuHGj7N69Ww4fPmyqVa5duyb3799/a4GoKO6ACiAXhgv36dOnjaMcF+mhQ4fKr7/+KtWqVZO8efOaCzLldHx2n7JGXCDJLFFO17RpUxNtmjlzpmzevNlEtHju69evy8OHD+2vqLgSKoAURQnqkOkg60EGhGwI90uCifTUImx+++03adGihdSuXdtUW2TPnl0SJ04sESJE8HbP9GlDcIQNG9YEIGPEiCFx48Y1f4/4YGHFfThTpkySJUsWU+LO83NN/uqrr0wAM0+ePJIvXz4pUKCAFCxYUAoXLmz6fwla8m/EC/dzHofQ4p6dI0cO8zyIGyo/MmbMKOnTp5e0adNK8uTJJWHChBI7dmyJFi2a+RyhQ4f28b37tPEZ0qRJY17zm2++MVUolOkPGDBAJk2aZCpUWFORXSKAikgiI0Z2TFFcCRVAbgrChYv9kiVLZMyYMaYk7ocffjAXVi6WyZIlMxdIny7yRI+4mHIz4OLXrVs3GT9+vEntI4yIknFDuXv3rmaNnBgVQIqiuDv0y5ChuHr1qpw6dcpc61icUwrGNbBz587GZRVhkSJFCiNWvN7zrA0xQ9UEIoCqCh6PgEFsIFYQKaVKlfLMpDRp0sQzkzJ48GDzetOnT39LJOzZs8fcN8moUC7He6TqghI6siuIB8ZgINQQESzE+EzcWx8/fmw+Gxkqenv5jBcvXjSig/vw0aNHjQjBWIkSPIKXZHEovaNEjhI7x8xVw4YNTeYKYUPPMcILUYU4QzyRwYoTJ45EjRrV9Bz7tI+sjTUV4uvrr7+Wxo0bm8oUSvJYJ/Be+Lx8Tj4fn0NRnA0VQEEMZhBxEV6zZo25QBL9atSokZQrV86IHoQRF8AoUaJ4yxqFCBHCXCCJSHERJSo0atQoc6Nhv3Jhp4yAi7VGgwIfFUCKorgTVCMgGrjXsOhnsT9u3DhPkUPWhAxIyJAh37p3sXE/475GhobKiNSpU5tgINfHEiVKmHsapeWIGYKGZIjWr19vFvK8JhUX7gj7lP5jhBr7ExFDNUmnTp2MYKpcubIRfmSbKLcns5UoUSJT6hcxYkRv+5mN/cy+pUzfEkcIQwQa/Ui8HotPd92nimugAkjxhIgUtc8MaCWahf121apVzQ3CEkak1KlvJlLmeMFjphHpfSJLzZo1M+lyGjOJgFFKhzDiYONi63igKf6HCiBFUVwR7hGYDVhZHaoZuC/16NHDCBUW4z5VL5C1YPFNdQNlaIgcSs3I2HA/Y2GPsKEMjuzJrVu31HHNl5CRYo3AGmr16tUydepUE0D98ccfTVaMMj8yZmTOWA8gjnwSonw3ZOMQRpg7UI5oZYvIcmnJvRJQqABSPgjpedLsNITiXENkyCopIBr0vlpjxBL1xDSKUk6Hsx0Nl1xAEUaU0nETIs2vjjR+iwogRVGcHccSNu4JBM1wOaOflcoEMjqO9xSCb9xXuOfQx0pwDpFDsI4yLxbVCxYsMI38lF+9fPnS/kqKf4FDHgtISvNwn8PtDhc7zCJwpqW6BEFK1ogSe6/ldZQdUmaIuCUDRwkfazUyRawPtIRO8Q9UACkfhTWjgJsKFyXrgkfanAueYzkd1txE4xBG1F17jQYRKaKxs3r16tKmTRtj80ntNPXS3Aw5OLkxUk6nUbqPRwWQoijOBgsNruv0qRL5x8Dnl19+MQE16z5tbZStsTimJ4UKBMqqEDqUvGH/TNkW9wmyEzwv9wnuUUrgw/fAOoHvheAm2SOc9ehLotSQskPELdkiDCRYI1Bmb333rBdwsOX7poSOTBHPgSCilF+/Z+VzUQEUSHBhcKfIlHWx40KHYOEiRQSOSBwROSJzXMiI1FGDTXqcKB4XPbJGXOy4+LHxXXltrsSdjhkLRIS8NowqPqMCSFGUwAZxwvWaewKlbGR3uK5zXbJGN5DVQexYbmrcI2jOp2qAcmrMfGj6Z+FL3wjXfV0AuyaIVMvggQUoIpYAKpUllCqyGLUqSsgUWYFT1gaIYOy8EcAES1kP0HPMc2mQVPlYVAAFAggFLuic9Jy87nwh57NxYHHTorYX5zhMGIjm4CyHOx1uOrjTUU6HMEIQed24EPI7yh2IFPI3/C0NsDwXz0lUUW+Qb1ABpChKQMNClAUpgSqCVsydo2QaNzXEDddzFrVsiB5KougfpXqAEmv6c4j00wPE87BYVtwbjhmCp9Yagb4v1kgEPxFFrA0ImDoeN6wJyAxiykR/FxlBax2g5fSKb1ABFAgcOXLEpH95Tw0aNJAVK1aYkzaowQHHDY7PzoFINAeXGNxiuPBZ5XQ0V1JKx/dnRYK4iRItJErEDZSIITalzECinI6bLtknokvUgXNB5EaK+AwqwkgFkKIoAQELWAJPFy5cMNdv7ms4hrFAZeHKgtW6fhPdtxatPJZFK9doskQqdhQL7tMcUwgieoUtMf3999+bEnvrmCJ7yHqAtQD25TjWERxl3ce6gmMqqAdDFZ9RARTAsADHNpqT1IpkkNVgngDGAAiCoA77iPI2IoCUTXDxoy9o4cKFpk8IgYPQQfDQBGvdWNkQRwgjskXcaDFoQEA5ltNx06VvCdcZq7/IHS+QKoAURfEvuGZyv9qxY4cpUyNYFT9+fBOschQ8BKessiWu4ZSy0f+D4OFaryi+hUAmmUXWBAQ3rXJKSusdjzlEN71F9IxRRoljHeJcjzfFERVAAQw3DRb21EJjGsBEZ94XEQzSvETFmD3g+GUob+ACSMaIiCFlEsePHzfCkQshA1sZ9lq0aFHTPMlF0LogWvsYYcSxwE2Zx1B6x99wc0YwLF++3DjeEXVydVQAKYri17BoILvOvQoTG0QP11XrOktEngwPPR1UN1DOxBwdtTdW/BrWSQgi1gLct3Gfq1+/vllLWccjgWbu+cwwxJGOwbCM+9BgsxIkBBDOI5YAIpPgLHBDQAgxpZmmf94fda3YRjNklFpoxXdw8LI/EUZMyibKiJ0qs4i44DVt2tTMKGJ+BJEh6+JobYgljhEySjjTIBrIMmHeYM2O4KLJPCNXyRapAFIUxS8gE8+19LvvvjPlRzSjE1Cyrp9cN7le4vCF+Q3lzEGxrFsJXKjm4Fjl/s9QV0rhGI7reKzSh4YlN+K9Q4cOsnXrVvN3StAjSAggMiqWAGIKsbPBjWLXrl3Svn17c3PhfVLGxZfCCcxCXvl0iPRwoBMlOnHihJkgvnjxYlNO17ZtW6lRo4bky5fPTAf3OuCVtDolHWSMGPJmudNRskgGj9Q6GUYyUZR0OBMqgBRF+VS4nrGIZLB1zpw5zTXQ8drI3JaWLVvKnDlzzPWFsiTt4VGcCdZWjOpA5Pz+++9Ss2ZNk7G0jmHWWQQ8qQShjFPvk0GLICGAWAhaKXomFztrKp6yK7IMlBaQBeL9kpnAPadXr16yc+dO+yMVv4ADnn1OVoeIEeWRiBnc6SinI5XOhGtEqaMJg7XRdEmPERdQ+oyscjpEK25GuNhQp0z5R2CgAkhRlI+B7DYBN65/lBJTNuQYFCKa3qdPH+O8efToUeNiqiiuAP0/3Oupupk/f74R9vRfW8c2Zkrc65lLyL2TobyKe+P2AoiMT5YsWTwP8rRp05qLtzOXMfGl4Hjy888/mz4V3jfD4LAK7devn1lUK/4LIplGXS6ClE1SjkgJCPufC2elSpVMVNQxmmRtZI1woyGjRBMmqXbKQ5hsTjkdg/94Pp4blxv/QgWQoii+gYGkXJsoE8a9jci4dT3j/kl1AgEdHNswjlEUV8eaVUgVR+3atU0w0zrmGeLO/R0nWu7XrMkU98OtBRApeaLyHNAJEiQwCp9oVt68eY0jiLNDPwvlez/++KNnpIJMFgvqwYMH66I2EKDEg5OGtDrCCNtuBrKxeMCdjhR7wYIFTRMmotW6oFob3x/HIpEmjkMWHC1atDB9SlyIEec0c3Jx/lxUACmK8j7WrFljKg5w0XLMcpP5adiwoZlVR8BN+3kUd4a+YdZagwYNMiXujqYeiRIlkmLFisnAgQNN1lNxH9xWAPFh6O+wDmL846dMmeJ5kWex6ipOX2QiWBhTXkXzHu8fMUc5wsiRI030Tgl8qJmnz4jvgwwejnKIENyQsOKknI5SOaJL1nFpbWSN+Hnq1KnNBHTcaijB69mzpxn2Ss8SJZAId99mjVQAKYriFYIrDI2k95Fsj3UNwhyGTPWYMWNk48aNcuPGDftfKErQgXL4ZcuWGWdYxpVY5wcBTYKWHTt2NGM0FNfHLQUQ5W24djEHhgOXoWxWgzqiiPQ+A9pQ+87WuP4+yGgxQwgnHrIIfDYEHUNVafCjEV9xPsgasZjg+2FmBo3FRFbpR2OGQcWKFY3oIeqKC6B1wbU2xC6/o+mY75qFC+41o0aNkrlz55rFCqUpXuvxEfz8Pal8FcmKErQhek3AjKyz4/w0StxwHWXRh3uboige922qPGbOnCl16tSRL774wvOcwQyJFgXWmY8ePbL/heJquKUAooTIimyRJSEqb0FDeoUKFczvWFSyGHU1+DyceCyELWcexB6pW+bhMHdBcQ2YCUU5HWUmlKPgqDRs2DBp3ry5+X4LFy5sTk7LxdBxI2vE90+fEY+rWrWqKaezbLvpVeJxWH/T+KkoStCDMl2CLZSDW7PRKAUnmEIQkGy1DohUlHfDupEqDO7LmFJZ92DK42rVqmVMj1yhrUJ5G7cTQIgDpk5zcFIu5tMsHdKXOHfxGPo1SHm6IkTrKGVg4WtFJyhjoEGf6P+5c+fsj1RcDaJPV69eNSYeHK/z5s0zJW1EaolGcYwjbMgEOk7AtjaOB2veEYYMHCN9+/aVyZMnmywiboMIZQSYoijuB+d49+7dTebY8bpAmRtOl5oVVpSPAwMQeoUojyO4bp1XVBWRWaUqg5YFxTVwKwHEwYnTlnVQ0vfjE5TIsRC0ouo0gbry5H8yCJMmTTKZLRa7fCZudNg5IpBo8FPcB45Va9ArzkwTJ040vUKUepYvX15y585t3AMZ+GadC9aGWEI0sSiiz4iTn3I6FkQLFy405XQsjIh4OV4QFEVxDaiAILODsYF13nOD5/pAhpnAiqIonwd9tUOGDJHKlSubMnXr/kpGiLI5V15TBhXcRgCRwufiboma77///oPzfhBLzHKhfIwD2ZX6gXyCRTENrCxs6XFiP1DrTcYA33t6iBT3hawRYpdyOkwzWPBwDJAJYqYHEStKQ5niHjJkSPM7xw3xjDsdjjf0mf3yyy8mosWx888//5g5STrhXVGckzNnzphSnOLFi3ue0wRCcHPjeqD21Yri9xBQoDqjSpUqnvbxCCL6e+mrc9a5k4obCSAWfZQEcfCx0PPNYp+hWJSL8TeUyxFNdwdodiX7xY3QikxQq4qrGOVPmqINGmCrzXefI0cO0weACQNChnlG9BlhCMJFm94AGqE5B3zKGnFRx4YdBxxK6egtYh4Sz0PfErMUEN/YtmvWSFECFhZgmKpY9zK2hAkTmtkmXO/1nFQU/wd3RcaTEEC0Aoz06OI4TGWFBiCcD7cQQDSfsTDjgEuRIoWp0fQt9FcwHJW/pSn0yJEj9t+4PvSPUAqBILR87VnIMtxr5cqVZsGquC+WDfb7XOCw1KaEknI6SuBwE+zatavJGiKgsdBmphEW3T5ljRgeR+ChXLlyZl4VE+QpyVu9erVxvEOME2hw9eyqojgbnLsIHMYjWO6RnKe4SlKCo5FnRQl4qJLgPoizq3WfJBNLP547rS/dAZcXQFgQUqrDQUb9JQ5YHwtlA1bDOC5a7tQYTr8TpUs0wBPBp+TPOiGJ5CMWOQgU9+Nz5wAhkPk7nBLpMevdu7dJ65ctW9b0FxA4oMTSOqYcNwQ3M43ILlFOh3kDFrwrVqwwYgtxzo0C626NUCvKx3H69GmThbVmipG5LVmypLmX6fVcUQIfgo5kf3Bpte6LBBVxaL1z5479UUpg4tICiL4fIl30/VjNZ5/qyc5wKxZy9EHQD+Tf0bPHjx8HaIQOIUSpUo8ePUxJlGWHyhffunVr2bp1q56UboZ/DUIllY+DHNlTzj+yjBxDlNMhjOgjouTSOi+ti7+1YcLA42geJeAwYMAAM88IO14auOllYG6SzldQlLfhnCDrg+OUdT6R4UUMqbmBojgfBPx++uknz9lbDFQlIKhzGwMflxZA2HyyuOOgQllTavOpUEaHPSjPxXygBQsW2H/j9yB+6M+gVIjG9YAE0ch+w8YxU6ZMnk17RCkwhdi1a5daI7sJ/iWA3geLMIT2okWLZPTo0dKpUyepW7eusZtHGHFu4VDITYD35rhh3MGMBSy+KafD2Y7M07p164wwIurN83N8atZICWqQMUXoWEY/ZH8w+9GyGkVxbrhfsebLkyePhA4d2py/zO7DYEgDz4GHywog5v2Q8eFAohSHnoPPhYg2izSek6GilOn4NQgQ3iuThBEdy5cvD5TFHK9JYx6N8GnSpPGsIaefg0UrC06tIXdtAkMAvQtECws13KgQNYgbRA5iB9GTJEkS00+EaYfXrBG9R8ztopeNcjpsuxFXnDuco2SMMD3hRqKNpoq7wXWYnk0r68MQ02zZsplzQB0ZFcV1oN+W1gPudZzLVOIQeNbh9YGDSwogFjnM7uEAomyNkjW/gj6FKFGimOdu0qSJn5fhcDNjSKkltPLnz28WhYE1iZsvfe3atWZ/YpBgRSdYNFMud+zYMS1FclGcSQC9C44/sq+UYM6ePduU01EWR3kcYhxnOm4WZIe4WbD44zNZG7+jpBMHLKZ08/fY4e/cudPcbBBGXOQ4hgPrHFOUTwVR379/f8+xBoxsIAig5TOK4po8e/bMuDZSumoFnumVpR87MILhQRmXE0AsYjh46NUJESKE1KhRw5SU+SVdunQxQoASA+ykcdvxSxiQxeBJMi8c/NgmYk/86tUr+yMCHkrxEGJEJ+LHj+8ZhcfJBAOFEydOaHTdxXAFAfQu6Flj8YeBBz0PuNO1b9/eLP4KFCjgWUrHwpAgiNesEU3hXNRoDMf+nYwTw485z4i2UUrHxQ93Om5IiuJscHwSmKJMGeFPyTLngZYoK4rrQ0krwT5reD0BaILjGnAOOFxOANEozaR7DphSpUrJuXPn7L/xOzgwEVa8BrbaNGj7NYgghkxS2sPr4KzFrBYWfoEJi0FKi2jacxyYSaYKj3sWj7pgdA1cWQB5hfOC4AcXKW4QHIeIGW4YvXr18iynY9Arjo6U0iGMiLA52ncTNGFGSr58+aRmzZqmGZVSImaAUU7HjCyc6RBGBD4CMyihBF3od+P45JhF3NOfStYnsO8PiqL4Haylpk+fbkyDONe5Z/32229mppDi/7iUAKKcxer7oYQMe17/gv4Yy76QfqB3zVH5HNj5lO9x8LMwo+yH2SnOcJMjq7Z48WJzcBBpZxHJYpJULWWClBdputa5cScB9C4QKByHiBWO2WvXrpnyN6xGEewtW7Y07nSUG3Acc4OhlI5jmSwvxzXnHv+lvIiyuwoVKkjTpk1l4MCBpiwPFx96DglaUMLKa2k5neIfcDzTi4ppCOcux+jPP//8WQY/iqI4L6z3aEOwAvvcj7j/XLx40f4Ixb9wGQHEgoPyLA4OZoww78c/o7M8N+VvuFVRfkCE2T8W/Nj9UmKGRSI3OzJPe/bssf82cOHEpNxi3rx5pvSIyDr7n0UkpUUssMnAaZTcOQkKAuhdcOxS1knZJqIF8cJQVuYQsV8w+sBBC2MFyukQRUTa2TgP2RBJlB+RTWJuFk6T9erVM4NicXBcs2aNKQ3lHEF8Ec3jOqVReuVT4PjBVt6qCuD4ow+TjKSiKO4NJkHffvutWWOxkfWlB1vxP1xGAP3555+ew0opDQiIOkkWTyx2eE36gSiV8Y/FDf0ITA7mNViIMdnbmRasCByGYs6aNcucoETKEYXYsZIdo7eCCLku/JyLoCyA3gfCCMGCcKHUgGwmUXd6Cyk/aNiwoWc5HeKHfcjGTQlhxDlKEIb+I7K3WJsSuMDNh+woFuD79u0zPUwsarmwapBAeR/cazh2rH4AZmWNGzdOnTgVJQhBsIO+IMvwh/5w+mAV/8ElBBAOUVZ6sEyZMnLy5En7b/wf+oGqV69uXpt+ILIh/gECgn4ExAWLKxZhRKydCaLblCEiRitWrGgWh5yklBZRvkctK79XnAMVQB8HxzfCiGwRgp8ShL1795pZDWScaUi3hr3GjRvX7FtrQxyRLcJ8gcAA/XM0rWNdTDkD81uI7tPnh+sdZXQaMFCAGy8zQiynN1wNyVQG9Iw4RVECHwJzffr08bweEGTWWV/+g9MLIBYiZHxYYND3w40hoGHRYvUDlStXzt/SkiyMWGQhgBAXlPwFpNjzLRwoCEPKgDBv4P0ihCjjQyxiQ0wzuRK4qADyOxAs3JgoWUUYcQ2gB5EoPUOF69SpY/rjUqZMabJE7Hdr498II6L7OCymTp3aRPYopyPzO2HCBDPnhT5DXkMJWpAxRDBzrOC6SfZQUZSgC5lf+sOttgPWwBijKH6LUwsgIqSIACKr9J3QkxMYUTEiwyNGjDALGd4Ltrr+BeU4jRs3Nq9DNuiXX34xP3NG+C44KceOHSslSpTwTNtSFkR/xYIFC8wBpgQOKoD8Hy6aOMYhjAhg0BNEwIRsKL19nMtE8LJkyeI5wd9xo8cQYUTJE+KJTDc3O8rpuN6RfcLUQTOr7smmTZvMzZdjgYHelGIqiqLQ5kEPIMFw1p5UBVEppPgdTi2AKAuwFg0sqAMzOsprW/1ACBMiv/4FFr+ILJyp+PxMvnfmA5/oOBFxRCJN5ZysCCGayxs0aGAshjWyHfCoAApcKKejx4iMERbGu3btkoULF8qwYcNMYIMmV/qHLAtUx41ziBIIMkYIo8yZM5tyOhzBEFb0K2EDjuDidRTXA9t17Nj5vsme+1d5taIorgnl2G3atDGGKATLWrdurUFlP8RpBdD27dvNwo2bA30/ztAPgxUpvS68Jxb3RGf9CxY2OK/xWqRBu3fv7vRlZTTyclNnGn/evHmNCGKjd6pJkyamZIhouRIwqAByTsicYpBAUIPznD4jHOX4vhjCzAUZxzkuypTO8R06bmTDKZnivEIY8VgCJpTT8RzLli0zjbNkpRTnBFGM3TrfJ98xWXTHG7CiKArQBtKoUSNzrSAbRCBeh6X6DU4pgHhTVatWNYtn3tiqVavsvwl8EGYZMmQwByNlX0R2/QtEH1FiXgujARrjXMESlZOTOvbevXubmnbeP98lvQ/MZWGxh1hS/BcVQK4Htd/MMqL3j3OIEimyPZz7BBHIAtEk79WEgQ0Lb8rpCM4gjAoUKGDc6TBXoZyO2UgMkqaklqytEjgQ1WURwzURMct1Uq+HiqK8C4LvOPBynY8dO7YJcimfj9MJIOximzdvbvpJSPmNGjXKqW7W9APxnihR4f2x8/wTGqNZ9HDgs+ihMe7+/fv23zo3ZHso++Fmny1bNvMZaOjjYGvfvr2pd1enI/9DBZD7wHlCJJCeO7I7DGqmZIphrxinYD6SP39+kxWif5Dv3XEjy0CpHWYuPI5rCn/HsFcEFkEJsrdaXuH/MGCaRQyClflyrnI9VxQl8GA+JL2kXM9xI2UGo/J5OJ0AwmIZVzG+ZObhUCribJCFwfmJ94hQmzJliv03/gOLV+aS8Ho0SyPAXKnun/4fpukjerAG5nMghFiMUfJDVFrnpPg9KoCCBiygKak6ePCgMWBYunSpKanifOMaytBizjVrxozjRiCHxTgN+BgwUG78008/mawE7nQ8F0EMnj+olGgxu8m/MjJEcjHFYN9jp66LGEVRfMvvv/9uqoEIaPXs2dP+U+VTcSoBRC28pXCpayf74awQjcUCmvdKyQmN/v4J5TBY5/J6iRMnlvHjx7tc9oTSD8QODeBWGSFGD2SHevXqJTt27LA/UvELVAAFbVjI0zeIQQkBiOXLl5sAE/2EiByyQDlz5jSZIbIRHCuOW5QoUSRZsmTm+ClVqpTpSezUqZO5CZN9ojyPEmDOa3eCmyLDnXHy88vADEErMvgEzTC4GDNmjP03iqIoHwZTHfo9uT6nSZPGXNeVT8dpBBA30UqVKpkvll6R9evX23/jvOzevdvsON5z4cKFTUOzf4JAwGWN12NhgkueKw5TJKtHCQ8DIok883kQQkRE+/fvb1K9yuejAkh5F1xvz5w5Y65h9FjOmjXLlMNRfkytecGCBc0N1hrG57iRNcK1jGxu0aJFTZ8i5XT0GTHslXK6AwcOGOtuSoZdDYQKM85w36P3yq+qEBCMPCf7kJJFLTdUFOVjYe2UKlUqcx0hw69mN5+OUwggMhnY+1lWfyzcXKVJl/dKzb01H4ioq3/CwU8NPwc/N9PZs2e77ER5Dr61a9caf3trYYAQwkGO3gZdtH8eKoCUj4XrF2VaHC/r1q2TuXPnmoxP27ZtpXbt2sb4hSw99tycqxxfjhsjAhBOXKNwzCTTRFCDYA0ZKGYaIbyc3RYfAxqc9ig1wcofofg5Yg7BSeabfUSAz/kit6/l+LLhMrhbZ+na9XdZefiq+P4O/EruX9sts7p2lS7d+kj/Fefk6eMHcnxhb+nZvat0nbVfbj500RLnFw/lysYx0qen7XPYPl/Xrt1k8MozcsuXFZLPL+2WlWOtv+0jo6ZsEZ3opXwOlOcyCgEDFRyCyVQrn4ZTCCCacK0SDESEK82MITrI4oD3TmSUEhP/FiREWC13NW6m2HG7cg8NaV0ssolmUE7I5+J4IKvGbKEjR47YH6l8DCqAFL+E3kdK3ihjXbRokSnDpZyubt26Uq5cOXNNSp48ubFq5bhz3AhuUWrHschj69WrZxaF9BlhCkDvEuc5JXvO0GuESCO7Zb1/BB2f91Ovs1u3bjXXagJlZMucj9dydFRpSRiSzxtaCvVeKSd8G8t7eVMOz/hB4ph9FUPyjz8rj+5ek7+q2L//4n/I4WuB/51+Eo+vyc6OyTyPA7MVHC1bLvqm/Py5nJzdToqGffO3CXJ2l5323yrKp8KsSOv6xPXXvwPv7kqgCyAWZlY/CEMBnWHez8dCdI9GYz4DqUkinf4pSBBY9Bxhh8trsv/4t6sbCZDKZWFFpNkaDsnCiX1Lvbx/lxi6GyqAlICAbP2FCxdMlgR71kmTJpnSMavPiGGf3GBo3sX8hGPScYsVK5YxaaDvs06dOiagNHr0aDM0FqdIjl2ePyBniGFHjhGE4/vkmkQPFIuPjwXjGp6D+wNZfKfk1nypny2+hLG9z2hfD5Vlp33XY/ryxl6ZUzeB7fOFkiipvpdF90RePb4usyvb913xca4rgJ7ckL2/ZZPo4d4cB8GifiNjdl6RDy45n5+QeZ1LSUzr74JFkwzFB8he+68V5XPo16+fOa4YeaBtA59GoAogIopW30+SJElMFNBV4QBMnz69+SzUz/u3kOPLohHZMo3ASIAsiquLIGAOCqU39BZQasPnozQS9yQixkRnXbXsLyBRAaQENmR3sdem1HXGjBmmtJVSMGxc6Wfk5p0wYUJTzsGx6rhhFoCtN9kX+pJatGhh+pS47lGeh2kOtuC8hn/0GnE/8qnMr2LFivLPP//42oTm6tWrnvPc+NzOOwz6mqz6MY8kZ7Efs4z0XnzKF2VwL+XGvmlSN5Htb8LEkkz1lsstfvz8nuwZ/5P8WO8H+WHkFrl630XvS0YAZbULoAgSJmwwCR4sipQZvUsufEABvTw5U7qVjm6+d48KFxVAit/BNZX1EWW6iCHl4wk0AUTUsEOHDp7D4FisuXoab9y4ccbCm4td48aN/f1Gxz5kUUH0lIssNraUx7mLOKCJmvJIegmox+czcrLzb3oKzp8/b3+k4hMqgBRnhTp2AhmUhiFoRo4cabIrOM0VKVJEsmfPbsrpsO72KWvETDQeU758eTMlHUtYrglc/7DtplSP6weZnE+F92fNL/O6EewaNGiQrxqQqQhA5HFvGDp0qP2nzsmT9S2leIowts8YRYp2WyhHPnRLfnFFdk6pKQls+yRM7FzScr2bDdg1AiiLRA0TXIIFzy4F80WWCJGDScTyE2XbpfdltV7I6dltpWSsEBIlViLJkCmKbZ9GVQGk+BkEismYcz0i0+68gRXnJdAEEI1b1s2Evp/PuVE5C5TC4aLEZ0LY0Q/k3y5Ijx49MiUnlpsaUVUc9NwhE2TBDBJcmVjsUC7D56TZGicl3KsuXbpkf6TiiAogxRWhDwjbf8rp6LtB3GCUghU3xzImCwggn7JGBEi4FjIygNr4jh07mnK6FStWGBdN+owop6P6wPGG5xPMVyJI5/U1rI2eT8QX7/Vd2SB+zvvn8ViOM6vJqXmwQTqVTikRbO83SuHuMufw+xXQi4ub5I/KXJPDSdw8nWXbI+sXT+XK3mWydMliWbzrojx49o6g3IPzcnjrKlm2eJEpf160aKms2HxYLnpdy71+KP+d2izzbI9ZseZfue7TV/f0kuxeu8I8z8pD1+SuT2/98WU5tm2RLFi2TfZd8kXA1QigzBIlVEgJFqqS9BlUSlImCivBYlSTiTuv2mTOO3hxQub+WlCiBkslBct8J82/j2bbR1EkQ7H3CKBnN+TEnk2ycqm1L5bI8nU75eStD93LX8qdM3tk/aql9r+zbYtXyNptB+Xsew0MX8u9c//KtjVLZYn1d0uWysqN++TM7Q+vH/jbTatXvPlb27b4742y69j1D2cOn12T4zvXyFLrb5evlZ2nPOz0n187KGtsP1u1+V+5+q4k61Pb3+/eKCuXWK+9RFb8s0tO3bb//p28kNun98g/Dvtq8ZIVsm7bYTnvOq3nnnCPp02ATDkVQMrHESgCiMVYunTpzE2BEgh36u1AhXOj5rNxI+ag9G8RhGkEgw8tJzWcmijfcCcRBGfPnjW9QMxfsoY60lfw/fffmygyERHlDSqAFHeCIBmZHcrPCKBRDkdZHGXUiAtuYvTpEBzxqXSN+WlkyatWrSotW7Y0GRyuGwgjyvS4vpDRcRwyTZkJ5bden8txo8eJAI1PEViyULwejyNa6woc6F1OMlPyFa6wdJh5+D29Li/k4obRUiWa7bERk0q+vvttS2oPXt+7IrOr2fdRmQlyxJtieSgX9q+RPzpVlVyx7Y+zthi5pXrHSbLh0GWx9JS8uiS7xn0jwW2/Dx6zlAw//krevrvZ/nVogOSPHdw8R8hvxsja897vu0+2D5a6yW2vEe8babv2vv2n78EugCKHDC7Bw1WVidvGS+0c8SV0sFjy7cQ9cvkdt/ZXZ2ZIp6IRJViCqtKi7+8y9juOociS/h0C6O6J9TJvwE9SPLUXA5FQSaVk0+Eye/t5ue+DGHh554IcnDdUWpdPK+Ec/862hYj3lVRu84f8vfP8m/1o8eyS7FsxVtpWyipxvfxdsKgZpXzr4TJ371n5z4fXfHbntGydM8r2t1lsAs/L3waLKWmK/yT9Zm6TC++Y1f7fqd2yoN+PUiyZx3dlbYlLtpbJe7fI/JH1JYXt39Fy1JN5PgiaO8fWyVzb3xdN6TEw33MLk0LKtBglf+28KA99UKYvb5+XA3MHS4uyqSWs49/ZtlDx80i1dhNk5e4L4joj5sW4SbLOxFyFWYrKxxHgAojonnVDSJAggXEUcjewekXY8RkLFCgQIItPIprM4bBc1OiX4eRwx14ZmpBxh0PoWXNKmEuCsxRmEOqL74EKICWogNDgurtgwQJTTteuXTtTToexDsE2ekyxjPVJzBBMYaYRgRWMG3777TeTvaeUbvXq1Z6BpfdtlOiyADl37pz9HXnAMG9K+ngMrncuwZ5+Ui0z+ymCFOwwV/59lwJ6cVY2jfxaYgYLLpFSlJRBDnPLX9+/KvO+jyjhcJWrNEWO3XBckT6Ry1uGS80MHv0xYWKlkMxf5TXjD/Lmziqpvghrfh4rx//kj13X7ALsuVza8btUwFEtalL5Zvp/b2dfXr+Sm9MrSepY9u8k4Y8yced1T0HmwTPZPbKOZAoWQpJ921vW+UL/eAqgELbnDFdDJp0+KnMbZpT4tn/H/W6a7LjmU5DxlVxa0E7K2t5L9DK9Zf7G9fJHNcoKfRJAr+X+v3OkQzEyRLbXiJxEvsyWy74vckrGJJE8fp6iinRdeFruOQqSp7dk6+jvJSdiNURkSZjhK8nD37HlSC/JY3oIjPApv5NRhx7Y1gIef/b69X05OaW+ZIxk+7tg0SRB2uyS2/q7XFklRXSP4EGITDVk0Lqbb2VzXtw7Jks6ljElj3yeJBlyer5mnv/LLCliW4GH5PLd1CNy8/nb38CTi8ukV5kUJsMYLHwcSZE1j8fr/l96SWh7P8FTppKsJYtKWtvvExVoLIscM1i27/jevhnStpBdJEZJKumyW/vq/yRDYrsgSlNdei07Jw/e2lc3ZNPQGpIjjO33IaNIooyO+yqdJI3Bew4mEdP+IGOP2uSiiyybWAvhqsl7b9asmf2nim8JUAFEZM0qB6B8gdKED5UhuCosPolEUgpHWRwCxb9h4c/MDYQlr4vQxJzBXQ0DMJogCozpBKUvHFdEeVnErFy50hzcQRkVQEpQhzI2RAiZeMrpunXrZkqucZxDGHG9IIvM9cMaxWBtlgkD4onrqePvHDfHHiVEFH1N1hw7Anz0aFKmQtDGNTgio2tkM9H9cIW7yfRDPt+jn59eLkNLh7YtvmNK2jIT5Zj952AEUJ1IEj6Ubb9UnvqWAHpy/k9pnNV2j7IJkWgJSkrLCZvlkmcm5ZbsmNRevk4WQ8IECy3JC3aQxXc9fvn0/FYZUsT2emHiSNJm68X+Yw9ePZDljZNJfE/L6WzSfuEheauq6fl+GfdjVgkRLIVU6r5BfHVHdhRAYWrI5DO35OK8apI5hu14iP8/I7K8SaDXF2VJ+xISJ1hUKdz+H7lwY42MrGx7394E0Ct5eW23jCofyWS2QsRKL7X6rJLDnuVnT+Xc6r7yQ57YEhYhmbOZTN5531P4Pdv7hzTNaxOqYaJJpmq9ZfEZhxX/g5OyYVg1SReRfWETR01Xyi37r5/fWCaNk0eVUMEiSuLK/WTeIce9dEM2j6oleaJzvAeX3I0nyn5LAL9+LIdndTC23sHDxJJsNQbKGsfXfHRRNv1RX3LGtYugzN1l7eVHb7TEi6syp3F2SRLc9vfREkrhttNk03X77x6fkuX960nOLyKafcHfJy/YxEEAvZIXV7bLsLIeAYyQsTPK9/3XytG71rM/kdMrekntr2JJaNt3FTzPLzJ97wOxDpGnu0fJT1+xr6JL1lr9Zek5h2P6/jFZO7CypI7A60aTZC3Xyl0XWZaSUCDwyz7BaEX5OAJUADn2/fCijqUG7gb9QCzEKcXg5jl58uQAmYpOGViPHj0kduzY5oZOFJSp7O4KZX4s7rHdpbzF6gtg4fLzzz+bchm+i6CICiBF8RkMdzBR2bRpk8ycOdMEjoigVqhQQbJmzWpMC8jqkDXyyYThfRslKYgdSpMxQKBfiefidVyFI+NrS56Yts8droi0m35YHIPpHryQ48t6SxHbYjZEnGxSZfrb4z29CyDr3vdI/v4llyQNY/u7qMWl01+HxXv37ys5Nb+bVIxiW4RHzSplBh/wyAI9OiXre+SwLZDDS8xMXWWzw3DVV4+3SY/s8SSSbbEfNXJICR0yjJTou1ZOOLzxVwf/kJ9zhrEJlyrSecVN+08/gKMACl1Nppy9La9vTZOa6aLb3kciqTtlr1z1El98fXmBdCr9hQSLUlRaL7XJLJvgGFLJBwH08qacmFPDI5sSJrGUH3NA7vm08D4wWKpmjWQTblGkRM8lctT+mU7N/EXKkMVJWlV+XeXDZNa7J2Rt1/yS7qsSUvaXv8RDq7yQx5s7SbpoZKRySq8dN3xIdpyQeZ3qSGHborBa96my3dj62bizVSY0SmOO8Ti5m8kCnyrOn/4nW7pm9NhfwcrIyMPXPUson+/+TUp9iRlEJMnXfo7s9/bF35Y945pIHiPavAigl9flyIyqHuV64ZJLpfGH5YEPy6nXu/tK+fSIqOhSut/fcsK+P49PbSYlEDgpakqndT6kNP87LCs65ZF0OUvJN+0WyvkXrhE0xkzG6lNkLpC7tT34NwEmgPbv3+857wcHnZMnT9p/475wAyxTpoz5zHx2shIBcYBiCtC5c2dT2kFtKBFPoqDuDAcvtriIP9yhiN6y32mYZvAgkViiwUEJFUCK4nvIlBOkwlbbMmHg2uGT2cKHNoJPCCoWJ5TdkW2in8hluDRbGhdOaFt0B5O8rafIXq8L85dHZHnvgrbfh5TYOf4n06/af27HmwC6ab/v3VkkTXMktC1QQ0iGNovkgHdl5cGTHTLj51S2fRlR0pfoJ7vMYveunFzW2vSHRIhdRAYdeWbPhryUF0cHS/EE0W2Cqb60r59evowfTMJV+kPWXXizkD37Z2MpbBMMscr3ksW+bRd1FEChqsrkc3dsguG6TK/ypcS0ib+kjefLrluOi+XXcnXhr1I2djCJVLitzGW/XFgog30QQK9vHJQZ1cmWhJHIOQbKPh/W5R48kL+bFJTkttcLVqKXzDzqsfI/Pb25lIls+1mk3FKp7z9y9b+Hb5cFGl6ZY/rly1d2ofNMHm1pK2lsIjFYsNhSbfh6OfTfffHuUfFaXr18IS9t6xXPApKLm+XPX/NKsvSlpFqXdT4IV3gpTxbXlS/Ccx6klnarz4vHXfeFbO+aV9IiQhLUk983WKkfL1xaIcOrx7X9bTBJ5iCAXl/bK1PNYN3wEj3XMDn4zmXUXVlSP5dHlqlMP5l33OOBJ6c0khKIxcj5pNqgjbZ99cgzO/QG9pPjvnINcJZkfzGImoyQ4nsCRADh4lWrVi3zJVFO4LSD4PwBFt6WlSqlWizSAwKim7/++qvpkeEG3KRJkyAxSBTXJZqaEYBW6Qn7HgHKgEX6BNw58+iICiBF+XS4bxHAel/52/u2KFGieLpW0ouEqHIdLsj8hkUkCeVE+X+VcfvfXi4+P/KX9Cpk2y8hEkvOhkvFa7GxdwHksaR8tbWTFEjl0V/0da85suPyZROw87pdvrRZpnYoLqFs+y7O/9WUyfaJB3eOzJafogeTkFESSMXpN8Uj7/FMbs+sIklihJaQpcbIVpswKP2lTXAkayLTd/3nsZh9fVXmtygmsYNFl2IdFstZ83e+wIsAmnj2rnm+65MqSZaYtp+lbCoz99hfA15fliVtSki8YFGkQOu/5Aw/O71ABlf0LoDun1ombZLZniNEJIleY7IcOu19P5jNto/W9ywmWVnAJ6gjQ1Z7qM2Xu/+QNgXCGpEaLHwCyfZtJ5m8bI+cOHdZLl+/Lfee+aQSXsmzm/OlZfovPP4uREzJUqmFDJ+3XQ6fvSRXrv8n9x6/Q128sgnNZ0/kyVObMLL/6A2v5eXzx/Lg1lk5Pq6KxDBzk1JJ21UXbPINjsjwol9KNNtrRq05RtZcND/0geOyrE8pY1KQpIAlgF7L3eMLpVVi23OGjCpffPenHDvr83HDvlrTOb9kQGglri+j/vFQus93jJKWecLYhLft5xESSY5qXWTqin1mX125cVvu+7ivXANGhXCNYSak07tMOhn+LoBI0VGexE2Exbjr1EH7HSxEKaXgIMV96OZNX6bfPxPmWNB/hACKHDmyiWbys6AANfiIT5qhyQIRkaWUhYsE4ojFiFWn766oAFKUT4NAyrBhw3x0k3vfRuaZ+xzBLkxpuLny86+++kp2795tf3bX4PbSFlI+hU3khCwkzcb/67DofSz/zmwvuW2iIETSwtJ8hfeAklcBdNyeJflvVg3JkcBjX4UMFVrChA1rqhS8b2EkJBkP9umXxeU3+6D71zcOyKxvQ5m+l7iNVshds259KJvbJJXY4YNLxs4b5MK5hdIyd1zbmiOH/DL/sMcC/Npf0rqETYxGLiUd5p17I1g+hFcBdPq2x9+eHyvVM2LikEoazdwrnnf0qwulQ6nYEixSUWk157THY0/5JIBeyLVDo6VCSLu4Dhnah31gbeEkDK/P40KXkc5z7IHMV0/k4LTWUiFhJAlr31fBQ4WV8BGiS+xMpeV/A6fKuv3X5L/7T2yyx5Encm1ZaymYOqaEs543ZBgJFz6ixMtYTP7XdYqs2X9ebtr+zrvQsfP8odz976bcuH5NLh7fL/v/+UsmDusoP5bKIomjhDRCI3joL6Xd6ose+//lamnzVVIjaDP8Mk92vdNy+qZsn1BPUtkel9BTAD2Xy/uGSznep3mv799X9ACZx4UtLz0WnDLPKq8ey4FJzeTrBLZ9ZX+eEGZfxZA4WcpJg8HTZf2/12376qnvjw0ngfYKPg+lu8eOOXbiKR/C3wXQlClTPMuReCFXH3b6KVAK16BBA7MPmB2BZXVAGRNQasgMDV4XUwYEAZHNoAICnLlIrVu3NoMVEUGIoRw5cphyOUoDHQ98d0IFkKJ8GnPnzvV16RtZZh7L7CGCfQxjpRSF6wpuctz/UqVK5XpzOu4tlS4VUkiIYKEke5M/ZLt16364T2a1yWn7eWhJWayrbPDh8vkuAXRz+reSIz77LZSEDhNWwvm4iGULZ1ucRjJZtIR5qsjg/ebPBfvmI6OK2l47gkTO2EN2Pn0lr18elMH5YkrkYAmlAU5pr6/K9ErpJUawkFK07yqThXm+uo18nTCYhC/WTWaf/Yh7rzcB9J9dTJyS8d+kk5i27z9t07myy54Cu7aolZSJE0wiFuogs07ZX+cdAujqoRHydTAEUHAJGSacD/vgzRbOti8i2/ZFlHjVpY/tM1q8fv5YbuxbJsN/LCxpY0aQcGEcBHvIsBIxakJJ83UXWXjSy8L+9WO5eWi5jG1VRtLGiSzhw4TyyI6wBQ9j+7uYkuGbDjJ9/3/yVjvMy+fy35H1MumXryVnyi8kSlTbe+J9RYlsgqyRI4SXcKEdBNCaix6lcv/NlrrZ4pvnz9Zmvux+ZzX6XdkxpbF8aXucowC6tHeIlDbv7SP2VYLaMmDZm1wf++ransUypF5BSRMjgoT1tq8SS7qK3WXpmecuJYIGDBhgPgOOdgFhtuVO+JsAoteFUiSr74caaCz7girUlTOtl31BaVZA9QMBUQFmUJCFoyQDJ6SrV70Ubbs5zBBZtWqVMUbAJY/vgYUJdbM0QFMe6G5ueSqAFOXjYSYQARLOnXdtZIZYbJUsWVJ69+5tri1cUwm4OMIAVgwVqABADLkWz2RLv28lS3Db583RTIbv8lggPNo3Rdp9ZVs8hv1SivXY7EPfybsF0H8zq0t2I4AySaM/VsrRixfMYNr3bZeu3XSYgfNIruz4TXLZvoMIMYrIqOP35cHFaVIjbhQJGbySTDjoUY62v2d+SRs2mESuNk62PXgqe3p/I0ltgi3vL3Pl6Mfcdr0JoFv2rMhrOfP7/7N3FtBRZE0UDoQkSAguwYMv7u7u7s4Ci7u7uzv8uLu7u7u7uywQSCAEkvvPfdMTJiFhkchMp75z+iw73SNpffdV1a1yyBzNMNBP0xFLznBE/y+2di6OeAahU6DbGmjlJz+IAE01CCDD59pHR6a+e3D17iN//35fy+NXcP34/R73fP8Kzx7fwvnD6zCtd1OUSB/bJypkEyYakhUYhmP+OCx8cfvX8L77uHp4C+aN/BtlM8Q0/q3qPA+PJNUGYdVN7bno/Q4XV/RGWecYcHLQIleGbe1iOyNBlpKo02YY5qzYjENjqyJGhLCG72UNkBYB+rAJ7bMnUsIo/Q8jQG9xfH5LpDRs5zsCNBFl+H3hYyHbwAO4ce9n9tVr//eVq2FfPbpp2FdrMaVnYxRNExP2PvsqBlIVGYWTZgYblgzHNV27dlW/nW1B9Or4G1QEmQBiDQobVPLAsI8CZ8VCO2xOanqwVq1aFXfufJvJCWoY6ahVq5b6broScaYyuFLxLAlG4zgoYVSMTnncH5y9ZTNDFhPqSaSLABKEX4MixhSt97twAomRdFpdU/TQ2IeRnh/VFLIXG2tAGXkeP3689qr18OXQCDRMb/j7w+VA8ym8h3ji7Ny2yGgQNlEyVcGEi/67GARUA/T1QC/kT8aMkJhoPPfEd7VD/4033B7tQX/Db7Jzio+6yx7i2cY2SB7D8Jn5x+DMU+Pv8dzdAYWSGL47ZWdsPLoVUxumRZiw+dFx6Y2A07r8wx8BZBomed+YgqoZoxlEQBZ0XXPLsLP2oW+ZuLCJVBhdV97+9j3+CiBvvLu1Bm0TGD7XNiriddjvq9/Of+OtBrucRPU95PXG5w9v8fzRPdw6ugZjaiQ1nr+OKdBuxwd8Mmzs7W14j+F9fof4Xz69wYvHd3Hn8noMq5YJMfm+8IXRZvZVtd7tzEL0zGuMikZMWgo9Vh7HLcPz8vb9B3jw9CXeuH7C168f4b6hMWKxBkeZIGg1QN6XML5wajgZ3hupzkzsDDAJ5Ra2jiynmrqa1wC9ubYCreLyGMRA4i5Hfu0Y/nBfvTHsq7u4eWgFRlROZNxXUdKg0+5PPu51lgzvV5zc5u+uV6+e9qrwswSZAKIyXbp0qTooDNEJxqjY1KlTVT44eyAFdzE+B8GVK1dWFwujIOyEHlotohkq3rx5szr56ZbHfcJQfqFChdSx0UOtlAggQfg12KqBkR01ENIWip4qVapg3rx56jpi01V39+966/sLo++cmeXn0BHO6vh8CtP/zgoHGztkabsId15dx4oOaWFrExWZqkwN0I3rewGkbfh6LVplZQ8gwwC32QIc/o2e1d6ut7GrrTPCOMZE3CbLsba9C+JGDYO/eu7DfWPFPfB8KRrliGUQF6XRr18LVCkYHna5umGJ5qD20/xAAMHrJmZUzoDoNuGQfcA+HFw7GLVdbBChYF+suGX2Pf4KIMPbX5zHwuq0WA+HiCn6YO+/30crAuY1Tizuh5pp06JC+/HYrYSCX77i8dGhKMTzOHx05Jt8Dx88PuP+2k6oXSYP0tb+H44/9V92ue/oieppef4nQeXe2w0i5isuzWmFnNwPzjlQeeplo7Dxi7crbkzIi2h2fG9qJYCM2W6e2NU5J5Ly9YTNMfNQAJOvT3dgaj1jqpy5C5zXs9OYW4mfaY/Ifw3AQddfidC8xLH5vQx/T1pU7DwF+/yNPnni3r7+yMd9FTE2Ck65C7dfPFVCghs3bqgoNPcX0/yFXyNIa4BYZM6+NJx1F4zQipmRHwrEkIDF/yZr7oQJEypBFlK/xRJg89gNGzYooc4aKe6XaNGiqUELBcS9e99yiK0NEUCC8POwgSkbo/KaoQhiY0HWsNK588mTJ8oi91dhlJ33Fn4mP8/6jFc8cX5mU+SKYBCChftgxLQpGMD0t1gF0HDOY3/T38h3AsinD9ALrGuWGfGZchQlPzouv+x/Q9KnBzGvcyFkzZIb9Q2D1oPm83Reb3B3WV3EtHdEmBhFUDSNLSJHio6GS+9ACzQZfsANzKySGbFtIiFm7CiIFMER+bsuxaVf0RjkRwIIXrg9pSKyRTXsm/Jt0KhkQWQKGxX5eqzDdfNTJQABhC/PcXVWKTgazg266RUffwpv/D3F7mFVtzoolDULMv89ARsvUXp8xv6RdZCa73UujQ4b/Utp/4Qnhwcig2GbMJHioP5qV3h++YpXCyojphIoGdFzl1aj44d3W7qgGiNoNtnQaMIZw9/8CUem/I1U/L4kxfH3Bv/HDJ5Pt6NrJiejw5wtTRAe+DSjdT/aH0VTRDZ8ZlQU7rcOV75rXeSOi4u7oqATv9dPH6AvT3BxenFE4N8SzgWlJp3VDDD8chtLO9ZAQe6rJlOw9Qp/52fsGVRdGSvYJKiArtv880B3x/29fZCGn+8UH43XvIWH73CRRcL6Zt6zIkWKpJrCC79GkAogwTKhGxELdnmToS35rFmzdO+I9l8wlMzCZw5S6OLEfcO8fYpFzvwypdPaEAEkCD8HawamTJmiHCI3bdqE48ePK1vdP82pp2hipJ3XIeth6UxpbXhenYX2eaPCJlpmZMmSF9ntbRAzf0sY9E+AfC+Avg0uPlyYiNqpjK6oURIVQ4tpu3DP7PHjfnMzJjfLjTiG77GxiYEMrdbgha9Mu694c20+qka0VwYN4WzDIJxdWUy8aLLFJl9wckgRZGSfHMP32IQtgM7ztYaqv8IPBZBBAl0cgfKZDPsmchREtneAXazS6LHqpkE2mhGQADL8HR73tqN/fqNJVJiY6VFx8Hpc8FFxBv49i5W9yyCtspU2PK/rT8f+V8Zf8P7IJDTNSktxR0TP2RSjtj81Sw37iPv7J6N5triwNeyjSKlbYfNTo2L4+mAFGiSMqERKjPR1MHrLLbNozhe8OTQDLQsnQhSDSHXM1QrTznGveuHW2r4oZxB7NvZOSF6mN1bdNFMwns9xac0g1M7hgojc31zs0qLXnoc+Agiej7CkWUYkMKyzjZkKVYauxQUfM4QnODS7A0rEj2YUT4bFlwAy/K6Ptzejdx5jW4swsTKh6rCNuGyWQ+n18hSWdSuB1Oq8Mby/8Wwc0qJqrgfHoEEm7qvIiJGnOcbufG6WDueGO7vH4e/McQzfbY8o6dth23Pr6AU0btw4lV7LGntO4Ai/hgigUAoNKmjVqm4USZNi4cKFvzXDqTfokMeO7UwVdHR0VPuHtUL8f6bHcFBkLYgAEoSf48OHD7h//36QRMM5S5syZUoVVaLzpNXx5TZWdihqGLiGhW3YcIYBdVIU7rQOr7XV/qEEUINICG9rGIxW8S2ADMNR3N7QGyVcjIPZsNGTIkv+ImpSrlixwsibKTGiUnAYxE+qGlOw/8H36YafX1/GtKJ2sDe8nylkttmH49jzj74GrR93tUfxFBQehgF3ru6Yffq7kMN/owRQBjgyYmVb7TsBhM/nMLJMRtXfht8To/QgrLrhpy6KAqhSOMN6R6Qpai6ADHh74tWxSWiZIZJ6v02khEiXs6C2L4qiYK40iKeiNTZIWLonVlz81yBtND6/xLk5f6NAdK4Pi8gu2VGgKN9nWIrmQ5bk0Y1iInJutF/zEN/2ohvureiAbOwrZFgfLXEm5C2sva9YAeRKob0ven40m3cOmt6C55ujmNcsi+H4832RkCBzfhTWvq9ovqz4Kw73dUwUbtsYBSKENxybSKi98C7MD/3H+6vRu0BC2PEznAx/a96ixu8tlBXJo9kgfNRocMmQVkXFzFPgFF4eeHFoHJqlNQpGG8dESJ+rkPa7Dfsqx19w5vlmWJekQj+sufLmmyD+/AKnZ9RH3ihcbwunpDlQUL3PsBTNi8xJaWluWBfVIJTXP/m2jy0YTsqaShrq1KkT6iexfwcRQKEYNqRlgz5eQLRpXbFihbYmdMNZX9YA0V+fBc/so8R9FC9ePNSuXVtFiqzBRU8EkCCEPKyzbNq0qboWGVG2PvMZLzxf0w0VYhsHlzbxSqDLZn8rQHzwdn2C5dW17UvNxtUXvmSDgVe4fnQVxnUqh6xsKMrtfBYHw+C3MXpP3YoTdwL4nk8vcHZIGp/3xGi1Dfdd/czZv1iIxlmYcmUYTLeei8M/V7blm48vcKqvZiRgUwYzbr3yLYDgiYtDiuIvNfB2RKGea3HNry/EzZUYXsL4OxPlGoJT2svf8MCzUxswt18jFExifNaYL46Zy6HtmPnYd+Pt9xEs1we4sG4sOlVkLZLv99nYJUGhfwZj/rZzeOY3nOH9DGfWTUeX6pkQx+SA5rMkRJ6GgzBt22U89FW94Im3Dw5jQZ86yKP1cvq2xEDmGj3wv62Hce3JCYzKbHSJs2uwBldf+85Vc7+9D/P71kHOmL4/I07hNpi1aSVm9KmgTBASFWyLdd+VKH/C0xPrMKt3A+RP7LtWj4tTtoroMG4hDtx29R2FI+/u4dzq0WhfLi2i+XmfjUMyFG05DIt2XsBzawj9GGCkmmn7rGGePn269qrwK4gACuXs2rULOXLkUDcBzlKuW7dOWyNQCNEem32bWBNk6mfF2ik6r6xfv17VEFkqIoAEwTJgGi3NFJivT/MVq+PtTZzdvVQZG63cfRw3/6us1/MTHh5biRXLDO85dBeuARVUvLuFs3vXYyW3M3y2+vx1O3D0yjOziIU/eH+Gx/3DWKXetwLbrr7FR78JDN7PcWHfJvWZ+64+0Yrxf5GvHnhzeStW8rctO4w7H75vlPnl0RHs28DfsQUnDALpu3n4D49w7eByw/qV2LL3qv81T+TjE1w+shPrVnzbF8tWb8aus7fw7w8H5d54e/sU9mxYgeXa+5YuXYY1248YhOePk/7e3TuN/VtWYZn5+zYfxsWnP3if+0Nc2L8Bq8zes27bQVx8YoqbeODRkdVqny3YfxNvPxp//O31AzGg7T/ote4s7j4zCDced9NnrNqEQ9ffGv6U29g2IKfhuRUeqYsNwyG/utmE+2NcOrwDa5ebfoNhX63Zgt3n7sA8aPQ93nhz6yR2r19utq+WY+2OY7j26jvJZLGwn2a/fv3U852mWuz3KPw6IoBCORzk84FMq1ZeTMwl5cyC8A2mBtJGfPLkyShcuLAayHBfubi44J9//lH7i32eLA0RQIJgGdAymy0Q2D+IkyeSriKENu5MKIDUtMdO0BD/OxlAZO/eagwqzHRAF+RptQWh06P2v6GZlWnM1rp16z+uVQytiAAS1AB/7dq1yJgxo7qgMmXKZH1dy4MBT09PXLhwQRU1s28QBzPcX+xzxZsQ99nbtz+efwpORAAJgmVA2+yRI0eq6zFOnDgqeiwIoYkvl0agdDKm+EVDuhpjsPmW7yjTl3v78b92+ZDC3gZ28Yugy+5f7xIVGmBKbbdu3VRfMmajsK+h8HuIABIUDKkuX74cadOmVQ9phlWlea3/cF+dOXNGNZPNlSuXuhFxn6VKlQodO3ZU+4125yGNCCBBsByuXbvmk25cqlQpZbgiCKGGr/exvl9JxFcubTGRqlgjtOveHd25dO2AxiX+MtYxRfwLVcdsxw0JkvoLa5CdnZ1VJgp7/4TmNiZ/igggwYdPnz6pvhepU6dWD+n8+fMrByPBf7i/Tp06hYEDByqRwX3GhSKyR48eOHDgQIjenEQACYLlwEj7okWLVNFyxIgRVQ6/IIQqXhzG6nGtUTNPPM3Bz3yJhlRF66Hb7J24+GOPjVALnd9ozMT9xSwU1igLv48IIMEXHLCzLxBd4XiRFS1aFIcPH9bWCv7x8eNHHDt2DL1790bmzJl9buhMKWRfEfrzc5vgRgSQIFgWfOA2b95cXZfJkiVTEyiCELr4jBdn1mH2yF7o2rWrtvTGwIkrsIdGCIK/cIA+ePBgNXkSM2ZMNU4T/gwRQMJ3MMeUBf9JkiRRD2rOOLBvkPBj2EuEUR+Gpdn00CSEKECGDBmiGtAGZ/GzCCBBsDw4WUIDFV6b7OPx5MkTbY0gCIL/0GyJ9ca8bzRr1swK7fQtDxFAgr/wxBgzZowqsuMFV6VKFVX3Ivw3rP/Zs2cP2rZtq+qCuP+45M6dWxVCX7p0SRkqBDUigATB8mA0eOrUqWoml13caaDC+60gCIJ/cPKUddl8nnNy9fjx49oa4U8QASQEyIsXLzBs2DBVcMdCfzYBpQua8HO4uroqZzhaZSdNamqmZ4MCBQpg/Pjxqig6KIWQCCBBsExom0/DFDpJcunZs6eKIAuCIJjDpuylS5dWz3I6SM6dO1dbI/wpIoCEH/L06VP0798fsWLFQrhw4dCoUSPVE0f4eWiNzfB148aNVSNEkxBifRVTDW/fvh0kQkgEkCBYLhRB9erVU9coHZ1Gjx6tHCYFQRAI02Pr1q2r7hE0T5F7ROAiAkj4Tx4+fKhmKKNFi4bw4cOrIt4bN25oa4WfhUKI/ZZ4Q4sXL56PEKIl7vTp03H//v1AFUIigATBsuHsLq9/XqdRo0bF/PnztTWCIIRmOEHSokULlX0TOXJkDBgwwCLaa+gJEUDCT8EHdadOndSFyNz1du3a4c6dO9pa4Vd48+aN6rlUq1YtFdLm4IdpMOXLl8ecOXPw+PFjXxfj7yICSBAsn7NnzyJbtmzqWmWEePXq1cFqliIIgmXx8uVLZabk4OCgJp35bzE9CHxEAAk/DT3nW7VqpS5IJycn1cCMvvTC78EZnoULF6Jq1aoqvM0BUIQIEVCtWjXVL+T58+eqd8jvIgJIEKwDNk82OcNxUmTSpEmqhlAQhNAF0944zqJBCssO6PgmTZODBhFAwi9x9epVNGnSBPb29mrQzj43YuP6Z1DoMPJToUIFRIkSRQ2CKDBpOsFIEWeDfkcIiQASBOvA29sb69ev92lCzaVXr17q3iAIQujg/PnzqFixorr+OdHcsGFD3Lt3T1srBDYigIRfhjbOLN7l7ATNEdici45xwp9BIclaIDq+ODo6qptgjBgxUL9+faxZs0aFwL28vLSt/xsRQIJgXbBHUIkSJdTsL6/dpk2bqvRjQRD0C2t/t2zZgqxZs6rrPlKkSOjSpYuMq4IYEUDCb8GZiurVq6sHNW2yR40apU4m4c+gwKEZAt3hihcvrlLiWAQZN25cdaFu2LBB1RBxxvi/EAEkCNYH04p5rTPKzuuXM8KXL1/+qWteEATr4tOnT8ra2lQPzCwQ9mAUw4OgJwgE0Fd8/vge/75+rWocfrj8+wZvXD/g07fv9YW3pxvev+W2b/Hhoyd+fu5bCA7YGJUPZw7Q2TB14sSJkrceSDDljTVXY8eORcGCBVUxJI0SuJ/ZV2jbtm149+6dtrX/iAASBOvEzc1NpcDRdIbXMJso00qfgyVBEPQBB+DstWi6zpkCy7R3MUEJHoJAAN3G1nH14BI7NmLHiomY0aMpe8/vl2iIFjcFUhWsju5Td+P680/fCZzPB/qjYT7D58TOhTbTDuK19rpgOZw8edLHxjVJkiSYOXMm3N3dtbXCn8LQOPsujRgxAnny5FGzwkw9TJYsmeogz+LpgGaKRAAJgvVCscOGybENz1Jexxwk0YlTjGcEwbrhc33v3r3K+ZXPc17fhQsXxtGjR38pzV34M4JAAF3H6v4lYWs4oDyoP7PYO8aEc/bWmH/2JcyDQR472qFMUm6TELVG7IRkQ1oeTMvgRVuoUCF1LJMnT656WQRFY8/QDAdDtMsdNGiQyhNmNIjNEzljxI7yhw4dwsePH7WtjYgAEgTrhjPBnBHOlCmTupZ5zXOgxHqBP3GIFAQhZGAKO5/jMWPGVNc0M2jYYF7MDoKfIBBAN7BucHlEMBxYm3hZUGX4Tpw+eQzHjh7BkSPG5ejRYzh65DC2zh+JNoVjw47b2tgjevmJOPTw2yDOY1dnVErDdSnQYMxuvNReFywLiqCDBw+qCAUv6FSpUmHp0qWSsx4EMLrGqFu/fv2QIUMGdfNkelz69OnRo0cPHD9+3Ed8zpo1Sx0PEUCCYL1Q6Ny6dUv1AmFxNK9pDp46dOgg0SBBsBIY2WHUh26vrO01jZVmzJghPX5CiCATQOEpapIXQ8utn7XX/eHrR7y5fwTTaydAtDCG7cOlQKs113yEjggg64FiZ8+ePciZM6e6sNOkSYO1a9dqa4XA5sOHD2oyoWfPnuri5T6nbWbmzJmVOGKTWjrKmQQQnfsEQbBeWPPHaBCvcV7XTIctUqQINm/erG0hCIIlwqhP//79ET9+fHXtcqHD47Vr1/D58w/GyEKQErQCKFlR/LPJTXs9YD4e7oo8zuHVSeHSfg3OvTG+LgLIuqAIYnG+ycqRUQmmaghBBwdFBw4cULPDTD/kfo8YMSKKFSumFv5/jhw5VB2RIAjWDWeRr1+/jq5du/pEgzioYgoNnTkFQbAcmLHBpuYlS5b0uV452GatNPv7CSFL0AugjR+013+Ax1a0ThlLpcKFKTkO++8aU3h+RgB5/Xse6ye0R43SRZEvXz7jkr8AitdoiwHLTuKlnywsr2OT8HeVwshfoCxGbL0SsLHC56vYOq0JCuQviEbdFuGy9rIPHvew939d0KRiEZ/vzV+qLlqP3Ylb/mo+T1xc0A8NCxRAxcHrcf7hCxyZ8g9Kqd9bGOVajMbKc9YfBmW6Bhv6ZcyYUV3szF3fsWOHtlYIKjjDxAhc27ZtlRkF972pl0jSpElVHyFBEPTB27dvVTTINNnEhVF31gNyVlkQhJCDg+mNGzeqViFsYWG6Rlu0aKEs7aVG2jKwCAHkjYPomTqu8T0Fh2H3TaPV548F0FOcXd4HNfOkRyIn48nlewmDSAkyoHDtcTj26luI0fvhDFSPZ6e2cW69HMcDaF3z6fJ8dMvNz4mFHO3W49tmn/Hy1By0LJwNKWKGMfs+bXFKhiz5/8H/jj+Db8PSz9jfuwwSGbaJW7AaGrVsidTmvztOYXTY8t/RMmuAF/eKFSuQLl069bcxLY65r0LQw1zi7du3o3nz5soym/ufqTLZsmVTNuVXr17VthQEwdrhYGr48OE+qTWc9GDK68CBA6WBqiCEAPv371cRWdNEJBc65S5cuFAam1oYlhEB+ncV6iaLjrCG90StMw/HnhhtAAMWQB64tWMsqic2FpJFTF0DA/+3AqvXrFEz3Uum9sHfmR20ky8+8o0/hdc+3gr/YtM/aZHAnr+vKxadfqu9bs4nXF3QGYUj2sA2RTn03GUSJh54dWEhmmd2Nn52hGyoP3gmlqrvXYEFYzuiaCx+pw3iZGyBxZdeGmSPic84PLg6MoexQZToURDeLjFcinfEDL53wUzMnLsSux5rm+oAuhfxgmeRH/cHe9nQKEEIHp4/f44+ffpo14BxYYM1Okix6JJF1YIgWD+81zINtnv37ogVK5a61lkPyGt90qRJePr0qbalIAhBxblz59CmTRsViTU9c9m/a8qUKbhx44a2lWBJWIAA8sa92VWQ2ole6PYoNO4QbmuqIUAB9PIIZjdJCXvDdzinrYcJJx7Cd0DxIx7umYJ6acMgDH9H/sk4+/LbFu83/I2sCfh9KdBx8WloJUff+HwZS7rkg6NNJKSpOBpHtDYrn1+cw4LGLipVzy5WEfRYeQZPfH3xO1zbNQ71UjgaPtsBydquxMVXphw8owDKFtZ4YcTJ9Q9mXDFvGuoFvZmaMv+VVsym2pTixYvj2LFj2lohqFmwYIHa75wdLlu2rE8/kejRo6tjMW/ePNy+fVvbWhAEa4bGKFu3blXRX0528Frnf8uUKaNqDsQxThACnxMnTqBLly4q8sprjguzX0aOHCl1eRZO0AqglKXQbr/2sn+8v4s9s7ugfMrwRits56qYcuy5T+pYQALI/eQ0dMxkeD1MfOTuus8gd/zB+1/s75QQDvzcaE2x6uG7b41W325C++wJ1G9M2nEZjvoJAn2+Og/dC0SCTYTMqDryvBbF+Yj7e0ajRGTD5zklQNEBp+Ff7IhC5u7Yskge1bBdzFqYduSp1tvIKICy0u3OJhEqDdiK5+p1fcMmnZwBSZw4sboxcCDOG4YQ9Jj6ADH9jSmIGzZsQLVq1ZQA4uu00uXxWLx4saTLCIJOYBrsqlWrUKtWLWWRz2udzcdLlCihGiqfPn1a21IQhN+Bkw2bNm1SNT18vvIa45IoUSLlwkqHVunTZfkEmQCKyBMiSkKkK98S7du3/35p2wrNapRABi1lzMYmKUqPPojHbt+64AYkgD49vYRDK8Zjwvz12HrNXXvVLx64NykrIvGzw1bFnHv/mjVZfY89bbMjmYNhXcoumHv8nfY68cD1ee1RKJINImdthPGXPIwvf7mHY5PKq8+LnKIsZvwolfPfOYbfzRm46Gg894QmdDQBxN8TrSy6Lr6pXg0NsEB/7NixPnnqlStXlodwMGASQHSBM0V62Gxt2bJlqgM1B0Vcz8gQjwmLqmWWWBD0wcOHD1UUmNe2yYGKC9NymC7HWkGx4BWEn+fx48cqc6J+/fpIliyZzzXFLBdGgWj4JAYH1kOQCaDI2onx34sd4uesjBZDN+Dau28/gPzYBMF/vFwf4c7ZPVg1YwhaFTY6y9lGqIX599+YCSDAdU8r5HWxN3x2RnRaeMYgiTQ8r2Jxh7yG3x8ZuZrOxG2TiH99EuvaJlW/OWKMv1CxXU/Vg8XfpX1lpIvFNDgbFBy8E1eVhjITQElro//W0BD/+QZnJYcNG6YcUdi8s2bNmrhw4YK2VggKTALIv0aorAHi4IjFmU5OTmo7Z2dnNWu8evVqdaMXBMH64aTHkiVL1IPevDCb9Zl8jU2rpU5IEAKGqWw0EapYsaJPeikXNn8fMGAAdu7cKcLHCgnaCJBTAmQo2wKdO3VAB7PoT7t2hv926ILuvfqg7/CZWH3svr9pbP8pgL48wZnNszFp5BAMGjAQvTq2QYs6ZVA0S2I4aieojU1YODh+L4DwYR+6FXVBBBtbZOiyHKe1UiXP63PROb9BvEQtiBZz7xtfJE8OYmGDGD4n/s8uKTtuwBmlrswEUJLa6Ls5dAkg8uzZM3WzYKFuuHDh0KBBA+ViJAQNPxJAJthThNuxJihy5Mhq+wQJEqhjQztzHjNBEKwfV1dX1TSVz2DzegWmxNKud9q0aTh+/LivgYAghFb47GMfw969eysTJ9P1wmhquXLlVFbLqVOntK0FayTITRBab/ZtBv0rBCyA3PH0/GaM7lATeRMYT0qfJWw0xE2TF6UrVUeVHDERLkwYfyNArOk506ck0kSwQZiMPbDgNCXYF1yZ3QK5HA0PhaLdsdB8EpwCqCGVfzg4xc6L2l07q+aT/7VM3HYdT1WWgQgg8ujRI/Tq1Us9dJmfzm7IHIQLgc/PCCATbJTKWi06R5nSZZjPzOPDQZM0bRME/XD06FFVD8S6oAgRjG6qpntFhw4dVF3gpUuXtK0FIXTA/lp0VJw6dSrq1KmjnoGma4N1zLVr18bs2bNVVFWwfoJYABXDP5sDqtH5bwISQB/ubcaoksaiepuIyVCwWhO0aNUCXfr1x/AZK7DhyDU8e/EEl0dnRSSaDtjX9EcAAZ7He6FCageDaMqGjouvAV63MbdpFjjYxEDxHuvgKyng5XGsackaFjskyNQdv+5lJgLIxP3795U4ZOpVxIgRlXWkuJEFPr8igEwwLZEzW2zsaxoYMdeZx4hh/tevA2wdLAiClXHz5k012KtSpYqPWycXW1tbFCtWDIMHD1YNHWXAJ+gV2sifOXMGixYtQsuWLX3ZWLOHHmto+TpTw2l+IOiHII8A/VQfoADwXwC9xZGJjZHO8PlhYqRGud6bcMu/INOXtzjeJwki8HcEIIDw6RiGVUqNiDa2yNZ7G26eX4oe+exgE7MSem7yI1A87uLIuLIqtS9SkiIY9svlKyKAzKHg4aDa0dFRpV5REFEYCYHH7wgg4u3tjbNnz6oGiyyYNjlJpUyZUnWa37NnjzK2EARBH3Dmm5Hebt26qXTYePHi+QwCeY+uWrWqqoFgk0epFxKsHQ52mXnCNG/WbbNZu+l850IRxEmBcePGSZqbjrFCAXQOi7oVUidppLxNMD2gMfPrExhSMBzCGbYL628KHPHCpRGVkDmCDcKXGYhB3ZqiWnQbxKg4HJtfaZv44I7b2wehIBuoOsZDvm6Hv69JMvHyDHZvWoNVKzfj1L3XhncSEUB+YXOwf/75RzXtixYtmkqNk+L7wON3BZAJ2niePHlS1W3R6pOzYaaHA12kDh06pOoKBEHQD6x9oGlCkyZN1AQI782mgSGdPBs2bIjp06cra32aqXAGXRAsHQ52aWbAdhBDhw5FyZIlVS2y6dx2cXFRKaH9+/dX57aYGugfKxRAt7G6tzES45CiKNqvvK8JDBOf8ebWQawaVAFxtBPb3rEuFj1862+jUa9zw1AvUyTYxE2HtEkTIX64FKg0ZJ+/PXrcH+zH5HLGZpL2UQujy/pzeOjHveHzs0tY3SkboqnvTo+Oqy7DmDQkAsg/aILQqFEjNbhmX5qBAwfi+XPZN4HBnwogE3wQsGaAAjVTpkyws7NTn5shQwb07dtXFU6z35MgCPqCAocpcjVq1ED69OlVyjKvfS6M3JcuXVoNJhk94j1GUmQFS8HLy0tZwfP5REHfrl07ZM2a1ef85RInThzl5MZ1FEaS2RC6sEIB5IHrq/qhTDTjCRw9TVUMmL9NKfa9e3dj46JhaFUggWGdHeImiYfwYcPBPkJFzLz1Bv7r+cuYWi8HomoXhF3mphh9OKBZ7Q94fGAMyrsY3bJsImRCzcGzsXkXv3svdmycixENsyKK+qxoSFprBg7fNykkEUABwVkZ2i9zNoY22SzOpW228GcElgAy8enTJxw8eFClK7LTtWn2jA8V1gowj9rNzU3bWhAEPcHrm60M2EOM1z8nrNRzUFsyZ86Mtm3bKgMFbkvDG+kzJAQnzEigaKeRAU19KNw5pjCdo6xtS5gwoXomcuKVrSAk6yT0EgQC6BpW9SlqPOHi5EaDtb8/M+yxrTVKJOKJ64zqw7bDp/foh/PYOKoK0iSKqvr8mE5u4xIOURNmRvH6fbBw1VBkV69FR+3ld/BvAI15r0xvjALRuZ0dsjebghM/1GzvcHvrIFTNlhoJo4Yx+17TYo9oidIgc40J2HXHfDD4GQf6lENqbhOzErqtF3thc9gYlTm3YcOGVTbMzL1lXrrw+wS2ADLh7u6u6oA42GFdEB8q/J5cuXKpuiG6R3386J+xvSAIeoCukbNmzVJ2+YwKMzXOFBnmwkFntWrVMGHCBFU3xO2fPHmi7h2CEFhwjECDDk6irl27VmUpFChQwOc85EKzJRr50OG0a9euKtIjE6wCCQIBdB97/9cO2TNmRMayzTBo/+/f8D4fG4sOlQ2fk7E8ei84Dl/BSa+XuLp5NNqVK4As6dOpGal0GXKidL3umLX7oYr2fHU9hpGFsiFLxkyoMeMyngfkyH1uPBpmDwsbu+xoNeWMvz2J/OL170VsGd8c1QtlMX43l4y51PdP3XoDb74rOPLEuf91QS3ul9KGbQ5KqoBfGKouU6aMapTKfFzmmYvryu8TVALIBI/Ntm3bVB0XGyxSCPHY8QFEJzk6TEl9gCDoGw4iOKhkJ/z8+fMr62BTTzHTwvs5Z+MZ3aebJAvQaaYg93fhZ+EAlSlqDx48UM+z5cuXK9OOokWLImrUqD7nGidRY8SIgRQpUqho5ejRo3HixAmVwSAI5gSBALJEvOHtrf3THzx29UMlFxs45OqO+Zd+sKEQ5Bw+fFjd0Hgj4w1szpw5Ek34TYJaAJl49+6dssrljYTROwohPoR4HCdNmqQeWJIKIwj6h/WCNE7hBEjlypXVzDsbX5vXDnFh7UXZsmVVDSHF07Vr15QgYgqTFJ8LhIKFA1TW8Zw7dw5z585F69atlWObyZmUC1OxGeWhcyHTMDkhxzRMpmAKwo8IJQIoYDzfX8bs+rkQ1SYiivffCOlGE/IwZYJ9aHhzS506tSpgND85hZ8juASQCQohpiEwLYaDHoogiqFSpUqpaB4HODK4EQT9Qyt9ukjS0IYRH6bGVq9eXQkizs5TEJlSZ7lEiRJFddtnE9aZM2cqh0m2RXjx4oW6r0gkWb/wPGFqJKM7fEYwOsgJtVGjRinHQfO+PFxomMQIY+zYsZUYatGihXrWMY2eNag0PxCEnyFUCqBPDy/g8qWzuHxmN/7XvhCShrOBrUt9jN8n/Q0shd27d6uBO294TC9ctWqVulEKP09wCyATfJAxPYFdszmwoRBifQDTEdhFm/nXciwFIfTA650ihmLm2LFjKjLMInQObpm+xFYInMlnCi3vWbxn8HXacHOAwjSmLVu2qNYJvH8wUsQIgdxHrAtOgFHssHaH4pb95hit6dOnj+o1xQlPngsmsUORTMETKVIkJXgKFSqETp06qUlRRg35WfxMET3C7xAqBdCb1Y2RP1kEhHewQ1heZA7JUXvEDtyVe6nFwBnE7du3q5A2b4S0XGaqBF8Xfo6QEkCEDyTeXNhdm8XQESJEUIMapi7Q7GL+/PnKMlceXIIQ+uBgg6nNFDI0TWGqc6tWrVTknwYKJkFkWjgQ5iQKZ/7Tpk2r7in9+vVTA2EKKjp5UVyxpoifK4PikIOilCnPFCdsj8AJMQrXXbt2Ydq0acpymv12nJ2d1XPBdHxNx9okeJInT46KFSuq48yIEM0OeHwppOXYCoFBqBRAXqcnoHzG2IYbqj0c4uVF8xkH8OCTpFhZGrzJ8cbH/hMcyFMMURQJP0dICiATfBhS6DB/mw8zPtwohDiQYVE0BzBcL8JWEEIvHHyY0qDoFse+YxRFdO0qV66cMlGgAGKEiIspMkChxHtJ9OjRVTSJfYmYEsWUO95bWFNKccTUKEaMODDnd8kA+vfhvZr7j/uRYsQkZJm6tmPHDvXc6d27N+rXr69MMRInTqyieRQ1nADjcTSlP/JZwCwBPtvr1auHIUOGqDRqugaaR/rk+SAEBaGzBuiLG14+faRyjO8/egFXKUuwWDiAXrlypZr14w0zR44cqueS8N9YggAywZsLO8zPmDFDDVI408eHH3uJ1K1bF6tXrxbbc0EQfOA9gzP+nCChiGGkiM+CQYMGoU6dOsp+26+5AsURB9iMLFAYsd6IkQZzccReRhRXnFxj9OjOnTs+5gv8Tj5zOMAPrYNuk8DhfjCJnJcvXypRsm/fPpWOzua45iInadKkytgiWrRocHR09IngmR8bLkxjY60Xj8PEiRNVfRjdQvls4P2fYkrEjhBchE4BJFgVfDAxTzhVqlTqJso0CTY6E36MJQkgE5yBpSvc5MmTUaxYMTUTSCFEBx/WBDDNkaksgiAIfuHgmJEiiiK6fHHwzObMjPYw6sOBNYUOBzQUQeaDby4clFM0MerAyRem27ExJs0ZGIUoWbKkikR07NgRQ4cOVb2O1q9fryJJFAB0JGOUis8ka4b7kDU4d+/exYULF1RfN9Zt8r7MlLOWLVuqNEO2NODkIyNw7PVEAcNoG8UlRQ7v3X73MbfhRCXfz6bZrPfiPqSTG8UmjQ4odsTYQghpRAAJVgFvlpy144OKN1laLB85ckRbK/iHJQogEzye7Ng9fvx4NSPImVs+TJkuQRvTrVu3qvxxQRCE/4IRCw7qOaBhCh0H2hQsFEdLly5V/Yc4qGefOdaTMlphPmj3uzCKxJQtRjS4Le39KQLYmoGF+jTmyZYtm2quSXMXGr7wvsUBf//+/ZVpA50vFy5cqIQFI9wUAZs3b1Zp3DT5odsphRX739HBjM08L1++rOplKOxY5M+oF4UDrcUZraI7HqMwjJzwHrlp0yasW7dORcaWLVuGefPmKRHDKFfPnj1VvU3jxo2VAx+FIaM1jJwxIsYJRT5P2cONE1AUhBSGFI6mFDX/FgpI3qfpwMY0ZqYp8jsZUTtz5oxKhWN2DR0AxcFPsGREAAlWA/O4+VDhg4g3Yj7M2OBM8B9LFkAmmPLAgQotT/Pmzat+Lx++HGi0adNGFc7yuAuCIPwuvM+YR40oLCg6KJDWrFmj7pWsP2nfvr1KyS1evLgSChQG/qVyBbRwW1NdEsUT2wFQQDHSxM9iFIViis1iKSL4LGP6GIUI73kpU6ZUwoQii//l/9MMgOu5LcUK38eoFT+Hn8kUP34+Iy8mEWOqt/EvQhPQwtQ1/hYKG4o6Dgy7d++OMWPGYMGCBUpwUYRRkF29etUnmkORI33eBGtEBJBgVfBmO2HCBHXzZ9SAzfY46yR8jzUIIBOcveUMKGcu+Xv5uzmY4Ewl01E4W8pBjCAIQmBjiiCZetEwNYwRGA72GaHh/YfRG0ZZaOXPZ9DgwYOVQGBzTvY+o7sl3c3y5MmjjHsoWChKzA0AfkVM/ddCccNIFSMybARKwUUhRCHFdD6mr7HZbK1atdC0aVPVY4l204yGsYaHTpyMTDEiRSHIKBOfE4xAMU1ZejAJekcEkGB1cCZv5MiRauaL0YKaNWuqwbPgG2sSQCZY9Hzq1CkMGDDAxwKdgwamrXCwwbRHmW0UBCEk4WCJgonmCXweUTSxPuj27dtKOPF+y4k5ZijQ0Y73LaavsXaVYopGPkyDYyobndO2bdum+hyxBpIRKRoNMLWNKW6MvFCkcFtGxFmvwzQ4fhaFC9Po+B2MzlDEULSZUuko5GggQTFDcSc20oLwDRFAglXC/OKBAweqFAPOgrFjNFOphG9YowAywYEFBw3MYzc5ANL2lnn3LNLlrKy1FyILgiAIghAyiAASrBbObPXq1UuF/pl3zSJUznoJRqxZAJmgWxBnO1lcbHIBZCoJ89SZs89ZVpnNFARBEAThVxABJFg1dJvh4Jg50MyFZuE8izMFfQggE7xRMf2Dx9fkBEjRS+MEOi5JCqQgCIIgCD+LCCDB6mHeddu2bX2KQSmIKIxCO3oSQCbYkI858c2bN1eOSPz7eNxppc1+E8x9FwRBEARB+BEigARdwNQ3psAxKsCUONaO0PI0NKNHAWSCNWDsO8HmqbSE5d9JG9ciRYpgxowZqhBZEARBEATBP0QACbqBJgg0Q6ApAs0RWCz/7NkzbW3oQ88CyASbHq5du1Y1ImRPDP697MFBO1o2BWTPD0EQBEEQBHNEAAm6grUg7HvAHglsQMe+MrQADY2EBgFkgha07IZetWpV1QuDfzcbApYrVw6LFy+WujBBEARBEHwQASToDnb4ZoNUDoLZMJWdrHmihzZCkwAyce/ePSxZskR1MmcUkH8/UyLZpJACiQ3+BEEQBEEI3YgAEnQJ+8SwCzYHwCyWnzx5suotE5oIjQLIBBsAstM5U+FixIih9kP06NFV01ymzNFCXRAEQRCE0IkIIEG3sJFm8eLF1eA3efLkShC4ublpa/VPaBZAJm7duqX2A80RGAni/ogdOzYaNGiguq6H5hoxQRAEQQitiAASdM2BAwdQoEABNfDlSb5gwQJ4eHhoa/WNCKBv0CVwypQpyi6btUHcL87OzmjatKmy1aa9tiAIgiAIoQMRQILu2b17N3LlyqUGvenSpcPy5cvh6emprdUvIoC+5+rVqxg7dizy5cun3OK4f2ij3apVK+zcuTNU1ooJgiAIQmhDBJAQKti+fTsyZ86sBrwZM2ZUdSDmJ7weEQEUMNwfdAjMmTMnIkWKpPZT0qRJ0bFjR+zduxdv377VthQEQRAEQW+IABJCDZs2bULatGnVYDdbtmwq9cnLy0tbqz9EAP0YHvszZ86oflFZsmRRTXS5v1KnTo0ePXrg8OHDeP/+vba1IAiCIAh6QQSQEKpg5IcnOwe6TIvbs2cPvL29tbX6QgTQz8F0yBMnTqBnz57IkCEDHBwcECZMGKRPnx59+vRR69zd3bWtBUEQBEGwdkQACaGOZcuWIWXKlEocsBaEM/16RATQr/Hp0yd1LnTq1EndEO3s7GBra6uiQwMHDsTZs2fVNoIgCIIgWDcigIRQB0909ohJliyZEgiFChVSfYP0hgig3+PDhw/Yt28f2rVrhxQpUiBcuHBKDDFiOHz4cFy6dAmfP3/WthYEQRAEwdoQASSESj5+/KgEApukUiSULFkSJ0+e1NbqAxFAfwYb59IZrmXLluo8YTTI3t4e+fPnx+jRo5W1tvlNUxAEQRAE60AEkBBqYYH75MmTkSBBAlXzUaFCBVUUrxdEAP05rA+jI9yWLVvQrFkzxI8fH2HDhlWGCWyuOmHCBNy5c0fXZhqCIAiCoDdEAAmhmjdv3mDUqFGIGzeuGthWr14dFy5c0NZaNyKAAg8KHN4saaLRoEEDxIwZU+1bWmiXKlUK06ZNw6NHj7StBUEQBEGwZEQACaGely9fYsiQIYgVK5aq96hXrx4uX76srbVeRAAFPl+/fsWrV6+wYsUK1K5dG1GiRFH7mP8tX748Zs+ejWfPnmlbC4IgCIJgiYgAEgQDT548UZbH0aNHV3UeTZo0wfXr17W11okIoKCDQujFixdYtGiRihpGiBBB7WueP5UrV1YmGxRKgiAIgiBYHiKABEHjwYMH6N69O5ycnFSNR6tWrXDz5k1trfUhAijo4U2T4nnu3LmoWLGiiiBynzOaWK1aNSxdulTdZAVBEARBsBxEAAmCGXfv3kX79u0RMWJEODo6okOHDuo1a0QEUPDBmycFNPd5mTJllKkG972zszPq1KmD1atXixASBEEQBAtBBJAg+IFRnxYtWqgoUNSoUVVU6OHDh9pa60EEUPDDmyhd4WiKUKJECR8hlDBhQmWesHHjRuUqJwiCIAhCyCECSBD84cqVK2jcuLFKaaLjV//+/fH06VNtrXUgAijk4M2UNWQTJ05EwYIF1XHgkjRpUvzzzz/Yvn073r17p20tCIIgCEJwIgJIEALg/PnzyumL9thMZRo2bJgqfLcWRACFPJ6enrh06RLGjBmDvHnz+gihVKlSoU2bNti9e7dquCoIgiAIQvAhAkgQfgAbo1atWlUNWpnGxIGstdRyiACyHD5//oyzZ88qEc3jYRJCadOmRceOHbFv3z7VmFcQBEEQhKBHBJAg/AfHjx9H2bJl1YDVxcUFkydPtor0JRFAlsenT5/U+TRgwABkzpzZRwhlyJBB1ZodPnwYbm5u2taCIAiCIAQFIoAE4SfgwLR48eJqsJo8eXLMnDkTHz580NZaJiKALBd3d3ccOnQIvXr1Qvr06X2EUJYsWdCvXz8lkj5+/KhtLQiCIAhCYCICSBB+kv379/sUtLOGg80uLXmQKgLI8qGI3rt3L7p06YI0adL4CKEcOXJgyJAhOHXqFDw8PLStBUEQBEEIDEQACcIvwKL1XLlyqUEq6zfY6JL1HZaICCDrgUYIO3fuRLt27ZAyZUp13GihnSdPHowePRrnzp1ThgqCIAiCIPw5IoAE4RfZtm2bT/1GpkyZsHbtWl8Xj6UgAsj64A15y5Ytyiqbltk8frRiL1SoECZNmoTLly/j69ev2taCIAiCIPwOIoAE4TdgQ0tGgDhAzZYtGzZv3gwvLy9trWUgAsh6efnyJTZs2IBGjRohUaJE6jg6ODioOjTWn924ccPizjdBEARBsBZEAAnCb8LIT4oUKdTglGlxTGGyJEQAWT/Pnz/HmjVrUKdOHSRIkEAdzwgRIqBMmTKYO3cu7t69C29vb21rQRAEQRB+BhFAgvAHLF++HMmSJVMD03z58uHgwYPampBHBJB+ePLkCZYtW4Zq1aohbty46rhGihQJFStWxOLFi/Hw4UMRQoIgCILwk4gAEoQ/gIPORYsWqf5AHJQWLlxYWRhbAiKA9MejR4+wcOFClC9fHrFixVLHN3LkyEoYUYxTKAmCnmENHJ0R6aD49u1bvHr1Cs+ePVOTAIyI3rx5E9evX8e1a9dw9epVVTd36dIlXLhwAefPn1cNidngmg6LJ0+eVPfrY8eO4ejRo+rfJ06cUOtOnz6ttqUBCd/Leyg/68qVK+pz+R1MRb19+zYePHigrr0XL16oQRWbGrPnlyXWhgqCYEQEkCD8IXTnmj17NhInTqwGpMWKFVMPz5BGBJB+4YCLKXClSpVC9OjR1XF2cnJC7dq1VWomB2KCYA1QzFAwUMhQRFDEUFzwnkWhQkFCq3jWXS5ZskTVwI0dO1Y1E6Z9fPPmzVG3bl0VDS1SpAhy5syp+mmxvxat5emqyAmqhAkTwtnZWU0cRIsWDY6OjggfPrwyGeH1wyVs2LCwt7dX0VVeT7y24sSJg/jx4yNJkiSqBxxbIKRLl04Z4LD+k5H/0qVLo0aNGmjSpAnat2+PPn36YOTIkZg6daqasGAa644dO3DkyBH1bKAQo4i6c+eOmtTg9crm2myrICYnghA8iAAShECAjS35sDPVaZQtW1Y95EISEUD65969e5g2bZqKPHLAxuPNwR3NEzhg5A1eEEICRsc5oGeUhrVsHOhzwE9xw8gKWwowrZPuhhQMdD6sXLky8ubNq2oreR6bhMnPLLa2tkq8sEYuYsSISuBwYYQ0SpQoiBo1qvpMipoYMWIgZsyYSgzFjh1biRwu/Ddf4zpuw235Hr6Xn8FrjJ/Hz6VI4vfQnIQiirb1/v0u/xa+l+YmvDeznq9hw4bo2rUrRo0ahXnz5ilTHQo/iiRThOnp06d4/fo13NzcJLIkCIGACCBBCCQ4gzdu3Dg1y8iHXJUqVVTqRUghAij0wIHlhAkT1Gw0B2U87hzIcVC5detW1WdIEAIbOhEy1Yv3PjoXPn78WJ2LTCljSiajIK1bt1bRmdy5c6sICgWESQj4XSgkGJWhwKDgoADheUxxEi9ePBXFYTSHAxY2C2bEh5/NCBAjQYwI9e/fH0OHDlXfPWbMGEycOFFNTjFyxKjpggULVCRp5cqVKlrKiQK2Nti+fTs2bdqEdevWYdWqVUqcMb2Z7+G9lBMNFGu8x1Oo8DsGDRqEHj16qL+RIob3/BIlSqi/lVEiWtlT6DCCxNo9CiwKK4oq7geKNTs7uwDFEwUdJ9UY0eLnNm7cWEW+KJL27NmjBBLFEQXmmzdvRBwJwi8gAkgQAhHO0A0fPlw96PgAq1WrlnpIhQQigEIXnHG/deuWGpxxAMaBJI8/B45t2rRRLoUcIAnCr8K0LEa5OcjmYJuRR9bMUCSMGDECLVu2VJEMtgbwK3A4uOcgn5ESU2SG4oZCgMKGJjI8XylkmjZtil69emH8+PHK3IORkAMHDqiIEWt7GAVhuhzT5tiAmgtTkDl44cLfSVFmvvC6MF9+Fb/v52L++fxOLvx+/hYu/F38jdxnTO1jWh/riJgCx1Q4Cqzp06dj4MCBSjwxfY69vrj/OIHGCBSjTtyX3Ge8limGGOUy37d8janXBQsWVAKsb9++Kh17165dqgbKFDVivZSlNuwWhJBCBJAgBDIcIHCWjg94PqT4YGKxbHAjAih0whs5RfeQIUPUsefgk7UNrGHo2LGjmjnmrL0g+AcH8By4M6rDexkNARg1YaSjQoUKarDAVDBT2hfPLQ7MeZ5xQM7BOlO8GOVInTo1SpYsiWbNmqF3794qGrN06VI1QKcg4OdzcM7vY7ocRQO/n4KCQkOvmEQUr1UKE16P3AfcFxQsfF7QUZS1QzNmzFCRpnbt2qkIE5twUziaIkjc59z3PB48FjwmPB48DhRHjJK1atUKkydPVmmHNIugkDWJIj3vZ0H4ESKABCEIYL57z5491SweH0xMRWIud3AiAih0w8ENB5lMCWIKDQdFPBdZX9GtWzc1wOKAUwi9UGxQeDCqcv/+fSWOOVDmgJl1ZYxGMALBQTbPHS48j7jwNQohDh5oAtCiRQsMGzZMpZcdPnxYpWZxoM3P5uCe5xoHGRz4Cz8HxYm5SKJooTCl6x3d6Ziux9TXTp06oWrVqsiaNasSRxQ/5seK/6ZI4us8ZtyuXr16Ko2PaYCcMGGtFo+TiCIhtCACSBCCCKaJ8MFkmqlr27atSoUILkQACYQDJ7ppMbUoY8aMPqkzTLfhrDzrNTjoEfQPIysUInQdY0okBQsHwnQzY9ou71UcJHOwbF6Xwokc3kdorsH3MPWNKXAUTaz94eCZg3N+tgic4INChdeuKWJnctLjxAdrmyhm+dyhMylriRghMh1TiiKmJTJax1orutsxwsdIH+u3OGHHewcHhiKIBD0iAkgQghCmMjDHm7OonHnjzDtTEIIDEUCCORygUux07txZ3fB5bnCwy9lg1iLQntf8ISBYP6YIAoXK+vXrldsaHSqZGsUUXd6XGCEwDYq5MIJQtGhRVTdG8wBaULO2jPUkFDpi1Ww9UBzRAIWClxE59jmisQMnQ+i4xxRFvwYMFEWs0WLtIC3FKaBoBMFnCAWRiCFBL4gAEoQgho3zWNzLWXfOtLFQNTgaVooAEvyDM8UsLGe/Erpy8RzhQDhXrlxqdp+zxzKLb70wrY0pTTQRYASaNSB0TmNhPQWv+WCXr1eqVEkNiNmvhtbL5mJHIoP6g+KVkyEURcxS4PVOcUzzHkb4OCHC6JDpHGE0kBFAOvBxHQeMjCwxAijukoI1IwJIEIIBPmTq16+vZluZasICdeZxByUigIQfwfoMFqPTwcvUxJcOXfnz51dOchTugnVAwcK0JUZtaIVOYUvBw8GraSDLJUOGDMpKmQNYimBGqE3OaiJ6QzdMo2M6I9O0aXzBWi4KaDrMcYLE/DxihIj3DDaDZfNlnk98xgmCNSECSBCCCdZhVK9eXT1A2BeCg0zmbAcVIoCEn4Hn4JYtW5RTF89LnjNM12QaFAusQ8LBUPgxfFgzZZHHh8XvFDbsM2OezsRUpjx58qgU3Dlz5qj0JzYh5cy/RHaEn4GTJBREfHbRkY41g7Q7N7V5MC2MELGGqHjx4irNkn2VGEEUBEtGBJAgBBPMneYghIWmfGjQlpi2sHzIBAUigIRfgQNjukoxDcY0wOHAhjbGrAVhg0sh5ODsPBt10l2Sx4QPbc7EmwahXBj9YTNQpr8xRYniNSgnWYTQBSOFTJuj+OakCV3kmEJpavnAhanefLYxpZbNadm0lT2JBMHSEAEkCMEIRRAtYtnVmw8Lpqqwz0NQ5FKLABJ+B6ZEsUt+nTp1VM0azyEOcMqVK6eaLLKYWggeaF7AAnRG55iayIGluZMXDQuqVauGcePGKVc3DjRl5l0ILmiKQEHEBq+MMtIKPV26dD7nJxdOprB2iM1eR44cqerMBMESEAEkCMEMc+3prMTcaj4gePFxliywu/SLABL+BLoV0jGKA2xTd38OZtiMka8Hh5FHaIQRG/ZmYdPaAgUKfJduxLoLDjQ54GQdDweg4swlWAKMIrN+iOcv0+Vov02bbdO5y3YQPH8bNGiAadOmSXqtEKKIABKEEIAiiAXouXPnVg+G9OnTqw7pnFELLEQACYEBawAo0CtWrOhTDM0GmZzRZaSI3fyFP4PW0rwfDBgwQNVYmEwpTINGRozpHrlixQqcPHlS0toEi4fPMroRMlVuzJgxqFu3LhIlSuRzXjN9k1FNGnfw2ScTKkJwIwJIEEIIiiAWi7JLPx8I/O/q1auVjW1gIAJICExoj8xzil3/TXbKbK7IVLkNGzaoGhXh12BfJqavUUzyIWwaHHJhPQ/7hrH4nANJ6b0jWDOPHz/G7t27lfkPo8isLzSd65xQofBnfRsFE636BSGoEQEkCCEIRRA7dpvypilWNm/eHCiWtCKAhKCATmJMX6FLnMlmmbUpDRs2xNatWyU68R8wTYgWwywQ57VpGgRyyZgxo0pvmz9/Ps6ePSuiR9AlTNtkmhyjmkyTM7drZ11srVq1lEGQWPELQYkIIEEIYSh2+DBImTKlegAwLY4FzX+KCCAhKLl06ZIapLBOxdQ4MVmyZKrpL9O5RAj5hoM5CkdGe8xds7jPGEWbNGkSDh06FOi1gIJgyfC6oOBv164dcuTI4XNdcOEkC0XSwYMHxbpdCHREAAmCBUARxEaGSZMmVTd+5kazwPlPEAEkBAfnz59XOf60vTUJoRQpUqgGq/v27VMPmdCKyfWR7lfskWIa2HHGm1bW/fv3V2mwr1+/1t4hCKEXtongpAonBJgWZ7peGBlt3769soFnBFUQAgMRQIJgIVAE0V2L6US86RcqVEjVCPwuIoCE4ITuT8OHD1eWtyYhxAdLhw4d1AxuYNozMzWMxgGWCnt7sZaBTlgcvJkGchzU0VVvypQpqqZKEITvYVsIGn60atXKl602rx/2KaNpws2bN7WtBeH3EAEkCBYEB3bstcLict7w6f7EWoDfQQSQENww4sEGnHQzy5AhA2xtbdU5yH93795dCfrA6HnF/jgUW+YPLUuAIo/NZDlwixs3rs/ALU2aNKpGirU/Eu0RhJ+Hxgk9evRQqeFsssrrifcVulLSCl6stIXfRQSQIFgYHh4eqvO+KQWA7jist/hVRAAJIQUfJoz69OrVC2nTpvVp3pk5c2b069dPWTl/+PBB2/rXYY0c+4uwdi6wXBP/BP4tTPdjtMtkFc4oGGsaaPPLQZwl/E5BsFb4DGQqKeuCYsWKpa4xLmXLllXuqdKgWfhVRAAJggXCQmja45qaIHK2i1a4v4IIICGkoZhn098uXbogderUPkKIwmDIkCEquunu7q5t/fPQdpufQ0HFuoGQgml4FHNMdTNdq6zvyZs3r4qCXb58WdtSEITAgDVAzJKg8DFNEvK+UrNmTeWgKn3JhJ9FBJAgWCisIxgxYgRixoypbvJ0j6IF8c8iAkiwFChyGLWh0xMNEjhgCRMmDPLkyYPRo0er8/NXano40DENfOg6F9zRFX4fxc2wYcOUba/pt7Deh71MHj16pG0pCEJQwPvFggULVK1s9OjR1TXo6Oio7gd79uxRz09B+BEigATBgmFzyUGDBvnY5tarV++ni6dFAAmWxvv371WvIPa6oeMhRRBTxQoWLKjcnxjlZNTovzAJIC5MOWMKTHDZ5LKHCS2rTQ2MuVDUUdxJ3xJBCF74jJw8eTJy5sypBBCvR6bIde7cWUWHJfVUCAgRQIJg4Tx9+lSl2ESLFk0NGJs0aYLbt29rawNGBJBgqXB2lmlsjRs3RuLEidV57eDgoPL72SuHDk8/EjTmAohLokSJVA+doITijZbVtK82fS/NSjjj/CdujYIg/DmcmGBEllFY3kt4fXKSZfr06eoZKgh+EQEkCFYAXa9YR+Hk5KSccFq3bq1e+xEigARLh81SV61ahdq1ayNevHhKCDGiQ+MP5vnzHPdvBtevAKIrVLNmzfDkyRNti8CFBdY0b4gcObL6Pk5GMCV1+/btMsMsCBYEo7Bdu3b1SU3lQuv5I0eOSDNVwRcigATBSmDqG9NsOAijA1bHjh3x8OFDbe33iAASrIVnz56p3h4cqNBMgEKI6Sw0/2CeP4UNLeJN+BVAXCiC/vnnHxWpCSxoRrJjxw6fJqb8Dlp6z50716L7EAlCaIZ2/IzKciKFz0peuy4uLpgxY4bY0As+iAASBCuCNRKsn+BNPUqUKKrgOqBZbxFAgjXBQQvPZQqeChUq+KR88jyvXr26EkgcvLBhMFPRTMLHfGF0dP369b4eZr8LjQyYemqK+jD6ymuPExH8rYGO11d8fPMETx4/xuP/WJ48fYoX/7ri4zdNKPjhi9trvHj8EC9dP0KdDZ/f4+1L//enf8vT56/w5sNneKlPE6wRptqyXi9lypTqGqZRSZUqVVQ0SCK3ggggQbAyKGZYOxE+fHjlEEe7Xc6g+0UEkGCNUOAwsskUuNKlS6tIEAcuFEQ0AWHt0LJly3xEj9+Fef+03v5d+CDctWsXihUrpj6PIix9+vRKmP2OZffP4uX6GGv/iY940ZwMYssRESOER3gHB3Wd+10ix4iHdMUaos/8/bjy6pNxgC+Y4YWjQ8sgQ+ToqDZ+Dx7zpTPj0LZwFMO+jQzHSBHUvmWtiL9L+IhwTpUT5duOx+pTT+AqO9hqYeSYVvXlypXzaaTKaBBrgySKG7oRASQIVgj7p9SpU0f1HGHHeXbFZz2FOSKABGuGDyTWANEUgWKEgxemoMWPHx8FChRQwsQkekyL6TWmwrFfyK/ChqYcGPE7+DmMtLKRKaM+5il4QYHXuwdYVssedqa/xzYc7Ax/M69x30s4hLPlNmFgG8EJLpV6YMFld4lUmON9HmOKuRj2UQ50WXUN6sgdHYJGmUznSljY+Sd8tMXezha2YQzbhXGAU7yMaDD3Ev4VEWTV8PlItzg6Nppf24z2CaETEUCCYIUwBefEiROoWrWqGhQmTJhQNU7lBW1CBJCgB5iqcvfuXWWTXaRIERUN4mIcyPq/MEpC+/hfqQfiAIkppTRh4GckS5YMixcvVqIoOPB69xAr6kdCeP4N4Upg4Kb9OH39Ci6eO4dzpuX8BVw6dwx7Vw5BjRyJEIbbhgmP7E2n4qCr9kECcHsqKqUzHMeMvbDsotFW3fvYcDTNwfMjLoq3nIWTflLezJe7F3Ziab/KcAlnPJ8c4pTEyBOvIfEC64YmCKdOnUL58uXVceWzk/++cOGCtoUQmhABJAhWClOFaP3Ljti8mTP1Z+rUqXj37p1aLwJI0BMUQqdPn/ZJTfuvhbU7TJf7GejyxqgRhRPfSztuXlvmD8WgxiiAIhoFkF0tLHz4A/Hm5Y7X91ajV6U0SgSFjV8GnVbf1VYKT5fURJboNkjcfAVOvDW+9k0AJUClXpvhO17+PV/f38L+sWUQV4mg8IjXcSceBJ6/hhCCcEKF0R/TvYLPyN27d2trhdCCCCBBsGKYlrNv3z6fQWGqVKkwZ84ctW7evHk+N3cRQIK1wzQ0kzmCaeDyX0v+/Pn/sz8QbXNZGM30MqbQNWzYEHfu3NHWBh++BVANzLv7rzF1K0C+4vLcf5A/pmH7MElQouM6PNDWhG7eYWvLrIhnEwe1Zh/Hc82v4psAio/yXdcgYP/Mb3x+vAkd/rI3RtqyDMeRJ5+0NYK1w8HvqFGjED16dHWv4CCYtYVC6EEEkCBYORRBO3fuVIM93sjTpUunXLLofsP/FwEkWDN8MDEVLXPmzOp8/pWFqXLNmzcPsB7o4MGDKFiwoNo2QoQIKgXud2qHAgO/Amjundf/aW7w9dgoNM/Ov9UWWeuMxpHv3vAJT4/Nw+AGZVE4RxZkyaIt2QuhavPBWHLCv++4g1XdGqJwtmzI1m4Wtt7TXvaFO27unYS6hm3yVPkH/7ukvWzG50f7MbdXI5TL++17sxcojVqdpmL7jfc/rllyvYX9/+uKGqVy+7w3a+5y+GfAcpz5luXrPx/3o0+ehAgbpSomHHzq8z2/I4C8PjzG4uoRjXVZqfth3yM3bY1vvt49gAUDGqJEvqw+vzdX0foYsOAYHv9IxX5+hTNLB6Bl1YI+78uSNR8K12iBEWuu4PV3RmVPsG14K5TksWk6BsuvaS/7wgOPzs5FM8M2uUrVwNiT3j774Kv7TSz5uzAKZq+ACSdf4YvXCxyf1QXVC2XTvj8bitYbgMVnXsDUMcfjwUHM61oZhUy/L2cZNB++Btd/6AfyFa+OLsSAFuWRP7v2viw5UaxqN8w58MBw9lgGNDVZsWKFj0scGyqzTkgIHYgAEgQdwIt3y5YtyJEjh7qRM4WHs9r8twggwVphB/dOnTrB2dlZncu/s9C+evXq1donfuPo0aPIkyeP2oZuiqyhe/tWy5cKAX5HAOHsBLTNb/w7M9UajP1mA2aPh8cwp2UBZEoeCxG0feFrCesI51TZUXvGKTzzVdxyCRNKp4EttynYG/OuaC/7whVnlrdDCm7jnA09j2gvE68PuLuxIyrkSIZY9mbfZ1rCRUeSdLnRfOYh3PUnoPJ0/wx0K5oOSWOE+/69EZyRunA19NnyIuB9c6o/irkY3lt0PLbf+6Y+fisC9O9JjMzigLD87oz9sP+J36G7B879rz1qZ06G2BHMfqe2hI+dAtnr9cHCi9+rILcH+zGmSlakjhvhu/dxiRw/DbJWn4Dtt8yLu25jfqPciMRtsjTHmJPay74wiNM9/ZGV2zgmRovt3j6RxC+uZzE8o73h2MZCy9kz0b1uKaSO6tdMxHBepK6L0Tsv48LBqWibMwmi0xDCbJuwTglRrPE4/+vOPt3Fui4lkS9FHH/OOzvETJoRpfuswPGX2vYhDFPJ9+zZg9y5c6vfSFMhppIL+kcEkCDoBNZIsOYhU6ZM6kZu6l9CUXTpkj9TtIJgwXBQwvo2U13OnyyMitLa2gQNBUzNTZMkSaLSRYPS4vpn+B0B5LqjL+r9xb8xNgo2m49rpvZEby5jR/+ciBuW62IgZ+sJWLFpp4oU79y2HgsHNUDGiNr+iVMT0089xzctcgXTquZANMO6MKUHYbG/UYb3OL+mGzIbtgmfsiAGHNdehidcry9Di5RGu+GIudph5KKNxu/duR2bF/VD5RRGk4mwseth/N6Hvv7Gl4fnokuO2HDg74qeFXWGrcDmHcbfvXZGT+1vNXxuxooYdszN3xTBWxMKIaVBjGTqswPXjP4HCt8CaC0eaa8HjCee7+iMdOEpEMIgVoM1uP7G9zdeW9AO5RMYhZpj5tro+b8t2t+6BYv6VUOOKPy+iEhWcwBWmUfS3t7Dzl7p1T62cUiPBoMXYsN27fhsXIZxjTJr4iE6Cg/biZs+Phx3saRlMcTluvztMemM9rIvPuL2gWEoYNjGzjktOuw2E0DvL2JC/phwChMBCZLHg52NMwr8PRKLtHNj1YCKSBeb32uL+OmyI6NBPEeNmx31RyzFDv62TTPQq1oG4/GJmAEVZ/ieWPPyeIKd3QsglQM/wwYpqvbD1JXGz96xdTnGN8iAGHxvhIQoOmgjzlmQccfx48eV7T5/d7x48bBo0SJtjaBXRAAJgo6gCOJsNy9o3si5ZM2aVdlmC4I18OnTJ4wdO1YJE9M5HBhL/fr1laMbC6BN0VFGlmbOnOnr4RdSfC+A/qsG6CE29iyNhOEN2zvmQt1xp2Ec73viyd7xqMvaoPAJkKXtSlx57Sfh7ON9nJhYEy5Otob9EB5VZl3CE59d8AcC6Osr3J1fGU606I5bB1OO+43UuOHejm7In4AiKB5qTT74TYi8PoHZLTIY3msDh9TF0G75RTw2EzD8zif7ZqNrQQd17OIXm41zH/0et0eYWz45otqkRue1Vw3f9o1vAighqvTZDqNVTAB8uI9j83qgajpjfYiNQ0H02vvMd+PZG8vwT24nFSmLW6odph15bPiFZrg9wIW57VEpmeH99klQqtsBmJIrXa+tRcd4htcjxkaxocfxwE8k7Ouz0xhRPjoc+d2lxmD7HVNC2p8LoIkFYhojSDbhkLvDEhx/abYP3a9jbpOcSKzWG5ZkpdFh2VU8N9vk/ak56JzfzrA+KhIXnYKr2us05vh3Ry9kceJ77ZG51Wzsvut7UsHryXls6VUMaSIbtolZFv3W3DYT3iHPmTNnkC9fPvW3s1cQmyoL+kUEkCDoDFp9sms+DRFMgzw2lRQES8fDw0NFamrXrq16/ZQqVQplypRRkSCmdbKWgILe75Itm7GGIXHixKqHT4IECXwtfI3rKawaNWrk01h19OjRIR75MeFbANXDin9/UCXz/AiWD6qJTPGc1DUeO19bzPEpyniG47MbIL7h9fAJimPEZe1lv7iuQv2EkdUAPnm33bjiowj+QAB9eowzQ7MafpMt7OK0xR7TuN0Xz3B272YsW7oeR26+8BENL7b2Rc2EYQ1iIQ3K9N9m2Mo/PuPuusZIyd8WPiP6Hv2oiT6N5ytRL3VM2CRsieXnfaczGgUQozkREP+vfKhoOMd4nn2/1EDl0vmRjgLS8D02MYuj7cyTeOZpCq+Rz7gypgRSUnzGKoY+6+/4P5D/cgNre+YxiLpwiJm9GZapljPeeHZ6Jirzb4icCOWX+F9X9P7KdmxZvxSL9l3FU1eThAkEAZQ/OiLy/UkaYuGV7429b06vhwIqchUL+TouxRW/p6HbBWztlkztxyRZBsJkMfL13Q2sqx9b7bMwGVthwx2/4lTj33XoUZSTG5GQvd1CnAkel/mfhqYpGTJkUH8HB8Z/0lRZsGxEAAmCDqEI6tOnj7qJc7DHWS3WPAiCJcMI5o0bN5Td9bVr13yW69evqzROpqmw/5V/C9fRynbHjh1aGtK3haJq1qxZSlSFCxdOGR7079/fxzLeEjAKIEdEZNpaWBfkr1EXjZs0QRM/y9+N6qN2qSxIpKUZ2TjnQJtFV/Ba+xzgA17cPICVs+djzabDPyjCP45eSWOoAv9YrTfggs8H/EkE6CWuL6yMyPxdYRMgT93+mLHjokE8aOsDxBV7h9ZEWr4v7d8YcUp72T/e70dnZ8N29hGRffQ1vDH7bLet/yBz3DCIUmcJTjz3PXL/JoC0/fbDJTxcspZB/d4TMGvLZX8ss29iWpmUKp3LvuIsHPtB6djzncNR3NawL5PkR/ONxpyvd9c2oE1Cw/eEiYAYmauiy6RNOProZ4R4IAigfFGN6XUVF+D8y+9PDtctHVA5JfdBbrSafsbHDMGHD+exrU92w3pbxMvUHOu1v93tyQa0imXcd0n7XjTIvIA50Ks8khp+g0PRXph3NcATNMTgPYRtJXgucOKE9xdBf4gAEgSdYrLBNi0lS5ZUA0tBCI3QFTFGjBiq+SGNFdj41JIwCqDIiGwYLJtftwEv0fFXmRYYsPI47vgfRPCHT3h++yqObZmL8X2qI1NkY4F//HabcNHHXe1PaoA+4+P9rehfPIr2G20RM01+lK/zD1q37Ywhk9dg93V/bNy8LmJWq0LG1CzndMhbsz3atm3r79KycTXkjmHYLlwUxGq1BS99dIM7TvTJgoThnFB6yik88hOA+JYCFwXpijbBIMP5wHPCtIzuWguFmZZm+A3hnJKh8oh9CLBO//1GtMycUEXP7NIUQ+W/2/n7W9u2bY/GFfIhFY9p9GwoNfm6eruX21McmFgeSdQ+MixRUiJbmZr4u0UbdBw0GYv3XPGVdvaNQKgByhtVRYCitdmK62+0FWZ8PdgHtdPxdxVFZ/8cMN6fw5Ze2dTvjpW2OuarqNZnvDozAnnDUmDaIXa+OmjSyr/9YVyq50yG2Pwb0jbDyL2WMwlhzvLly5UhAv9ONksNSYMUIWgQASQIOsXUCDVKlCiIHduYmlCuXDlxhBNCHYx+JkvGtB1jLRDd5SwNnwgQHbds/0K5lh3RY0A/9O7VC71MS8+e6NFnAAYPHY5x01caxITrD2faPW4fwLIpI9C3e1d07dga/zSti3KFciONs2+HtUSBJoCIN96dW4jBrcsge5xv36GWCEmQoXgN/NO+P/63975P+hu+HsOEJjmN/XZ+Zam+HM9MKVRfT2NUwfiIELYoRu9/+F3kwrwGqGr/Xd9bMX95hPOLeqB6JnvYhImERIVbYvSO59pKPzxdjDqZftWZMAmyDfqmWL6+v4kNw1qjWu6ERlMBnyUC4mYogip/t0Xvqdtw+Y15JCvwBFDirntxyx/t4bmvF2qm5e8ojI5z/DHPMRNAsdPVwiKVq+iOZ3t7IW0E1pSZ/y3/scSqjN6bAtjHFgCdIdkbjAtrBRmhFvSDCCBB0CkmAcT+KZ07d1Z1EPz/SpUqqbQiQQgNvH79GnXq1FHnPvt9MFXOEvFdA2QYWD76g+KI9/dxcn43NCujuW6ZLQ5xkiFrscpo0LIiskcJr6IYgRcBMsP9Bo6smIghfbqhdYPKKJbB2ddA3zFDRQzbcdMYZfEyCKCmudTrTqnyonrH/ipF8YfLwOEYseEa3JTSMcjAm+NRPGFk2KQfiO23vq/I+SaAfmSD/Rl3VrZGLlXIbwPbTE0x9ez3dTJ4ugS1NQGUoEAdNO/pz+/zuwyfgQVH/Q72PfDwxDrMHtofPds1QY1i2RA/0rd9ZOOQGkW7bcSlF4FngmASQAk778bNwBRA+3rjL7uwBvHugIzVu6F7P3/2gd9l8jocvG0ZNXj+8f79ezVpyL81RYoUkgqnM0QACYJOMQkg1v8cOXIE48eP94kE1ahRAzdv3tS2FAT9Mn36dESNGlXV/XBGly5zlohvAVQT8+69+XGz0ID48gpXV3ZCnujGQbRj+ipo0rEbuvYagqGjpmHx5v04d+8l3Lz2oEfSGLA3bOPsSwBdxORK2RHF8PqPBNDFdd2Q3bBNgALIHNdHuLJnOaYN7oUujYsgVVSjk1uMyqOx6TH/ysuY3bKgqk2JUqY7lv1qdqK3N17NK40k0QxirtMWXPFlx2bk5wSQgY/3sK1LNkQ1/Bb+xrgVJuLEGyWxvvFhHVplSmA0kOi5A8bEtj/lI55fOYQVs4aiZ5d/UDZtFKNgDJ8PfTde1xztbmNh8yLG9LEfCKC7h4ajiGGbYBFAKpjKFLhhyMPfZeuECisszNngDzh58qRPPRAHyxRFgj4QASQIOsUkgNgIlUXkLPgePHiwavrI1+vVq4c7d+5oWwuC/rh9+zZy5sypzveKFSvi8WNVsGCR+BZAP9kI1R88H27HhGq8xiMiRtq6GHXgmz2CLz5sQMNEUVQNUDxfAugBljTKB2fD62HKDsGyG9rLvniJUwv/QULDNhFSmQkgj9e4uXcp5i2ch4UnX+Grf/XtX69iQeNMiEsTh1j1MHobY0DvsX9odWRg+l+iaui+6dcaxHh7v8TG+gkMwiAm/l511cwQ4hs/LYAMsvPj3Q3okt4o0pgyV/5/1+B7SH8NM8qlREzD+rD5hmHjjV9JjfqEd3eOYNW8uVi0eB/u++uUZzgKa1sjX7xIhu8Pi8JDtuGq2s7wd3YppwwEbAp0wNTzalM/vMONLd2Q2rBNsAigJ3zRG+6P16IdzSls7OH8zw489WXPZ90MGjRI1Q6ytx7bTNBkSLB+RAAJgk4xF0CmRqgvXrxQ7nC0AOY6ukrdv39frRMEPcEO723atFGNVGkFzybBlkxgCaB3JxegYwbjwD17nU3f17po/Lu5FTJFMzYsTeBLAH3G3u7FkYa/I2MnzD/vz6/4eBqLWqZT741kJoC8/72EZbWMDZhti83GjQAGwbcmlEN2pno5VsewTUYp8mpLb1RLwN/tgoLtlwcoDPDuCjbPn48Fq1Zh64U3+MLQzPsdaJcqFmwj18S8Cy98Bvzm/LwAMvDlPe4sb4w0ymkvDGzSN8PKm5/MokCeuDSyqGq4ahMhF9osuOyr59A3vPDmxkEsmz8PCzbtwrF7hn3p/QY317VCCsM+Cmt4b+/TAfyhb5hmZ5ysyt1/Cy5qmXgnRtZSkTebFI0w5qA/6XlfbmJLj2yqnsouXjp0DBYBZPhLXW9gVb0Y6nWbxDUx52JAB9AV1/dvxIL5BgG4+xxu+Zx3lsujR4+QP39+9bflypVLTawI1o8IIEHQKeYCyNz4gLPgXbt2hZOTk7IEbtWqFR4+/OFwQBCsjitXriB58uTqGqDotyTLa/8ILAH08fIq9M/PYvRoSJy3F9bf9aNCPJ7g0rbp6JLLKH64JO64FZd8HMG8cHNKVWRns0q7LKg2cAvumIc/3t7CvvENUZBObIb3Rk5tFgH69AynR+UxNvC0z40W849/Fwl4f3snhpRJhViGbaKUGITVN7VB/PNDmNIolbLQDpM4NxpMOYYbfoy3Pj47ihXdi6n0PBubRKix9AE8vAwD+5N9kSVOBIQvPQ2nn/ofjfklAWTgy/srWFI3mVa3FA5Z2m7EzY/fJJDXlVlolDWiiqA55WmCEZuu47kv5fUZz68sQ99yKdR+sklWCUNPUhR44vXZmajP/RcmMpI2mI4D9/3IVI8HODWuOv6KbdjGPgM6rroE0+F5sKg5iqv3pkHxTstxzdzJjQ1cZ7VDWc3NziFBenQKJgGErx/waGM7ZNJqmFLUmoj151767o/k/QrXdw1BpWRshGuD6FVGYcsDbZ2FwwmU6NGNjXHZZ++rv+FNwZoQASQIOiUgAUTYDb99+/ZwdHRUM+QdOnSw6PQgQfhVRo0apVJWGO20VOMDcwJLAOHdVWzqmx/R+Tk2TkhZZQhmrdqATZs2YdO6ZZjepwayRDSsc0qJpHHCIbytDWI2W4WLr8yqXK4uQsdCUYyubNGyo1Kv+VjL929cggmtiyC5kz0cnFPDJRojQIXMaoC+4MOdteiUOaq699hEyommg+ZiJd9rWDYsn4nuZROquiObqKnRct4ZmN91nu6fhjaZYqjaGhuHpCjRcSoWbzS+d+OKGejXMIcSTjY2jkhXZiQOuhp+s7cnro7Jj7iOdsg78hgeBFDi9asCiELF/fx0VGS/HvV78qHbzif47LObPuL87OYoETusWm+bpBiajl5i3E+GZe28wfg7fzzjPoyQElV6rsEt7Z149wj7B+dUzWoprlLV7ouZy4zv27RxLWYOqo50dlwXHolqTMfBB2aRnjsbMLhiXOM+jJQGxTrMwir1vhWY1qU80kezRdg4aZAspg3CJwi+CBDx+ngHGzvkQVLNyj1OgeYYOHed8e/asBYLx7VEsYRGp7iICUqg7+pzPsLO0qHgKVSokPrtNFV59sz/Vr2C9SACSBB0yo8EEGHDyRYtWqjicA4Uu3XrZpH2wILwq9DooFSpUur8p+21NQxWvN7ex+KqxoGjjU05zLj16vcEkIF3VzZhdMVMSBrdH1tih7hInqccmk3eg5XtkxqL/RO1x4bLb81MF77g6tJ+aJwtKWKpgbjZEikBMtYdjCETZ6BDGsP/x86K7oe0tyk88PrwcNQokBaJNDc130sUJEiXG1VHbMLl70a/nri3cyLaFcqCFLG/Rai+LfaIkTQTitUahC1PjL/Wy/0KRuXktinRfdf9AFLRDALo8ADU4e+1iYwibZbjpxJ/PV7j8NC8qh5KfX+evthyw83MYvslDk1ui2pZUyGuuXubabGNjsTp8qNBn6W46Ccw5fnqLBY2yYPMSaKpKJLf90aMlwY5ivfCiguvvkvpu7txDNrkSQVnpuCZv88hDtJU6Ybek5eib07D/0dKiObbzASQ6zmMzGhsBhul1XZc96e1jeeuTiifiJ+XHS2m+1Nk5Hoa6zulUp8RPnEFzHmkvW7iw3ksalsW+f6KZ+zr5HeJnBBpclREv6Wn8UJ7i7UwduxYNWnIlNpDh3yd9IIVIgJIEHTKfwkgwtog3gAYBWJ4v1+/fnj+3HL7MgjCz7Bv3z4kSJAAYcOGxfz587VXLRuvDy+wZ1ARFMqTB3kK9MXmJ+++G/j+Ct6uN7B9YntUL5EPuXPnVkue0lXxz6h1OKmNPN/vHYhqpQzfl6sbll948Z3gcr+5HdM6V0ORPMb35y5SEa0mbsNtDuYfH8KMBnmQv3orzL5s3N4c7+cnsW50c1Qrncfn+3PnLYYqHSZi7YW3P/7bXO9i/7zeqF+xEPL4vLcgKjTrh5nbr+Fb4MIbnq77MKxMKRQsPgq7Hwbs0OV9eSGGNzX8rXkqotvU/T85+DZ8/qu9GFmxKPIajkuunFUw+uBjs+834vngCBYOb4YKRb/9rXkKl0G97tOwySBgvglLP3i9w7VNk9ChbnkUNP2dhqVo1X8wfPkZ+Lhf+8PnBwexoE8dlMyvva9gGTQZsRqXqQBfX8KSlnlQoEJdTDjl7fP9X91vY0WLkobjmQeVJ5/CQ3/M2r6cnYG+dbmf2mDiJn9Mctxv4uiMvw3r86BsvX7YHoBj34sTyzC0fTUUy/ft7ypYrg7aj1mLM89/8IdZMJcvX1aDZT5XKYakL5B1IwJIEHTKzwggcu7cOeUI5+DggDhx4mDIkCF4+TLAHuiCYPGw7xVFferUqX947guCIPwKTH/jxErx4sVVFoVgvYgAEgSd8rMCiLDBW/Xq1WFnZ6dmzkePHq0aSAqCtcEHGc95nvsdO3bEmzfWUmUgCIKlM2/ePNVPj6njO3fu1F4VrBERQIKgU35FAJHDhw+jfPnyqt9BkiRJMGnSJLx960+SuCBYMA8ePPBpXEi3JkEQhMCCaXDp0hkt4JcvX669KlgjIoAEQaf8qgAirJ1g8ThD/ClTpsSMGTPg6vprTQkFISQ5duwY4sePr879PXv2aK8KgiD8OcyMyJEjh7q/cJJQsF5EAAmCTvkdAeTt7Y0dO3agaNGiCBMmDNKkSaNC/m5uAXkrCYJlsXbtWsSKFUvVtDG1UxAEIbDgM7Jw4cLq2cr+Yh8/+tOMVrAKRAAJgk75HQFE2EF/69atyJs3r3p/xowZVSqR3OgFS4eDk8mTJ6smv0zj/JXzXhAE4WeoUaOGejY2bdpUXFOtGBFAgqBTflcAETZ9Y+drvpefkS1bNqxZswafP1unfakQOqB479mzp4r+UMDfuuXTelIQBCFQaNeunXoulitXTu4xVowIIEHQKX8igAh7HKxcuRLp06dXn8O+D5s3b1biSBAsEZ6b7du3V26GJUqUwL1797Q1giAIgUOPHj3UM5GpcDRFEKwTEUCCoFP+VAARRnyWLFmCVKmMnb8LFCiA3bt3q1QjQbA0eF4OHjwYkSJFQubMmXH9+nVtjSAIQuDQrFkz9Txk64j79+9rrwrWhgggQdApgSGAiIeHh+qm7+Lioj6PBgmHDh3S1gqCZUHTjujRoysjBDb5FQRBCEzKli2rnoVMhZM+Y9aLCCBB0CmBJYAIDRBmz57tYy9cunRpcdgSLBK6GMaNG1dZuR89elR7VRAE4c/59OmTj0HQ0KFDJSXcihEBJAg6JTAFEKEImjZtGuLEiaMsstk09fz589paQbAMeK4nTpxYnfusWRMEQQgsHj58iCxZsqj7y6xZs7RXBWtEBJAg6JTAFkDE3d0dEyZMUOlFFEGVK1fGlStXtLWCEPLwoZYsWTJ17tMSm2YegiAIgcH+/fuRIkUKdX9ZvXq19qpgjYgAEgSdEhQCiLx//x4jR45EjBgxlAiqVasWbt68qa0VhJCFVti0p+W5X61aNTx69EhbI1gynx8dx7oZg9D1n0ZoULcu6qqlAeo264heE5fj6G0RskLIM2TIEESIEEH1GZMUW+tGBJAg6JSgEkDk3bt3GDRoEKJFi6ZEUP369XH79m1trSCELFOmTFHNUKNGjapmbAXLxePaFkzuWR/Vi2dGokg26p713eIQFxkLV8ffXcdj/V3tjYIQzLi6uirra56TdIJ79eqVtkawRkQACYJOCUoBRF6/fo0+ffogSpQoquC8SZMmuHtXRidCyMOoDx9qPP+HDx+uUjcFS8MD17ZMQ4ciqeGoCR2nTBXQsvdwjB83QaXaTpgwDiN7tkD1rLGNQsgmEpJX6YU5Zz9onyEIwcf27dvh7OyszsXly5dLOwgrRwSQIOiUoBZA5NmzZ+jWrRsiR46McOHCoWXLlnjw4IG2VhBCjgYNGsDW1lY5Nkm3dsvj1eGJaJbeyShsXAqgdt+5WHPsHr6Xqm54fHITJnSohPR2RqGUsOJ0XBQNJAQzbdq0gb29vWoOLrWv1o8IIEHQKcEhgAhdcdh9n80nw4cPjw4dOkjdhRDirFq1CjFjxoSDgwNWrFihvSpYBP8exciqiRGF4idBDjSceRbPtVUB8vE6VnbKg1h8T9i/0GD1E3wSB2IhmOAzLWPGjOqZ2rt3b3z4IArc2hEBJAg6JbgEEGH9D6M/LA51dHRUUSFGhwQhpHj58iUKFSqkrgH2rXr8+LG2RghZvuLOjDrIGCOM4dg4I3+3Vbj9k2PJj7fXoml8gwBySoKiw8/ANQBfhM9Pz2LHitmYMHYMxozRlgnTMGfjcf+/y/M1HhxagDHjZmHRCWNjyy/3D2PtvIk+7584by0O3fdS64y44d7R9ZgzUfv8sVMwb+tFPPfQVgfEl6c4t20p5kzS3mdYJs1ehb033msbCJZIr169EDFiRFX3umvXLu1VwZoRASQIOiU4BRC5du2aqgPijDvrgvr27YsXL15oawUh+GHzXgpyGnVMnDhRNTEUQhjPcxhe5i84Ge5N4VxaYNbh19qKn+DDS5xZ2hO9J83HzvPP4GGuR4jnHRxZORHd6uZGvLDGdDlfS9ycqNR2IrafeWyQYWZ8uIBt7dk7KhZcOm/Fg50T0LVcMtj7en8sZKrRB/NOu+Lru5vYP7szyqQKb7besCQuioajduHCM78/jHji3aUNGNe9LvLHp/gze59NeCQv0xbD5h7GAzG7szjY9DtRokTqWHGijwNnwfoRASQIOiW4BRC5cOEC6tWrBzs7O9UriJahNEsQhJCAboU1a9ZUJh1p0qTBvn37tDVCSPH18khUzsDanzBI1WYxjrzVVvwxb3Fm+t/Irpzk7JAwU3FUq1dfOVTWr18L5bPFV6LLxsYeyauMwvZnZhLI7TJ298kGmwjOiJevAmokN2wXMxtKVK2r3l+zQi7E08SKY4nuGN6uNBJHiIg4GYujuvqOmiiZIRYicptIGdFg+in4HiK7499LC9GumLGA3iZyahQqXwt1+dvq1kD53MngwNfDZELt8cfw7LN/AkoICThIrlSpkjpuLi4uOHXqlLZGsHZEAAmCTgkJAUROnz6NGjVqKFMEOuawZ9CbN8a0EkEIbtirI0OGDOpa4GCWVrZCyPF4QXXkcKaYiIs6U/bhofb6n+EFzxszUS1+RMPnhkdSg0hZdsr3xIv7mcXoVdYFMW0N3x2zFJosNPtmCqD+edU5opZEJdF12XX4nCke5zCnWhpEttfW20RCqrK9sOrct3Pp1YGRaJApFuwM6xNWH4T1Zg7JH5/swdSqSQ3vCwP7eIXRePJuPDILRn68vgXD6mZFTH52+MIYuO8JPooGsgimTZumjA+Y2TBjxgyJIusIEUCCoFNCSgCRY8eOqVkzzrwnTpxYWdpyNl4QQgJaYdOgg6mZM2fO9PWwE4KXM6PyI30UiojcBpFxFm7a63+E92fcGJ0TscNRQJTChGMvfKe4abza1g/VE/O706Fq313wKQdSAiiPul+GjeyCwqMvw7fBseH/jvRA2jj2aptwLu2w5rrfX/4WW7tXQhKKmLxtMOmM9rL3B5xa0AGZDK/bRU6PiqPPwt8htNtB9MkSVQmouPXX4MIrcXgIaa5fv64c33jMK1asKNkMOkMEkCDolJAUQOyPcODAAVV8ThGUPHlyTJ8+XWbfhRDh/v37KFeunLoeGA3avHmz9PAIIc6NLIgMSgAVQp9ll/BZe903X+D67CZO7d2LvQEs+w+dwcMPX6ECJV6euLigBZrVKozCPdbh8vMABO6N/6FbEX53bBRvuRg+XcuUAMqtzg+nFMUx6ab2ug9e8Hw4D5UTREYYwzbJu23D1e/mc7xwYlRdZDest8ncHCOPaH+Z6xEsaJ/a8Nnh4FKgA/b8ILLzcm5RxIsUBjbRm2Lp5dfGv00IEdjOgZkMPCeiR48uxgc6RASQIOiUkBRAxMvLC7t370bRokVVETpvMnPmzIGbW6DM+QrCL7F161af2dwcOXIogS4EP2eG50d6J4qQAui1/IL/0RC8wdH//Q0XiokAlrCRc2LE2Q8BCChzvOH16S1ePrqFS0u7oEZGvt8ZJVovxT1tC6MAymF4PSyc07XDZn8M2b54bEeHJNFVhKbQuDO4+53b2xccG1EHOfn7ElZDt3VP1Ktfr63AsFJhDZ8dCUlztMOi48dw7OhRlZrpazl2AAfGVUHcyLaGbbOg7/67EF+4kIEOpk2bNlXnGds7SDNlfSICSBB0SkgLIEIRxIFn/vz51W/h7PvixYvlYSKECOwNlCRJEnUu0iL77Nmz2hohuLgyrigyRqMISY82C08YpI5/uOLihqGokjo1UpuWv9IgbarkcInDOh8bOETPi9Hn/RFA7i/w4MYlnD93DqcOH8LuNfPwv+EdUL9kRsSOYHJfS+CPAMpueN0BCTP1xSHtZXO+fNqGdpoAKjjmFO58p9zMBFCi6ui+/ql61fXYLLTPxO/8lSU2mq+5Bkm4Cn44KO7UqZM6Dqz96d69u0za6RQRQIKgUyxBAJGvX79i/fr1yJkzp/o92bJlw8qVK+Hh8V8NMwQh8GENEFNaeC5WqFAB9+75DIOFYOD91jbI78IohxPKjd6Om/5mInoZBMcHvHnxAi9evlQ9nV6+cYXbk4s4MqqYcXBqEEBjfAkgd7y8fQxLBtVEvkTGWh3jEga24R0RLU4CJIwbHVHC87X4PxBAfXBQe9mc3xVA7yiAVNTJHhGixkey5MlVSrD/SwqkTJUKqVIVxdA99yBVk8ELhc7gwYPVecPU7WbNmuH9e4nD6RURQIKgUyxFABGKIM6+Z86cWf2m3LlzY+PGjfj8+b8TWAQhMOGDbujQocrViedi48aN8fz5c22tEOQ8XoHGOeMjrGHfJ6wzA7ue/kIt1tdnuDmjrDpudtHMBdBXuJ8ah1qpYqnPdXCMjjjxDGIjTUpkK1kNdTqOwJwdF3FzyzC0zEsxEjfYBNCHE3PQSUWAEiNn49V49sUTnp7/vXz1khq14OTjx4+YMmWKci/l+VW1alXpY6dzRAAJgk6xJAFEeINZsmSJ6sfC31WwYEFs27bN141HEIIDmnF06NABtraMRNigQYMGuHnzu8p3IUh4iTUt8iEhG5VGLo/eK2/469jmLwYBdPt/RjMLowByM77X4ypmlEmEqIbXw0TOjdZT9uHWGzeVavvxkwc+f/lqdHU7Nwnt8wWvAPK+sx4jK7FhamSkLTEGIX8nFvzy9u1bjB49GpEjR1bnFtNjb9y4oa0V9IoIIEHQKZYmgAhnNufPn6/SPfjbaJBARyfWCglCcPL06VM0adLERwRx0HP8+HFxhwsGvhwdjkoZWMsTBtHL9MLSi59/zvHs8wOcH1dcHS9bp1wYdf6jEjbed6ejfPwI6vXMffbiqo+/tW+ereuGykkogH5UAxS4Aggfz2FFrzwqMhU9bVmMvxDwhI/3J1e8ffPGMDBzxccvXn6suIWggPeBjh07+kR++LzkfUDQPyKABEGnWKIAIhRB/G2JEiVS7nClSpXCkSNHtLWCEHww9a1nz56IGNFYWG+yyBZBHsR4vce+QWWQORLFiB0SVx5sEEEf8MkzgP3u5QkP91e4vnUM6iQ3CtbwcYpgwiVNAN2agmJxjAIoS/+DuP6dx8pXfHY9jMmNciGSYRsbm4Qo2XoZ7mtrg1QAwR0XV/ZGATZgDRMbmerMwsVP38e8vD/cxeZOOZAyXjwkSt8Wi668hFRJBi23bt1CvXr1fCZB2Ovn/Pnz2lpB74gAEgSdYqkCiNAAYerUqYgbN64SQeXLl8epU6e0tYIQfDBNih3eEyRIoK6XZMmSYd68eRIJCmK8PtzHxq7Fkc6BwsABjgnzolLnudhz8Sn+dfdQ9YGfP7vh3/tnsH1yV1TLGQ+xokaEreEY2UdLhypDt+HuR+Mx8nI/iN5p48DBsM42RgF0+N9h3H/H9xuWTy9wfcsYNCuYHE4R7AzfRSe44DNBIF9eHcWiNplVFMgmbFykrzkKG6+8gJv6Gz/j7c0jmN8xH+LZG9YbtolZcx7OPPsiEaAghEKHk280O6DbW5s2baTmJ5QhAkgQdIolCyDCotMJEyYgWrRoagaORaeW+DsF/cNB6JYtW3z6BDk7O2PkyJHiVBjEfHF9inNLeqFy6khqv9s4REWc+InhYhChRle0ZHBJZBA+TkbDChsbR6SoPBRLj9/CCzfzKMpH3F/aFJnjGt3fwkeJi0RJNWe1ZC5IGNsJ9jYJUKxRM9SvksuwTRikrTkSB0wixu0SdvXNYng9HOKl7wX/OkR9+bQVbRJGUSIm/+iT/gqgo8NqIRt/Z/yq6LrumwDiuk93t2Nk3RRKpLEnUMwESXwc4VwSxkVUCkEbW8QsMxCbr73HVwlCBhmbNm1SvcB4rjg5OWHQoEGqDkgIXYgAEgSdYukCiHD2fdSoUYgaNarKwa5VqxauX7+urRWE4OXQoUOqFojXDQui2QmeTSqFIMTrPZ7dvoBDy8eje9XsSOxIIWC+2CNG6qJoOGAONh6+iFvP3P2vF/J8gUu7JqBz2XSI4ev9TkhfvitmbLyMJ68fY+vAukhseD1sjr8x7oz2Xh8BZAvnHwmgBE4IY3hvvlEncdtfAVTTKIDiVfEjgIgXPr64iL1LB6JpvsRw8vl9XCIiYe5G6LlgL84+DqCASfhjWO/To0cPNcHB/c4MBEZ/P3yQfR4aEQEkCDrFGgQQ4cNnyJAhaibOzs4O9evXx927d7W1ghC8MDWmevXqPoNTPhwnTZqET5++G/EKgYoHXJ/ewdULp3Hq+HFViH78+AmcOHkOF288wIsPP+MV9wlvH97AhVMnfN5/6oxBND1x9XGa+/jsLi4Z1h29cBOPTI12vD7C9dFlw/YncfbiI/jX+cXb6y3unzuNE4b3Xn3qBo/vVJg3Pjy5hcv83nM38fCNp/a6Xz7g5d0rht9o+hsNy6nzuHLnBVwl6hNk7NixQ6W8hQ9PRz4bZMqUSbVmkChv6EUEkCDoFGsRQITpB3379lWz7szH5k3pwYMH2lpBCF4ePnyIsWPHqnogXkNsnFqzZk0VIRIEwXp4/PgxunfvDhcXF3Uts/9Xu3btcOnSJTE7CeWIABIEnWJNAoiwAJXpCZEiRVIiqGXLlmogKgghAd0KKXjMo0HsYcW6NdavCYJg2bDPXJkyZdTzhNdvxowZVRuG169fa1sIoRkRQIKgU6xNAJEnT56gU6dOiBAhgkpVYLNKzuAJQkhx//59jBkzBqlSpVLXE6NBderUUaYJgiBYHmxi2rlzZ6RIkUJds3yeMOpz5oyp6EsQRAAJgm6xRgFE7t27h1atWqlUBUdHR5W+8OzZM22tIAQ/X79+xYEDB1QaHK8pLhREFOgHD/pnmiwIQnDDZwdNdQoUKOBznWbOnBlz5sxRg11BMEcEkCDoFGsVQIQzeE2bNlWmCFGiREG/fv2kR4MQ4nCARXtsk4UuF6bVsH7t7Nmz2laCIAQnnCCbOXMmSpcurZ4ZvC5jxoyJjh074tixY9pWguAbEUCCoFOsWQCRy5cvK0c4NqqLESOGcop79eqVtlYQQo4TJ06gZ8+eSJs2rY8QypMnD0aMGIGbN29qWwmCEJS8efMGy5YtUz3k6CLK65AtFRo1aoQ1a9bAzc1N21IQvkcEkCDoFGsXQISz6qa0ozhx4qj0BkllECwBPjD37duHtm3bIkmSJD5CqGTJkpgyZYpYuQtCEEHX0I0bN6oJstixY6vrjjWjFEKLFy8WkwPhpxABJAg6RQ8CiHC2vVKlSupviR8/PsaPHy9duwWLgc182Vm+SZMmPoMxNvUtX768Mk84efKktqUgCH8CJxUocBjhSZQokbrWwoQJgxIlSqiGpo8ePdK2FIT/RgSQIOgUvQggcvjwYWVnyr+Hs+1Tp06Fq6urtlYQQp53795h6dKlKmJJpzieq1xy5cqlath27twpKTmC8BvQvY0ChxNhbJNgEj758uVT/bquX7+ubSkIP48IIEHQKXoSQGxYt2fPHhQrVkz9TSlTpsSsWbPw4cMHbQtBsAxYpzZ37lw0aNAAyZMn9xFCFO7t27fHunXrZKZaEP4D3tuZYjp06FDkzZvX5zri5ALTTJkOff78eW1rQfh1RAAJgk7RkwAitCJmYzuTxWn69OmxcOFCaUopWCSfPn1SdQq0dM+SJYvPAI49SerVq6caMtLo4/Pnz9o7BEFg3y322OrSpQuSJk3qc924uLioCBAnvh48eKBtLQi/jwggQdApehNAhDcpDipz5syp/rasWbNixYoVarApCJYK64DoGseZbJNbFZeCBQti0KBB2L17N+7cuaMinYIQ2mCLgyNHjqhnVvXq1X1dIxkyZEDDhg1V5FRSSIXARASQIOgUPQog4unpqSxOTbPqrLFYu3atzKQLFs/Dhw8xbtw4Vc+WIEECn0Gevb29Mk2YOHEijh49iidPnmjvEAR9wpo5prCxbu6ff/5BvHjxfK6HaNGiqUmubt264fjx49o7BCFwEQEkCDpFrwKIUASx/0O6dOnU35g/f36VNmF+ExMES8XDw0NFLjnwy5Qpk2raaBr8xYoVyydF7sKFC2LpK+gGOiayTxZdEylu0qRJ43PeR4wYEalTp0aFChWUjTwjooIQlIgAEgSdomcBRDiIXLBggTJE4N9ZpEgR7Nq1S9UKCYK1wHoGXqt0j+O5HDlyZJ9BIWsg2rRpgw0bNuDKlSsqVUjOb8GaYMuC27dvY//+/Rg2bJgvQwPaxdPOmvdupoLS7U0QggsRQIKgU/QugAhF0OzZs30aUZYqVQoHDx6Et7e3toUgWA+8TkePHq36miRMmFA1dzQNFjlQpLPcnDlzVIPgx48fS02EYHEwOk+hfuPGDVW307lzZ/UMMp3HXNgvK1u2bOjYsaNy9xQjGyEkEAEkCDolNAggQgME9gVydnZWfy9rKdg8VRCsFZohsCi8V69eKkWOA0a6x5kGkIwS0RKeFsGHDh1StUWsqRDhL4QETG179uyZcjXkc6dOnTpKwJvOVzs7O2VfnSxZMiXiV69erQafghCSiAASBJ0SWgQQ4Qzi+PHjESNGDPU3V6tWDefOndPWCoJ1QiHEwSVFzuDBg5XoodBnM0hbW1ufASYf4EyV48Dy1q1bqhcRo0PiKicEBZx0evPmjepntXfvXgwcOBCFChWCg4ODzznJ6CVFDyM9bdu2VcY1rGeTFE7BUhABJAg6JTQJIEIRxOZ4JgvV2rVr4+rVq9paQbBu+IDmOc6u90yD40w6Z9QphlhLYRp40kGraNGiqsh81apVansOVimkZPAp/CqMKlLwMMJIwcM6y+HDh6Nq1aqqRs0kxPlfih5OQjEVecSIEcrR0NXVVaXFCYKlIQJIEHRKaBNAhLPeQ4YMUY5CYcKEUYNEzogLgp6gkKGgefr0KbZv344ePXqo65znPQeipoWpR1GjRlWWwq1bt8bcuXOV9TAHsxRT5g99QSCMGrK28v3797h37x7Wr1+Pvn37KlETP358FeUxP8f4/xTiHEguWrRI3W8/fPggokeweEQACYJOCY0CiPDB3a9fP5/BYJMmTaRzuKBrKGaYXsQajJkzZ6J58+bInDmzj4kCJwMYJWIdESNEbC7ZqFEjTJ48WZmGMGWOn8FeWhIlCj1Q7FCoUPAwUsPnxOLFi5U5Qb58+RAnThwVYWSfqrBhw/pEemg6U6NGDRXlYQrcy5cvleiRc0ewJkQACYJOCa0CiHAwyFlxDvg4C96iRQtpLimECjig5WCWRenXrl1TA9pOnTqpXlnmHfY5kOUkAes02ISS9sRNmzbFmDFjsHnzZtWHhalPHNSKuYL1w2NIwcOBHs8NCl+KZYodNuZlFIc9qGiwQcFjOk94/0ybNi0aN26s+vMwrY0OhEyr5PkhCNaKCCBB0CmhWQARpgfx4c4UDS7t2rVTD35BCE1QwFAQcQKAgojF6H369EHp0qWVu5xpoMuFosjR0VENhBMnToysWbOqWjoWubPxMI1FGGEVrAMee6akUdCOHTtWNd4tWLCgEjtx48ZFlChRfIkdLowa5siRwydl8tSpUyqCzsEiI0WCoBdEAAmCTgntAojwwc0HOWcxGQ3q0qWL6lEhCKEZihjO4lMQ7du3T90rGCWiKGJhu/mAmAsjRRRFTH1Kly6dMllgRICppuzDxTokNmoVcRT8UOSwVocRnaVLl6q0NN7z2A6AAjZ58uTKOZCRHVMam2mhYQEjg82aNVMCacuWLbhw4YL6PEZ4JKVN0DMigARBp4gAMnLz5k31gGcNBPPZe/furXLWBUEwwoEuO/aznxCFDNOcli9fjv79+6NWrVqqnsjc4ti0mFy/2PMlVapUajtadbO+iIXzvAdt27ZN3X8YfTUfZAg/D8UIG4vu379fGQ3Qhc0kchitYYqai4uLiugxgseaL7/HilGfsmXLqsakPC4UvhQ7d+/eVTVgks4mhDZEAAmCThEB9A0O6jgo4wwo0z4GDRqk6oQEQQgYFrYzdY528seOHcOGDRtUvy1Gi6pXr67c5UwNiP0uTK2iOGIqHQfo7AfDOiO6idWtWxft27dX1+G0adOwYsUK7N69WznU0Wo5NAzGWY/DiRjuW/Z5WrdunYqmjRw5El27dlUDswoVKqiUNYocGldQxNCYgBE5//Y5723p06dXNT2sexw2bJiqAePnU+zcv39fCV3pDyUIIoAEQbeIAPINB1fsUM59wsJvporwBigIws/DgQIjEowWcfB+4sQJJV5WrlypxBEjDBRHuXPnRoIECXwN0P0uFEm06aYJA1O1OMjPlSsXChcurAbxNWvWVAMU1u/17NlTWdzzO3hvW7JkibJo5ndTnF26dEkZNzDSxIgGB/pMyaO7HY0h/tTIgX83hRmt9llTxXsHBQzTbLkfWCvDqArrbRg9Y/0MXfYYrWHNFesRWYND8Udhw0gZBSGjZqlTp1ZRNArGgMSNaeG9K2PGjCqa07JlSyVyFi5cqCJtR44cUUKH+4G/TaI6ghAwIoAEQaeIAPoeDlKqVaum9guLgMeNG6d6ogiC8OdQZFB4UBTQkpupdKwPYoRnxowZarBOgdSwYUOUK1dORZAofGjNbT7ID2gxpbFye16/jC6lTJlSRT0YYcqTJ4+KmFBAsU6pePHiKFmypKptomBgyhjFR6VKlVClShUl1GjyUL9+fdUzjOKEoov3CK7ndtyev5WCjNGrEiVKKPFSpEgRFCpUSNlFM0JDUUIhw1Q0CrqYMWN+56j2o4XCJ1GiRMiSJYv63fxdbdq0wYABAzBp0iQl+DZt2oQDBw4oMwqTyKF1uSAIv44IIEHQKSKAvocDNM6SckDDfcMBB1NwpHhbEIIe1hpxwoEOjXQnY1SW1+POnTtVChjrW6ZOnYrBgwerNDvW7jFqW7FiRSU6GB2iCYOp3oViyFxEWMLCWilGcnhvoSCiMKNQogBj7xyaRzCixRopRrPmz5+PVatWYevWrUrcnD59WplTMMLGAZo4rwlC0CACSBB0iggg/2H+O1NVOJPL/cMZaObes95BEATLgNcjU9noVsdoB9PMGPlguhvNAHbs2IGNGzcq8cA6lzlz5ijxxKjuqFGjVLSJKXOMoFBs9OrVC926dVNOkB06dEDbtm1VChnT0jgIojCh4GLtDCMvrFGiCON7mH7HNDZ+FuuW+Nms1WHPJKa58V7LNDRGupiWx3Q0NgiluKOgYTSMgo+ihi6UTKEzH3AJghD8iAASBJ0iAihgOBPNWWfOzHIfpUmTRg1gWC8gCIL+4MQHa4EYUeF1ToHFaBTrmSi0mE7GARFfY0TY3d1d1dDwPWIaIAj6QwSQIOgUEUA/hjc8FiyzWJv7iTn8LF6WwmFBEARB0DcigARBp4gA+m9YQLx27VrVMJD7isXM/H/JuxcEQRAE/SICSBB0igign4Nih5EfFldzf9HViZEhpr4IgiAIgqA/RAAJgk4RAfTzMO2NNUC01OU+o8Uta4RYKyQIgiAIgr4QASQIOkUE0K/Bome6wSVJkkTtN/b8oNuUFEALgiAIgr4QASQIOkUE0K/DLu/sC8RGhtx3bJzIZo6CIAiCIOgHEUCCoFNEAP0etMdlg0J2cuf+Y0d49vIQBEEQBEEfiAASBJ0iAuj3YR8QNlOMFi2a2oc1a9aUfSgIgiAIOkEEkCDoFBFAfwa7tQ8dOhSRI0dW+7F+/fq4ceOGtlYQBEEQBGtFBJAg6BQRQH8Ou8L3798fkSJFUvuSN8u7d+9qawVBEARBsEZEAAmCThEBFDi8ffsWPXr0QPjw4dX+bNmyJZ48eaKtFQRBEATB2hABJAg6RQRQ4PHixQt06tQJdnZ2ap+2a9cOr1690tYKgiAIgmBNiAASBJ0iAihwefz4Mdq0aQNbW1uECRMGnTt3xuvXr7W1giAIgiBYCyKABEGniAAKfFj/07x5c4QNGxb29vbo1auXuokKgiAIgmA9iAASBJ0iAihouH79Oho3bqxEkKOjIwYMGIA3b95oawVBEARBsHREAAmCThEBFHRwf9arV0+JIPYKGj58uHKMEwRBEATB8hEBJAg6RQRQ0HLq1ClUq1ZN7eM4ceJg3LhxqoGqIAiCIAiWjQggQdApIoCCFm9vbxw5cgQVK1ZU+zlhwoSYMmWKiCBBEARBsHBEAAmCThEBFPR4eXlh//79KF26tNrXSZMmxcyZM+Hm5qZtIQiCIAiCpSECSBB0igig4OHr16/YuXMnihQpovZ36tSpMX/+fLi7u2tbCIIgCIJgSYgAEgSdIgIo+PD09MSWLVuQL18+tc/Tp0+PpUuX4tOnT9oWgiAIgiBYCiKABEGniAAKXj5//oy1a9ciR44car9nzZoVq1atUq8LgiAIgmA5iAASBJ0iAij4YcRn+fLlyJQpk9r3uXPnxqZNm1SESBAEQRAEy0AEkCDoFBFAIcPHjx+xaNEidVPl/i9YsCB27NihaoUEQRAEQQh5RAAJgk4RARRy0AVu7ty5SJYsmToGxYsXx759+5R1tiAIgiAIIYsIIEHQKSKAQpYPHz5g+vTpqj8Qj0PZsmVV3yBBEARBEEIWEUCCoFNEAIU8rq6umDRpEuLGjauOReXKlXHq1CltrSAIgiAIIYEIIEHQKSKALIN3795h9OjRiBkzpjoeNWvWxIULF7S1giAIgiAENyKABEGniACyHN6+fYuhQ4ciWrRo6pjUr18fV69e1dYKgiAIghCciAASBJ0iAsiy4M22b9++iBw5MmxtbdG0aVPcuXNHWysIgiAIQnAhAkgQdIoIIMvj1atX6N69OxwdHREuXDi0bNkSjx490tYKgiAIghAciAASBJ0iAsgyefnyJTp16oSIESMqEdS+fXs8f/5cWyuEVmiR/vnzZ2WhzpRJnidPnz7FgwcPcPv2bVy7dk1dx2fOnMGJEydw+PBh7N+/H3v37sWePXuwa9cu1W9qy5Yt2LBhA9auXYuVK1di6dKlWLhwobJl5z2BzoTTpk1T/+ZrCxYswJIlS7BixQqsWbNGvXfz5s3Yvn27+szdu3er7+B3HTp0CMePH1e/gb+FaZy3bt3C/fv38eTJE/Wb+dv5N3h4eMDLy0v76wRBECwLEUCCoFNEAFkuHNi2adMGESJEgJ2dHTp37ow3b95oawU9QVHz/v17Ff1jtI9i5sqVKzh79iyOHj2qRAtFCq/XcePGYeDAgejatStatGiBevXqoVKlSihatChy5syJNGnSKFt11pJRPPP6Ds4lbNiwiBIlCuLHj4/UqVMjW7ZsKFy4MCpUqIA6deqgefPm6lweMGAAxowZgxkzZmDx4sXYtm2b+lspnC5fvqz2AfcFBROdEimWBEEQghMRQIKgU0QAWTac2f/nn3/g4OAAe3t79OrVSznGCdYDozbu7u54/fq1GtDfvHkTly5dwsmTJ7Fz504lbCZOnIjevXsrcUAb9Lx58yJlypSIGjXqdwLDv4Wig+cHxTLrxyh+YsWKBWdnZyRIkACJEiVC4sSJkSRJEiRNmlQ1302ePDlSpEiBVKlSKaHCB3zatGmRLl06pE+fXi38N1+jqOI23Ja/i+/lZ/CzXFxc1GfzOyi84sWLh9ixYyN69OhwcnJSUUz+Nv5G/36734Xv4Wfnzp1biSbWwfXs2VMJv0WLFqmoE6NbvF/duHEDDx8+VMKRESWJJgmCEJiIABIEnSICyPJh+lCjRo18Brj9+/dXM+KC5fD161clcviwZOTu7t27Kh2NKWGMbtDdj0K2VKlS6kHKQb7fgb9poflF+PDhlZChiGB/KAoLig2KDwqSHDlyoFixYirywwgQI0GMCDEyRKHA65opa5s2bVLpaQcOHFANdikczFPTKCBoskGhzd/NaAujjDy/GJHiv/nas2fPlNDg30UBx/fyMxihopBj5ObgwYMqzY6pccuWLcOsWbPUbxk8eDC6deuGVq1aoUGDBkrgFS9eHLly5VICi6KKgocCin9rjBgx1P7hPuC+8G8fcaGwooDjZ1Ek8XuYqrdv3z71+/h3MeWOwpPiiMdIEAThVxABJAg6RQSQdcCUIA50mdLE9KJhw4bhw4cP2lohOPn06ZOqYaFg4CCbA39GJoYMGaJETsmSJVW0hGLV76CdqYwcuPMYcqAfJ04cFaHhQN484tGjRw9fEQ8KDYoUChMO5Lkw2mFaGGXiYqmYfp/5bzb9HRRajx8/xrlz51Q9EYXbhAkTVESM+5MizxQR477iPuO+4z7kvuQ+9bufOVnAfUqR2KRJEwwaNMhHHHFCgceO4u7jx48Wvd8EQQhZRAAJgk4RAWQ9nD9/HjVq1FCpRExvYv2EiKCgg4NzDpApdmhAwWjJ+vXrMWLECBXJYG0LB+HmA28eGw7IGb2IFCmSSmHjsWLUpkyZMsrRj+9nVIiDfR5TDsYZPWKNC2uB+JA1CZzQOjg3CSTuC+4T7hseixcvXqj7FCNNjDKxeTDr5CgcM2TIoFLvuM/poGiqnfObesd1mTJlQt26dVXUaPXq1areiseYx5rHwnygIwhC6EUEkCDoFBFA1gXdtTgjHiZMGFVrMWnSJDVgE/4MDrgZ2WGEhSlfTBOjKxprrpiyxegDB9RMyeKAmv/l4Jq1WRQ6TFVjzUy5cuXQunVrjBo1CsuXL1epYUzDolA1iRw+RPl9wp9Bcch9aRJH3McUSEzJW7VqlZogaNu2LSpWrIiMGTOqY8RjxWPGY8doqulY8jXWMpUvX16lEs6ZMwfHjh1T4pQ1d/x8OWaCEPoQASQIOkUEkHXBQRhTrsqWLauOG4vaaVksIujX4H7kwJm1Iaxp4YCZdSqsJ6F7GaME/g2UmXJFMUQRyjQ1iiTW1VDkMKWK6VwcLDNqIQPmkIPiyNPTUx0LUy0T65hOnz6tTCf69OmDatWqKXMHHmu/wpYpdBRLrEkqVKgQOnbsqKJ2rC2i0OK5wwiVIAj6RgSQIOgUEUDWBwdeTAFifQOPHQfk7NXCwd6vYJoxDw2YogWM8ly4cAHz5s1TqVOsu2HaFAfBHPQyssZ9yoWF+Exzq1+/vqq5Wrdu3XepUjIItj4oTHmtMLLD8//69evKuIFROw50eE6Yu+/xnKAooiBiOmPWrFmVW9/MmTNVpJCfRbElglcQ9IcIIEHQKSKArBPeiLdu3YqCBQuq48f0KxbMc4D/szCdjpEPvULRw8Ep09CmTJmiHmJZsmRRRfQUNxzUmga5FD+ZM2dWRfdTp05VAlOK5UMXJnMLRopobkHnPIocCmW67jH6ZzpfGBWkSx/PJTrZ0aBk/Pjx6j2MOMm5Igj6QASQIOgUEUDWC2edGZXgjDWPIWemKWiYfvVfsE6CtREsAtcbdEujGGzWrJkqdmdKG80KzIvhGfHJly8fOnTooNLY6LJ2//599bD7mf0nhA54jVEU0QKchhU0XmCNUJEiRVSvJdP5xCgRBRHr8jhQatiwoaojYnqliCFBsF5EAAmCThEBZN2wFmHFihUqssHjyN4qGzZsUAO3H0GrYc5is7bB2qFgYcE6U5hYm0MLaqYqmaezMc2NPXhorUyRyMEsBQ8Ht5K6JPwKTJ2jyOb9khMQAwYMUOYJFD+m840LrbqZnkpjDFqksyfUr0RoBUEIeUQACYJOEQFk/XBQxYgH0+B4LJkWx/Q485u1Oax7YKoXt6U1M13PrA12/l+7di06d+6MwoULI3ny5GoG3jT4ZLSHxessdqcgNAkeaSArBDaspWOEiLVlvO7Yc4hmGuZ9oJg+x0a2jDoypY4Ogex9JAiCZSMCSBB0igggfcCCfKbcsKs+jycNEljH4l+RPqMlTJfjdjFjxlR1DtYAzQco9Bo1aqQiXQkTJvQV5WGqW+3atVW9D53ymH7EegxBCE7oLHj79m0cOXIEM2bMUD2jkiVL5nOecmG0iPfcOnXqYPbs2Xj06JH2bkEQLAkRQIKgU0QA6QfORNMSm/1MeExplc2ibL81CKxjMC/o5oy0pcIUtU2bNqF9+/bInz8/nJ2dfX43Fxans46HwojCjgNJqbkQLAlapJ86dUpFfWi1ziiQ+TnMdM08efKgRYsWqikro5uCIFgGIoAEQaeIANIXTPGaOHEiEiRIoNJoPQ56AAAy4klEQVTAaHRAtzcTTHfjQMt8AMbaGEsadLGmh8Jt4MCBKkWPqUOm38qID6NbQ4cO9Ulto0ubIFgDjEhevnxZ2W6PHj1a1QeZuxEmSpQIJUqUUA14d+zYoSY1BEEIOUQACYJOEQGkPxg1oSEAC/8pgmrUqKFczgibdpoME0wL0+b27dun1ock586dw+TJk1GrVi1kyJDB12/k+cnZcxoYsBePGBcIeoBpmuvXr0ffvn2/iwxxwMVmrWPGjPE1iSEIQvAhAkgQdIoIIH3Cmzadp6JHj67c3tinhD1tWO9jbhbAhQ0e+/Xrp70zeKGBw5YtW9CpUyeVBhQ+fHif30U3N1pZs8krbbvpeCcIeoSCnhMAtGRnSqr5BAAnMXh/5rVA4w+60AmCEDyIABIEnSICSL8wrY0WvRQ8TLNp1aoVSpcu7TOwMl/Y14Q3+uCCtTq04maBeIoUKXx+B40MatasiQkTJqioFKNZghCaoInC4cOHVUPe+vXr+0oBZYocjRPmzZunmrUKghC0iAASBJ0iAkjfsCaI6XA0D7C3t1fRHtNgynyhjTRd44Ia1uxMmzYNVapUUdEp0/fnzJlTNZjcuHGjilQJgmCcxNi2bZuy1qa9vel6YSNf1g+x3o/RUUEQggYRQIKgU0QA6Rv2/Bk5ciQSJ07sM3jyb4kaNaqqNQgq2ARyxIgRqjeP6TvpRFeyZElVDM7aJEEQAoaTBxQ8bLoaLVo0n+sod+7cGDx4MHbu3KkMRARBCDxEAAmCThEBpC+YFkM76Pnz56vID/vicLbYNFgKaKG7GlNrAptDhw6pNLy0adP6fBfTeKpXr67qkdgvRRCEn4dNV3l983o17y/EVDk2Bt69e7dYwQtCICECSBB0iggg64Y2uTxutMzl7DBdo7Jly+YzKPqVhe5wgWWHzYLusWPHIn369D6fz383bNhQObmJdbUg/Bm89pky2rRpU1/OjhRFw4cPl6iqIAQCIoAEQaeIALJubty4oeyh06RJ4zMA+t2FttmzZs3SPvn34O9h93um5Zg+l7+NDlb+NWUVBOHPodhh9Cdz5sw+113GjBnVpMilS5e0rQRB+FVEAAmCThEBZN08f/5cRVR69+6tGprSzMA0APrVhWlwjRo10j7512BazqJFi9RvMH2ei4uLst+2hB5DghAaoCECB2vs7WW6DtlfaPbs2ZJuKgi/gQggQdApIoD0A3vq0DGqYsWKKurCiI5pEPSzS7FixdTn/CzsbM9GjrSuNn0GHeeqVq2KTZs2wdPTU9tSEITggo6ObCjMejvTdVmmTBksX75c0k8F4RcQASQIOkUEkP74+PGjSolhKhqtcjkbHCVKFJ+B0I+WhAkTYteuXdon/RgaLrCBqslam85UjAAxEsT6BEEQQg46wq1bt05NiJgmQ9homE2Hr1+/rpqvCoLwY0QACYJOEQGkbxjNOXPmjLKgLly4sLLDpv20SfD4XSJEiICOHTtq7/Yf9hZas2YNChQooN4TLlw45MmTB1OmTFEPC0EQLAder3SNY7Nj9gLjNZspUyY1USHRIEH4MSKABEGniAAKPXBGmPU4vXr1UqlujPZwRtgkfkwLGy4yiuQXGhg8fvxY1RuZRFSMGDHQsmVLPHjwQNtKEARLhA2GGf2JEyeOunYdHBzQvn173Lp1y9fAThCEb4gAEgSdIgIo9EEhw8jQ4cOH0bp1a6ROnRrRo0dH2LBh1bnAARId28xxc3NT6TT58+dX25iiPsuWLfNXLAmCYHlwALd161YULVoUdnZ26lqmW9zixYtVPZ8gCL4RASQIOkUEUOiGtTpXr15VTnJsThozZkzEjRtXNVE1wQdAz549fWp92FiVwonOb2JrLQjWx5MnT9C1a1c4OTmpa5qpr+3atQu0PmCCoBdEAAmCThEBJBAKGc4A00aXDUwHDx6sXmfaTIMGDWBra6vOk1y5cmHFihViciAIVo6Hh4dyjWQ6rCn6S8ME6RskCN8QASQIOkUEkOAX3uQpho4fP44SJUqo84M9gky1PuIeJQj6gdEgNlM2iaBs2bJh+/bt+Pr1q7aFIIReRAAJgk4RAST4hdGgjRs3ql5CPDfoHDVgwABJjxEEnfLu3TsV+WV6K695psHOmTNHRYkEITQjAkgQdIoIIMEcd3d3TJo0Sbm78bxg/5Dp06dLypsg6Bwao9DUJGXKlOraZ++wYcOGiTmCEKoRASQIOkUEkGCCs8BsbBo1alR1TtAdav369co+WxAE/cO0t0OHDvn0+IocObKyzn79+rW2hSCELkQACYJOEQEkENpc0/nNlAJTunRp1UBVEITQx82bN1GjRg11L6BDXN++fdUEiSCENkQACYJOEQEkeHp6qjQ3U9obnaDu3bunrRUEITTy6NEj1KtXT90TmA43evRolSIrCKEJEUCCoFNEAAlLliyBs7OzOg9oiXv79m1tjSAIoRmKoEqVKql7Q6xYsTBjxgxJiRVCFSKABEGniAAK3dDuNkmSJOocyJo1K06dOqWtEQRBAG7duoWiRYuqe0T8+PHVhIkghBZEAAmCThEBFHo5ffq0Ej08/smTJ1dNEQVBEPzCiRH2B+K9ImnSpHKvEEINIoAEQaeIAAqdsPlhgwYN1LGPEycOFi1apK0RBEH4nq1btyJFihTqnlGyZEmpExRCBSKABEGniAAKffAmPnnyZGVxy+LmgQMH+rqxC4Ig+AdrgGLGjAk7OzvVI0hMEQS9IwJIEHSKCKDQx9mzZ5EuXTp13Gl1+/LlS22NIAhCwLApKgeDYcKEgYuLC/bs2aOtEQR9IgJIEHSKCKDQxZs3b9ChQwd1zBMmTIjdu3drawRBEP4b8wmU+vXr4/nz59oaQdAfIoAEQaeIAApdzJs3T1les7lh9+7dVQ8gQRCEX2HEiBFwcnJC1KhRMWnSJEmhFXSLCCBB0CkigEIPDx8+VMXLPN5lypRR9rb65CvePz+HTdOmYdrPLDPmYvayDdh/8RkscxjnBY9n53HtiRe8vLWXgp0veHLlNl68c8ev/ATPf+/g5Bru5wVYses2Pmqv6xcvvL+yEYtn82/egLNPXS30nPozHj9+jJo1a6p7Sc6cOXHp0iVtjSDoCxFAgqBTRACFHhYvXowYMWKoWVtGgvTLR9w5OBC5Dec1z+2fW6IgddG/0X/6blx54aF9Tsjj8eY2js0ZiH5tq2HAji/wDHYB5I1PT85gq+E3NKw6FFsvPzMM8X+eD+eWoXNq7t+ISFRhEZ5qr+sW78+4OyEHoqlzKhv67bsFvdoEbNiwQUWTHRwclKmKIOgREUCCoFNEAIUOPn36hHbt2qljXbx4cZ1b2H7CvaOjUJyD0HAREStzaVSuUhVVq/q3VEGlUvmRPk5YtW9sbJKjRP/NuPUuxEItZnzF4+PjUY6/yykZ2uzyMrwSzHh74tGiakgSzvAborbAikv/ait+DreLa9A3J/drfKSvswK6rxYxCKD7M4rBxYl/cxEMP3RHt1GvV69e+USB6tatqwwSBEFviAASBJ0iAih0wKanPMZ0b+rVq5f2ql4xCqBiFA5RXFBi/mvt9QDweIqjczugVIrICM/3xCuP/uvvIuTjQO64fXAY8ht+U7i4f6F9SAggLw/cnVIQCSMb9otzW6wWAfRjQpEAImPHjoW9vb3qD7Rz507tVUHQDyKABEGniAAKHYwfP14ZHyRKlEg1NNQ3ZgLIKTGKzLgPj/8M6Hji4oQayB7F1nA9REHR7itw8bO2KgR5eW48ihr+DjvntOh2VHsxmHk9rwRcohj2Zfwu2Hr/1ypaRADpWwAdO3YMGTNmVM+QQYMGwdvbEiKnghB4iAASBJ0iAkj/uLm5oVq1auo4M1VF/7a1fgTQ9Hv49DOFK/fmo0kBZ7WfkjWYgK0B7SbvD3h26yLOnjiKo0e5HMPJ8zfwyPW/Bn/ecHt+F1fOnMAx9T7Dcvwkzl65hxd+CkW83N/g0eV9WD2jJTIbfk+4GElQY+IRHD56AicvP4XbF7/f5YG3D67j4qnj3z776HGcOncVD177p+S+wv3f+7hg2O705ftgxp/nixs4d1x736UbuPvYsP7EYaztmhVxIxn2ZYzqGLZ4u/rsiw/ewu0nwlGBKoDcXuDupdM4ecz0953A2euP8OY7TfYFHm/v4szhozh24jTuu9KaICDc8fT6RcM+O4xTN5/hzXemiN5wf3EbF89+O2bHTpzD9QdvDJLZH0KZAGIj1BYtWqhrpnTp0nj06JG2RhD0gQggQdApIoD0DwdtmTNnVulvEyZM0F7VM78pgN6tR5eSLup6SGoQQNu+G6174dOLy9i1oD/qZI1tTJczLdHSoXzPhdh38bn/Re+fn+Pe8cUYWj8vErGexuy94V0K4+9hS3Ho7nN80HSN24XV6J7R93amJWzG4ThlNlL3MAzQz24ej04lUyOm322jpkTptpOw5uwzvPU1Yn+PC2s6Ia1hmziZ62LW4f2YXC8tIpjelygL6g9sg+R+fqtpSd1xPU4bhMV/ETgCyA0vbh/A4kENUSCeqVbLuERIXR4dpu/BtUeuZiLHDU8ODUUebmMXDRUWGI5JQMf//RZ0LZhIfVba1vNx7J32ugFv95e4u2cRhjXMiTgO377TxiYy/irREdN3X8RDv2UvoUwAkTlz5sDOzg5JkybF5s2btVcFQR+IABIEnSICSP/QrSlx4sSqb8fKlSu1V/XM7wkgz4P9USltRMP1EBYZ/5mGg2+1FQpPuN/fhrH1jA0gbeyjIX6S5Kr2IUVyFySMGUm9bpe4Fkbtf2r4BeZ8xJ2lzZA3URjYhI2EaPFcjO9T702AmBGZdmeDuLmbY/opNzWQ/3hzNybXSo4kCWIqURImnD2ixud7MiJ7rXm44mp8EHu/O495f2dC7LCG3xQhKpwTa7+JS+K4cNIEjH3W+hi5xzxqYRBAa7sgk2FdrLh/oWRpw9/lEAsJkxnelywZ0qbPis5zxqJSrmxIFjsi7Pj54fj5ydRnVx27H1fdtI/6AX8ugNzw8uA41Msaw7h/neIiCX8j/76kCRErUjjD645IXmowNj/6Jj0/Pj6CUbkolhzgWG0pHgaggNy2dEThJIbfFzYz2s49DZP+8TKIn8PjGiIvI182dnCK64Lk2n5NmiAWnGwNr0eIh+KD9+Cu+cEOhQJox44dcHFxQZQoUTB//nztVUHQByKABEGniADSP5yhpfhJZhjY7tq1S3tVz5ibICRBsTnPtNcDwgvu/17Fwia5kYTvCZcO9ScfwhNtLfn65gjmtcqKMFwfKRUKdlyA0w/d4OHpCU/3F7iybhiqpHREWMN6h5RtsOr2h28RiRdr0DZLPMO68Ihdqh8WHHtufB+XD5ewdlAV/GXPAbMzCjZfhQeMAnl74esXV1zfNwQFDJ9pFzc12m7zwCe+54uXsReP9wdcHVMYSTjYtouFfJ3m4OBdN+PnGpZP9w9iStMCiO9gEF42UZCv+Ryc90lbe4+L63ogl+Gz+TfZhk+C3J3W4cp7T3x+/w5PL93Ciy9f8cXTDTcnF0Yifkfc1lh+7rn67C9ftd/wH/ypAPK4OhNN8jIt0RbhE5dA62kH8NDwG9XfaDhmm0c0QmYnB8P6uEhfYyYum5wrPj3DmfGF4GAQs+GcamDRA3d/DCRcsatzPiQ3/P3h8vTC4guagPL6hIvzWqNEdMPvDmuPREXbYPLB53D7bPzefy9vwpS6fyGqnWF91MSoPuueT+QuNAqgkydPIkeOHIa/1wZjxozRXhUEfSACSBB0iggg/cOu7TzGuXLlUm5w+sdMAEVOgHwjT+Lek2d49syf5cE9XD22FH0rpUQMbh82IhLUGov1t8wjBp44v6QHCqooSGoU7bEdT79ryPMJLy9MRzUOmm0ckH3gSTzRRr5eu9ohZ0K+XgrDdzwwvmjOp+OY16MM4sVJhYoGEXPcp2TnCx4eG4VCht9l55wGHfdpL2t8fbcTPZNHVsc2RsOFOPn0e0ni9WorBlVLo4RZnNJdsfS+tsJMANnYRED8rD2xw9/cPS88nlnUKLLitcf6a79mdfxHAsjrOVa0KoREht9oG6sSeq66Cg+/gZyvz3F8bmukY6QrXm78s/qtJsw+4/XlqSjtYIOw4aKi2pKncPWrgD5sQ/cCSQz7xha5e66CSf98vbkMvUvFNfxmWyQo1RGLbnqapdcZ8Xp+HitbJlTvjezSCZtfemqiNPQJoNu3b6vGyjwPe/Toob0qCPpABJAg6BQRQPqnc+fO6hhXqFABd+/e1V7VM0YBVIKD+zBhYGsfAREjRvS9RIoMpyhRES1qVESJ6oRI4R0QIVJ0ZKw/AZtuffYdLfhwDLPaZVIiIkmh1ljzSnv9O/7FkR4pEInpUWkGYO8TY26U++YWyBKfA+K0aD33CB5/8mdA/dkNb9+8xXv3T2bNTj/izqHhKGj4XrvvbLC/wvP+IrTOlwGJo6VHp4034Stjz4fnWN+tHOIZPiNMzqYYcdz04R++CaDwSZGtyx6D3PIHLw/cm1YEiTmgD24b7HtzUCd3LMN7bVG4+wpc1V7+jsc7MbE8U+GckaH+KpjifYwQzSxrDxvbcIhUewXuu/re6247OqKgS1jD+nzos/KylrbojevzW6G4o+E3Ry+GFgvvqFf949+zo1DEcKzDRoiPxuvearVfoU8AvXnzBg0bNjT8vTZo2rSpOMEJukIEkCDoFBFA+qdRo0bqGDdu3FgNVvSPmQAyLGHChkO4cL4XW22dWmKnQakW47HuxG08e6/N5JvhfW0h+pdiPUlUZK08Dqfc3eH24QM++FncXJ/hwfwqiOZg2DZsCUy8+ErV3Hjfm4k6mbUaFsdUKNRkGJYcuY2Xbw3v+egBz+9zszR+JIAMn/vFHe/+fYWXL974a/Pt/fULPnvcwtL2pRGff2f2Jhh21LcAysHX42RC1QWPtdf9EIICyG1zSxRJzvS9FPh78m48cnf7bp9/+OAG92dHsLpTGsN24ZAoe1fsNhU6ef6LW9NLIZJBQNlEroOl996b7b8P2NM5F5KGNQiYIsOw7rppYPMY63qUR0Lul0wN0H/3e3x08/udhsXw2rMr69ExsWE7eyek7ntCc5DzDHUCiIKnQ4cO6vyuXr06PDxCvoOWIAQWIoAEQaeIANI/ptnZ0CaAVAqcY3zkGXoEN+89wIMHpuUWzm8YjVrpYiKc2iYLmsw8GuDg/O3+sWiejgPasLCPEBWx4znD2dmfJV5cOEcLr/a1jU1q9Nj7yDDMNuDljhvzGiB7YpODmT0co8eGc/yESJe3FtpN3ISTD14bhJBfFfNjAeQbL3z5/Bmf3d7h9as7OHNwN5ZN6Imm5TIikVN4JfjC5GiK4cf8EUDOWVFzWQDNYkNQAF2bXAY5YvC9dogUNaZh//qzzw1LPOdYiO5oNJKIlbYWFvl8yWe4Xp2M8hEMIsfGCTWXPsIb0w5024XuuRMZ9ksYFB68FddNounrSUxqmsd4XthHglOs+P5+p7NzPMSNHQOOYfj7HBG1yQa8UiGkL6FOABGTAKpRowY+G85DQdALIoAEQaeIANI/phS48uXLh6oUOJMJQvE5/g27P+H1jVVolz0+whsESRTnbGi/8LRP+pQ5r/eMRtPUHND+3EK7cVuHtOi5+xF8KmY8XuH+8UUY0SALnMP73j5cpBjKva1Ao7HYdM9cBP2cAHK7vAmTOlRD3nTJkdQlCRInTgjnuHEQ3Ski7NUAXftdPxBANZYGkNcXggLo4rgSyBbt2+//r4X7PV6mOlhs5l7x1fUOFlYODztbG0T4f3v3Ad5k1b4BvKzWMksFlA3KElCmQhkiyNQCAqKMAvoh2g9kOLhAEBd7FQqU8TFkIxQoIkupbMqeZc8yBBkKLbSU/tve/zxP35TQFAQX9OT+Xde5xORN0iZv0nPnnPMcv4U4ZZV5iw79GNULSWiqgyErjt+Z/he/BQH/qaLTHVN7DOeWDukyeSNXJ9cNQNeuXeMUODIWAxCRoRiAzOfSRRDuWwY7Ab+HfoaaRT31+fHM3QwDVx532sfnNwlAJaRDWwzV352Mbfv2Yu/e+7d9+47gwo2Ua30SEHP5FA7v34l1S2di1EctUbNwUvlsbRm8ULHDEKxMziJ/EIASI7FzdBvUKZMXXlpFzt68Ubj8y2jRuT+mrZyKr/2qI69cnsYCUPioBqicw3bbTHXRdfRy7EvleU7ZDh49c/dmponR+GXeW8jlkRFuWdtjwekbSMRtbO75IgpL4YRaAVh57E6nRgLQKFsAkucx18vvYOiqfak+zl1tXzgOnIuE7k3LIgjWpURmYAAiMhQDkPmmTZuGbNmy6UaFLlcG+4/2AUq8irX9qqNYNumwZoJ3o4FYeuTuLmvc7inoWVOuz4dXOgbjHpPFHlIiYn//BScP7Mb2nyejV+Pn4K5hpDY6LrDvpn/rPgEoDtFhg1C3aNLUL/eKnTBg3nps3bYTO3eF4/CJCFz8Pdr2KBfxQ5+mWkktrQWgX+d1QE2pnpfeB72+O2Jd+rASEHt2Ltp6eyCTW278d9k5RN3Yga+q5bf9vwfqBazFqbsC0xHM7V5PN5R1r9UdE49Zlz8oFy+DPXLkSOtSIjMwABEZigHIfEuXLtWNUCUEcSPUVFwJwWc1CiKrHO+eH28FrMddxap/W43Ajs/a3icZUKROF4TcswpcamJwbMFX6NK6Fmr1WYQdv6Q2PSgR50L64I1C0tl/Hg0+W4+kZeS3cMoWgJL2AXoOPUIT7wSguChs6lsc2aU0d+bG6L/CeeQqSTgmfVATHvK7/dUAlK87Fh14uDVkfyUAxR8YiaaVcthu+wTqfB6Mg45B5SEkxpzFklZeyOruhjzdf8L+73ujXlF3uOVoigkbzqeofheLXWPfQXUZUctRH52nP+SUURfeCFX2GpsxY4Z1KZEZGICIDMUAZL4tW7agYsWKukZi2LBh1qUme8gAhDhcDO4Gn0JJBQyyFu+IcRsvWNfZJF5G6Ih2eMZ2XcYcZfDm4DBbfEhF4m/YOaYdmr32Bt5sOwKrfrkppQlwYkQtFPWw/Syer2Nw6MVU1/FcXjkEraXTnPlFNB6xxzrG9ntsGIhXbY+bLncJvLck8s6UulvX8f17XvCSNT5eH2PF+aQizilFbxmKd8ol7RX0p9YAJcbi5IR6SRuhevhhxu5L1hUP5q4A1DYYl63LH8jtPRjS+HnksP2MWQq2wtBQ+8hYChe2YN6nDdGwgR+69luA8JSvte13uLzE9vp5ecKtSHd81rYkini7wavJNGw65/xqxGwZiY7l5VzIjuLN++Mnh1PhjgRE7ZuBzo0a4nW//6BvSASi9XFdrwqcbLTs7u6uGy0vX77cupTIDAxARIZiADJfZGSkVmeS17l169a6AajZHjYA2cSewZzOFVBIdvd388JznaZik8NwRdTB79DnlVy269Ijc56a6DBiFY469mwjj+OnUX54UauWuSH9ywHYdDGppPbt8AA0L5zddnlmFKnZFVM3nNfL7X7fORe9Xy+m0668K3bA6AP2O47HxR2T0V6m53kWQNVB+6zLbeJvYv/QqvCWYJWpCOr1/R77HTcCSjiHTVN6oe3zuZBFngdbS1f1fQzdZl3/oAHI1qGPWtTeFhikHHUZfPZjxJ0Q9gDuBKB8KNtmLpKKbSfqQvl7Nz3IJg4XQj5FnUKZbLfPgvwVOmDgogOw6hio28dXY0Lnl1BQRsLccqJCj1BccnxyVSLiL/+ED0o9CQ+3PMjtlR7utkDW8n878Utqo0oxZ/DDF/VQXJ6brE+jYtuhmL/fMfJG4+S6sehaI78+r25uFdFz/aWkUuQuNgIkJcH9/f31eWjUqBEuXEg1LRKlWQxARIZiAHINo0ePRpYsWVCgQAEX+Jb2TwQgm5gDgWhvCwzaqfWuhg+nh9+p4oZrOLt2OFpV9Ei63rM4fHxbok3btmhray0bVkMJ7fS6IVOl9zB+82XcTh5cuIo941pb12dE3rK10axN0u3atnkLDSrkTZqi5l0GHSbuwmWHDnysrYM/5KWk23k++zKat3oXnXovwfFbcYiNWID/lrVKa2crhSoN37Tusw3e8q2OEllsl+eqgZdr+yQFs6Jv4bMV9hVMDxqAEpB4IAB1nnS3PU4GFK5SH81sj9F7zi6cTH3O3V00APnIz/8EsheojIbNm6N5s2Zodp/Wb/FRXLRXUr4dgQ3j26FyLrkPNzxRuAoatmxj/Z6t0Lh6CTwpv4NbdpTwC8S6M6nPk0uMv4pQ/5LIpQHX1vK0w5Ttv6aY/nZHzNmN+F/7Ssit9+2BAi++hubWa9am5euo8VzOpPvJ+BzajViHs/Y7crEAFBYWhhdeeEGfi2+++ca6lMgcDEBEhmIAcg27d+9G5cqV9bXu27evdampYnBiw9d4UTuv2VBp1AnEPNCwxVVsHfEGilllqt1f6IRx2x1KHiRGIWLLDAz6qDl8nko6xrG5F6mDt3oFYs6WC3eN8KiYQwj99kt0qvdM8ojMnZYH5Zp/jEHzN+BwpHW8XfQVHJzfGY0KyyiI/fjWmHNJprzF4czqCfj8raoooCMgDi19QVRt0weBP4Zj//IBeOc5ubwgGvUORVIZgyjsnt8VJeRYj2fR6Nt7T21LvBWB1f3fRnlvh/t/LRCr7jEjzdGN3fPwSRmH2z1AK95rHQ45hqvoE9gSMhwft/ZB0ZS/p1sm5PNpi66jgrHm2H2iRuL/4XpoZ5SSym+222VvPRfbLt0r/iS5EbEFIUM+RevkkR6HlqkwqrTsgeEz1+G0493YAtCp0S/CS4+rhC/WHLvH2iwzyJRaDw8PFCtWDKGhodalROZgACIyFAOQa7h16xa6deumr3XdunV1Q1Bz/R8iL+zAwoAABARNwcJ9VoniB3F5G1bNtt0uYASGBC3E6kOOE64s0aewc/lsTB0rxyW1UUHfIjg0HGfuuwdkHK4eDMWi6WOSbxcQMBpBs1YgLOI+nfeE33B4xSyM0eNHYez4VThwM2l6nYg5sx3LZ0/AaPt9jhmHyYvXY799wU30UaxfPBYBIydh0epjSMpYcbhyYiPmyvGT5mBZisp3TqKPYMPCCQi0HmPcD7sRkTKspSLuynGEfWf9XA/YgndcxLVUssmtc7sQOm8SgkbZjx2FcZMXYNXuXxxG6u7F9mzZfofvp4zT287ffQWRqS3GchKL83tWYs6UsRhl/xlHj8WU4NXYeeamdYyjeETuX4ipQXLsQmz/5fo9R5nSuqtXr6Jly5b6meLn56f7ARGZhgGIyFAMQK5j9uzZ8Pb21jZp0iTrUiKihxcSEoK8efPC09MTY8aMsS4lMgsDEJGhGIBcx9mzZ9G4cePkUaBTpx6yxC8RkY0UO7AXVqlWrRoOHjxoXUNkFgYgIkMxALmWWbNmIU+ePHjiiSd01/bY2KQdZ4iIHtTAgQORI0cOeHl5YezYsVq9j8hEDEBEhmIAci3yYd6jRw99zQsVKqSbGBIRPagdO3agZMmS+hnSsWNHFyirT66MAYjIUAxArmfPnj0oV66cvu4yjUUWMxMR/ZGoqCgNPfLZUbBgQWzatMm6hshMDEBEhmIAck2BgYHImjWrTmEZMGAAbt++b/kyInJxCQkJWuxAptBK6WuZBhcTY/IuR0QMQETGYgByTefOndMPdXntpZLTtGnTtINDRJSaJUuW6LRZ+cyQYionTpywriEyFwMQkaEYgFzX3r17tYKTvP4ynWXp0qXWNUREd2zcuBFly5bVzwpZ/7N27VrrGiKzMQARGYoByLVJR6ZUqVJ6DkgHh3P6icjRoUOHULNmTf2MkOlvwcHB1jVE5mMAIjIUAxAtXLgQTz31lJ4H0tHhnh5EJH799Vc0bdpUPxtkveDEiRPv6gQSmY4BiMhQDEAUHx+vHZvs2bPrueDr64uIiAjrWiJyRRJ+/Pz89DMhS5YsGDFiBKKjo61riVwDAxCRoRiASNy8eRNDhw7VDVLlfKhbty7CwsJYGIHIBR0+fBgtWrTQzwJ3d3f069cP165ds64lch0MQESGYgAiO+ngSEfH09NTzwlZG7Ro0SKWyCZyETIaHBoaCh8fH/0MkHLXH3/8Ma5cuWIdQeRaGICIDMUARI5u3LiBCRMm4Omnn9bzwtvbG0FBQZz6QmS42NhYzJw5UytCyntfRoOHDBmC69evW0cQuR4GICJDMQBRSnFxcVoSu0KFCnpuyPz/L774glNgiAwVFRWFYcOGJa8DLFq0qIYhbnRKro4BiMhQDECUmsTEROzbtw+NGjXS80Omwvj7++P06dPWEURkApne9umnnyJz5sz6Xq9evTrWrFmj0+GIXB0DEJGhGIDofqQa3DvvvKPnSMaMGVG5cmXMmDGD3wwTpXGytm/x4sWoXbu2fsEh7/E333wTx48ft44gIgYgIkMxANEfuXjxIvr27ZvcScqVKxe6dOnC0SCiNOry5cs66mNf65c+fXp89NFHOH/+vHUEEQkGICJDMQDRg5CF0EuWLEG9evX0fMmUKZNWipo+fbouniaix5904KSyo5S5t5e8r1KlCmbPnq0dPSK6GwMQkaEYgOhhnDhxAp9//nly50m+Qe7cuTNOnjxpHUFEjyPZ2FRKWturvGXIkAGffPKJ7vlDRKljACIyFAMQPazIyEj9FrlBgwZ67sj0GRkNkp3if//9d+soInocyPt14sSJOuojI7fynpVCB1LljaM+RPfHAERkKAYg+rOOHj2q5bGzZs2q51C2bNng6+uLyZMna6eLiB4d2btr7ty5aNGiha7bk/eou7s7evbsifDwcOsoIrofBiAiQzEA0V8hG6eGhISgffv2SJcunZ5LuXPnxttvv40FCxawWhzRv0w6acuXL9f3ZIECBfQ9KU2C0Jw5c7ifF9FDYAAiMhQDEP0dpHrU1KlT0aRJk+QOV6FChfDee+9h1apV3FOE6F+wYcMGrdBYokSJ5PehFC4ZP3481+kR/QkMQESGYgCiv5MUSQgMDNS9RewdsFKlSqFbt25YvXo1bt26ZR1JRH8H+XJBgo+Uta5QoULy+06quw0fPhwHDhywjiSih8UARGQoBiD6J+zbtw+DBg3S88reIZM/IP7+/jo1TipSEdGfd/XqVS1N37VrV5QvXz75fVamTBl89dVX2LZtm3UkEf1ZDEBEhmIAon9SWFiYls2uVKlScgdNFmS3bt1ap8wdPHjQOpKIHsTx48cxa9YsXeOTP3/+5PdV2bJltcDBzz//bB1JRH8VAxCRoRiA6N+wadMm9O/fH6+++mryHkLS6tevjyFDhmDz5s24ffu2dTQRpbRjxw6MGzdO19nZy1lnzJgRNWrU0C8ZQkNDrSOJ6O/CAERkKAYg+jdJ6ewxY8ZoJy5fvnzJQahcuXLo1auXVq86deqUdTSRazt37hx+/PFHfPnll7qmx/5+kVHURo0a6d5bMt2UiP4ZDEBEhmIAokdBNkyVkrwyjUf+sNg7djlz5kTLli31m25Z2M21QuRqrly5olNHp02bBj8/Pzz99NPJ749ixYqhWbNmmDJlCi5cuGDdgoj+KQxARIZiAKJHTarD9ejRQ89BLy+v5M6e7GEiZbTnzZuHXbt2cf8SMpbsp7V3714tENK5c2c8++yzye8D2WC4YsWKWkDkhx9+uKsTRkT/LAYgIkMxANHj4tChQzryI99wSyUrT0/P5E5g6dKltcyvdAAPHz6MmzdvWrciSpukJPyxY8ewcuVKXcPjWMLa3d1dy8fLNLeRI0fys5noEWEAIjIUAxA9jmTB94ABA1CnTh0ULVpUF3vbO4c+Pj5a5nfFihVaRe7y5cvWrYgeb9KZkgAvo56DBw/W8ztdunR6Xst/ZfPgl19+Gf369dPCIYmJidYtiehRYAAiMhQDED3O5FtyKev7ySef6CLwvHnzJgchafJH6YMPPtBpcrIY/Pz589xslR4bUtlQ1uqEh4cjODhYNwR23LNHWp48ebRMfJcuXTTUR0ZGWrcmokeNAYjIUAxAlFbIxo+LFy/WdUFSNU4WhzuW1M6ePTuaNm2KgIAAbNy4EWfOnGFnkv51UVFROHv2LLZu3YqgoCAt6pE7d+7k81Smtz311FM6zbNdu3ZaDITFPogeTwxARIZiAKK0SKrISXngvn37ombNmlpSO2vWrMmdTPs5LeuGQkJCdPNI+SZeOqfx8fHWvRD9NTJFTQoYSIA5efIkli1bhj59+qB69epInz598rmYJUsWHb2U6Zv2tWxS7Y2IHm8MQESGYgCitEzCTExMjE4xGjt2LJo3b67rKKRyln2zSGny/7K2QqbSzZ07VwsuXLp0SQOR4x81ovuR800Cj6w7k8Aj09p69+6NunXr4sknn0w+32TNmj30+Pr66n49O3fu1OIdDOBEaQcDEJGhGIDIFNKxlPU/8m38okWL8OGHH2plLQk/Hh4e2imVb+VlsblMQ5LSwrJ+SN4Du3fv1m/kpXMr6za4+JxEXFychhbpBEnBjenTp6Nr166oWrWqjjjK+SRNzi05p+Rck6lt77//vk5tkzVpEtAZeojSJgYgIkMxAJGJJMBIx1Omyu3Zs0c3lZT9VV566SXtuGbIkCG54yojRfJtvfyBk40nhw8frlOU5Bt+WUMk9yOhKCEhwbp3Mo2cLxJ25LWWUcGIiAgtSDBq1Cjt/JQtW1bPGzlX5JyR80eanDcSpCXwTJw4UasXSodJ7ofnC1HaxwBEZCgGIHIF8odLvsmXQgpHjhzRDSd79uypZYileIJ96pJ0aqWwgnR2ZUqT/NGTReyyT8vs2bN1pEg2ZI2NjdX7ZCc37ZGwI6+dvIYSduRz77vvvsPXX3+NVq1a4YUXXtDXXs4BORck8NjPD7msRo0aunGvnA8y9dI+cigBiojMwgBEZCgGIHJFElwc13IsX75c9xaSKnLPPPOMBiF7p1dGiqQjLEFJShbLLv0NGjRA9+7dMWHCBC3TLfch0+9kqpPcN6fQPXryGshrIa+JhBMZ1Vm/fj0mT56sa8Fef/11FC9eXF/THDly6Gssr7X9dbfvyyPHSbGNJUuW4OjRo8lrxzitjch8DEBEhmIAIkoiI0TSuT19+rSO9CxcuBD9+/dH27ZtdZqTp6dncudYmkyHklAkJY0LFy6sO/fLYnj5YylhaurUqQgNDdXd/rk30T9PQs6JEyewZs0azJgxQ1+7Tp06aViVdTnyGknpdAk7sl7H8bWUNWIy8vP222/jyy+/1BGhXbt24dSpU7qmTMIyEbkeBiAiQzEAEd2bPRTJCI9stLpy5UpdF+Lv749XXnlFRw8cO9LSZOQgc+bMOo2qQIECOsognWsJRx07dtRwJKMQ33//PTZv3qyjCrJWie5P1mNJOfMtW7boGi1Z1zVgwABdf9OwYUPdG6pEiRIoWLAgcuXKpetzHEd07M3b21unsclrYV/vJevEJDzZww5H8IhIMAARGYoBiOjhyNoRWfchowMSijZt2oT58+drqWOZFvfGG2/oiJF0wlN2vqXJSJKEo/z58+t0utKlS2u1umrVquG1115Dhw4ddIrW4MGDNSjJPkaysatUIZOqYtevX7/rD3FaJdPTJNTI/kyyLkvCoITCKVOmYOjQobpG691330Xjxo11Xx15TmUkR54zCZby/ErQTO05zpkzpwYiuW2XLl30/qT8+YYNGzTsSKCV6Y8cmSOi+2EAIjIUAxDR30OCkfyxPHv2rO4zJBXB1q1bp+Fo5MiRunC+RYsWqFy5soYfx32KUrZ7jSJVqlRJSzDL5q9SwEE6+LJwX0YzJHzJJpyDBg3CmDFjdAqePPbSpUt15Oqnn37S6WGyDkbCxrZt23Sa1969e3HgwAENITIKImtlzp07p2FL/i2XySiVBDAJfHIbuW1YWJgGCrlPuW95DHks2Rvn22+/1X2ZJMRJAQn53WU6Wps2bdCkSRMdDZN9mWRjUHk+HnT0xt6kMIFMZ5PgKOu2pOT5sGHDNOTIz7N9+3b9eeXnl8IXDDpE9GcwABEZigGI6J8n61PkD+mZM2c0bEiAkHAkpZYlpAQFBeGbb75Bt27ddM1R/fr1tXMvgSDl2qP7NQlO9oINEiTy5cuna1+ksEOxYsU0ZJQsWVL/mEtp5+eff17Dh4yuSBCRMuFVqlTRYCJN/i2XyXVyTPny5TWIyW1l5ErWPcl9yn3LY8hjSbjLnTu3/gwpCwv8UZO1OBL45HEkJEm4k313ZNqgBKp58+bpc7Z27Vps3bpVP7PsIUdKlRMR/Z0YgIgMxQBE9HiQUQr5YysjL1I4QaZqySiLFFKQqWEyuiFT4gIDA3WURyqTyaiPjP5IUPD19UXt2rX1vSx/rKWCmax3kQAlIyYSjlIGjr+ryX3LiJYEHi8vLw0xEo4kONWqVUsrqUmBAceRqoEDB2L06NH6O8mmofI7rl69Wken5HeXUScZiZLnhCM4RPQoMAARGYoBiCjtkRLMstmm7EkkRRpk2p1MVZNpXxIeZHREpqdJoJARk2XLlun0NCnlvGjRIp2mJiNPMqIi4WPWrFlaOU2mzclngpT3Hj9+vP5bLps+fTpmzpypx8pt5LZyH3Jfcp9y3/IY8ljymDLNTn4GqaYnP5MUL5CfUYoMyM8cHR3NMtJE9NhjACIyFAMQERERkTMGICJDMQAREREROWMAIjIUAxARERGRMwYgIkMxABERERE5YwAiMhQDEBEREZEzBiAiQzEAERERETljACIyFAMQERERkTMGICJDMQAREREROWMAIjIUAxARERGRMwYgIkMxABERERE5YwAiMhQDEBEREZEzBiAiQzEAERERETljACIyFAMQERERkTMGICJDMQAREREROWMAIjIUAxARERGRMwYgIkMxABERERE5YwAiMhQDEBEREZEzBiAiQzEAERERETljACIyFAMQERERkTMGICJDMQAREREROWMAIjIUAxARERGRMwYgIkMxABERERE5YwAiMhQDEBEREZEzBiAiQzEAERERETljACIyFAMQERERkTMGICJDMQAREREROWMAIjIUAxARERGRMwYgIkMxABERERE5YwAiMhQDEBEREZEzBiAiQzEAERERETljACIyFAMQERERkTMGICJDMQAREREROWMAIjKUYwAKDw+3LiUiIiJybdeuXWMAIjKRPQD5+Pjg2LFj1qVEREREru369evw9/dnACIyjT0AlSlTBuPHj8f06dMxbdo0NjY2NjY2NjaXbTNmzMCkSZPg6+vLAERkmqCgIA1AbGxsbGxsbGxszq1IkSJISEiwek4MQERpXnBwMEqXLq3fbpQqVQolS5ZkY2NjY2NjY3P5Jv0i6R81adKEAYjIJImJiYiPj2djY2NjY2NjY7tHc8QARERERERELoMBiIiIiIiIXATw//vEMRd3lG3aAAAAAElFTkSuQmCC;" vertex="1" parent="1">
          <mxGeometry x="-107" y="144" width="375.28" height="470" as="geometry" />
        </mxCell>
        <mxCell id="1yy5hDjs8YzAuO8riWnv-19" style="edgeStyle=none;rounded=0;orthogonalLoop=1;jettySize=auto;html=1;endArrow=none;endFill=0;entryX=0.001;entryY=0.568;entryDx=0;entryDy=0;entryPerimeter=0;" edge="1" parent="1" source="1yy5hDjs8YzAuO8riWnv-2" target="1yy5hDjs8YzAuO8riWnv-12">
          <mxGeometry relative="1" as="geometry" />
        </mxCell>
        <mxCell id="1yy5hDjs8YzAuO8riWnv-20" style="edgeStyle=none;rounded=0;orthogonalLoop=1;jettySize=auto;html=1;entryX=0;entryY=0.5;entryDx=0;entryDy=0;endArrow=none;endFill=0;" edge="1" parent="1" source="1yy5hDjs8YzAuO8riWnv-2" target="1yy5hDjs8YzAuO8riWnv-13">
          <mxGeometry relative="1" as="geometry" />
        </mxCell>
        <mxCell id="1yy5hDjs8YzAuO8riWnv-21" style="edgeStyle=none;rounded=0;orthogonalLoop=1;jettySize=auto;html=1;entryX=0.03;entryY=0.339;entryDx=0;entryDy=0;endArrow=none;endFill=0;entryPerimeter=0;" edge="1" parent="1" source="1yy5hDjs8YzAuO8riWnv-2" target="1yy5hDjs8YzAuO8riWnv-14">
          <mxGeometry relative="1" as="geometry" />
        </mxCell>
        <mxCell id="1yy5hDjs8YzAuO8riWnv-22" style="edgeStyle=none;rounded=0;orthogonalLoop=1;jettySize=auto;html=1;entryX=0.059;entryY=0.255;entryDx=0;entryDy=0;endArrow=none;endFill=0;entryPerimeter=0;" edge="1" parent="1" source="1yy5hDjs8YzAuO8riWnv-2" target="1yy5hDjs8YzAuO8riWnv-15">
          <mxGeometry relative="1" as="geometry" />
        </mxCell>
        <mxCell id="1yy5hDjs8YzAuO8riWnv-2" value="Player" style="shape=umlActor;verticalLabelPosition=bottom;verticalAlign=top;html=1;outlineConnect=0;" vertex="1" parent="1">
          <mxGeometry x="-693" y="374" width="30" height="60" as="geometry" />
        </mxCell>
        <mxCell id="1yy5hDjs8YzAuO8riWnv-9" value="Start Game" style="ellipse;whiteSpace=wrap;html=1;" vertex="1" parent="1">
          <mxGeometry x="-546.25" y="224" width="120.5" height="50" as="geometry" />
        </mxCell>
        <mxCell id="1yy5hDjs8YzAuO8riWnv-10" value="&lt;span style=&quot;font-family: &amp;quot;Times New Roman&amp;quot;, serif;&quot;&gt;&lt;font style=&quot;font-size: 14px;&quot;&gt;Mysteries of the Unforgotten (the Game)&lt;/font&gt;&lt;/span&gt;" style="text;html=1;align=center;verticalAlign=middle;resizable=0;points=[];autosize=1;strokeColor=none;fillColor=none;" vertex="1" parent="1">
          <mxGeometry x="-610" y="177" width="248" height="29" as="geometry" />
        </mxCell>
        <mxCell id="1yy5hDjs8YzAuO8riWnv-11" value="Select Level" style="ellipse;whiteSpace=wrap;html=1;" vertex="1" parent="1">
          <mxGeometry x="-514" y="282" width="120.5" height="50" as="geometry" />
        </mxCell>
        <mxCell id="1yy5hDjs8YzAuO8riWnv-12" value="COntrol Character" style="ellipse;whiteSpace=wrap;html=1;" vertex="1" parent="1">
          <mxGeometry x="-494" y="347" width="120.5" height="50" as="geometry" />
        </mxCell>
        <mxCell id="1yy5hDjs8YzAuO8riWnv-13" value="View Messages" style="ellipse;whiteSpace=wrap;html=1;" vertex="1" parent="1">
          <mxGeometry x="-494" y="411" width="120.5" height="50" as="geometry" />
        </mxCell>
        <mxCell id="1yy5hDjs8YzAuO8riWnv-14" value="Pause/Resume&amp;nbsp;&lt;div&gt;Game&lt;/div&gt;" style="ellipse;whiteSpace=wrap;html=1;" vertex="1" parent="1">
          <mxGeometry x="-514" y="476" width="120.5" height="50" as="geometry" />
        </mxCell>
        <mxCell id="1yy5hDjs8YzAuO8riWnv-15" value="Restart Level" style="ellipse;whiteSpace=wrap;html=1;" vertex="1" parent="1">
          <mxGeometry x="-543" y="541" width="120.5" height="50" as="geometry" />
        </mxCell>
        <mxCell id="1yy5hDjs8YzAuO8riWnv-16" style="rounded=0;orthogonalLoop=1;jettySize=auto;html=1;entryX=0.077;entryY=0.787;entryDx=0;entryDy=0;entryPerimeter=0;endArrow=none;endFill=0;" edge="1" parent="1" source="1yy5hDjs8YzAuO8riWnv-2" target="1yy5hDjs8YzAuO8riWnv-9">
          <mxGeometry relative="1" as="geometry" />
        </mxCell>
        <mxCell id="1yy5hDjs8YzAuO8riWnv-18" style="edgeStyle=none;rounded=0;orthogonalLoop=1;jettySize=auto;html=1;entryX=0.039;entryY=0.696;entryDx=0;entryDy=0;entryPerimeter=0;endArrow=none;endFill=0;" edge="1" parent="1" source="1yy5hDjs8YzAuO8riWnv-2" target="1yy5hDjs8YzAuO8riWnv-11">
          <mxGeometry relative="1" as="geometry" />
        </mxCell>
      </root>
    </mxGraphModel>
  </diagram>
</mxfile>
